<?xml version="1.0" standalone="yes"?>
<!DOCTYPE svg PUBLIC "-//W3C//DTD SVG 1.1//EN"
 "http://www.w3.org/Graphics/SVG/1.1/DTD/svg11.dtd">
<svg xmlns="http://www.w3.org/2000/svg" version="1.1"
  width="100%" height="100%" viewBox="0 0 1024 768"
  style="fill: none; font-family: Helvetica;
 font: Helvetica;
">

<!-- Creator: NGspice -->

<rect x="0" y="0" width="1024" height="768" fill="black" stroke="none"/>
<text stroke="none" fill="white" font-size="16" x="358" y="752">
Frequency
</text>
<text transform="rotate(-90, 20, 494)"  stroke="none" fill="white" font-size="16" x="20" y="494">
Magnitude in dB / VSWR
</text>
<text stroke="none" fill="white" font-size="16" x="10" y="16">
sp2: bpf10m
</text>
<path stroke="white" d="M85 704l0 -640"/>
<text stroke="none" fill="white" font-size="16" x="70" y="728">
0.0
</text>
<path stroke="white" stroke-dasharray="1,2" d="M194 704l0 -640"/>
<text stroke="none" fill="white" font-size="16" x="174" y="728">
20.0
</text>
<path stroke="white" stroke-dasharray="1,2" d="M303 704l0 -640"/>
<text stroke="none" fill="white" font-size="16" x="283" y="728">
40.0
</text>
<path stroke="white" stroke-dasharray="1,2" d="M412 704l0 -640"/>
<text stroke="none" fill="white" font-size="16" x="392" y="728">
60.0
</text>
<path stroke="white" stroke-dasharray="1,2" d="M521 704l0 -640"/>
<text stroke="none" fill="white" font-size="16" x="501" y="728">
80.0
</text>
<path stroke="white" stroke-dasharray="1,2" d="M630 704l0 -640"/>
<text stroke="none" fill="white" font-size="16" x="605" y="728">
100.0
</text>
<path stroke="white" stroke-dasharray="1,2" d="M739 704l0 -640"/>
<text stroke="none" fill="white" font-size="16" x="714" y="728">
120.0
</text>
<path stroke="white" stroke-dasharray="1,2" d="M848 704l0 -640"/>
<text stroke="none" fill="white" font-size="16" x="823" y="728">
140.0
</text>
<path stroke="white" stroke-dasharray="1,2" d="M957 704l0 -640"/>
<text stroke="none" fill="white" font-size="16" x="932" y="728">
160.0
</text>
<text stroke="none" fill="white" font-size="16" x="614" y="752">
MHz
</text>
<path stroke="white" stroke-dasharray="1,2" d="M85 704l872 0"/>
<text stroke="none" fill="white" font-size="16" x="33" y="712">
-70.0
</text>
<path stroke="white" stroke-dasharray="1,2" d="M85 624l872 0"/>
<text stroke="none" fill="white" font-size="16" x="33" y="632">
-60.0
</text>
<path stroke="white" stroke-dasharray="1,2" d="M85 544l872 0"/>
<text stroke="none" fill="white" font-size="16" x="33" y="552">
-50.0
</text>
<path stroke="white" stroke-dasharray="1,2" d="M85 464l872 0"/>
<text stroke="none" fill="white" font-size="16" x="33" y="472">
-40.0
</text>
<path stroke="white" stroke-dasharray="1,2" d="M85 384l872 0"/>
<text stroke="none" fill="white" font-size="16" x="33" y="392">
-30.0
</text>
<path stroke="white" stroke-dasharray="1,2" d="M85 304l872 0"/>
<text stroke="none" fill="white" font-size="16" x="33" y="312">
-20.0
</text>
<path stroke="white" stroke-dasharray="1,2" d="M85 224l872 0"/>
<text stroke="none" fill="white" font-size="16" x="33" y="232">
-10.0
</text>
<path stroke="white" d="M85 144l872 0"/>
<text stroke="none" fill="white" font-size="16" x="53" y="152">
0.0
</text>
<path stroke="white" stroke-dasharray="1,2" d="M85 64l872 0"/>
<text stroke="none" fill="white" font-size="16" x="43" y="72">
10.0
</text>
<text stroke="none" fill="white" font-size="16" x="10" y="32">
     
</text>
<path stroke="red" d="M436 23l43 0"/>
<text stroke="none" fill="white" font-size="16" x="489" y="32">
vdb(s_1_1)
</text>
<path stroke="red" d="M90 144l29 0M119 145l0 -1M119 145l24 0M143 146l0 -1M143 146l16 0M159 147l0 -1M159 147l11 0 1 1 9 0M180 149l0 -1M180 149l9 0M189 150l0 -1M189 150l7 0M196 151l0 -1M196 151l6 0 1 1 5 0M208 153l0 -1M208 153l6 0M214 154l0 -1"/>
<path stroke="red" d="M214 154l4 0 1 1 4 0M223 156l0 -1M223 156l4 0M227 157l0 -1M227 157l4 0M231 158l0 -1M231 158l4 0M235 159l0 -1M235 159l3 0M238 160l0 -1M238 160l3 0 1 1 3 0M245 162l0 -1M245 162l2 0 1 1 2 0M250 164l0 -1M250 164l3 0M253 165l0 -1"/>
<path stroke="red" d="M253 165l2 0M255 166l0 -1M255 166l3 0M258 167l0 -1M258 167l2 0M260 168l0 -1M260 168l2 0M262 169l0 -1M262 169l3 0M265 170l0 -1M265 170l2 0M267 171l0 -1M267 171l2 0M269 172l0 -1M269 172l2 0M271 173l0 -1M271 173l1 0 1 1 1 0"/>
<path stroke="red" d="M274 175l0 -1M274 175l2 0M276 176l0 -1M276 176l2 0M278 177l0 -1M278 177l1 0M279 178l0 -1M279 178l2 0M281 179l0 -1M281 179l1 0 1 1 1 0M284 181l0 -1M284 181l1 0 1 1 1 0M287 183l0 -1M287 183l1 0M288 184l0 -1M288 184l2 0M290 185l0 -1"/>
<path stroke="red" d="M290 185l1 0M291 186l0 -1M291 186l1 0M292 187l0 -1M292 187l1 0 1 1 1 0M295 189l0 -1M295 189l1 0M296 190l0 -1M296 190l1 0M297 191l0 -1M297 191l1 0M298 192l0 -1M298 192l1 0M299 193l0 -1M299 193l1 0 1 1 1 0M302 195l0 -1M302 195l1 0"/>
<path stroke="red" d="M303 196l0 -1M303 196l1 0M304 197l0 -1M304 197l1 0M305 198l0 -1M305 198l1 0M306 199l0 -1M306 199l1 0M307 200l0 -1M307 200l2 2M309 203l0 -1M309 203l1 0M310 204l0 -1M310 204l1 0M311 205l0 -1M311 205l1 0M312 206l0 -1M312 206l1 0"/>
<path stroke="red" d="M313 207l0 -1M313 207l1 0M314 208l0 -1M314 208l1 1M315 210l0 -1M315 210l1 0M316 211l0 -1M316 211l1 0M317 212l0 -1M317 212l1 0M318 214l0 -2M318 214l1 0M319 215l0 -1M319 215l1 0M320 216l0 -1M320 216l1 1M321 218l0 -1M321 218l1 0"/>
<path stroke="red" d="M322 219l0 -1M322 219l1 1M323 221l0 -1M323 221l1 0M324 222l0 -1M324 222l1 1M325 224l0 -1M325 224l1 0M326 226l0 -2M326 226l1 0M327 227l0 -1M327 227l1 0M328 229l0 -2M328 229l1 0M329 231l0 -2M329 231l1 0M330 233l0 -2M330 233l1 0"/>
<path stroke="red" d="M331 235l0 -2M331 235l1 0M332 237l0 -2M332 237l1 0M333 238l0 -1M333 238l1 1M334 241l0 -2M334 241l1 0M335 243l0 -2M335 243l1 0M336 245l0 -2M336 245l1 0M337 247l0 -2M337 247l1 0M338 250l0 -3M338 250l1 0M339 252l0 -2M339 252l1 0"/>
<path stroke="red" d="M340 254l0 -2M340 254l1 1M341 257l0 -2M341 257l1 0M342 260l0 -3M342 260l1 0M343 263l0 -3M343 263l1 0M344 266l0 -3M344 266l1 0M345 269l0 -3M345 269l1 0M346 272l0 -3M346 272l1 0M347 275l0 -3M347 275l1 1M348 279l0 -3M348 279l1 0"/>
<path stroke="red" d="M349 283l0 -4M349 283l1 0M350 287l0 -4M350 287l1 0M351 291l0 -4M351 291l1 0M352 295l0 -4M352 295l1 1M353 300l0 -4M353 300l1 1M354 305l0 -4M354 305l1 1M355 311l0 -5M355 311l1 0M356 316l0 -5M356 316l1 1M357 323l0 -6M357 323l1 1"/>
<path stroke="red" d="M358 330l0 -6M358 330l1 1M359 338l0 -7M359 338l1 1M360 347l0 -8M360 347l1 1M361 358l0 -10M361 358l1 0M362 369l0 -11M362 369l1 1M363 385l0 -15M363 385l1 1M364 403l0 -17M364 403l1 1M365 427l0 -23M365 427l1 2M366 468l0 -39"/>
<path stroke="red" d="M366 468l1 5M367 565l0 -92M367 565l1 20M368 704l0 -187 1 -9 0 -58 1 -4 0 -28 1 -2 0 -19 1 -2 0 -14 1 -2 0 -12 1 -1 0 -10 1 -1 0 -9 1 0 0 -9 1 0 0 -7 1 0 0 -6 1 -1 0 -6 1 0 0 -5 1 -1 0 -4 1 -1 0 -4 1 -1 0 -3 1 -1 0 -3 1 -1"/>
<path stroke="red" d="M385 293l0 -4 1 0 0 -3 1 0 0 -3 1 -1 0 -3 1 0 0 -3 1 0 0 -3 1 0 0 -3 1 0 0 -2 1 -1 0 -2 1 0 0 -2 1 -1 0 -2 1 0 0 -2 1 0 0 -2 1 0 0 -2 1 -1 0 -1 1 -1 0 -1 1 0 0 -2 1 0 0 -2 1 0 0 -2 1 0 0 -1 1 -1 0 -1 1 0 0 -2 1 0 0 -1 1 0"/>
<path stroke="red" d="M408 238l0 -2 1 0 0 -1 1 0 0 -2 1 0 0 -1 1 0 0 -2 1 0 0 -1 1 0 0 -1 1 0 0 -1 1 -1 0 -1 1 0 0 -1 1 0 0 -1 1 0 0 -1 1 0 0 -1 1 0 0 -1 1 0 0 -1 1 0 0 -1 1 0 0 -1 1 0 0 -1 1 0 0 -1 1 0 0 -1 1 0 0 -1 1 0 0 -1 1 0 0 -1 1 0 0 -1"/>
<path stroke="red" d="M431 210l1 0 0 -1 1 0 0 -1 2 0 0 -1 1 0 0 -1 1 0 0 -1 2 0 0 -1 1 0 0 -1 1 0 0 -1 2 0 0 -1 1 0 0 -1 2 0 0 -1 1 0 1 -1 1 0 0 -1 2 0 0 -1 1 0 1 -1 1 0 0 -1 2 0 0 -1 2 0 0 -1 2 0 0 -1 2 0 0 -1 2 0 0 -1 2 0 0 -1 2 0 1 -1 2 0"/>
<path stroke="red" d="M471 187l0 -1 2 0 0 -1 3 0 0 -1 2 0 0 -1 3 0 0 -1 3 0 0 -1 3 0 0 -1 3 0 0 -1 3 0 0 -1 3 0 1 -1 3 0 0 -1 4 0 0 -1 3 0 1 -1 4 0 0 -1 4 0 0 -1 4 0 0 -1 5 0 0 -1 5 0 0 -1 6 0 0 -1 5 0 1 -1 6 0 0 -1 6 0 0 -1 7 0 0 -1 8 0 0 -1"/>
<path stroke="red" d="M569 163l8 0 0 -1 9 0 0 -1 10 0 0 -1 11 0 0 -1 12 0 0 -1 13 0 0 -1 15 0 1 -1 17 0 0 -1 19 0 0 -1 23 0 0 -1 27 0 0 -1 32 0 0 -1 40 0 0 -1 50 0 1 -1 46 0"/>
<path stroke="blue" d="M85 23l43 0"/>
<text stroke="none" fill="white" font-size="16" x="138" y="32">
vdb(s_2_1)
</text>
<path stroke="blue" d="M90 420l1 -1 0 -10 1 -1 0 -10 1 -1 0 -8 1 0 0 -7 1 -1 0 -7 1 0 0 -6 1 0 0 -5 1 -1 0 -5 1 -1 0 -4 1 0 0 -5 1 0 0 -4 1 0 0 -4 1 0 0 -4 1 0 0 -4 1 0 0 -3 1 0 0 -3 1 -1 0 -3 1 0 0 -3 1 0 0 -3 1 0 0 -2 1 -1 0 -2 1 0 0 -3 1 0"/>
<path stroke="blue" d="M113 307l0 -2 1 0 0 -3 1 0 0 -2 1 0 0 -2 1 0 0 -3 1 0 0 -2 1 0 0 -2 1 0 0 -2 1 0 0 -2 1 0 0 -2 1 0 0 -1 1 -1 0 -1 1 0 0 -2 1 0 0 -2 1 0 0 -2 1 0 0 -1 1 0 0 -2 1 0 0 -1 1 -1 0 -1 1 0 0 -1 1 -1 0 -1 1 0 0 -1 1 -1 0 -1 1 0"/>
<path stroke="blue" d="M136 264l0 -1 1 0 0 -2 1 0 0 -1 1 0 0 -1 1 0 0 -2 1 0 0 -1 1 0 0 -1 1 0 0 -1 1 -1 0 -1 1 0 0 -1 1 0 0 -1 1 0 0 -1 1 0 0 -1 1 0 0 -2 1 0 0 -1 1 0 0 -1 1 0 0 -1 1 0 0 -1 1 0 0 -1 1 0 0 -1 1 0 0 -1 1 0 0 -1 1 0 0 -1 1 0 0 -1"/>
<path stroke="blue" d="M159 236l1 0 0 -1 1 0 0 -1 1 0 0 -1 1 0 0 -1 1 0 0 -1 1 0 0 -1 1 0 0 -1 1 0 0 -1 1 0 0 -1 1 0 0 -1 1 0 1 -1 1 0 0 -1 1 0 0 -1 1 0 0 -1 1 0 0 -1 1 0 0 -1 2 0 0 -1 1 0 0 -1 1 0 0 -1 1 0 0 -1 1 0 1 -1 1 0 0 -1 1 0 0 -1 1 0"/>
<path stroke="blue" d="M186 213l0 -1 2 0 0 -1 1 0 0 -1 1 0 0 -1 2 0 0 -1 1 0 0 -1 1 0 0 -1 2 0 0 -1 1 0 0 -1 2 0 0 -1 1 0 0 -1 2 0 0 -1 1 0 0 -1 2 0 0 -1 1 0 0 -1 2 0 0 -1 1 0 0 -1 2 0 0 -1 1 0 0 -1 2 0 0 -1 2 0 0 -1 1 0 0 -1 2 0 0 -1 1 0 0 -1"/>
<path stroke="blue" d="M220 189l2 0 0 -1 2 0 0 -1 2 0 0 -1 1 0 0 -1 2 0 0 -1 2 0 0 -1 2 0 0 -1 1 0 1 -1 1 0 0 -1 2 0 0 -1 2 0 0 -1 2 0 0 -1 2 0 0 -1 2 0 0 -1 2 0 0 -1 2 0 0 -1 2 0 0 -1 2 0 0 -1 2 0 0 -1 2 0 0 -1 3 0 0 -1 2 0 0 -1 2 0 0 -1 2 0"/>
<path stroke="blue" d="M267 166l0 -1 3 0 0 -1 2 0 0 -1 3 0 0 -1 2 0 0 -1 3 0 0 -1 2 0 1 -1 2 0 0 -1 3 0 0 -1 3 0 0 -1 3 0 0 -1 3 0 0 -1 4 0 0 -1 3 0 0 -1 4 0 0 -1 4 0 0 -1 4 0 0 -1 5 0 0 -1 5 0 0 -1 6 0 1 -1 7 0 0 -1 12 0 0 -1 33 0M385 145l0 -1"/>
<path stroke="blue" d="M385 145l13 0M398 146l0 -1M398 146l10 0M408 147l0 -1M408 147l8 0M416 148l0 -1M416 148l8 0M424 149l0 -1M424 149l7 0M431 150l0 -1M431 150l6 0M437 151l0 -1M437 151l7 0M444 152l0 -1M444 152l6 0M450 153l0 -1M450 153l6 0M456 154l0 -1"/>
<path stroke="blue" d="M456 154l6 0M462 155l0 -1M462 155l5 0M467 156l0 -1M467 156l6 0M473 157l0 -1M473 157l6 0M479 158l0 -1M479 158l5 0M484 159l0 -1M484 159l6 0M490 160l0 -1M490 160l5 0 1 1 5 0M501 162l0 -1M501 162l6 0M507 163l0 -1M507 163l5 0"/>
<path stroke="blue" d="M512 164l0 -1M512 164l6 0M518 165l0 -1M518 165l5 0M523 166l0 -1M523 166l6 0M529 167l0 -1M529 167l6 0M535 168l0 -1M535 168l5 0 1 1 5 0M546 170l0 -1M546 170l6 0M552 171l0 -1M552 171l6 0M558 172l0 -1M558 172l6 0M564 173l0 -1"/>
<path stroke="blue" d="M564 173l6 0M570 174l0 -1M570 174l6 0M576 175l0 -1M576 175l6 0M582 176l0 -1M582 176l6 0M588 177l0 -1M588 177l6 0M594 178l0 -1M594 178l7 0M601 179l0 -1M601 179l6 0M607 180l0 -1M607 180l6 0 1 1 6 0M620 182l0 -1M620 182l7 0"/>
<path stroke="blue" d="M627 183l0 -1M627 183l6 0M633 184l0 -1M633 184l7 0M640 185l0 -1M640 185l7 0M647 186l0 -1M647 186l7 0M654 187l0 -1M654 187l7 0M661 188l0 -1M661 188l7 0M668 189l0 -1M668 189l7 0M675 190l0 -1M675 190l8 0M683 191l0 -1M683 191l7 0"/>
<path stroke="blue" d="M690 192l0 -1M690 192l8 0M698 193l0 -1M698 193l7 0M705 194l0 -1M705 194l8 0M713 195l0 -1M713 195l8 0M721 196l0 -1M721 196l8 0M729 197l0 -1M729 197l8 0M737 198l0 -1M737 198l8 0M745 199l0 -1M745 199l9 0M754 200l0 -1M754 200l8 0"/>
<path stroke="blue" d="M762 201l0 -1M762 201l9 0M771 202l0 -1M771 202l8 0M779 203l0 -1M779 203l9 0M788 204l0 -1M788 204l9 0M797 205l0 -1M797 205l9 0M806 206l0 -1M806 206l10 0M816 207l0 -1M816 207l9 0M825 208l0 -1M825 208l9 0 1 1 9 0M844 210l0 -1"/>
<path stroke="blue" d="M844 210l10 0M854 211l0 -1M854 211l10 0M864 212l0 -1M864 212l10 0M874 213l0 -1M874 213l10 0M884 214l0 -1M884 214l11 0M895 215l0 -1M895 215l8 0"/>
<path stroke="#FFA500" d="M436 39l43 0"/>
<text stroke="none" fill="white" font-size="16" x="489" y="48">
vswr
</text>
<path stroke="#FFA500" d="M232 64l1 0M233 65l0 -1M233 65l1 0M234 67l0 -2M234 67l1 0M235 68l0 -1M235 68l1 0M236 70l0 -2M236 70l1 0M237 71l0 -1M237 71l1 0M238 72l0 -1M238 72l1 0M239 74l0 -2M239 74l1 0M240 75l0 -1M240 75l1 0M241 76l0 -1M241 76l1 0"/>
<path stroke="#FFA500" d="M242 78l0 -2M242 78l1 0M243 79l0 -1M243 79l1 0M244 80l0 -1M244 80l1 0M245 81l0 -1M245 81l1 0M246 82l0 -1M246 82l1 1M247 84l0 -1M247 84l1 0M248 85l0 -1M248 85l1 0M249 86l0 -1M249 86l1 0M250 87l0 -1M250 87l1 0M251 88l0 -1"/>
<path stroke="#FFA500" d="M251 88l1 0M252 89l0 -1M252 89l1 0M253 90l0 -1M253 90l1 0M254 91l0 -1M254 91l1 0M255 92l0 -1M255 92l1 0M256 93l0 -1M256 93l1 0M257 94l0 -1M257 94l1 0M258 95l0 -1M258 95l1 0M259 96l0 -1M259 96l1 0 1 1 1 0M262 98l0 -1"/>
<path stroke="#FFA500" d="M262 98l1 0M263 99l0 -1M263 99l1 0M264 100l0 -1M264 100l1 0M265 101l0 -1M265 101l2 0M267 102l0 -1M267 102l1 0M268 103l0 -1M268 103l1 0M269 104l0 -1M269 104l2 0M271 105l0 -1M271 105l1 0M272 106l0 -1M272 106l2 0M274 107l0 -1"/>
<path stroke="#FFA500" d="M274 107l1 0M275 108l0 -1M275 108l2 0M277 109l0 -1M277 109l1 0M278 110l0 -1M278 110l2 0M280 111l0 -1M280 111l2 0M282 112l0 -1M282 112l1 0M283 113l0 -1M283 113l2 0M285 114l0 -1M285 114l2 0M287 115l0 -1M287 115l2 0M289 116l0 -1"/>
<path stroke="#FFA500" d="M289 116l2 0M291 117l0 -1M291 117l2 0M293 118l0 -1M293 118l2 0 1 1 2 0M298 120l0 -1M298 120l2 0M300 121l0 -1M300 121l3 0M303 122l0 -1M303 122l2 0 1 1 2 0M308 124l0 -1M308 124l3 0M311 125l0 -1M311 125l3 0M314 126l0 -1"/>
<path stroke="#FFA500" d="M314 126l4 0M318 127l0 -1M318 127l3 0M321 128l0 -1M321 128l4 0M325 129l0 -1M325 129l4 0M329 130l0 -1M329 130l5 0M334 131l0 -1M334 131l4 0M338 132l0 -1M338 132l6 0M344 133l0 -1M344 133l6 0M350 134l0 -1M350 134l6 0M356 135l0 -1"/>
<path stroke="#FFA500" d="M356 135l8 0M364 136l0 -1M364 136l8 0 0 -1 8 0 0 -1 7 0 0 -1 7 0 0 -1 7 0 0 -1 6 0 0 -1 6 0 0 -1 5 0 0 -1 6 0 0 -1 5 0 0 -1 5 0 0 -1 5 0 0 -1 4 0 0 -1 5 0 0 -1 4 0 0 -1 5 0 0 -1 4 0 0 -1 4 0 0 -1 4 0 0 -1 4 0 0 -1 4 0"/>
<path stroke="#FFA500" d="M477 116l0 -1 4 0 0 -1 3 0 0 -1 4 0 0 -1 4 0 0 -1 3 0 0 -1 4 0 0 -1 3 0 0 -1 4 0 0 -1 3 0 0 -1 3 0 1 -1 3 0 0 -1 3 0 0 -1 3 0 0 -1 3 0 0 -1 3 0 1 -1 3 0 0 -1 3 0 0 -1 3 0 0 -1 3 0 0 -1 3 0 0 -1 3 0 0 -1 3 0 0 -1 2 0"/>
<path stroke="#FFA500" d="M552 93l0 -1 3 0 0 -1 3 0 0 -1 3 0 0 -1 3 0 0 -1 3 0 0 -1 2 0 0 -1 3 0 0 -1 3 0 0 -1 2 0 0 -1 3 0 0 -1 3 0 0 -1 2 0 0 -1 3 0 0 -1 3 0 0 -1 2 0 0 -1 3 0 0 -1 2 0 0 -1 3 0 0 -1 2 0 0 -1 3 0 0 -1 2 0 0 -1 3 0 0 -1 2 0 0 -1"/>
<path stroke="#FFA500" d="M613 69l2 0 1 -1 2 0 0 -1 2 0 0 -1 3 0 0 -1 2 0 0 -1 2 0"/>
</svg>
