<?xml version="1.0" standalone="yes"?>
<!DOCTYPE svg PUBLIC "-//W3C//DTD SVG 1.1//EN"
 "http://www.w3.org/Graphics/SVG/1.1/DTD/svg11.dtd">
<svg xmlns="http://www.w3.org/2000/svg" version="1.1"
  width="100%" height="100%" viewBox="0 0 1024 768"
  style="fill: none; font-family: Helvetica;
 font: Helvetica;
">

<!-- Creator: NGspice -->

<rect x="0" y="0" width="1024" height="768" fill="black" stroke="none"/>
<text stroke="none" fill="white" font-size="16" x="358" y="752">
Frequency
</text>
<text transform="rotate(-90, 20, 494)"  stroke="none" fill="white" font-size="16" x="20" y="494">
Magnitude in dB / VSWR
</text>
<text stroke="none" fill="white" font-size="16" x="10" y="16">
sp3: bpf15m
</text>
<path stroke="white" d="M85 704l0 -640"/>
<text stroke="none" fill="white" font-size="16" x="70" y="728">
0.0
</text>
<path stroke="white" stroke-dasharray="1,2" d="M194 704l0 -640"/>
<text stroke="none" fill="white" font-size="16" x="174" y="728">
20.0
</text>
<path stroke="white" stroke-dasharray="1,2" d="M303 704l0 -640"/>
<text stroke="none" fill="white" font-size="16" x="283" y="728">
40.0
</text>
<path stroke="white" stroke-dasharray="1,2" d="M412 704l0 -640"/>
<text stroke="none" fill="white" font-size="16" x="392" y="728">
60.0
</text>
<path stroke="white" stroke-dasharray="1,2" d="M521 704l0 -640"/>
<text stroke="none" fill="white" font-size="16" x="501" y="728">
80.0
</text>
<path stroke="white" stroke-dasharray="1,2" d="M630 704l0 -640"/>
<text stroke="none" fill="white" font-size="16" x="605" y="728">
100.0
</text>
<path stroke="white" stroke-dasharray="1,2" d="M739 704l0 -640"/>
<text stroke="none" fill="white" font-size="16" x="714" y="728">
120.0
</text>
<path stroke="white" stroke-dasharray="1,2" d="M848 704l0 -640"/>
<text stroke="none" fill="white" font-size="16" x="823" y="728">
140.0
</text>
<path stroke="white" stroke-dasharray="1,2" d="M957 704l0 -640"/>
<text stroke="none" fill="white" font-size="16" x="932" y="728">
160.0
</text>
<text stroke="none" fill="white" font-size="16" x="614" y="752">
MHz
</text>
<path stroke="white" stroke-dasharray="1,2" d="M85 704l872 0"/>
<text stroke="none" fill="white" font-size="16" x="33" y="712">
-70.0
</text>
<path stroke="white" stroke-dasharray="1,2" d="M85 624l872 0"/>
<text stroke="none" fill="white" font-size="16" x="33" y="632">
-60.0
</text>
<path stroke="white" stroke-dasharray="1,2" d="M85 544l872 0"/>
<text stroke="none" fill="white" font-size="16" x="33" y="552">
-50.0
</text>
<path stroke="white" stroke-dasharray="1,2" d="M85 464l872 0"/>
<text stroke="none" fill="white" font-size="16" x="33" y="472">
-40.0
</text>
<path stroke="white" stroke-dasharray="1,2" d="M85 384l872 0"/>
<text stroke="none" fill="white" font-size="16" x="33" y="392">
-30.0
</text>
<path stroke="white" stroke-dasharray="1,2" d="M85 304l872 0"/>
<text stroke="none" fill="white" font-size="16" x="33" y="312">
-20.0
</text>
<path stroke="white" stroke-dasharray="1,2" d="M85 224l872 0"/>
<text stroke="none" fill="white" font-size="16" x="33" y="232">
-10.0
</text>
<path stroke="white" d="M85 144l872 0"/>
<text stroke="none" fill="white" font-size="16" x="53" y="152">
0.0
</text>
<path stroke="white" stroke-dasharray="1,2" d="M85 64l872 0"/>
<text stroke="none" fill="white" font-size="16" x="43" y="72">
10.0
</text>
<text stroke="none" fill="white" font-size="16" x="10" y="32">
     
</text>
<path stroke="red" d="M436 23l43 0"/>
<text stroke="none" fill="white" font-size="16" x="489" y="32">
vdb(s_1_1)
</text>
<path stroke="red" d="M90 144l25 0M115 145l0 -1M115 145l19 0 1 1 11 0M146 147l0 -1M146 147l8 0M154 148l0 -1M154 148l6 0M160 149l0 -1M160 149l5 0M165 150l0 -1M165 150l4 0M169 151l0 -1M169 151l3 0M172 152l0 -1M172 152l4 0M176 153l0 -1M176 153l2 0"/>
<path stroke="red" d="M178 154l0 -1M178 154l3 0M181 155l0 -1M181 155l2 0M183 156l0 -1M183 156l2 0M185 157l0 -1M185 157l2 0M187 158l0 -1M187 158l2 0M189 159l0 -1M189 159l1 0M190 160l0 -1M190 160l2 0M192 161l0 -1M192 161l1 0M193 162l0 -1M193 162l1 0"/>
<path stroke="red" d="M194 163l0 -1M194 163l2 0M196 164l0 -1M196 164l1 0M197 165l0 -1M197 165l1 0M198 166l0 -1M198 166l1 0M199 167l0 -1M199 167l1 0M200 168l0 -1M200 168l1 0M201 169l0 -1M201 169l1 0M202 170l0 -1M202 170l1 0M203 172l0 -2M203 172l1 0"/>
<path stroke="red" d="M204 173l0 -1M204 173l1 0M205 174l0 -1M205 174l1 0M206 176l0 -2M206 176l1 0M207 177l0 -1M207 177l1 0M208 179l0 -2M208 179l1 0M209 180l0 -1M209 180l1 1M210 182l0 -1M210 182l1 0M211 184l0 -2M211 184l1 0M212 186l0 -2M212 186l1 0"/>
<path stroke="red" d="M213 188l0 -2M213 188l1 0M214 190l0 -2M214 190l1 1M215 193l0 -2M215 193l1 0M216 195l0 -2M216 195l1 1M217 198l0 -2M217 198l1 0M218 201l0 -3M218 201l1 0M219 204l0 -3M219 204l1 0M220 207l0 -3M220 207l1 0M221 211l0 -4M221 211l1 0"/>
<path stroke="red" d="M222 214l0 -3M222 214l1 0M223 218l0 -4M223 218l1 1M224 223l0 -4M224 223l1 0M225 227l0 -4M225 227l1 1M226 233l0 -5M226 233l1 0M227 238l0 -5M227 238l1 0M228 244l0 -6M228 244l1 0M229 251l0 -7M229 251l1 1M230 258l0 -6M230 258l1 1"/>
<path stroke="red" d="M231 267l0 -8M231 267l1 0M232 277l0 -10M232 277l1 1M233 288l0 -10M233 288l1 1M234 302l0 -13M234 302l1 1M235 320l0 -17M235 320l1 1M236 342l0 -21M236 342l1 2M237 374l0 -30M237 374l1 4M238 438l0 -60M238 438l1 9M239 704l0 -257"/>
<path stroke="red" d="M239 472l1 -12 0 -73 1 -4 0 -33 1 -2 0 -23 1 -2 0 -16 1 -1 0 -12 1 -1 0 -11 1 -1 0 -9 1 0 0 -8 1 -1 0 -7 1 0 0 -6 1 0 0 -6 1 0 0 -5 1 -1 0 -4 1 0 0 -4 1 -1 0 -3 1 -1 0 -3 1 -1 0 -3 1 0 0 -3 1 0 0 -3 1 0 0 -3 1 0 0 -2 1 -1"/>
<path stroke="red" d="M261 206l0 -2 1 0 0 -2 1 0 0 -2 1 -1 0 -2 1 0 0 -1 1 -1 0 -1 1 0 0 -2 1 0 0 -2 1 0 0 -1 1 0 0 -2 1 0 0 -1 1 0 0 -2 1 0 0 -1 1 0 0 -1 1 0 0 -1 1 0 0 -1 1 0 0 -1 1 -1 1 0 0 -1 1 0 0 -1 1 0 0 -1 1 0 0 -1 1 0 0 -1 1 0 0 -1 2 0"/>
<path stroke="red" d="M286 172l0 -1 1 0 0 -1 1 0 1 -1 1 0 0 -1 2 0 0 -1 1 0 1 -1 1 0 0 -1 2 0 0 -1 3 0 0 -1 2 0 0 -1 3 0 0 -1 2 0 1 -1 3 0 0 -1 3 0 0 -1 4 0 0 -1 4 0 0 -1 5 0 0 -1 6 0 0 -1 6 0 0 -1 8 0 0 -1 9 0 1 -1 11 0 0 -1 15 0 0 -1 20 0 0 -1"/>
<path stroke="red" d="M403 148l28 0 0 -1 45 0 0 -1 88 0 1 -1 301 0 0 -1 37 0"/>
<path stroke="blue" d="M85 23l43 0"/>
<text stroke="none" fill="white" font-size="16" x="138" y="32">
vdb(s_2_1)
</text>
<path stroke="blue" d="M90 413l1 -1 0 -10 1 -1 0 -10 1 -1 0 -7 1 -1 0 -7 1 -1 0 -6 1 -1 0 -6 1 0 0 -5 1 -1 0 -5 1 -1 0 -4 1 0 0 -5 1 0 0 -4 1 -1 0 -3 1 -1 0 -3 1 -1 0 -3 1 0 0 -4 1 0 0 -3 1 0 0 -3 1 0 0 -4 1 0 0 -2 1 -1 0 -2 1 -1 0 -2 1 0 0 -3"/>
<path stroke="blue" d="M112 299l1 0 0 -2 1 -1 0 -2 1 0 0 -3 1 0 0 -2 1 0 0 -2 1 -1 0 -2 1 0 0 -2 1 0 0 -2 1 0 0 -2 1 0 0 -2 1 0 0 -2 1 0 0 -2 1 0 0 -2 1 0 0 -2 1 0 0 -2 1 0 0 -2 1 0 0 -1 1 0 0 -2 1 0 0 -2 1 0 0 -2 1 0 0 -1 1 -1 0 -1 1 0 0 -2"/>
<path stroke="blue" d="M135 252l1 0 0 -1 1 0 0 -2 1 0 0 -1 1 -1 0 -1 1 0 0 -2 1 0 0 -1 1 0 0 -2 1 0 0 -1 1 0 0 -2 1 0 0 -1 1 0 0 -2 1 0 0 -1 1 0 0 -1 1 0 0 -2 1 0 0 -1 1 0 0 -2 1 0 0 -1 1 0 0 -1 1 0 0 -2 1 0 0 -1 1 0 0 -1 1 -1 0 -1 1 0 0 -1 1 0"/>
<path stroke="blue" d="M159 219l0 -1 1 -1 0 -1 1 0 0 -1 1 0 0 -1 1 0 0 -2 1 0 0 -1 1 0 0 -1 1 0 0 -1 1 -1 0 -1 1 0 0 -1 1 0 0 -1 1 0 0 -2 1 0 0 -1 1 0 0 -1 1 0 0 -1 1 0 0 -2 1 0 0 -1 1 0 0 -1 1 0 0 -1 1 0 0 -2 1 0 0 -1 1 0 0 -1 1 0 0 -1 1 0 0 -1"/>
<path stroke="blue" d="M182 189l1 0 0 -2 1 0 0 -1 1 0 0 -1 1 0 0 -1 1 0 0 -1 1 0 0 -1 1 -1 0 -1 1 0 0 -1 1 0 0 -1 1 0 0 -1 1 0 0 -1 1 0 0 -1 1 0 0 -1 1 -1 0 -1 1 0 0 -1 1 0 0 -1 1 0 0 -1 1 0 0 -1 1 0 0 -1 1 0 0 -1 1 0 0 -1 1 0 0 -1 1 0 0 -1 1 0"/>
<path stroke="blue" d="M206 163l0 -1 1 0 0 -1 1 0 0 -1 1 0 0 -1 1 0 0 -1 1 0 0 -1 1 0 0 -1 1 0 0 -1 2 0 0 -1 1 0 0 -1 1 0 0 -1 1 0 1 -1 1 0 0 -1 1 0 1 -1 1 0 0 -1 2 0 0 -1 2 0 0 -1 3 0 0 -1 4 0 0 -1 11 0M245 145l0 -1M245 145l4 0M249 146l0 -1"/>
<path stroke="blue" d="M249 146l3 0M252 147l0 -1M252 147l2 0 1 1 2 0M257 149l0 -1M257 149l2 0M259 150l0 -1M259 150l2 0M261 151l0 -1M261 151l2 0M263 152l0 -1M263 152l2 0M265 153l0 -1M265 153l1 0 1 1 1 0M268 155l0 -1M268 155l2 0M270 156l0 -1M270 156l2 0"/>
<path stroke="blue" d="M272 157l0 -1M272 157l1 0M273 158l0 -1M273 158l2 0M275 159l0 -1M275 159l2 0M277 160l0 -1M277 160l1 0M278 161l0 -1M278 161l2 0M280 162l0 -1M280 162l1 0 1 1 1 0M283 164l0 -1M283 164l2 0M285 165l0 -1M285 165l1 0M286 166l0 -1"/>
<path stroke="blue" d="M286 166l2 0M288 167l0 -1M288 167l2 0M290 168l0 -1M290 168l1 0M291 169l0 -1M291 169l2 0M293 170l0 -1M293 170l2 0M295 171l0 -1M295 171l1 0M296 172l0 -1M296 172l2 0M298 173l0 -1M298 173l2 0M300 174l0 -1M300 174l2 0M302 175l0 -1"/>
<path stroke="blue" d="M302 175l1 0M303 176l0 -1M303 176l2 0M305 177l0 -1M305 177l2 0M307 178l0 -1M307 178l2 0M309 179l0 -1M309 179l2 0M311 180l0 -1M311 180l1 0 1 1 1 0M314 182l0 -1M314 182l2 0M316 183l0 -1M316 183l2 0M318 184l0 -1M318 184l2 0"/>
<path stroke="blue" d="M320 185l0 -1M320 185l2 0M322 186l0 -1M322 186l2 0M324 187l0 -1M324 187l2 0M326 188l0 -1M326 188l2 0M328 189l0 -1M328 189l2 0M330 190l0 -1M330 190l2 0M332 191l0 -1M332 191l2 0 1 1 2 0M337 193l0 -1M337 193l2 0M339 194l0 -1"/>
<path stroke="blue" d="M339 194l2 0M341 195l0 -1M341 195l2 0 1 1 2 0M346 197l0 -1M346 197l2 0M348 198l0 -1M348 198l2 0M350 199l0 -1M350 199l3 0M353 200l0 -1M353 200l2 0M355 201l0 -1M355 201l3 0M358 202l0 -1M358 202l2 0M360 203l0 -1M360 203l3 0"/>
<path stroke="blue" d="M363 204l0 -1M363 204l3 0M366 205l0 -1M366 205l2 0M368 206l0 -1M368 206l3 0M371 207l0 -1M371 207l3 0M374 208l0 -1M374 208l2 0M376 209l0 -1M376 209l3 0M379 210l0 -1M379 210l3 0M382 211l0 -1M382 211l3 0M385 212l0 -1M385 212l3 0"/>
<path stroke="blue" d="M388 213l0 -1M388 213l3 0M391 214l0 -1M391 214l3 0M394 215l0 -1M394 215l3 0M397 216l0 -1M397 216l3 0M400 217l0 -1M400 217l3 0 1 1 3 0M407 219l0 -1M407 219l3 0M410 220l0 -1M410 220l3 0M413 221l0 -1M413 221l4 0M417 222l0 -1"/>
<path stroke="blue" d="M417 222l3 0M420 223l0 -1M420 223l4 0M424 224l0 -1M424 224l3 0M427 225l0 -1M427 225l4 0M431 226l0 -1M431 226l4 0M435 227l0 -1M435 227l4 0M439 228l0 -1M439 228l3 0 1 1 3 0M446 230l0 -1M446 230l4 0M450 231l0 -1M450 231l4 0"/>
<path stroke="blue" d="M454 232l0 -1M454 232l4 0 1 1 4 0M463 234l0 -1M463 234l4 0M467 235l0 -1M467 235l4 0M471 236l0 -1M471 236l4 0 1 1 4 0M480 238l0 -1M480 238l4 0 1 1 4 0M489 240l0 -1M489 240l5 0M494 241l0 -1M494 241l4 0 1 1 4 0M503 243l0 -1"/>
<path stroke="blue" d="M503 243l5 0M508 244l0 -1M508 244l5 0M513 245l0 -1M513 245l5 0M518 246l0 -1M518 246l5 0 1 1 5 0M529 248l0 -1M529 248l5 0M534 249l0 -1M534 249l5 0M539 250l0 -1M539 250l6 0M545 251l0 -1M545 251l6 0M551 252l0 -1M551 252l5 0"/>
<path stroke="blue" d="M556 253l0 -1M556 253l6 0M562 254l0 -1M562 254l6 0M568 255l0 -1M568 255l6 0M574 256l0 -1M574 256l6 0M580 257l0 -1M580 257l6 0M586 258l0 -1M586 258l6 0M592 259l0 -1M592 259l7 0M599 260l0 -1M599 260l6 0M605 261l0 -1M605 261l7 0"/>
<path stroke="blue" d="M612 262l0 -1M612 262l6 0M618 263l0 -1M618 263l7 0M625 264l0 -1M625 264l7 0M632 265l0 -1M632 265l7 0M639 266l0 -1M639 266l7 0M646 267l0 -1M646 267l7 0M653 268l0 -1M653 268l7 0 1 1 7 0M668 270l0 -1M668 270l8 0M676 271l0 -1"/>
<path stroke="blue" d="M676 271l7 0M683 272l0 -1M683 272l8 0M691 273l0 -1M691 273l8 0M699 274l0 -1M699 274l8 0M707 275l0 -1M707 275l8 0M715 276l0 -1M715 276l8 0M723 277l0 -1M723 277l9 0M732 278l0 -1M732 278l8 0M740 279l0 -1M740 279l9 0M749 280l0 -1"/>
<path stroke="blue" d="M749 280l9 0M758 281l0 -1M758 281l9 0M767 282l0 -1M767 282l9 0M776 283l0 -1M776 283l9 0M785 284l0 -1M785 284l10 0M795 285l0 -1M795 285l9 0M804 286l0 -1M804 286l10 0M814 287l0 -1M814 287l10 0M824 288l0 -1M824 288l10 0M834 289l0 -1"/>
<path stroke="blue" d="M834 289l10 0M844 290l0 -1M844 290l10 0M854 291l0 -1M854 291l10 0 1 1 10 0M875 293l0 -1M875 293l11 0M886 294l0 -1M886 294l11 0M897 295l0 -1M897 295l6 0"/>
<path stroke="#FFA500" d="M436 39l43 0"/>
<text stroke="none" fill="white" font-size="16" x="489" y="48">
vswr
</text>
<path stroke="#FFA500" d="M188 67l0 -3M188 67l1 0M189 70l0 -3M189 70l1 0M190 73l0 -3M190 73l1 0M191 76l0 -3M191 76l1 0M192 78l0 -2M192 78l1 1M193 81l0 -2M193 81l1 0M194 84l0 -3M194 84l1 0M195 86l0 -2M195 86l1 1M196 89l0 -2M196 89l1 0M197 91l0 -2"/>
<path stroke="#FFA500" d="M197 91l1 0M198 93l0 -2M198 93l1 0M199 95l0 -2M199 95l1 1M200 98l0 -2M200 98l1 0M201 100l0 -2M201 100l1 0M202 101l0 -1M202 101l1 1M203 103l0 -1M203 103l1 0M204 105l0 -2M204 105l1 0M205 107l0 -2M205 107l1 0M206 108l0 -1"/>
<path stroke="#FFA500" d="M206 108l1 0M207 110l0 -2M207 110l1 0M208 111l0 -1M208 111l1 0M209 113l0 -2M209 113l1 0M210 114l0 -1M210 114l1 0M211 116l0 -2M211 116l1 0M212 117l0 -1M212 117l1 0M213 118l0 -1M213 118l1 0M214 119l0 -1M214 119l1 0M215 120l0 -1"/>
<path stroke="#FFA500" d="M215 120l1 0M216 121l0 -1M216 121l1 0M217 122l0 -1M217 122l1 0M218 123l0 -1M218 123l1 0M219 124l0 -1M219 124l1 0M220 125l0 -1M220 125l1 0M221 126l0 -1M221 126l1 0M222 127l0 -1M222 127l1 0M223 128l0 -1M223 128l2 0M225 129l0 -1"/>
<path stroke="#FFA500" d="M225 129l1 0M226 130l0 -1M226 130l2 0M228 131l0 -1M228 131l1 0M229 132l0 -1M229 132l2 0M231 133l0 -1M231 133l2 0M233 134l0 -1M233 134l2 0M235 135l0 -1M235 135l3 0M238 136l0 -1M238 136l2 0 1 -1 2 0 0 -1 2 0 0 -1 3 0 0 -1"/>
<path stroke="#FFA500" d="M248 132l2 0 0 -1 1 0 0 -1 2 0 0 -1 2 0 0 -1 2 0 0 -1 1 0 0 -1 2 0 0 -1 1 0 0 -1 2 0 0 -1 1 0 0 -1 1 0 0 -1 2 0 0 -1 1 0 0 -1 1 0 0 -1 1 0 0 -1 2 0 0 -1 1 0 0 -1 1 0 0 -1 1 0 0 -1 1 0 0 -1 1 0 0 -1 1 0 0 -1 1 0 0 -1"/>
<path stroke="#FFA500" d="M279 109l1 0 0 -1 1 0 0 -1 1 0 0 -1 1 0 0 -1 1 0 0 -1 1 0 0 -1 1 0 0 -1 1 0 0 -1 1 0 0 -1 1 0 0 -1 1 0 0 -1 1 0 0 -1 1 -1 0 -1 1 0 0 -1 1 0 0 -1 1 0 0 -1 1 0 0 -1 1 -1 0 -1 1 0 0 -1 1 0 0 -1 1 0 0 -1 1 0 0 -2 1 0 0 -1"/>
<path stroke="#FFA500" d="M302 83l1 0 0 -1 1 0 0 -2 1 0 0 -1 1 0 0 -1 1 0 0 -2 1 0 0 -1 1 0 0 -1 1 -1 0 -1 1 0 0 -1 1 0 0 -2 1 0 0 -1 1 0 0 -1 1 -1 0 -1 1 0 0 -1"/>
</svg>
