<?xml version="1.0" standalone="yes"?>
<!DOCTYPE svg PUBLIC "-//W3C//DTD SVG 1.1//EN"
 "http://www.w3.org/Graphics/SVG/1.1/DTD/svg11.dtd">
<svg xmlns="http://www.w3.org/2000/svg" version="1.1"
  width="100%" height="100%" viewBox="0 0 1024 768"
  style="fill: none; font-family: Helvetica;
 font: Helvetica;
">

<!-- Creator: NGspice -->

<rect x="0" y="0" width="1024" height="768" fill="black" stroke="none"/>
<text stroke="none" fill="white" font-size="16" x="358" y="752">
Frequency
</text>
<text transform="rotate(-90, 20, 494)"  stroke="none" fill="white" font-size="16" x="20" y="494">
Magnitude in dB / VSWR
</text>
<text stroke="none" fill="white" font-size="16" x="10" y="16">
sp4: bpf20m
</text>
<path stroke="white" d="M85 704l0 -640"/>
<text stroke="none" fill="white" font-size="16" x="70" y="728">
0.0
</text>
<path stroke="white" stroke-dasharray="1,2" d="M194 704l0 -640"/>
<text stroke="none" fill="white" font-size="16" x="174" y="728">
20.0
</text>
<path stroke="white" stroke-dasharray="1,2" d="M303 704l0 -640"/>
<text stroke="none" fill="white" font-size="16" x="283" y="728">
40.0
</text>
<path stroke="white" stroke-dasharray="1,2" d="M412 704l0 -640"/>
<text stroke="none" fill="white" font-size="16" x="392" y="728">
60.0
</text>
<path stroke="white" stroke-dasharray="1,2" d="M521 704l0 -640"/>
<text stroke="none" fill="white" font-size="16" x="501" y="728">
80.0
</text>
<path stroke="white" stroke-dasharray="1,2" d="M630 704l0 -640"/>
<text stroke="none" fill="white" font-size="16" x="605" y="728">
100.0
</text>
<path stroke="white" stroke-dasharray="1,2" d="M739 704l0 -640"/>
<text stroke="none" fill="white" font-size="16" x="714" y="728">
120.0
</text>
<path stroke="white" stroke-dasharray="1,2" d="M848 704l0 -640"/>
<text stroke="none" fill="white" font-size="16" x="823" y="728">
140.0
</text>
<path stroke="white" stroke-dasharray="1,2" d="M957 704l0 -640"/>
<text stroke="none" fill="white" font-size="16" x="932" y="728">
160.0
</text>
<text stroke="none" fill="white" font-size="16" x="614" y="752">
MHz
</text>
<path stroke="white" stroke-dasharray="1,2" d="M85 704l872 0"/>
<text stroke="none" fill="white" font-size="16" x="33" y="712">
-70.0
</text>
<path stroke="white" stroke-dasharray="1,2" d="M85 624l872 0"/>
<text stroke="none" fill="white" font-size="16" x="33" y="632">
-60.0
</text>
<path stroke="white" stroke-dasharray="1,2" d="M85 544l872 0"/>
<text stroke="none" fill="white" font-size="16" x="33" y="552">
-50.0
</text>
<path stroke="white" stroke-dasharray="1,2" d="M85 464l872 0"/>
<text stroke="none" fill="white" font-size="16" x="33" y="472">
-40.0
</text>
<path stroke="white" stroke-dasharray="1,2" d="M85 384l872 0"/>
<text stroke="none" fill="white" font-size="16" x="33" y="392">
-30.0
</text>
<path stroke="white" stroke-dasharray="1,2" d="M85 304l872 0"/>
<text stroke="none" fill="white" font-size="16" x="33" y="312">
-20.0
</text>
<path stroke="white" stroke-dasharray="1,2" d="M85 224l872 0"/>
<text stroke="none" fill="white" font-size="16" x="33" y="232">
-10.0
</text>
<path stroke="white" d="M85 144l872 0"/>
<text stroke="none" fill="white" font-size="16" x="53" y="152">
0.0
</text>
<path stroke="white" stroke-dasharray="1,2" d="M85 64l872 0"/>
<text stroke="none" fill="white" font-size="16" x="43" y="72">
10.0
</text>
<text stroke="none" fill="white" font-size="16" x="10" y="32">
     
</text>
<path stroke="red" d="M436 23l43 0"/>
<text stroke="none" fill="white" font-size="16" x="489" y="32">
vdb(s_1_1)
</text>
<path stroke="red" d="M90 144l13 0M103 145l0 -1M103 145l11 0 1 1 6 0M121 147l0 -1M121 147l5 0M126 148l0 -1M126 148l4 0M130 149l0 -1M130 149l3 0M133 150l0 -1M133 150l3 0M136 151l0 -1M136 151l2 0M138 152l0 -1M138 152l2 0M140 153l0 -1M140 153l2 0"/>
<path stroke="red" d="M142 154l0 -1M142 154l2 0M144 155l0 -1M144 155l1 0M145 156l0 -1M145 156l1 0M146 157l0 -1M146 157l2 0M148 158l0 -1M148 158l1 0M149 159l0 -1M149 159l1 0M150 160l0 -1M150 160l1 0M151 161l0 -1M151 161l1 0M152 162l0 -1M152 162l1 1"/>
<path stroke="red" d="M153 164l0 -1M153 164l1 0M154 165l0 -1M154 165l1 0M155 166l0 -1M155 166l1 1M156 168l0 -1M156 168l1 0M157 170l0 -2M157 170l1 0M158 171l0 -1M158 171l1 1M159 174l0 -2M159 174l1 0M160 176l0 -2M160 176l1 0M161 178l0 -2M161 178l1 0"/>
<path stroke="red" d="M162 180l0 -2M162 180l1 1M163 183l0 -2M163 183l1 0M164 186l0 -3M164 186l1 0M165 189l0 -3M165 189l1 1M166 193l0 -3M166 193l1 0M167 196l0 -3M167 196l1 1M168 201l0 -4M168 201l1 0M169 205l0 -4M169 205l1 1M170 210l0 -4M170 210l1 1"/>
<path stroke="red" d="M171 216l0 -5M171 216l1 0M172 222l0 -6M172 222l1 1M173 229l0 -6M173 229l1 1M174 237l0 -7M174 237l1 1M175 247l0 -9M175 247l1 0M176 257l0 -10M176 257l1 1M177 269l0 -11M177 269l1 2M178 286l0 -15M178 286l1 1M179 306l0 -19M179 306l1 2"/>
<path stroke="red" d="M180 334l0 -26M180 334l1 3M181 388l0 -51M181 388l1 6M182 652l0 -258M182 576l1 -59 0 -137 1 -5 0 -44 1 -2 0 -24 1 -1 0 -17 1 -2 0 -14 1 -1 0 -10 1 -1 0 -9 1 -1 0 -7 1 -1 0 -7 1 0 0 -6 1 0 0 -6 1 0 0 -5 1 0 0 -4 1 -1 0 -3"/>
<path stroke="red" d="M196 209l1 -1 0 -3 1 -1 0 -3 1 0 0 -3 1 0 0 -3 1 0 0 -2 1 -1 0 -2 1 0 0 -2 1 0 0 -2 1 0 0 -2 1 0 0 -2 1 0 0 -2 1 0 0 -1 1 0 0 -2 1 0 0 -1 1 0 0 -1 1 0 0 -2 1 0 0 -1 1 0 0 -1 1 0 0 -1 1 0 0 -1 1 0 0 -1 1 0 0 -1 2 0 0 -1 1 0"/>
<path stroke="red" d="M221 166l0 -1 1 0 0 -1 2 0 0 -1 2 0 0 -1 1 0 0 -1 2 0 0 -1 2 0 1 -1 2 0 0 -1 2 0 1 -1 2 0 1 -1 3 0 0 -1 4 0 0 -1 4 0 0 -1 6 0 0 -1 6 0 0 -1 8 0 0 -1 10 0 0 -1 14 0 0 -1 19 0 1 -1 31 0 0 -1 60 0 0 -1 206 0 0 -1 291 0"/>
<path stroke="blue" d="M85 23l43 0"/>
<text stroke="none" fill="white" font-size="16" x="138" y="32">
vdb(s_2_1)
</text>
<path stroke="blue" d="M90 376l1 -1 0 -10 1 -1 0 -10 1 -1 0 -7 1 -1 0 -7 1 -1 0 -7 1 0 0 -6 1 0 0 -6 1 0 0 -5 1 -1 0 -4 1 -1 0 -4 1 -1 0 -4 1 0 0 -4 1 -1 0 -3 1 0 0 -4 1 -1 0 -3 1 0 0 -3 1 -1 0 -3 1 0 0 -3 1 0 0 -3 1 -1 0 -2 1 -1 0 -2 1 -1 0 -2"/>
<path stroke="blue" d="M112 260l1 -1 0 -2 1 0 0 -3 1 0 0 -3 1 0 0 -2 1 0 0 -3 1 0 0 -2 1 0 0 -3 1 0 0 -2 1 0 0 -2 1 -1 0 -2 1 0 0 -2 1 0 0 -2 1 -1 0 -2 1 0 0 -2 1 0 0 -2 1 0 0 -2 1 0 0 -2 1 0 0 -2 1 -1 0 -1 1 -1 0 -1 1 -1 0 -2 1 0 0 -2 1 0 0 -1"/>
<path stroke="blue" d="M135 207l1 -1 0 -2 1 0 0 -1 1 -1 0 -1 1 -1 0 -1 1 0 0 -2 1 0 0 -2 1 0 0 -2 1 0 0 -2 1 0 0 -2 1 0 0 -2 1 0 0 -2 1 0 0 -1 1 0 0 -2 1 0 0 -2 1 0 0 -2 1 0 0 -1 1 -1 0 -1 1 0 0 -2 1 0 0 -2 1 0 0 -1 1 0 0 -2 1 0 0 -1 1 -1 0 -1"/>
<path stroke="blue" d="M158 165l1 0 0 -2 1 0 0 -1 1 0 0 -2 1 0 0 -1 1 0 0 -1 1 0 0 -2 1 0 0 -1 1 0 0 -1 1 0 0 -1 1 0 0 -1 2 -2 1 0 0 -1 1 0 0 -1 1 0 0 -1 1 0 0 -1 2 0 0 -1 3 0 0 -1 7 0M186 145l0 -1M186 145l3 0M189 146l0 -1M189 146l2 0M191 147l0 -1"/>
<path stroke="blue" d="M191 147l2 0M193 148l0 -1M193 148l1 0M194 149l0 -1M194 149l2 0M196 150l0 -1M196 150l1 0M197 151l0 -1M197 151l2 0M199 152l0 -1M199 152l1 0M200 153l0 -1M200 153l1 0M201 154l0 -1M201 154l1 0M202 155l0 -1M202 155l1 0M203 156l0 -1"/>
<path stroke="blue" d="M203 156l2 0M205 157l0 -1M205 157l1 0M206 158l0 -1M206 158l1 0M207 159l0 -1M207 159l1 0M208 160l0 -1M208 160l1 0M209 161l0 -1M209 161l1 0M210 162l0 -1M210 162l1 0M211 163l0 -1M211 163l2 0M213 164l0 -1M213 164l1 0M214 165l0 -1"/>
<path stroke="blue" d="M214 165l1 0M215 166l0 -1M215 166l1 0M216 167l0 -1M216 167l1 0M217 168l0 -1M217 168l1 0M218 169l0 -1M218 169l1 0M219 170l0 -1M219 170l1 0 1 1 1 0M222 172l0 -1M222 172l1 0M223 173l0 -1M223 173l1 0M224 174l0 -1M224 174l1 0"/>
<path stroke="blue" d="M225 175l0 -1M225 175l1 0M226 176l0 -1M226 176l2 0M228 177l0 -1M228 177l1 0M229 178l0 -1M229 178l1 0M230 179l0 -1M230 179l1 0 1 1 1 0M233 181l0 -1M233 181l1 0M234 182l0 -1M234 182l1 0M235 183l0 -1M235 183l2 0M237 184l0 -1"/>
<path stroke="blue" d="M237 184l1 0M238 185l0 -1M238 185l1 0M239 186l0 -1M239 186l2 0M241 187l0 -1M241 187l1 0M242 188l0 -1M242 188l2 0M244 189l0 -1M244 189l1 0M245 190l0 -1M245 190l1 0 1 1 1 0M248 192l0 -1M248 192l1 0M249 193l0 -1M249 193l2 0"/>
<path stroke="blue" d="M251 194l0 -1M251 194l1 0 1 1 1 0M254 196l0 -1M254 196l2 0M256 197l0 -1M256 197l1 0M257 198l0 -1M257 198l2 0M259 199l0 -1M259 199l2 0M261 200l0 -1M261 200l1 0M262 201l0 -1M262 201l2 0M264 202l0 -1M264 202l2 0M266 203l0 -1"/>
<path stroke="blue" d="M266 203l1 0 1 1 1 0M269 205l0 -1M269 205l2 0M271 206l0 -1M271 206l2 0M273 207l0 -1M273 207l2 0M275 208l0 -1M275 208l2 0M277 209l0 -1M277 209l2 0M279 210l0 -1M279 210l2 0M281 211l0 -1M281 211l2 0M283 212l0 -1M283 212l2 0"/>
<path stroke="blue" d="M285 213l0 -1M285 213l2 0M287 214l0 -1M287 214l2 0M289 215l0 -1M289 215l2 0M291 216l0 -1M291 216l2 0M293 217l0 -1M293 217l2 0 1 1 2 0M298 219l0 -1M298 219l2 0M300 220l0 -1M300 220l2 0M302 221l0 -1M302 221l3 0M305 222l0 -1"/>
<path stroke="blue" d="M305 222l2 0M307 223l0 -1M307 223l2 0 1 1 2 0M312 225l0 -1M312 225l3 0M315 226l0 -1M315 226l2 0M317 227l0 -1M317 227l3 0M320 228l0 -1M320 228l2 0M322 229l0 -1M322 229l3 0M325 230l0 -1M325 230l3 0M328 231l0 -1M328 231l3 0"/>
<path stroke="blue" d="M331 232l0 -1M331 232l2 0M333 233l0 -1M333 233l3 0M336 234l0 -1M336 234l3 0M339 235l0 -1M339 235l3 0M342 236l0 -1M342 236l3 0M345 237l0 -1M345 237l3 0M348 238l0 -1M348 238l3 0M351 239l0 -1M351 239l3 0M354 240l0 -1M354 240l4 0"/>
<path stroke="blue" d="M358 241l0 -1M358 241l3 0M361 242l0 -1M361 242l3 0M364 243l0 -1M364 243l4 0M368 244l0 -1M368 244l3 0M371 245l0 -1M371 245l3 0 1 1 3 0M378 247l0 -1M378 247l4 0M382 248l0 -1M382 248l3 0M385 249l0 -1M385 249l4 0M389 250l0 -1"/>
<path stroke="blue" d="M389 250l4 0M393 251l0 -1M393 251l4 0M397 252l0 -1M397 252l3 0 1 1 3 0 1 1 3 0M408 255l0 -1M408 255l4 0 1 1 4 0M417 257l0 -1M417 257l4 0M421 258l0 -1M421 258l4 0M425 259l0 -1M425 259l5 0M430 260l0 -1M430 260l4 0M434 261l0 -1"/>
<path stroke="blue" d="M434 261l4 0M438 262l0 -1M438 262l5 0M443 263l0 -1M443 263l5 0M448 264l0 -1M448 264l4 0M452 265l0 -1M452 265l5 0M457 266l0 -1M457 266l5 0M462 267l0 -1M462 267l5 0M467 268l0 -1M467 268l5 0M472 269l0 -1M472 269l5 0M477 270l0 -1"/>
<path stroke="blue" d="M477 270l5 0M482 271l0 -1M482 271l5 0M487 272l0 -1M487 272l6 0M493 273l0 -1M493 273l5 0M498 274l0 -1M498 274l6 0M504 275l0 -1M504 275l5 0M509 276l0 -1M509 276l6 0M515 277l0 -1M515 277l6 0M521 278l0 -1M521 278l5 0M526 279l0 -1"/>
<path stroke="blue" d="M526 279l6 0M532 280l0 -1M532 280l6 0M538 281l0 -1M538 281l6 0 1 1 6 0M551 283l0 -1M551 283l6 0M557 284l0 -1M557 284l6 0M563 285l0 -1M563 285l7 0M570 286l0 -1M570 286l6 0 1 1 6 0M583 288l0 -1M583 288l7 0M590 289l0 -1M590 289l7 0"/>
<path stroke="blue" d="M597 290l0 -1M597 290l7 0M604 291l0 -1M604 291l7 0M611 292l0 -1M611 292l7 0M618 293l0 -1M618 293l8 0M626 294l0 -1M626 294l7 0M633 295l0 -1M633 295l8 0M641 296l0 -1M641 296l7 0M648 297l0 -1M648 297l8 0M656 298l0 -1M656 298l8 0"/>
<path stroke="blue" d="M664 299l0 -1M664 299l8 0M672 300l0 -1M672 300l8 0M680 301l0 -1M680 301l8 0M688 302l0 -1M688 302l9 0M697 303l0 -1M697 303l8 0M705 304l0 -1M705 304l9 0M714 305l0 -1M714 305l9 0M723 306l0 -1M723 306l9 0M732 307l0 -1M732 307l9 0"/>
<path stroke="blue" d="M741 308l0 -1M741 308l9 0M750 309l0 -1M750 309l9 0M759 310l0 -1M759 310l10 0M769 311l0 -1M769 311l9 0M778 312l0 -1M778 312l10 0M788 313l0 -1M788 313l10 0M798 314l0 -1M798 314l10 0M808 315l0 -1M808 315l10 0M818 316l0 -1"/>
<path stroke="blue" d="M818 316l10 0 1 1 10 0M839 318l0 -1M839 318l11 0M850 319l0 -1M850 319l10 0M860 320l0 -1M860 320l11 0M871 321l0 -1M871 321l11 0 1 1 11 0M894 323l0 -1M894 323l9 0"/>
<path stroke="#FFA500" d="M436 39l43 0"/>
<text stroke="none" fill="white" font-size="16" x="489" y="48">
vswr
</text>
<path stroke="#FFA500" d="M148 66l0 -2M148 66l1 0M149 71l0 -5M149 71l1 0M150 75l0 -4M150 75l1 0M151 79l0 -4M151 79l1 1M152 84l0 -4M152 84l1 0M153 87l0 -3M153 87l1 1M154 91l0 -3M154 91l1 0M155 94l0 -3M155 94l1 0M156 97l0 -3M156 97l1 1M157 100l0 -2"/>
<path stroke="#FFA500" d="M157 100l1 1M158 103l0 -2M158 103l1 0M159 106l0 -3M159 106l1 0M160 108l0 -2M160 108l1 0M161 111l0 -3M161 111l1 0M162 113l0 -2M162 113l1 0M163 115l0 -2M163 115l1 0M164 117l0 -2M164 117l1 0M165 119l0 -2M165 119l1 0M166 120l0 -1"/>
<path stroke="#FFA500" d="M166 120l1 0M167 122l0 -2M167 122l1 0M168 123l0 -1M168 123l1 0M169 125l0 -2M169 125l1 0M170 126l0 -1M170 126l1 0M171 127l0 -1M171 127l1 0M172 128l0 -1M172 128l1 0M173 129l0 -1M173 129l1 0M174 130l0 -1M174 130l1 0M175 131l0 -1"/>
<path stroke="#FFA500" d="M175 131l1 0M176 132l0 -1M176 132l1 0M177 133l0 -1M177 133l1 0M178 134l0 -1M178 134l2 0M180 135l0 -1M180 135l1 0M181 136l0 -1M181 136l2 0 0 -1 2 0 0 -1 2 0 0 -1 1 0 0 -1 2 0 0 -1 1 0 0 -1 1 0 0 -1 1 0 0 -1 1 0 0 -1 1 0"/>
<path stroke="#FFA500" d="M195 127l4 -4 0 -1 1 0 0 -1 1 0 0 -1 1 0 0 -1 1 0 0 -1 1 0 0 -1 1 0 0 -2 1 0 0 -1 1 0 0 -1 1 0 0 -2 1 0 0 -1 1 0 0 -1 1 -1 0 -1 1 0 0 -1 1 0 0 -2 1 0 0 -1 1 0 0 -2 1 0 0 -2 1 0 0 -1 1 0 0 -2 1 0 0 -2 1 0 0 -1 1 0 0 -2"/>
<path stroke="#FFA500" d="M221 91l1 0 0 -2 1 0 0 -2 1 0 0 -1 1 -1 0 -1 1 0 0 -2 1 0 0 -2 1 0 0 -2 1 0 0 -2 1 0 0 -2 1 0 0 -2 1 0 0 -2 1 0 0 -2 1 0 0 -2 1 0 0 -2"/>
</svg>
