<?xml version="1.0" standalone="yes"?>
<!DOCTYPE svg PUBLIC "-//W3C//DTD SVG 1.1//EN"
 "http://www.w3.org/Graphics/SVG/1.1/DTD/svg11.dtd">
<svg xmlns="http://www.w3.org/2000/svg" version="1.1"
  width="100%" height="100%" viewBox="0 0 1024 768"
  style="fill: none; font-family: Helvetica;
 font: Helvetica;
">

<!-- Creator: NGspice -->

<rect x="0" y="0" width="1024" height="768" fill="black" stroke="none"/>
<text stroke="none" fill="white" font-size="16" x="358" y="752">
Frequency
</text>
<text transform="rotate(-90, 20, 494)"  stroke="none" fill="white" font-size="16" x="20" y="494">
Magnitude in dB / VSWR
</text>
<text stroke="none" fill="white" font-size="16" x="10" y="16">
sp1: bpf6m
</text>
<path stroke="white" d="M85 704l0 -640"/>
<text stroke="none" fill="white" font-size="16" x="70" y="728">
0.0
</text>
<path stroke="white" stroke-dasharray="1,2" d="M194 704l0 -640"/>
<text stroke="none" fill="white" font-size="16" x="174" y="728">
20.0
</text>
<path stroke="white" stroke-dasharray="1,2" d="M303 704l0 -640"/>
<text stroke="none" fill="white" font-size="16" x="283" y="728">
40.0
</text>
<path stroke="white" stroke-dasharray="1,2" d="M412 704l0 -640"/>
<text stroke="none" fill="white" font-size="16" x="392" y="728">
60.0
</text>
<path stroke="white" stroke-dasharray="1,2" d="M521 704l0 -640"/>
<text stroke="none" fill="white" font-size="16" x="501" y="728">
80.0
</text>
<path stroke="white" stroke-dasharray="1,2" d="M630 704l0 -640"/>
<text stroke="none" fill="white" font-size="16" x="605" y="728">
100.0
</text>
<path stroke="white" stroke-dasharray="1,2" d="M739 704l0 -640"/>
<text stroke="none" fill="white" font-size="16" x="714" y="728">
120.0
</text>
<path stroke="white" stroke-dasharray="1,2" d="M848 704l0 -640"/>
<text stroke="none" fill="white" font-size="16" x="823" y="728">
140.0
</text>
<path stroke="white" stroke-dasharray="1,2" d="M957 704l0 -640"/>
<text stroke="none" fill="white" font-size="16" x="932" y="728">
160.0
</text>
<text stroke="none" fill="white" font-size="16" x="614" y="752">
MHz
</text>
<path stroke="white" stroke-dasharray="1,2" d="M85 704l872 0"/>
<text stroke="none" fill="white" font-size="16" x="33" y="712">
-70.0
</text>
<path stroke="white" stroke-dasharray="1,2" d="M85 624l872 0"/>
<text stroke="none" fill="white" font-size="16" x="33" y="632">
-60.0
</text>
<path stroke="white" stroke-dasharray="1,2" d="M85 544l872 0"/>
<text stroke="none" fill="white" font-size="16" x="33" y="552">
-50.0
</text>
<path stroke="white" stroke-dasharray="1,2" d="M85 464l872 0"/>
<text stroke="none" fill="white" font-size="16" x="33" y="472">
-40.0
</text>
<path stroke="white" stroke-dasharray="1,2" d="M85 384l872 0"/>
<text stroke="none" fill="white" font-size="16" x="33" y="392">
-30.0
</text>
<path stroke="white" stroke-dasharray="1,2" d="M85 304l872 0"/>
<text stroke="none" fill="white" font-size="16" x="33" y="312">
-20.0
</text>
<path stroke="white" stroke-dasharray="1,2" d="M85 224l872 0"/>
<text stroke="none" fill="white" font-size="16" x="33" y="232">
-10.0
</text>
<path stroke="white" d="M85 144l872 0"/>
<text stroke="none" fill="white" font-size="16" x="53" y="152">
0.0
</text>
<path stroke="white" stroke-dasharray="1,2" d="M85 64l872 0"/>
<text stroke="none" fill="white" font-size="16" x="43" y="72">
10.0
</text>
<text stroke="none" fill="white" font-size="16" x="10" y="32">
     
</text>
<path stroke="red" d="M436 23l43 0"/>
<text stroke="none" fill="white" font-size="16" x="489" y="32">
vdb(s_1_1)
</text>
<path stroke="red" d="M90 144l62 0M152 145l0 -1M152 145l42 0 1 1 24 0M219 147l0 -1M219 147l18 0M237 148l0 -1M237 148l14 0M251 149l0 -1M251 149l11 0 1 1 9 0M272 151l0 -1M272 151l8 0M280 152l0 -1M280 152l7 0M287 153l0 -1M287 153l6 0 1 1 5 0M299 155l0 -1"/>
<path stroke="red" d="M299 155l5 0M304 156l0 -1M304 156l5 0M309 157l0 -1M309 157l4 0M313 158l0 -1M313 158l4 0M317 159l0 -1M317 159l4 0M321 160l0 -1M321 160l3 0M324 161l0 -1M324 161l3 0M327 162l0 -1M327 162l3 0M330 163l0 -1M330 163l3 0M333 164l0 -1"/>
<path stroke="red" d="M333 164l3 0M336 165l0 -1M336 165l2 0M338 166l0 -1M338 166l3 0M341 167l0 -1M341 167l2 0M343 168l0 -1M343 168l2 0M345 169l0 -1M345 169l2 0M347 170l0 -1M347 170l2 0M349 171l0 -1M349 171l2 0M351 172l0 -1M351 172l2 0M353 173l0 -1"/>
<path stroke="red" d="M353 173l2 0M355 174l0 -1M355 174l1 0M356 175l0 -1M356 175l2 0M358 176l0 -1M358 176l1 0 1 1 1 0M361 178l0 -1M361 178l1 0M362 179l0 -1M362 179l2 0M364 180l0 -1M364 180l1 0M365 181l0 -1M365 181l1 0M366 182l0 -1M366 182l2 0"/>
<path stroke="red" d="M368 183l0 -1M368 183l1 0M369 184l0 -1M369 184l1 0M370 185l0 -1M370 185l1 0M371 186l0 -1M371 186l1 0 1 1 1 0M374 188l0 -1M374 188l1 0M375 189l0 -1M375 189l1 0M376 190l0 -1M376 190l1 0M377 191l0 -1M377 191l1 0M378 192l0 -1"/>
<path stroke="red" d="M378 192l1 0M379 193l0 -1M379 193l1 0M380 194l0 -1M380 194l1 0M381 195l0 -1M381 195l1 1M382 197l0 -1M382 197l1 0M383 198l0 -1M383 198l1 0M384 199l0 -1M384 199l1 0M385 200l0 -1M385 200l1 0M386 201l0 -1M386 201l1 1M387 203l0 -1"/>
<path stroke="red" d="M387 203l1 0M388 204l0 -1M388 204l1 0M389 206l0 -2M389 206l1 0M390 207l0 -1M390 207l1 0M391 208l0 -1M391 208l1 0M392 210l0 -2M392 210l1 0M393 211l0 -1M393 211l1 1M394 213l0 -1M394 213l1 0M395 215l0 -2M395 215l1 0M396 216l0 -1"/>
<path stroke="red" d="M396 216l1 1M397 218l0 -1M397 218l1 0M398 220l0 -2M398 220l1 0M399 222l0 -2M399 222l1 0M400 224l0 -2M400 224l1 0M401 226l0 -2M401 226l1 0M402 228l0 -2M402 228l1 0M403 230l0 -2M403 230l1 0M404 232l0 -2M404 232l1 0M405 235l0 -3"/>
<path stroke="red" d="M405 235l1 0M406 237l0 -2M406 237l1 0M407 239l0 -2M407 239l1 1M408 242l0 -2M408 242l1 0M409 245l0 -3M409 245l1 0M410 248l0 -3M410 248l1 0M411 251l0 -3M411 251l1 0M412 254l0 -3M412 254l1 0M413 257l0 -3M413 257l1 0M414 261l0 -4"/>
<path stroke="red" d="M414 261l1 0M415 264l0 -3M415 264l1 1M416 268l0 -3M416 268l1 0M417 272l0 -4M417 272l1 1M418 277l0 -4M418 277l1 0M419 281l0 -4M419 281l1 0M420 286l0 -5M420 286l1 0M421 292l0 -6M421 292l1 0M422 297l0 -5M422 297l1 1M423 304l0 -6"/>
<path stroke="red" d="M423 304l1 0M424 311l0 -7M424 311l1 1M425 319l0 -7M425 319l1 0M426 327l0 -8M426 327l1 1M427 338l0 -10M427 338l1 1M428 349l0 -10M428 349l1 1M429 363l0 -13M429 363l1 1M430 382l0 -18M430 382l1 1M431 405l0 -22M431 405l1 2M432 440l0 -33"/>
<path stroke="red" d="M432 440l1 4M433 527l0 -83M433 527l1 15M434 704l0 -195 1 -10 0 -61 1 -3 0 -33 1 -2 0 -20 1 -2 0 -15 1 -1 0 -12 1 -1 0 -11 1 -1 0 -9 1 -1 0 -7 1 -1 0 -7 1 -1 0 -6 1 0 0 -6 1 0 0 -6 1 0 0 -5 1 0 0 -4 1 -1 0 -4 1 0 0 -4 1 0"/>
<path stroke="red" d="M451 275l0 -4 1 0 0 -4 1 0 0 -3 1 0 0 -3 1 0 0 -3 1 0 0 -3 1 -1 0 -2 1 0 0 -3 1 0 0 -2 1 -1 0 -2 1 0 0 -2 1 0 0 -2 1 -1 0 -2 1 0 0 -2 1 0 0 -2 1 0 0 -1 1 -1 0 -1 1 0 0 -2 1 0 0 -2 1 0 0 -1 1 -1 0 -1 1 0 0 -2 1 0 0 -1 1 0"/>
<path stroke="red" d="M474 220l0 -2 1 0 0 -1 1 0 0 -1 1 -1 0 -1 1 0 0 -1 1 0 0 -1 1 0 0 -1 1 -1 0 -1 1 0 0 -1 1 0 0 -1 1 0 0 -1 1 0 0 -1 1 0 0 -1 1 0 0 -1 1 0 0 -1 1 0 0 -1 1 0 0 -1 1 0 0 -1 1 0 0 -1 1 0 0 -1 1 0 0 -1 2 0 0 -1 1 0 0 -1 1 0 0 -1"/>
<path stroke="red" d="M498 193l1 0 1 -1 1 0 0 -1 1 0 0 -1 2 0 0 -1 1 0 0 -1 2 0 0 -1 1 0 0 -1 2 0 0 -1 2 0 0 -1 2 0 0 -1 2 0 0 -1 1 0 1 -1 1 0 1 -1 2 0 0 -1 2 0 0 -1 2 0 0 -1 3 0 0 -1 2 0 0 -1 3 0 0 -1 3 0 0 -1 3 0 0 -1 3 0 0 -1 3 0 0 -1 3 0"/>
<path stroke="red" d="M549 170l0 -1 4 0 0 -1 4 0 0 -1 4 0 0 -1 5 0 0 -1 5 0 0 -1 5 0 0 -1 5 0 0 -1 6 0 0 -1 7 0 0 -1 7 0 1 -1 8 0 0 -1 9 0 0 -1 10 0 0 -1 11 0 0 -1 14 0 0 -1 15 0 0 -1 18 0 0 -1 22 0 0 -1 27 0 0 -1 35 0 0 -1 46 0 0 -1 67 0 0 -1"/>
<path stroke="red" d="M884 147l19 0"/>
<path stroke="blue" d="M85 23l43 0"/>
<text stroke="none" fill="white" font-size="16" x="138" y="32">
vdb(s_2_1)
</text>
<path stroke="blue" d="M90 468l1 -1 0 -10 1 -1 0 -10 1 -1 0 -7 1 -1 0 -7 1 -1 0 -6 1 -1 0 -6 1 0 0 -5 1 -1 0 -5 1 0 0 -5 1 0 0 -4 1 -1 0 -4 1 0 0 -4 1 0 0 -4 1 0 0 -4 1 0 0 -3 1 0 0 -3 1 -1 0 -2 1 -1 0 -3 1 0 0 -2 1 -1 0 -2 1 0 0 -3 1 0 0 -3"/>
<path stroke="blue" d="M112 355l1 0 0 -2 1 0 0 -3 1 0 0 -2 1 0 0 -2 1 0 0 -2 1 -1 0 -2 1 0 0 -2 1 0 0 -2 1 0 0 -2 1 0 0 -1 1 -1 0 -1 1 0 0 -2 1 0 0 -2 1 0 0 -2 1 0 0 -1 1 -1 0 -1 1 0 0 -2 1 0 0 -1 1 0 0 -2 1 0 0 -1 1 0 0 -2 1 0 0 -1 1 0 0 -2"/>
<path stroke="blue" d="M135 312l1 0 0 -1 1 0 0 -2 1 0 0 -1 1 0 0 -1 1 0 0 -2 1 0 0 -1 1 0 0 -1 1 0 0 -1 1 0 0 -2 1 0 0 -1 1 0 0 -1 1 0 0 -1 1 0 0 -1 1 0 0 -2 1 0 0 -1 1 0 0 -1 1 0 0 -1 1 0 0 -1 1 0 0 -1 1 0 0 -1 1 0 0 -1 1 0 0 -1 1 0 0 -1 1 0"/>
<path stroke="blue" d="M159 285l0 -1 1 0 0 -1 1 0 0 -1 1 0 0 -1 1 0 0 -1 1 0 0 -1 1 0 0 -1 1 0 0 -1 1 0 0 -1 1 0 0 -1 1 0 0 -1 1 0 0 -1 1 0 1 -1 1 0 0 -1 1 0 0 -1 1 0 0 -1 1 0 0 -1 1 0 0 -1 1 0 0 -1 2 0 0 -1 1 0 0 -1 1 0 0 -1 1 0 0 -1 2 0 0 -1"/>
<path stroke="blue" d="M185 261l1 0 0 -1 1 0 0 -1 1 0 0 -1 2 0 0 -1 1 0 0 -1 1 0 0 -1 2 0 0 -1 1 0 0 -1 1 0 1 -1 1 0 0 -1 1 0 0 -1 2 0 0 -1 1 0 0 -1 1 0 0 -1 2 0 0 -1 1 0 0 -1 2 0 0 -1 1 0 0 -1 2 0 0 -1 1 0 0 -1 2 0 0 -1 1 0 0 -1 2 0 0 -1 1 0"/>
<path stroke="blue" d="M218 238l0 -1 2 0 0 -1 1 0 0 -1 2 0 0 -1 1 0 0 -1 2 0 0 -1 2 0 0 -1 1 0 0 -1 2 0 0 -1 1 0 0 -1 2 0 0 -1 2 0 0 -1 1 0 0 -1 2 0 0 -1 2 0 0 -1 1 0 0 -1 2 0 0 -1 2 0 0 -1 1 0 0 -1 2 0 0 -1 2 0 0 -1 1 0 1 -1 1 0 0 -1 2 0 0 -1"/>
<path stroke="blue" d="M256 214l2 0 0 -1 1 0 0 -1 2 0 0 -1 2 0 0 -1 2 0 0 -1 1 0 1 -1 1 0 0 -1 2 0 0 -1 2 0 0 -1 2 0 0 -1 1 0 1 -1 1 0 0 -1 2 0 0 -1 2 0 0 -1 2 0 0 -1 2 0 0 -1 1 0 0 -1 2 0 0 -1 2 0 0 -1 2 0 0 -1 2 0 0 -1 2 0 0 -1 2 0 0 -1 1 0"/>
<path stroke="blue" d="M299 191l0 -1 2 0 0 -1 2 0 0 -1 2 0 0 -1 2 0 0 -1 2 0 0 -1 2 0 0 -1 2 0 0 -1 2 0 0 -1 2 0 0 -1 2 0 0 -1 2 0 0 -1 2 0 0 -1 2 0 0 -1 2 0 0 -1 2 0 0 -1 2 0 0 -1 2 0 0 -1 2 0 0 -1 2 0 0 -1 2 0 0 -1 2 0 0 -1 2 0 0 -1 2 0 0 -1"/>
<path stroke="blue" d="M345 167l3 0 0 -1 2 0 0 -1 2 0 0 -1 2 0 0 -1 3 0 0 -1 2 0 0 -1 2 0 0 -1 3 0 0 -1 2 0 0 -1 3 0 0 -1 2 0 1 -1 2 0 0 -1 3 0 0 -1 3 0 0 -1 3 0 0 -1 3 0 0 -1 3 0 0 -1 4 0 0 -1 4 0 0 -1 4 0 0 -1 5 0 0 -1 6 0 1 -1 8 0 0 -1 26 0"/>
<path stroke="blue" d="M447 145l0 -1M447 145l10 0M457 146l0 -1M457 146l7 0M464 147l0 -1M464 147l6 0M470 148l0 -1M470 148l5 0M475 149l0 -1M475 149l5 0M480 150l0 -1M480 150l5 0M485 151l0 -1M485 151l4 0M489 152l0 -1M489 152l5 0M494 153l0 -1M494 153l4 0"/>
<path stroke="blue" d="M498 154l0 -1M498 154l4 0M502 155l0 -1M502 155l4 0M506 156l0 -1M506 156l4 0M510 157l0 -1M510 157l4 0M514 158l0 -1M514 158l4 0M518 159l0 -1M518 159l4 0M522 160l0 -1M522 160l4 0M526 161l0 -1M526 161l3 0M529 162l0 -1M529 162l4 0"/>
<path stroke="blue" d="M533 163l0 -1M533 163l4 0M537 164l0 -1M537 164l4 0M541 165l0 -1M541 165l4 0M545 166l0 -1M545 166l3 0 1 1 3 0M552 168l0 -1M552 168l4 0M556 169l0 -1M556 169l4 0M560 170l0 -1M560 170l4 0M564 171l0 -1M564 171l4 0M568 172l0 -1"/>
<path stroke="blue" d="M568 172l4 0M572 173l0 -1M572 173l4 0M576 174l0 -1M576 174l4 0M580 175l0 -1M580 175l4 0 1 1 4 0M589 177l0 -1M589 177l4 0M593 178l0 -1M593 178l4 0M597 179l0 -1M597 179l4 0 1 1 4 0M606 181l0 -1M606 181l4 0M610 182l0 -1M610 182l5 0"/>
<path stroke="blue" d="M615 183l0 -1M615 183l4 0M619 184l0 -1M619 184l5 0M624 185l0 -1M624 185l4 0M628 186l0 -1M628 186l5 0M633 187l0 -1M633 187l5 0M638 188l0 -1M638 188l5 0M643 189l0 -1M643 189l5 0M648 190l0 -1M648 190l5 0M653 191l0 -1M653 191l5 0"/>
<path stroke="blue" d="M658 192l0 -1M658 192l5 0M663 193l0 -1M663 193l5 0M668 194l0 -1M668 194l5 0M673 195l0 -1M673 195l5 0 1 1 5 0M684 197l0 -1M684 197l5 0M689 198l0 -1M689 198l6 0M695 199l0 -1M695 199l6 0M701 200l0 -1M701 200l5 0M706 201l0 -1"/>
<path stroke="blue" d="M706 201l6 0M712 202l0 -1M712 202l6 0M718 203l0 -1M718 203l6 0M724 204l0 -1M724 204l6 0M730 205l0 -1M730 205l7 0M737 206l0 -1M737 206l6 0M743 207l0 -1M743 207l6 0M749 208l0 -1M749 208l7 0M756 209l0 -1M756 209l6 0M762 210l0 -1"/>
<path stroke="blue" d="M762 210l7 0M769 211l0 -1M769 211l7 0M776 212l0 -1M776 212l7 0M783 213l0 -1M783 213l7 0M790 214l0 -1M790 214l7 0M797 215l0 -1M797 215l7 0M804 216l0 -1M804 216l8 0M812 217l0 -1M812 217l7 0M819 218l0 -1M819 218l8 0M827 219l0 -1"/>
<path stroke="blue" d="M827 219l8 0M835 220l0 -1M835 220l8 0M843 221l0 -1M843 221l8 0M851 222l0 -1M851 222l8 0M859 223l0 -1M859 223l8 0M867 224l0 -1M867 224l9 0M876 225l0 -1M876 225l8 0M884 226l0 -1M884 226l9 0M893 227l0 -1M893 227l9 0M902 228l0 -1"/>
<path stroke="blue" d="M902 228l1 0"/>
<path stroke="#FFA500" d="M436 39l43 0"/>
<text stroke="none" fill="white" font-size="16" x="489" y="48">
vswr
</text>
<path stroke="#FFA500" d="M315 65l0 -1M315 65l1 0M316 66l0 -1M316 66l1 0M317 68l0 -2M317 68l1 0M318 69l0 -1M318 69l1 0M319 70l0 -1M319 70l1 0M320 72l0 -2M320 72l1 0M321 73l0 -1M321 73l1 0M322 74l0 -1M322 74l1 0M323 75l0 -1M323 75l1 1M324 77l0 -1"/>
<path stroke="#FFA500" d="M324 77l1 0M325 78l0 -1M325 78l1 0M326 79l0 -1M326 79l1 0M327 80l0 -1M327 80l1 0M328 82l0 -2M328 82l1 0M329 83l0 -1M329 83l1 0M330 84l0 -1M330 84l1 0M331 85l0 -1M331 85l1 0M332 86l0 -1M332 86l1 0M333 87l0 -1M333 87l1 0"/>
<path stroke="#FFA500" d="M334 88l0 -1M334 88l1 0M335 89l0 -1M335 89l1 0M336 90l0 -1M336 90l1 0M337 91l0 -1M337 91l1 0M338 92l0 -1M338 92l1 0M339 93l0 -1M339 93l1 0M340 94l0 -1M340 94l1 0M341 95l0 -1M341 95l1 0M342 96l0 -1M342 96l1 0M343 97l0 -1"/>
<path stroke="#FFA500" d="M343 97l1 0M344 98l0 -1M344 98l1 0 1 1 1 0M347 100l0 -1M347 100l1 0M348 101l0 -1M348 101l1 0M349 102l0 -1M349 102l1 0M350 103l0 -1M350 103l2 0M352 104l0 -1M352 104l1 0M353 105l0 -1M353 105l1 0M354 106l0 -1M354 106l2 0"/>
<path stroke="#FFA500" d="M356 107l0 -1M356 107l1 0M357 108l0 -1M357 108l1 0M358 109l0 -1M358 109l2 0M360 110l0 -1M360 110l1 0M361 111l0 -1M361 111l2 0M363 112l0 -1M363 112l2 0M365 113l0 -1M365 113l1 0M366 114l0 -1M366 114l2 0M368 115l0 -1M368 115l2 0"/>
<path stroke="#FFA500" d="M370 116l0 -1M370 116l1 0 1 1 1 0M373 118l0 -1M373 118l2 0M375 119l0 -1M375 119l2 0M377 120l0 -1M377 120l2 0M379 121l0 -1M379 121l3 0M382 122l0 -1M382 122l2 0M384 123l0 -1M384 123l2 0M386 124l0 -1M386 124l3 0M389 125l0 -1"/>
<path stroke="#FFA500" d="M389 125l2 0 1 1 2 0M394 127l0 -1M394 127l3 0M397 128l0 -1M397 128l3 0M400 129l0 -1M400 129l4 0M404 130l0 -1M404 130l3 0M407 131l0 -1M407 131l4 0M411 132l0 -1M411 132l4 0M415 133l0 -1M415 133l5 0M420 134l0 -1M420 134l5 0"/>
<path stroke="#FFA500" d="M425 135l0 -1M425 135l6 0M431 136l0 -1M431 136l6 0 0 -1 6 0 0 -1 6 0 0 -1 5 0 0 -1 4 0 0 -1 5 0 0 -1 4 0 0 -1 4 0 0 -1 4 0 0 -1 4 0 0 -1 3 0 0 -1 4 0 0 -1 3 0 0 -1 3 0 0 -1 3 0 0 -1 3 0 0 -1 3 0 0 -1 3 0 0 -1 3 0 0 -1"/>
<path stroke="#FFA500" d="M507 117l3 0 0 -1 3 0 0 -1 2 0 0 -1 3 0 0 -1 2 0 0 -1 3 0 0 -1 2 0 0 -1 3 0 0 -1 2 0 0 -1 2 0 1 -1 2 0 0 -1 2 0 0 -1 2 0 0 -1 3 0 0 -1 2 0 0 -1 2 0 0 -1 2 0 0 -1 2 0 0 -1 2 0 0 -1 2 0 1 -1 1 0 1 -1 1 0 1 -1 2 0 0 -1"/>
<path stroke="#FFA500" d="M561 94l1 0 1 -1 1 0 1 -1 1 0 1 -1 1 0 0 -1 2 0 0 -1 2 0 0 -1 2 0 0 -1 2 0 0 -1 2 0 0 -1 2 0 0 -1 1 0 0 -1 2 0 0 -1 2 0 0 -1 2 0 0 -1 2 0 0 -1 1 0 0 -1 2 0 0 -1 2 0 0 -1 2 0 0 -1 1 0 0 -1 2 0 0 -1 2 0 0 -1 1 0 0 -1 2 0"/>
<path stroke="#FFA500" d="M604 71l0 -1 2 0 0 -1 1 0 0 -1 2 0 0 -1 1 0 1 -1 1 0 0 -1 2 0 0 -1 1 0"/>
</svg>
