<?xml version="1.0" standalone="yes"?>
<!DOCTYPE svg PUBLIC "-//W3C//DTD SVG 1.1//EN"
 "http://www.w3.org/Graphics/SVG/1.1/DTD/svg11.dtd">
<svg xmlns="http://www.w3.org/2000/svg" version="1.1"
  width="100%" height="100%" viewBox="0 0 1024 768"
  style="fill: none; font-family: Helvetica;
 font: Helvetica;
">

<!-- Creator: NGspice -->

<rect x="0" y="0" width="1024" height="768" fill="black" stroke="none"/>
<text stroke="none" fill="white" font-size="16" x="358" y="752">
Frequency
</text>
<text transform="rotate(-90, 20, 494)"  stroke="none" fill="white" font-size="16" x="20" y="494">
Magnitude in dB / VSWR
</text>
<text stroke="none" fill="white" font-size="16" x="10" y="16">
sp6: lpf10m
</text>
<path stroke="white" d="M85 704l0 -640"/>
<text stroke="none" fill="white" font-size="16" x="70" y="728">
0.0
</text>
<path stroke="white" stroke-dasharray="1,2" d="M194 704l0 -640"/>
<text stroke="none" fill="white" font-size="16" x="174" y="728">
20.0
</text>
<path stroke="white" stroke-dasharray="1,2" d="M303 704l0 -640"/>
<text stroke="none" fill="white" font-size="16" x="283" y="728">
40.0
</text>
<path stroke="white" stroke-dasharray="1,2" d="M412 704l0 -640"/>
<text stroke="none" fill="white" font-size="16" x="392" y="728">
60.0
</text>
<path stroke="white" stroke-dasharray="1,2" d="M521 704l0 -640"/>
<text stroke="none" fill="white" font-size="16" x="501" y="728">
80.0
</text>
<path stroke="white" stroke-dasharray="1,2" d="M630 704l0 -640"/>
<text stroke="none" fill="white" font-size="16" x="605" y="728">
100.0
</text>
<path stroke="white" stroke-dasharray="1,2" d="M739 704l0 -640"/>
<text stroke="none" fill="white" font-size="16" x="714" y="728">
120.0
</text>
<path stroke="white" stroke-dasharray="1,2" d="M848 704l0 -640"/>
<text stroke="none" fill="white" font-size="16" x="823" y="728">
140.0
</text>
<path stroke="white" stroke-dasharray="1,2" d="M957 704l0 -640"/>
<text stroke="none" fill="white" font-size="16" x="932" y="728">
160.0
</text>
<text stroke="none" fill="white" font-size="16" x="614" y="752">
MHz
</text>
<path stroke="white" stroke-dasharray="1,2" d="M85 704l872 0"/>
<text stroke="none" fill="white" font-size="16" x="33" y="712">
-70.0
</text>
<path stroke="white" stroke-dasharray="1,2" d="M85 624l872 0"/>
<text stroke="none" fill="white" font-size="16" x="33" y="632">
-60.0
</text>
<path stroke="white" stroke-dasharray="1,2" d="M85 544l872 0"/>
<text stroke="none" fill="white" font-size="16" x="33" y="552">
-50.0
</text>
<path stroke="white" stroke-dasharray="1,2" d="M85 464l872 0"/>
<text stroke="none" fill="white" font-size="16" x="33" y="472">
-40.0
</text>
<path stroke="white" stroke-dasharray="1,2" d="M85 384l872 0"/>
<text stroke="none" fill="white" font-size="16" x="33" y="392">
-30.0
</text>
<path stroke="white" stroke-dasharray="1,2" d="M85 304l872 0"/>
<text stroke="none" fill="white" font-size="16" x="33" y="312">
-20.0
</text>
<path stroke="white" stroke-dasharray="1,2" d="M85 224l872 0"/>
<text stroke="none" fill="white" font-size="16" x="33" y="232">
-10.0
</text>
<path stroke="white" d="M85 144l872 0"/>
<text stroke="none" fill="white" font-size="16" x="53" y="152">
0.0
</text>
<path stroke="white" stroke-dasharray="1,2" d="M85 64l872 0"/>
<text stroke="none" fill="white" font-size="16" x="43" y="72">
10.0
</text>
<text stroke="none" fill="white" font-size="16" x="10" y="32">
     
</text>
<path stroke="red" d="M436 23l43 0"/>
<text stroke="none" fill="white" font-size="16" x="489" y="32">
vdb(s_1_1)
</text>
<path stroke="red" d="M90 415l1 -1 0 -10 1 -1 0 -9 1 -1 0 -8 1 0 0 -7 1 -1 0 -6 1 -1 0 -6 1 0 0 -5 1 0 0 -5 1 -1 0 -4 1 -1 0 -3 1 -1 0 -4 1 0 0 -4 1 0 0 -3 1 0 0 -4 1 0 0 -3 1 0 0 -3 1 0 0 -3 1 0 0 -2 1 -1 0 -2 1 0 0 -2 1 -1 0 -2 1 0 0 -2 1 0"/>
<path stroke="red" d="M113 308l0 -2 1 0 0 -2 1 0 0 -2 1 0 0 -2 1 0 0 -2 1 0 0 -1 1 0 0 -2 1 0 0 -1 1 0 0 -2 1 0 0 -1 1 0 0 -1 1 0 0 -2 1 0 0 -1 1 0 0 -1 1 0 0 -1 1 0 0 -1 1 0 0 -1 1 0 0 -1 1 0 0 -1 2 0 0 -1 1 0 0 -1 2 0 0 -1 1 0 0 -1 2 0 0 -1"/>
<path stroke="red" d="M139 276l3 0 0 -1 3 0 0 -1 10 0 1 1 3 0M159 276l0 -1M159 276l2 0M161 277l0 -1M161 277l2 0M163 278l0 -1M163 278l2 0M165 279l0 -1M165 279l1 0M166 280l0 -1M166 280l2 0M168 281l0 -1M168 281l1 0M169 282l0 -1M169 282l1 0M170 283l0 -1"/>
<path stroke="red" d="M170 283l1 0M171 284l0 -1M171 284l1 0M172 285l0 -1M172 285l1 0M173 286l0 -1M173 286l1 0M174 287l0 -1M174 287l1 0M175 288l0 -1M175 288l1 0M176 289l0 -1M176 289l1 1M177 291l0 -1M177 291l1 0M178 292l0 -1M178 292l1 0M179 294l0 -2"/>
<path stroke="red" d="M179 294l1 0M180 295l0 -1M180 295l1 0M181 297l0 -2M181 297l1 0M182 299l0 -2M182 299l1 0M183 300l0 -1M183 300l1 1M184 302l0 -1M184 302l1 1M185 304l0 -1M185 304l1 1M186 306l0 -1M186 306l1 1M187 309l0 -2M187 309l1 0M188 311l0 -2"/>
<path stroke="red" d="M188 311l1 0M189 313l0 -2M189 313l1 1M190 316l0 -2M190 316l1 0M191 319l0 -3M191 319l1 0M192 321l0 -2M192 321l1 1M193 324l0 -2M193 324l1 1M194 328l0 -3M194 328l1 0M195 331l0 -3M195 331l1 0M196 334l0 -3M196 334l1 1M197 338l0 -3"/>
<path stroke="red" d="M197 338l1 1M198 342l0 -3M198 342l1 1M199 346l0 -3M199 346l1 1M200 351l0 -4M200 351l1 0M201 356l0 -5M201 356l1 0M202 361l0 -5M202 361l1 0M203 367l0 -6M203 367l1 0M204 372l0 -5M204 372l1 1M205 378l0 -5M205 378l1 1M206 385l0 -6"/>
<path stroke="red" d="M206 385l1 1M207 393l0 -7M207 393l1 0M208 401l0 -8M208 401l1 0M209 409l0 -8M209 409l1 0M210 418l0 -9M210 418l1 1M211 427l0 -8M211 427l1 0M212 435l0 -8M212 435l1 0M213 442l0 -7M213 442l1 0M214 445l0 -3M214 445l1 1 1 -1 0 -3"/>
<path stroke="red" d="M216 442l1 0 0 -6 1 0 0 -6 1 -1 0 -7 1 -1 0 -6 1 0 0 -6 1 0 0 -6 1 0 0 -5 1 -1 0 -4 1 0 0 -4 1 0 0 -4 1 0 0 -3 1 0 0 -2 1 -1 0 -2 1 0 0 -2 1 0 0 -1 1 0 0 -1 1 0 0 -1 3 0M236 373l0 -1M236 373l1 0M237 374l0 -1M237 374l1 1"/>
<path stroke="red" d="M238 376l0 -1M238 376l1 0M239 379l0 -3M239 379l1 0M240 382l0 -3M240 382l1 0M241 386l0 -4M241 386l1 0M242 391l0 -5M242 391l1 1M243 398l0 -6M243 398l1 0M244 406l0 -8M244 406l1 0M245 417l0 -11M245 417l1 1M246 431l0 -13M246 431l1 1"/>
<path stroke="red" d="M247 450l0 -18M247 450l1 2M248 482l0 -30M248 482l1 4M249 539l0 -53M249 539l1 6M250 565l0 -30 1 -6 0 -59 1 -4 0 -31 1 -3 0 -22 1 -2 0 -18 1 -1 0 -16 1 -2 0 -12 1 -1 0 -11 1 -1 0 -11 1 -1 0 -9 1 -1 0 -8 1 -1 0 -8 1 -1 0 -7"/>
<path stroke="red" d="M262 299l1 -1 0 -7 1 0 0 -7 1 -1 0 -6 1 -1 0 -5 1 -1 0 -6 1 0 0 -6 1 0 0 -5 1 -1 0 -5 1 0 0 -5 1 0 0 -5 1 0 0 -5 1 0 0 -4 1 -1 0 -4 1 0 0 -4 1 0 0 -4 1 0 0 -4 1 0 0 -4 1 0 0 -3 1 -1 0 -3 1 0 0 -3 1 0 0 -3 1 0 0 -3 1 0 0 -3"/>
<path stroke="red" d="M285 188l1 0 0 -3 1 0 0 -2 1 -1 0 -2 1 0 0 -2 1 0 0 -2 1 0 0 -2 1 0 0 -2 1 0 0 -2 1 0 0 -2 1 0 0 -1 1 -1 0 -1 1 0 0 -1 1 -1 0 -1 1 0 0 -1 1 0 0 -1 1 0 0 -1 1 0 0 -1 1 0 0 -1 1 0 0 -1 1 0 0 -1 1 0 0 -1 1 0 1 -1 1 0 0 -1 2 0"/>
<path stroke="red" d="M311 152l0 -1 2 0 0 -1 2 0 0 -1 3 0 0 -1 4 0 0 -1 4 0 0 -1 8 0 0 -1 18 0 0 -1 551 0"/>
<path stroke="blue" d="M85 23l43 0"/>
<text stroke="none" fill="white" font-size="16" x="138" y="32">
vdb(s_2_1)
</text>
<path stroke="blue" d="M90 144l32 0M122 145l0 -1M122 145l56 0 0 -1 85 0M263 145l0 -1M263 145l6 0M269 146l0 -1M269 146l4 0M273 147l0 -1M273 147l2 0M275 148l0 -1M275 148l2 0M277 149l0 -1M277 149l1 0 1 1 1 0M280 151l0 -1M280 151l1 0M281 152l0 -1"/>
<path stroke="blue" d="M281 152l1 0M282 153l0 -1M282 153l1 0 3 3M286 157l0 -1M286 157l1 0M287 158l0 -1M287 158l1 0M288 159l0 -1M288 159l1 0M289 160l0 -1M289 160l1 0M290 162l0 -2M290 162l1 0M291 163l0 -1M291 163l1 0M292 165l0 -2M292 165l1 0M293 166l0 -1"/>
<path stroke="blue" d="M293 166l1 1M294 168l0 -1M294 168l1 0M295 170l0 -2M295 170l1 0M296 172l0 -2M296 172l1 0M297 173l0 -1M297 173l1 0M298 175l0 -2M298 175l1 0M299 177l0 -2M299 177l1 0M300 179l0 -2M300 179l1 0M301 181l0 -2M301 181l1 0M302 183l0 -2"/>
<path stroke="blue" d="M302 183l1 0M303 185l0 -2M303 185l1 0M304 187l0 -2M304 187l1 0M305 189l0 -2M305 189l1 0M306 192l0 -3M306 192l1 0M307 194l0 -2M307 194l1 0M308 196l0 -2M308 196l1 0M309 198l0 -2M309 198l1 0M310 200l0 -2M310 200l1 0M311 202l0 -2"/>
<path stroke="blue" d="M311 202l1 1M312 205l0 -2M312 205l1 0M313 207l0 -2M313 207l1 0M314 209l0 -2M314 209l1 0M315 212l0 -3M315 212l1 0M316 214l0 -2M316 214l1 0M317 216l0 -2M317 216l1 0M318 219l0 -3M318 219l1 0M319 221l0 -2M319 221l1 0M320 223l0 -2"/>
<path stroke="blue" d="M320 223l1 0M321 225l0 -2M321 225l1 0M322 228l0 -3M322 228l1 0M323 230l0 -2M323 230l1 0M324 232l0 -2M324 232l1 0M325 234l0 -2M325 234l1 1M326 237l0 -2M326 237l1 0M327 239l0 -2M327 239l1 0M328 241l0 -2M328 241l1 0M329 243l0 -2"/>
<path stroke="blue" d="M329 243l1 1M330 246l0 -2M330 246l1 0M331 248l0 -2M331 248l1 0M332 250l0 -2M332 250l1 0M333 252l0 -2M333 252l1 1M334 255l0 -2M334 255l1 0M335 257l0 -2M335 257l1 0M336 259l0 -2M336 259l1 0M337 261l0 -2M337 261l1 0M338 264l0 -3"/>
<path stroke="blue" d="M338 264l1 0M339 266l0 -2M339 266l1 0M340 268l0 -2M340 268l1 0M341 270l0 -2M341 270l1 0M342 272l0 -2M342 272l1 0M343 274l0 -2M343 274l1 0M344 276l0 -2M344 276l1 1M345 279l0 -2M345 279l1 0M346 281l0 -2M346 281l1 0M347 283l0 -2"/>
<path stroke="blue" d="M347 283l1 0M348 285l0 -2M348 285l1 0M349 287l0 -2M349 287l1 0M350 289l0 -2M350 289l1 0M351 291l0 -2M351 291l1 0M352 293l0 -2M352 293l1 0M353 295l0 -2M353 295l1 1M354 297l0 -1M354 297l1 1M355 299l0 -1M355 299l1 1M356 301l0 -1"/>
<path stroke="blue" d="M356 301l1 1M357 304l0 -2M357 304l1 0M358 306l0 -2M358 306l1 0M359 308l0 -2M359 308l1 0M360 310l0 -2M360 310l1 0M361 312l0 -2M361 312l1 0M362 314l0 -2M362 314l1 0M363 316l0 -2M363 316l1 0M364 318l0 -2M364 318l1 0M365 320l0 -2"/>
<path stroke="blue" d="M365 320l1 0M366 322l0 -2M366 322l1 0M367 324l0 -2M367 324l1 0M368 326l0 -2M368 326l1 0M369 328l0 -2M369 328l1 0M370 330l0 -2M370 330l1 0M371 331l0 -1M371 331l1 1M372 333l0 -1M372 333l1 1M373 335l0 -1M373 335l1 1M374 337l0 -1"/>
<path stroke="blue" d="M374 337l1 0M375 339l0 -2M375 339l1 0M376 341l0 -2M376 341l1 0M377 343l0 -2M377 343l1 0M378 345l0 -2M378 345l1 0M379 347l0 -2M379 347l1 0M380 349l0 -2M380 349l1 0M381 351l0 -2M381 351l1 0M382 353l0 -2M382 353l1 0M383 355l0 -2"/>
<path stroke="blue" d="M383 355l1 0M384 356l0 -1M384 356l1 1M385 358l0 -1M385 358l1 1M386 360l0 -1M386 360l1 0M387 362l0 -2M387 362l1 0M388 364l0 -2M388 364l1 0M389 366l0 -2M389 366l1 0M390 368l0 -2M390 368l1 0M391 370l0 -2M391 370l1 0M392 372l0 -2"/>
<path stroke="blue" d="M392 372l1 0M393 373l0 -1M393 373l1 1M394 375l0 -1M394 375l1 0M395 377l0 -2M395 377l1 0M396 379l0 -2M396 379l1 0M397 381l0 -2M397 381l1 0M398 383l0 -2M398 383l1 0M399 385l0 -2M399 385l1 0M400 386l0 -1M400 386l1 1M401 388l0 -1"/>
<path stroke="blue" d="M401 388l1 1M402 390l0 -1M402 390l1 0M403 392l0 -2M403 392l1 0M404 394l0 -2M404 394l1 0M405 396l0 -2M405 396l1 0M406 398l0 -2M406 398l1 0M407 399l0 -1M407 399l1 1M408 401l0 -1M408 401l1 1M409 403l0 -1M409 403l1 0M410 405l0 -2"/>
<path stroke="blue" d="M410 405l1 0M411 407l0 -2M411 407l1 0M412 409l0 -2M412 409l1 0M413 411l0 -2M413 411l1 0M414 413l0 -2M414 413l1 0M415 414l0 -1M415 414l1 1M416 416l0 -1M416 416l1 0M417 418l0 -2M417 418l1 0M418 420l0 -2M418 420l1 0M419 422l0 -2"/>
<path stroke="blue" d="M419 422l1 0M420 424l0 -2M420 424l1 0M421 426l0 -2M421 426l1 0M422 428l0 -2M422 428l1 0M423 429l0 -1M423 429l1 1M424 431l0 -1M424 431l1 1M425 433l0 -1M425 433l1 0M426 435l0 -2M426 435l1 0M427 437l0 -2M427 437l1 0M428 439l0 -2"/>
<path stroke="blue" d="M428 439l1 0M429 441l0 -2M429 441l1 0M430 443l0 -2M430 443l1 0M431 445l0 -2M431 445l1 0M432 447l0 -2M432 447l1 0M433 449l0 -2M433 449l1 0M434 450l0 -1M434 450l1 1M435 452l0 -1M435 452l1 0M436 454l0 -2M436 454l1 1M437 456l0 -1"/>
<path stroke="blue" d="M437 456l1 0M438 458l0 -2M438 458l1 0M439 460l0 -2M439 460l1 0M440 462l0 -2M440 462l1 0M441 464l0 -2M441 464l1 0M442 466l0 -2M442 466l1 0M443 468l0 -2M443 468l1 0M444 470l0 -2M444 470l1 0M445 472l0 -2M445 472l1 0M446 474l0 -2"/>
<path stroke="blue" d="M446 474l1 0M447 476l0 -2M447 476l1 0M448 478l0 -2M448 478l1 0M449 480l0 -2M449 480l1 1M450 482l0 -1M450 482l1 1M451 484l0 -1M451 484l1 1M452 487l0 -2M452 487l1 0M453 489l0 -2M453 489l1 0M454 491l0 -2M454 491l1 0M455 493l0 -2"/>
<path stroke="blue" d="M455 493l1 0M456 495l0 -2M456 495l1 0M457 497l0 -2M457 497l1 0M458 499l0 -2M458 499l1 1M459 502l0 -2M459 502l1 0M460 504l0 -2M460 504l1 0M461 506l0 -2M461 506l1 0M462 508l0 -2M462 508l1 1M463 511l0 -2M463 511l1 0M464 513l0 -2"/>
<path stroke="blue" d="M464 513l1 0M465 515l0 -2M465 515l1 0M466 518l0 -3M466 518l1 0M467 520l0 -2M467 520l1 0M468 522l0 -2M468 522l1 1M469 525l0 -2M469 525l1 0M470 527l0 -2M470 527l1 0M471 530l0 -3M471 530l1 0M472 532l0 -2M472 532l1 0M473 535l0 -3"/>
<path stroke="blue" d="M473 535l1 0M474 537l0 -2M474 537l1 0M475 540l0 -3M475 540l1 0M476 543l0 -3M476 543l1 0M477 545l0 -2M477 545l1 0M478 548l0 -3M478 548l1 0M479 551l0 -3M479 551l1 0M480 554l0 -3M480 554l1 0M481 557l0 -3M481 557l1 0M482 560l0 -3"/>
<path stroke="blue" d="M482 560l1 0M483 563l0 -3M483 563l1 0M484 566l0 -3M484 566l1 0M485 569l0 -3M485 569l1 0M486 572l0 -3M486 572l1 0M487 575l0 -3M487 575l1 0M488 579l0 -4M488 579l1 0M489 582l0 -3M489 582l1 0M490 585l0 -3M490 585l1 1M491 589l0 -3"/>
<path stroke="blue" d="M491 589l1 1M492 593l0 -3M492 593l1 0M493 597l0 -4M493 597l1 0M494 601l0 -4M494 601l1 0M495 605l0 -4M495 605l1 0M496 609l0 -4M496 609l1 1M497 614l0 -4M497 614l1 0M498 619l0 -5M498 619l1 0M499 624l0 -5M499 624l1 0M500 629l0 -5"/>
<path stroke="blue" d="M500 629l1 0M501 634l0 -5M501 634l1 1M502 640l0 -5M502 640l1 0M503 646l0 -6M503 646l1 1M504 653l0 -6M504 653l1 1M505 660l0 -6M505 660l1 1M506 667l0 -6M506 667l1 1M507 676l0 -8M507 676l1 1M508 686l0 -9M508 686l1 0M509 696l0 -10"/>
<path stroke="blue" d="M509 696l1 1M510 704l0 -7M523 704l0 -5 1 -1 0 -7 1 -1 0 -6 1 0 0 -6 1 -1 0 -5 1 0 0 -5 1 0 0 -5 1 0 0 -4 1 0 0 -3 1 -1 0 -3 1 0 0 -3 1 -1 0 -2 1 -1 0 -3 1 0 0 -2 1 0 0 -3 1 0 0 -2 1 0 0 -2 1 -1 0 -1 1 -1 0 -1 1 -1 0 -2"/>
<path stroke="blue" d="M542 625l1 0 0 -1 1 0 0 -2 1 0 0 -2 1 0 0 -1 1 0 0 -2 1 0 0 -1 1 0 0 -2 1 0 0 -1 1 0 0 -1 1 0 0 -1 1 0 0 -1 1 -1 0 -1 1 0 0 -1 1 0 0 -1 1 0 0 -1 1 0 0 -1 1 0 1 -1 1 0 0 -1 1 0 0 -1 1 0 0 -1 1 0 1 -1 1 0 0 -1 1 0 0 -1 2 0"/>
<path stroke="blue" d="M569 597l0 -1 2 0 0 -1 2 0 0 -1 1 0 1 -1 2 0 0 -1 2 0 0 -1 2 0 0 -1 3 0 0 -1 3 0 0 -1 4 0 0 -1 4 0 0 -1 5 0 0 -1 6 0 0 -1 11 0 0 -1 29 0M646 584l0 -1M646 584l14 0M660 585l0 -1M660 585l10 0M670 586l0 -1M670 586l9 0M679 587l0 -1"/>
<path stroke="blue" d="M679 587l8 0M687 588l0 -1M687 588l7 0M694 589l0 -1M694 589l7 0M701 590l0 -1M701 590l6 0M707 591l0 -1M707 591l7 0M714 592l0 -1M714 592l6 0M720 593l0 -1M720 593l6 0M726 594l0 -1M726 594l5 0 1 1 5 0M737 596l0 -1M737 596l6 0"/>
<path stroke="blue" d="M743 597l0 -1M743 597l5 0M748 598l0 -1M748 598l6 0M754 599l0 -1M754 599l5 0M759 600l0 -1M759 600l5 0M764 601l0 -1M764 601l5 0 1 1 5 0M775 603l0 -1M775 603l5 0M780 604l0 -1M780 604l5 0M785 605l0 -1M785 605l5 0M790 606l0 -1"/>
<path stroke="blue" d="M790 606l5 0M795 607l0 -1M795 607l5 0M800 608l0 -1M800 608l5 0M805 609l0 -1M805 609l5 0M810 610l0 -1M810 610l5 0M815 611l0 -1M815 611l5 0M820 612l0 -1M820 612l5 0M825 613l0 -1M825 613l5 0M830 614l0 -1M830 614l5 0M835 615l0 -1"/>
<path stroke="blue" d="M835 615l5 0M840 616l0 -1M840 616l5 0M845 617l0 -1M845 617l5 0M850 618l0 -1M850 618l5 0M855 619l0 -1M855 619l5 0M860 620l0 -1M860 620l5 0M865 621l0 -1M865 621l5 0M870 622l0 -1M870 622l5 0M875 623l0 -1M875 623l5 0M880 624l0 -1"/>
<path stroke="blue" d="M880 624l5 0M885 625l0 -1M885 625l5 0M890 626l0 -1M890 626l5 0M895 627l0 -1M895 627l5 0M900 628l0 -1M900 628l3 0"/>
<path stroke="#FFA500" d="M436 39l43 0"/>
<text stroke="none" fill="white" font-size="16" x="489" y="48">
vswr
</text>
<path stroke="#FFA500" d="M90 136l3 0 0 -1 17 0 0 -1 20 0 0 -1 41 0M171 134l0 -1M171 134l19 0M190 135l0 -1M190 135l17 0M207 136l0 -1M207 136l19 0 0 -1 16 0M242 136l0 -1M242 136l13 0 0 -1 6 0 0 -1 3 0 1 -1 3 0 0 -1 2 0 0 -1 2 0 0 -1 2 0 0 -1 1 0"/>
<path stroke="#FFA500" d="M275 129l0 -1 2 0 0 -1 1 0 0 -1 1 0 0 -1 1 0 0 -1 1 0 0 -1 1 0 0 -1 1 0 0 -1 1 0 0 -2 1 0 0 -1 1 0 0 -2 1 0 0 -1 1 -1 0 -1 1 0 0 -2 1 0 0 -3 1 0 0 -2 1 0 0 -3 1 0 0 -3 1 0 0 -2 1 -1 0 -3 1 0 0 -3 1 -1 0 -3 1 -1 0 -3"/>
<path stroke="#FFA500" d="M298 83l1 -1 0 -4 1 0 0 -5 1 0 0 -5 1 0 0 -4"/>
</svg>
