<?xml version="1.0" standalone="yes"?>
<!DOCTYPE svg PUBLIC "-//W3C//DTD SVG 1.1//EN"
 "http://www.w3.org/Graphics/SVG/1.1/DTD/svg11.dtd">
<svg xmlns="http://www.w3.org/2000/svg" version="1.1"
  width="100%" height="100%" viewBox="0 0 1024 768"
  style="fill: none; font-family: Helvetica;
 font: Helvetica;
">

<!-- Creator: NGspice -->

<rect x="0" y="0" width="1024" height="768" fill="black" stroke="none"/>
<text stroke="none" fill="white" font-size="16" x="358" y="752">
Frequency
</text>
<text transform="rotate(-90, 20, 494)"  stroke="none" fill="white" font-size="16" x="20" y="494">
Magnitude in dB / VSWR
</text>
<text stroke="none" fill="white" font-size="16" x="10" y="16">
sp7: lpf15m
</text>
<path stroke="white" d="M95 704l0 -637"/>
<text stroke="none" fill="white" font-size="16" x="80" y="728">
0.0
</text>
<path stroke="white" stroke-dasharray="1,2" d="M202 704l0 -637"/>
<text stroke="none" fill="white" font-size="16" x="182" y="728">
20.0
</text>
<path stroke="white" stroke-dasharray="1,2" d="M309 704l0 -637"/>
<text stroke="none" fill="white" font-size="16" x="289" y="728">
40.0
</text>
<path stroke="white" stroke-dasharray="1,2" d="M416 704l0 -637"/>
<text stroke="none" fill="white" font-size="16" x="396" y="728">
60.0
</text>
<path stroke="white" stroke-dasharray="1,2" d="M523 704l0 -637"/>
<text stroke="none" fill="white" font-size="16" x="503" y="728">
80.0
</text>
<path stroke="white" stroke-dasharray="1,2" d="M630 704l0 -637"/>
<text stroke="none" fill="white" font-size="16" x="605" y="728">
100.0
</text>
<path stroke="white" stroke-dasharray="1,2" d="M737 704l0 -637"/>
<text stroke="none" fill="white" font-size="16" x="712" y="728">
120.0
</text>
<path stroke="white" stroke-dasharray="1,2" d="M844 704l0 -637"/>
<text stroke="none" fill="white" font-size="16" x="819" y="728">
140.0
</text>
<path stroke="white" stroke-dasharray="1,2" d="M951 704l0 -637"/>
<text stroke="none" fill="white" font-size="16" x="926" y="728">
160.0
</text>
<text stroke="none" fill="white" font-size="16" x="614" y="752">
MHz
</text>
<path stroke="white" stroke-dasharray="1,2" d="M95 704l856 0"/>
<text stroke="none" fill="white" font-size="16" x="33" y="712">
-120.0
</text>
<path stroke="white" stroke-dasharray="1,2" d="M95 613l856 0"/>
<text stroke="none" fill="white" font-size="16" x="33" y="621">
-100.0
</text>
<path stroke="white" stroke-dasharray="1,2" d="M95 522l856 0"/>
<text stroke="none" fill="white" font-size="16" x="43" y="530">
-80.0
</text>
<path stroke="white" stroke-dasharray="1,2" d="M95 431l856 0"/>
<text stroke="none" fill="white" font-size="16" x="43" y="439">
-60.0
</text>
<path stroke="white" stroke-dasharray="1,2" d="M95 340l856 0"/>
<text stroke="none" fill="white" font-size="16" x="43" y="348">
-40.0
</text>
<path stroke="white" stroke-dasharray="1,2" d="M95 249l856 0"/>
<text stroke="none" fill="white" font-size="16" x="43" y="257">
-20.0
</text>
<path stroke="white" d="M95 158l856 0"/>
<text stroke="none" fill="white" font-size="16" x="53" y="166">
-0.0
</text>
<path stroke="white" stroke-dasharray="1,2" d="M95 67l856 0"/>
<text stroke="none" fill="white" font-size="16" x="53" y="75">
20.0
</text>
<text stroke="none" fill="white" font-size="16" x="10" y="32">
     
</text>
<path stroke="red" d="M428 23l42 0"/>
<text stroke="none" fill="white" font-size="16" x="480" y="32">
vdb(s_1_1)
</text>
<path stroke="red" d="M100 238l1 -1 0 -6 1 0 0 -5 1 -1 0 -4 1 0 0 -4 1 -1 0 -3 1 0 0 -3 1 0 0 -3 1 0 0 -3 1 0 0 -2 1 0 0 -2 1 0 0 -2 1 0 0 -2 1 0 0 -2 1 0 0 -1 1 0 0 -2 1 0 0 -1 1 0 0 -1 1 0 0 -1 1 0 0 -1 2 -2 1 0 0 -1 1 0 0 -1 1 0 0 -1 2 0 0 -1"/>
<path stroke="red" d="M126 181l1 0 0 -1 2 0 0 -1 2 0 0 -1 3 0 0 -1 4 0 0 -1 7 0 0 -1 6 0M151 176l0 -1M151 176l7 0M158 177l0 -1M158 177l4 0M162 178l0 -1M162 178l2 0M164 179l0 -1M164 179l3 0M167 180l0 -1M167 180l1 0M168 181l0 -1M168 181l2 0M170 182l0 -1"/>
<path stroke="red" d="M170 182l2 0M172 183l0 -1M172 183l1 0M173 184l0 -1M173 184l1 0M174 185l0 -1M174 185l1 0M175 186l0 -1M175 186l1 0M176 187l0 -1M176 187l1 0M177 188l0 -1M177 188l1 0M178 189l0 -1M178 189l1 0M179 190l0 -1M179 190l1 0M180 191l0 -1"/>
<path stroke="red" d="M180 191l1 0M181 192l0 -1M181 192l1 1M182 194l0 -1M182 194l1 0M183 195l0 -1M183 195l1 1M184 197l0 -1M184 197l1 0M185 199l0 -2M185 199l1 0M186 201l0 -2M186 201l1 0M187 203l0 -2M187 203l1 0M188 205l0 -2M188 205l1 0M189 207l0 -2"/>
<path stroke="red" d="M189 207l1 0M190 209l0 -2M190 209l1 1M191 212l0 -2M191 212l1 0M192 215l0 -3M192 215l1 0M193 218l0 -3M193 218l1 0M194 220l0 -2M194 220l1 1M195 224l0 -3M195 224l1 0M196 228l0 -4M196 228l1 0M197 231l0 -3M197 231l1 0M198 235l0 -4"/>
<path stroke="red" d="M198 235l1 1M199 239l0 -3M199 239l1 1M200 244l0 -4M200 244l1 0M201 249l0 -5M201 249l1 0M202 254l0 -5M202 254l1 1M203 260l0 -5M203 260l1 1M204 267l0 -6M204 267l1 1M205 274l0 -6M205 274l1 1M206 283l0 -8M206 283l1 0M207 292l0 -9"/>
<path stroke="red" d="M207 292l1 1M208 300l0 -7M208 300l1 1M209 304l0 -3M209 303l1 0 0 -5 1 -1 0 -10 1 -1 0 -10 1 -1 0 -9 1 -1 0 -8 1 -1 0 -8 1 0 0 -7 1 0 0 -7 1 -1 0 -6 1 0 0 -6 1 0 0 -6 1 0 0 -5 1 0 0 -5 1 0 0 -4 1 -1 0 -4 1 0 0 -4 1 0 0 -3"/>
<path stroke="red" d="M226 189l1 -1 0 -3 1 0 0 -3 1 0 0 -3 1 0 0 -2 1 -1 0 -2 1 0 0 -2 1 0 0 -2 1 0 0 -1 1 0 0 -2 1 0 0 -1 1 0 0 -1 1 0 0 -1 1 0 0 -1 2 0 0 -1 2 0 0 -1 2 0 0 -1 4 0 0 -1 9 0 0 -1 640 0"/>
<path stroke="blue" d="M95 23l42 0"/>
<text stroke="none" fill="white" font-size="16" x="147" y="32">
vdb(s_2_1)
</text>
<path stroke="blue" d="M100 158l1 0 1 1 4 0 1 1 3 0M110 161l0 -1M110 161l4 0M114 162l0 -1M114 162l3 0M117 163l0 -1M117 163l3 0M120 164l0 -1M120 164l3 0M123 165l0 -1M123 165l4 0M127 166l0 -1M127 166l4 0M131 167l0 -1M131 167l5 0M136 168l0 -1M136 168l9 0"/>
<path stroke="blue" d="M145 169l0 -1M145 169l6 0 0 -1 9 0 0 -1 5 0 0 -1 4 0 0 -1 3 0 0 -1 4 0 0 -1 3 0 0 -1 3 0 0 -1 4 0 0 -1 5 0 0 -1 6 0 0 -1 21 0M218 159l0 -1M218 159l4 0M222 160l0 -1M222 160l2 0M224 161l0 -1M224 161l1 0M225 162l0 -1M225 162l1 0"/>
<path stroke="blue" d="M226 163l0 -1M226 163l1 0M227 164l0 -1M227 164l1 0M228 165l0 -1M228 165l1 0M229 166l0 -1M229 166l1 0M230 168l0 -2M230 168l1 0M231 169l0 -1M231 169l1 1M232 171l0 -1M232 171l1 0M233 173l0 -2M233 173l1 0M234 175l0 -2M234 175l1 0"/>
<path stroke="blue" d="M235 177l0 -2M235 177l1 0M236 179l0 -2M236 179l1 0M237 182l0 -3M237 182l1 0M238 184l0 -2M238 184l1 0M239 186l0 -2M239 186l1 0M240 189l0 -3M240 189l1 0M241 191l0 -2M241 191l1 0M242 194l0 -3M242 194l1 0M243 196l0 -2M243 196l1 0"/>
<path stroke="blue" d="M244 199l0 -3M244 199l1 0M245 201l0 -2M245 201l1 0M246 203l0 -2M246 203l1 1M247 206l0 -2M247 206l1 0M248 208l0 -2M248 208l1 1M249 211l0 -2M249 211l1 0M250 213l0 -2M250 213l1 0M251 215l0 -2M251 215l1 1M252 218l0 -2M252 218l1 0"/>
<path stroke="blue" d="M253 220l0 -2M253 220l1 0M254 222l0 -2M254 222l1 1M255 225l0 -2M255 225l1 0M256 227l0 -2M256 227l1 0M257 229l0 -2M257 229l1 1M258 231l0 -1M258 231l1 1M259 234l0 -2M259 234l1 0M260 236l0 -2M260 236l1 0M261 238l0 -2M261 238l1 0"/>
<path stroke="blue" d="M262 240l0 -2M262 240l1 0M263 242l0 -2M263 242l1 0M264 244l0 -2M264 244l1 1M265 246l0 -1M265 246l1 1M266 249l0 -2M266 249l1 0M267 251l0 -2M267 251l1 0M268 253l0 -2M268 253l1 0M269 255l0 -2M269 255l1 0M270 257l0 -2M270 257l1 0"/>
<path stroke="blue" d="M271 258l0 -1M271 258l1 1M272 260l0 -1M272 260l1 1M273 262l0 -1M273 262l1 0M274 264l0 -2M274 264l1 0M275 266l0 -2M275 266l1 0M276 268l0 -2M276 268l1 0M277 270l0 -2M277 270l1 0M278 272l0 -2M278 272l1 0M279 274l0 -2M279 274l1 0"/>
<path stroke="blue" d="M280 275l0 -1M280 275l1 0M281 277l0 -2M281 277l1 0M282 279l0 -2M282 279l1 0M283 281l0 -2M283 281l1 0M284 282l0 -1M284 282l1 0M285 284l0 -2M285 284l1 0M286 286l0 -2M286 286l1 0M287 288l0 -2M287 288l1 0M288 289l0 -1M288 289l1 1"/>
<path stroke="blue" d="M289 291l0 -1M289 291l1 0M290 293l0 -2M290 293l1 0M291 294l0 -1M291 294l1 1M292 296l0 -1M292 296l1 0M293 298l0 -2M293 298l1 0M294 299l0 -1M294 299l1 1M295 301l0 -1M295 301l1 0M296 303l0 -2M296 303l1 0M297 304l0 -1M297 304l1 0"/>
<path stroke="blue" d="M298 306l0 -2M298 306l1 0M299 308l0 -2M299 308l1 0M300 309l0 -1M300 309l1 0M301 311l0 -2M301 311l1 0M302 312l0 -1M302 312l1 0M303 314l0 -2M303 314l1 0M304 315l0 -1M304 315l1 1M305 317l0 -1M305 317l1 0M306 319l0 -2M306 319l1 0"/>
<path stroke="blue" d="M307 320l0 -1M307 320l1 0M308 322l0 -2M308 322l1 0M309 323l0 -1M309 323l1 0M310 325l0 -2M310 325l1 0M311 326l0 -1M311 326l1 0M312 328l0 -2M312 328l1 0M313 329l0 -1M313 329l1 1M314 331l0 -1M314 331l1 0M315 332l0 -1M315 332l1 1"/>
<path stroke="blue" d="M316 334l0 -1M316 334l1 0M317 335l0 -1M317 335l1 1M318 337l0 -1M318 337l1 0M319 339l0 -2M319 339l1 0M320 340l0 -1M320 340l1 0M321 342l0 -2M321 342l1 0M322 343l0 -1M322 343l1 0M323 345l0 -2M323 345l1 0M324 346l0 -1M324 346l1 0"/>
<path stroke="blue" d="M325 348l0 -2M325 348l1 0M326 349l0 -1M326 349l1 0M327 351l0 -2M327 351l1 0M328 352l0 -1M328 352l1 0M329 354l0 -2M329 354l1 0M330 355l0 -1M330 355l1 0M331 357l0 -2M331 357l1 0M332 358l0 -1M332 358l1 0M333 360l0 -2M333 360l1 0"/>
<path stroke="blue" d="M334 361l0 -1M334 361l1 0M335 363l0 -2M335 363l1 0M336 364l0 -1M336 364l1 0M337 366l0 -2M337 366l1 0M338 367l0 -1M338 367l1 0M339 369l0 -2M339 369l1 0M340 370l0 -1M340 370l1 0M341 372l0 -2M341 372l1 0M342 373l0 -1M342 373l1 0"/>
<path stroke="blue" d="M343 375l0 -2M343 375l1 0M344 376l0 -1M344 376l1 1M345 378l0 -1M345 378l1 0M346 380l0 -2M346 380l1 0M347 381l0 -1M347 381l1 0M348 383l0 -2M348 383l1 0M349 384l0 -1M349 384l1 0M350 386l0 -2M350 386l1 0M351 387l0 -1M351 387l1 1"/>
<path stroke="blue" d="M352 389l0 -1M352 389l1 0M353 391l0 -2M353 391l1 0M354 392l0 -1M354 392l1 0M355 394l0 -2M355 394l1 0M356 396l0 -2M356 396l1 0M357 397l0 -1M357 397l1 0M358 399l0 -2M358 399l1 0M359 401l0 -2M359 401l1 0M360 402l0 -1M360 402l1 1"/>
<path stroke="blue" d="M361 404l0 -1M361 404l1 0M362 406l0 -2M362 406l1 0M363 408l0 -2M363 408l1 0M364 409l0 -1M364 409l1 1M365 411l0 -1M365 411l1 0M366 413l0 -2M366 413l1 0M367 415l0 -2M367 415l1 0M368 417l0 -2M368 417l1 0M369 419l0 -2M369 419l1 0"/>
<path stroke="blue" d="M370 420l0 -1M370 420l1 1M371 423l0 -2M371 423l1 0M372 424l0 -1M372 424l1 1M373 427l0 -2M373 427l1 0M374 429l0 -2M374 429l1 0M375 431l0 -2M375 431l1 0M376 433l0 -2M376 433l1 0M377 435l0 -2M377 435l1 0M378 437l0 -2M378 437l1 0"/>
<path stroke="blue" d="M379 440l0 -3M379 440l1 0M380 442l0 -2M380 442l1 0M381 444l0 -2M381 444l1 1M382 447l0 -2M382 447l1 0M383 449l0 -2M383 449l1 1M384 452l0 -2M384 452l1 0M385 455l0 -3M385 455l1 0M386 458l0 -3M386 458l1 0M387 461l0 -3M387 461l1 0"/>
<path stroke="blue" d="M388 464l0 -3M388 464l1 0M389 467l0 -3M389 467l1 0M390 471l0 -4M390 471l1 0M391 475l0 -4M391 475l1 0M392 478l0 -3M392 478l1 1M393 483l0 -4M393 483l1 0M394 487l0 -4M394 487l1 1M395 493l0 -5M395 493l1 0M396 498l0 -5M396 498l1 0"/>
<path stroke="blue" d="M397 504l0 -6M397 504l1 1M398 511l0 -6M398 511l1 1M399 520l0 -8M399 520l1 1M400 530l0 -9M400 530l1 1M401 544l0 -13M401 544l1 1M402 562l0 -17M402 562l1 2M403 602l0 -38M403 602l1 6M404 704l0 -96M404 617l1 -7 0 -39 1 -2 0 -19"/>
<path stroke="blue" d="M406 550l1 -1 0 -12 1 -1 0 -9 1 0 0 -7 1 0 0 -6 1 0 0 -5 1 0 0 -4 1 -1 0 -3 1 0 0 -4 1 0 0 -3 1 0 0 -2 1 -1 0 -2 1 0 0 -2 1 0 0 -2 1 0 0 -2 1 0 0 -2 1 0 0 -1 1 0 0 -2 1 0 0 -1 1 0 0 -1 1 -1 0 -1 1 0 0 -1 1 0 0 -1 1 0 0 -1"/>
<path stroke="blue" d="M429 471l1 0 0 -1 1 0 0 -1 1 0 1 -1 1 0 0 -1 1 0 0 -1 2 0 0 -1 1 0 0 -1 2 0 0 -1 2 0 0 -1 2 0 0 -1 3 0 0 -1 3 0 0 -1 3 0 0 -1 5 0 0 -1 5 0 0 -1 10 0 0 -1 26 0M499 456l0 -1M499 456l14 0M513 457l0 -1M513 457l11 0M524 458l0 -1"/>
<path stroke="blue" d="M524 458l9 0M533 459l0 -1M533 459l8 0M541 460l0 -1M541 460l8 0M549 461l0 -1M549 461l7 0M556 462l0 -1M556 462l7 0M563 463l0 -1M563 463l7 0M570 464l0 -1M570 464l6 0 1 1 6 0M583 466l0 -1M583 466l7 0M590 467l0 -1M590 467l6 0"/>
<path stroke="blue" d="M596 468l0 -1M596 468l6 0M602 469l0 -1M602 469l7 0M609 470l0 -1M609 470l6 0M615 471l0 -1M615 471l6 0M621 472l0 -1M621 472l6 0M627 473l0 -1M627 473l6 0 1 1 6 0M640 475l0 -1M640 475l6 0M646 476l0 -1M646 476l6 0M652 477l0 -1"/>
<path stroke="blue" d="M652 477l6 0M658 478l0 -1M658 478l6 0M664 479l0 -1M664 479l7 0M671 480l0 -1M671 480l6 0M677 481l0 -1M677 481l6 0M683 482l0 -1M683 482l6 0M689 483l0 -1M689 483l6 0M695 484l0 -1M695 484l7 0M702 485l0 -1M702 485l6 0M708 486l0 -1"/>
<path stroke="blue" d="M708 486l6 0M714 487l0 -1M714 487l7 0M721 488l0 -1M721 488l6 0M727 489l0 -1M727 489l6 0 1 1 6 0M740 491l0 -1M740 491l6 0M746 492l0 -1M746 492l7 0M753 493l0 -1M753 493l6 0M759 494l0 -1M759 494l7 0M766 495l0 -1M766 495l6 0"/>
<path stroke="blue" d="M772 495l1 1 6 0M779 497l0 -1M779 497l7 0M786 498l0 -1M786 498l7 0M793 499l0 -1M793 499l6 0M799 500l0 -1M799 500l7 0M806 501l0 -1M806 501l7 0M813 502l0 -1M813 502l7 0M820 503l0 -1M820 503l7 0M827 504l0 -1M827 504l7 0M834 505l0 -1"/>
<path stroke="blue" d="M834 505l7 0M841 506l0 -1M841 506l7 0M848 507l0 -1M848 507l7 0M855 508l0 -1M855 508l7 0M862 509l0 -1M862 509l7 0M869 510l0 -1M869 510l7 0 1 1 7 0M884 512l0 -1M884 512l7 0M891 513l0 -1M891 513l7 0"/>
<path stroke="#FFA500" d="M428 39l42 0"/>
<text stroke="none" fill="white" font-size="16" x="480" y="48">
vswr
</text>
<path stroke="#FFA500" d="M100 152l2 0 0 -1 3 0 0 -1 3 0 0 -1 3 0 0 -1 2 0 0 -1 3 0 0 -1 2 0 0 -1 2 0 0 -1 3 0 0 -1 2 0 0 -1 2 0 1 -1 2 0 0 -1 3 0 0 -1 4 0 0 -1 4 0 0 -1 13 0M154 138l0 -1M154 138l5 0M159 139l0 -1M159 139l4 0M163 140l0 -1M163 140l2 0"/>
<path stroke="#FFA500" d="M165 140l1 1 2 0M168 142l0 -1M168 142l3 0M171 143l0 -1M171 143l2 0M173 144l0 -1M173 144l2 0 1 1 2 0M178 146l0 -1M178 146l2 0M180 147l0 -1M180 147l3 0M183 148l0 -1M183 148l3 0M186 149l0 -1M186 149l3 0M189 150l0 -1M189 150l3 0"/>
<path stroke="#FFA500" d="M192 151l0 -1M192 151l4 0M196 152l0 -1M196 152l6 0M202 153l0 -1M202 153l13 0 0 -1 4 0 0 -1 2 0 0 -1 1 0 1 -1 1 0 0 -1 1 0 0 -1 1 0 0 -1 1 0 0 -2 1 0 0 -1 1 -1 0 -1 1 0 0 -3 1 0 0 -2 1 -1 0 -2 1 -1 0 -3 1 0 0 -4 1 -1"/>
<path stroke="#FFA500" d="M235 124l0 -4 1 -1 0 -5 1 0 0 -6 1 -1 0 -7 1 0 0 -9 1 0 0 -9 1 -1 0 -11 1 -1 0 -2M371 704l0 -637M408 704l0 -637"/>
</svg>
