<?xml version="1.0" standalone="yes"?>
<!DOCTYPE svg PUBLIC "-//W3C//DTD SVG 1.1//EN"
 "http://www.w3.org/Graphics/SVG/1.1/DTD/svg11.dtd">
<svg xmlns="http://www.w3.org/2000/svg" version="1.1"
  width="100%" height="100%" viewBox="0 0 1024 768"
  style="fill: none; font-family: Helvetica;
 font: Helvetica;
">

<!-- Creator: NGspice -->

<rect x="0" y="0" width="1024" height="768" fill="black" stroke="none"/>
<text stroke="none" fill="white" font-size="16" x="358" y="752">
Frequency
</text>
<text transform="rotate(-90, 20, 494)"  stroke="none" fill="white" font-size="16" x="20" y="494">
Magnitude in dB / VSWR
</text>
<text stroke="none" fill="white" font-size="16" x="10" y="16">
sp7: lpf15m
</text>
<path stroke="white" d="M85 704l0 -640"/>
<text stroke="none" fill="white" font-size="16" x="70" y="728">
0.0
</text>
<path stroke="white" stroke-dasharray="1,2" d="M194 704l0 -640"/>
<text stroke="none" fill="white" font-size="16" x="174" y="728">
20.0
</text>
<path stroke="white" stroke-dasharray="1,2" d="M303 704l0 -640"/>
<text stroke="none" fill="white" font-size="16" x="283" y="728">
40.0
</text>
<path stroke="white" stroke-dasharray="1,2" d="M412 704l0 -640"/>
<text stroke="none" fill="white" font-size="16" x="392" y="728">
60.0
</text>
<path stroke="white" stroke-dasharray="1,2" d="M521 704l0 -640"/>
<text stroke="none" fill="white" font-size="16" x="501" y="728">
80.0
</text>
<path stroke="white" stroke-dasharray="1,2" d="M630 704l0 -640"/>
<text stroke="none" fill="white" font-size="16" x="605" y="728">
100.0
</text>
<path stroke="white" stroke-dasharray="1,2" d="M739 704l0 -640"/>
<text stroke="none" fill="white" font-size="16" x="714" y="728">
120.0
</text>
<path stroke="white" stroke-dasharray="1,2" d="M848 704l0 -640"/>
<text stroke="none" fill="white" font-size="16" x="823" y="728">
140.0
</text>
<path stroke="white" stroke-dasharray="1,2" d="M957 704l0 -640"/>
<text stroke="none" fill="white" font-size="16" x="932" y="728">
160.0
</text>
<text stroke="none" fill="white" font-size="16" x="614" y="752">
MHz
</text>
<path stroke="white" stroke-dasharray="1,2" d="M85 704l872 0"/>
<text stroke="none" fill="white" font-size="16" x="33" y="712">
-70.0
</text>
<path stroke="white" stroke-dasharray="1,2" d="M85 624l872 0"/>
<text stroke="none" fill="white" font-size="16" x="33" y="632">
-60.0
</text>
<path stroke="white" stroke-dasharray="1,2" d="M85 544l872 0"/>
<text stroke="none" fill="white" font-size="16" x="33" y="552">
-50.0
</text>
<path stroke="white" stroke-dasharray="1,2" d="M85 464l872 0"/>
<text stroke="none" fill="white" font-size="16" x="33" y="472">
-40.0
</text>
<path stroke="white" stroke-dasharray="1,2" d="M85 384l872 0"/>
<text stroke="none" fill="white" font-size="16" x="33" y="392">
-30.0
</text>
<path stroke="white" stroke-dasharray="1,2" d="M85 304l872 0"/>
<text stroke="none" fill="white" font-size="16" x="33" y="312">
-20.0
</text>
<path stroke="white" stroke-dasharray="1,2" d="M85 224l872 0"/>
<text stroke="none" fill="white" font-size="16" x="33" y="232">
-10.0
</text>
<path stroke="white" d="M85 144l872 0"/>
<text stroke="none" fill="white" font-size="16" x="53" y="152">
0.0
</text>
<path stroke="white" stroke-dasharray="1,2" d="M85 64l872 0"/>
<text stroke="none" fill="white" font-size="16" x="43" y="72">
10.0
</text>
<text stroke="none" fill="white" font-size="16" x="10" y="32">
     
</text>
<path stroke="red" d="M436 23l43 0"/>
<text stroke="none" fill="white" font-size="16" x="489" y="32">
vdb(s_1_1)
</text>
<path stroke="red" d="M90 285l1 -1 0 -10 1 -1 0 -9 1 -1 0 -7 1 -1 0 -6 1 -1 0 -6 1 0 0 -5 1 -1 0 -4 1 -1 0 -4 1 -1 0 -4 1 0 0 -3 1 -1 0 -3 1 0 0 -3 1 -1 0 -2 1 0 0 -3 1 0 0 -3 1 0 0 -2 1 0 0 -2 1 0 0 -2 1 0 0 -2 1 0 0 -2 1 0 0 -1 1 -1 0 -1 1 0"/>
<path stroke="red" d="M113 190l0 -1 1 0 0 -2 1 0 0 -1 1 0 0 -1 1 0 0 -1 1 0 0 -1 1 0 0 -1 1 0 0 -1 1 0 0 -1 2 0 0 -1 1 0 1 -1 1 0 0 -1 3 0 0 -1 3 0 0 -1 14 0M146 176l0 -1M146 176l3 0M149 177l0 -1M149 177l2 0M151 178l0 -1M151 178l2 0M153 179l0 -1"/>
<path stroke="red" d="M153 179l2 0M155 180l0 -1M155 180l1 0M156 181l0 -1M156 181l1 0 1 1 1 0M159 183l0 -1M159 183l1 0M160 184l0 -1M160 184l1 0M161 185l0 -1M161 185l1 0M162 186l0 -1M162 186l1 1M163 188l0 -1M163 188l1 0M164 189l0 -1M164 189l1 0"/>
<path stroke="red" d="M165 190l0 -1M165 190l1 1M166 192l0 -1M166 192l1 0M167 193l0 -1M167 193l1 1M168 195l0 -1M168 195l1 0M169 197l0 -2M169 197l1 0M170 199l0 -2M170 199l1 0M171 201l0 -2M171 201l1 0M172 203l0 -2M172 203l1 0M173 206l0 -3M173 206l1 0"/>
<path stroke="red" d="M174 208l0 -2M174 208l1 0M175 211l0 -3M175 211l1 0M176 214l0 -3M176 214l1 0M177 217l0 -3M177 217l1 0M178 220l0 -3M178 220l1 0M179 224l0 -4M179 224l1 0M180 227l0 -3M180 227l1 0M181 231l0 -4M181 231l1 1M182 235l0 -3M182 235l1 1"/>
<path stroke="red" d="M183 240l0 -4M183 240l1 0M184 245l0 -5M184 245l1 0M185 250l0 -5M185 250l1 0M186 255l0 -5M186 255l1 0M187 261l0 -6M187 261l1 0M188 267l0 -6M188 267l1 0M189 273l0 -6M189 273l1 1M190 280l0 -6M190 280l1 0M191 288l0 -8M191 288l1 0"/>
<path stroke="red" d="M192 295l0 -7M192 295l1 1M193 304l0 -8M193 304l1 0M194 314l0 -10M194 314l1 0M195 324l0 -10M195 324l1 0M196 335l0 -11M196 335l1 1M197 348l0 -12M197 348l1 1M198 362l0 -13M198 362l1 1M199 377l0 -14M199 377l1 2M200 393l0 -14"/>
<path stroke="red" d="M200 393l1 1M201 400l0 -6M201 400l1 0 0 -8 1 -1 0 -18 1 -1 0 -17 1 -2 0 -16 1 -1 0 -14 1 -2 0 -14 1 -1 0 -12 1 -1 0 -11 1 -1 0 -11 1 -1 0 -9 1 -1 0 -9 1 -1 0 -9 1 -1 0 -8 1 0 0 -8 1 0 0 -8 1 0 0 -7 1 0 0 -6 1 -1 0 -6 1 0"/>
<path stroke="red" d="M220 194l0 -5 1 -1 0 -4 1 -1 0 -4 1 0 0 -4 1 0 0 -4 1 0 0 -3 1 0 0 -3 1 -1 0 -2 1 0 0 -2 1 0 0 -2 1 0 0 -2 1 0 0 -1 1 -1 0 -1 1 0 0 -1 1 0 0 -1 1 0 0 -1 1 0 0 -1 2 0 0 -1 2 0 0 -1 2 0 0 -1 5 0 0 -1 9 0 0 -1 647 0"/>
<path stroke="blue" d="M85 23l43 0"/>
<text stroke="none" fill="white" font-size="16" x="138" y="32">
vdb(s_2_1)
</text>
<path stroke="blue" d="M90 145l4 0M94 146l0 -1M94 146l2 0M96 147l0 -1M96 147l3 0M99 148l0 -1M99 148l2 0M101 149l0 -1M101 149l2 0M103 150l0 -1M103 150l2 0M105 151l0 -1M105 151l1 0 1 1 1 0M108 153l0 -1M108 153l2 0M110 154l0 -1M110 154l2 0M112 155l0 -1"/>
<path stroke="blue" d="M112 155l2 0M114 156l0 -1M114 156l2 0M116 157l0 -1M116 157l2 0M118 158l0 -1M118 158l2 0M120 159l0 -1M120 159l3 0M123 160l0 -1M123 160l3 0M126 161l0 -1M126 161l3 0M129 162l0 -1M129 162l7 0M136 163l0 -1M136 163l6 0 0 -1 6 0"/>
<path stroke="blue" d="M148 162l0 -1 4 0 0 -1 3 0 0 -1 2 0 0 -1 3 0 0 -1 2 0 0 -1 2 0 0 -1 2 0 0 -1 2 0 0 -1 1 0 1 -1 1 0 0 -1 2 0 0 -1 2 0 0 -1 3 0 0 -1 2 0 0 -1 3 0 0 -1 3 0 0 -1 6 0 0 -1 17 0M209 145l0 -1M209 145l3 0M212 146l0 -1M212 146l2 0"/>
<path stroke="blue" d="M214 147l0 -1M214 147l1 0M215 148l0 -1M215 148l1 0M216 149l0 -1M216 149l1 0M217 150l0 -1M217 150l1 0M218 152l0 -2M218 152l1 0M219 153l0 -1M219 153l1 0M220 155l0 -2M220 155l1 0M221 157l0 -2M221 157l1 0M222 160l0 -3M222 160l1 0"/>
<path stroke="blue" d="M223 162l0 -2M223 162l1 1M224 165l0 -2M224 165l1 1M225 168l0 -2M225 168l1 1M226 172l0 -3M226 172l1 0M227 175l0 -3M227 175l1 1M228 179l0 -3M228 179l1 0M229 183l0 -4M229 183l1 0M230 187l0 -4M230 187l1 0M231 191l0 -4M231 191l1 0"/>
<path stroke="blue" d="M232 195l0 -4M232 195l1 0M233 199l0 -4M233 199l1 0M234 203l0 -4M234 203l1 1M235 208l0 -4M235 208l1 0M236 212l0 -4M236 212l1 0M237 216l0 -4M237 216l1 0M238 220l0 -4M238 220l1 0M239 225l0 -5M239 225l1 0M240 229l0 -4M240 229l1 0"/>
<path stroke="blue" d="M241 233l0 -4M241 233l1 0M242 237l0 -4M242 237l1 1M243 241l0 -3M243 241l1 1M244 245l0 -3M244 245l1 1M245 250l0 -4M245 250l1 0M246 253l0 -3M246 253l1 1M247 257l0 -3M247 257l1 1M248 262l0 -4M248 262l1 0M249 265l0 -3M249 265l1 1"/>
<path stroke="blue" d="M250 269l0 -3M250 269l1 0M251 273l0 -4M251 273l1 1M252 277l0 -3M252 277l1 0M253 281l0 -4M253 281l1 0M254 284l0 -3M254 284l1 1M255 288l0 -3M255 288l1 0M256 292l0 -4M256 292l1 0M257 295l0 -3M257 295l1 0M258 299l0 -4M258 299l1 0"/>
<path stroke="blue" d="M259 302l0 -3M259 302l1 1M260 306l0 -3M260 306l1 0M261 310l0 -4M261 310l1 0M262 313l0 -3M262 313l1 0M263 316l0 -3M263 316l1 0M264 320l0 -4M264 320l1 0M265 323l0 -3M265 323l1 0M266 326l0 -3M266 326l1 1M267 330l0 -3M267 330l1 0"/>
<path stroke="blue" d="M268 333l0 -3M268 333l1 0M269 336l0 -3M269 336l1 0M270 339l0 -3M270 339l1 1M271 343l0 -3M271 343l1 0M272 346l0 -3M272 346l1 0M273 349l0 -3M273 349l1 0M274 352l0 -3M274 352l1 0M275 355l0 -3M275 355l1 0M276 358l0 -3M276 358l1 0"/>
<path stroke="blue" d="M277 361l0 -3M277 361l1 0M278 364l0 -3M278 364l1 0M279 367l0 -3M279 367l1 0M280 370l0 -3M280 370l1 0M281 373l0 -3M281 373l1 0M282 376l0 -3M282 376l1 0M283 379l0 -3M283 379l1 0M284 382l0 -3M284 382l1 0M285 385l0 -3M285 385l1 0"/>
<path stroke="blue" d="M286 388l0 -3M286 388l1 0M287 391l0 -3M287 391l1 0M288 393l0 -2M288 393l1 1M289 396l0 -2M289 396l1 0M290 399l0 -3M290 399l1 0M291 402l0 -3M291 402l1 0M292 404l0 -2M292 404l1 1M293 407l0 -2M293 407l1 1M294 410l0 -2M294 410l1 0"/>
<path stroke="blue" d="M295 413l0 -3M295 413l1 0M296 416l0 -3M296 416l1 0M297 418l0 -2M297 418l1 1M298 421l0 -2M298 421l1 0M299 424l0 -3M299 424l1 0M300 427l0 -3M300 427l1 0M301 429l0 -2M301 429l1 0M302 432l0 -3M302 432l1 0M303 435l0 -3M303 435l1 0"/>
<path stroke="blue" d="M304 437l0 -2M304 437l1 0M305 440l0 -3M305 440l1 0M306 443l0 -3M306 443l1 0M307 445l0 -2M307 445l1 0M308 448l0 -3M308 448l1 0M309 451l0 -3M309 451l1 0M310 453l0 -2M310 453l1 0M311 456l0 -3M311 456l1 0M312 458l0 -2M312 458l1 1"/>
<path stroke="blue" d="M313 461l0 -2M313 461l1 0M314 463l0 -2M314 463l1 1M315 466l0 -2M315 466l1 0M316 469l0 -3M316 469l1 0M317 471l0 -2M317 471l1 1M318 474l0 -2M318 474l1 0M319 477l0 -3M319 477l1 0M320 479l0 -2M320 479l1 0M321 482l0 -3M321 482l1 0"/>
<path stroke="blue" d="M322 484l0 -2M322 484l1 1M323 487l0 -2M323 487l1 0M324 489l0 -2M324 489l1 1M325 492l0 -2M325 492l1 0M326 495l0 -3M326 495l1 0M327 497l0 -2M327 497l1 1M328 500l0 -2M328 500l1 0M329 503l0 -3M329 503l1 0M330 505l0 -2M330 505l1 0"/>
<path stroke="blue" d="M331 508l0 -3M331 508l1 0M332 510l0 -2M332 510l1 1M333 513l0 -2M333 513l1 0M334 516l0 -3M334 516l1 0M335 518l0 -2M335 518l1 1M336 521l0 -2M336 521l1 0M337 524l0 -3M337 524l1 0M338 526l0 -2M338 526l1 1M339 529l0 -2M339 529l1 0"/>
<path stroke="blue" d="M340 532l0 -3M340 532l1 0M341 534l0 -2M341 534l1 1M342 537l0 -2M342 537l1 0M343 540l0 -3M343 540l1 0M344 543l0 -3M344 543l1 0M345 545l0 -2M345 545l1 0M346 548l0 -3M346 548l1 0M347 551l0 -3M347 551l1 0M348 554l0 -3M348 554l1 0"/>
<path stroke="blue" d="M349 556l0 -2M349 556l1 1M350 559l0 -2M350 559l1 1M351 562l0 -2M351 562l1 0M352 565l0 -3M352 565l1 0M353 568l0 -3M353 568l1 0M354 571l0 -3M354 571l1 0M355 574l0 -3M355 574l1 0M356 577l0 -3M356 577l1 0M357 580l0 -3M357 580l1 0"/>
<path stroke="blue" d="M358 583l0 -3M358 583l1 0M359 586l0 -3M359 586l1 0M360 589l0 -3M360 589l1 0M361 592l0 -3M361 592l1 0M362 595l0 -3M362 595l1 0M363 599l0 -4M363 599l1 0M364 602l0 -3M364 602l1 0M365 605l0 -3M365 605l1 0M366 609l0 -4M366 609l1 0"/>
<path stroke="blue" d="M367 612l0 -3M367 612l1 0M368 615l0 -3M368 615l1 1M369 619l0 -3M369 619l1 0M370 623l0 -4M370 623l1 0M371 626l0 -3M371 626l1 0M372 630l0 -4M372 630l1 0M373 634l0 -4M373 634l1 0M374 638l0 -4M374 638l1 0M375 642l0 -4M375 642l1 0"/>
<path stroke="blue" d="M376 646l0 -4M376 646l1 0M377 650l0 -4M377 650l1 1M378 655l0 -4M378 655l1 0M379 659l0 -4M379 659l1 1M380 664l0 -4M380 664l1 0M381 669l0 -5M381 669l1 0M382 674l0 -5M382 674l1 1M383 679l0 -4M383 679l1 1M384 685l0 -5M384 685l1 0"/>
<path stroke="blue" d="M385 691l0 -6M385 691l1 1M386 697l0 -5M386 697l1 1M387 704l0 -6M387 704l1 0M421 704l0 -1 1 0 0 -2 1 -1 0 -1 1 0 0 -2 1 0 0 -2 1 0 0 -2 1 0 0 -1 1 0 0 -2 1 0 0 -1 1 0 0 -1 1 0 0 -2 1 0 0 -1 1 0 0 -1 1 0 0 -1 1 0 0 -1 1 0"/>
<path stroke="blue" d="M436 682l0 -1 1 0 0 -1 1 0 0 -1 2 0 0 -1 1 0 0 -1 1 0 1 -1 1 0 0 -1 2 0 0 -1 2 0 0 -1 2 0 0 -1 2 0 0 -1 3 0 0 -1 3 0 0 -1 4 0 0 -1 5 0 0 -1 11 0 0 -1 9 0M487 667l0 -1M487 667l14 0M501 668l0 -1M501 668l8 0M509 669l0 -1M509 669l6 0"/>
<path stroke="blue" d="M515 670l0 -1M515 670l6 0M521 671l0 -1M521 671l6 0M527 672l0 -1M527 672l5 0M532 673l0 -1M532 673l4 0M536 674l0 -1M536 674l5 0M541 675l0 -1M541 675l4 0M545 676l0 -1M545 676l5 0M550 677l0 -1M550 677l4 0M554 678l0 -1M554 678l4 0"/>
<path stroke="blue" d="M558 679l0 -1M558 679l4 0M562 680l0 -1M562 680l4 0M566 681l0 -1M566 681l4 0M570 682l0 -1M570 682l4 0M574 683l0 -1M574 683l4 0M578 684l0 -1M578 684l4 0M582 685l0 -1M582 685l3 0M585 686l0 -1M585 686l4 0M589 687l0 -1M589 687l4 0"/>
<path stroke="blue" d="M593 688l0 -1M593 688l3 0 1 1 3 0M600 690l0 -1M600 690l4 0M604 691l0 -1M604 691l3 0 1 1 3 0M611 693l0 -1M611 693l4 0M615 694l0 -1M615 694l3 0M618 695l0 -1M618 695l4 0M622 696l0 -1M622 696l4 0M626 697l0 -1M626 697l3 0M629 698l0 -1"/>
<path stroke="blue" d="M629 698l4 0M633 699l0 -1M633 699l3 0M636 700l0 -1M636 700l4 0M640 701l0 -1M640 701l3 0 1 1 3 0M647 703l0 -1M647 703l4 0M651 704l0 -1M651 704l3 0"/>
<path stroke="#FFA500" d="M436 39l43 0"/>
<text stroke="none" fill="white" font-size="16" x="489" y="48">
vswr
</text>
<path stroke="#FFA500" d="M90 134l1 0 0 -1 2 0 0 -1 1 0 0 -1 2 0 0 -1 2 0 0 -1 1 0 0 -1 2 0 0 -1 1 0 0 -1 2 0 0 -1 1 0 0 -1 1 0 0 -1 2 0 0 -1 1 0 0 -1 1 0 0 -1 2 0 0 -1 1 0 0 -1 1 0 1 -1 1 0 0 -1 1 0 0 -1 2 0 0 -1 1 0 0 -1 2 0 0 -1 2 0 0 -1 2 0"/>
<path stroke="#FFA500" d="M126 111l0 -1 2 0 0 -1 2 0 0 -1 4 0 0 -1 9 0M143 108l0 -1M143 108l4 0M147 109l0 -1M147 109l3 0M150 110l0 -1M150 110l2 0M152 111l0 -1M152 111l2 0M154 112l0 -1M154 112l2 0M156 113l0 -1M156 113l1 0M157 114l0 -1M157 114l2 0"/>
<path stroke="#FFA500" d="M159 115l0 -1M159 115l1 0M160 116l0 -1M160 116l2 0M162 117l0 -1M162 117l1 0M163 118l0 -1M163 118l2 0M165 119l0 -1M165 119l1 0M166 120l0 -1M166 120l1 0M167 121l0 -1M167 121l2 0M169 122l0 -1M169 122l1 0M170 123l0 -1M170 123l2 0"/>
<path stroke="#FFA500" d="M172 124l0 -1M172 124l1 0M173 125l0 -1M173 125l2 0M175 126l0 -1M175 126l1 0M176 127l0 -1M176 127l2 0M178 128l0 -1M178 128l1 0M179 129l0 -1M179 129l2 0M181 130l0 -1M181 130l2 0M183 131l0 -1M183 131l2 0M185 132l0 -1M185 132l3 0"/>
<path stroke="#FFA500" d="M188 133l0 -1M188 133l3 0M191 134l0 -1M191 134l4 0M195 135l0 -1M195 135l5 0M200 136l0 -1M200 136l3 0 0 -1 4 0 0 -1 2 0 0 -1 2 0 0 -1 1 0 0 -1 1 0 2 -2 0 -1 1 0 0 -1 1 0 0 -2 1 0 0 -2 1 0 0 -2 1 0 0 -3 1 0 0 -3 1 0 0 -3"/>
<path stroke="#FFA500" d="M222 112l1 -1 0 -4 1 0 0 -4 1 -1 0 -5 1 -1 0 -6 1 -1 0 -7 1 0 0 -8 1 -1 0 -9"/>
</svg>
