<?xml version="1.0" standalone="yes"?>
<!DOCTYPE svg PUBLIC "-//W3C//DTD SVG 1.1//EN"
 "http://www.w3.org/Graphics/SVG/1.1/DTD/svg11.dtd">
<svg xmlns="http://www.w3.org/2000/svg" version="1.1"
  width="100%" height="100%" viewBox="0 0 1024 768"
  style="fill: none; font-family: Helvetica;
 font: Helvetica;
">

<!-- Creator: NGspice -->

<rect x="0" y="0" width="1024" height="768" fill="black" stroke="none"/>
<text stroke="none" fill="white" font-size="16" x="358" y="752">
Frequency
</text>
<text transform="rotate(-90, 20, 494)"  stroke="none" fill="white" font-size="16" x="20" y="494">
Magnitude in dB / VSWR
</text>
<text stroke="none" fill="white" font-size="16" x="10" y="16">
sp8: lpf20m
</text>
<path stroke="white" d="M85 704l0 -640"/>
<text stroke="none" fill="white" font-size="16" x="70" y="728">
0.0
</text>
<path stroke="white" stroke-dasharray="1,2" d="M194 704l0 -640"/>
<text stroke="none" fill="white" font-size="16" x="174" y="728">
20.0
</text>
<path stroke="white" stroke-dasharray="1,2" d="M303 704l0 -640"/>
<text stroke="none" fill="white" font-size="16" x="283" y="728">
40.0
</text>
<path stroke="white" stroke-dasharray="1,2" d="M412 704l0 -640"/>
<text stroke="none" fill="white" font-size="16" x="392" y="728">
60.0
</text>
<path stroke="white" stroke-dasharray="1,2" d="M521 704l0 -640"/>
<text stroke="none" fill="white" font-size="16" x="501" y="728">
80.0
</text>
<path stroke="white" stroke-dasharray="1,2" d="M630 704l0 -640"/>
<text stroke="none" fill="white" font-size="16" x="605" y="728">
100.0
</text>
<path stroke="white" stroke-dasharray="1,2" d="M739 704l0 -640"/>
<text stroke="none" fill="white" font-size="16" x="714" y="728">
120.0
</text>
<path stroke="white" stroke-dasharray="1,2" d="M848 704l0 -640"/>
<text stroke="none" fill="white" font-size="16" x="823" y="728">
140.0
</text>
<path stroke="white" stroke-dasharray="1,2" d="M957 704l0 -640"/>
<text stroke="none" fill="white" font-size="16" x="932" y="728">
160.0
</text>
<text stroke="none" fill="white" font-size="16" x="614" y="752">
MHz
</text>
<path stroke="white" stroke-dasharray="1,2" d="M85 704l872 0"/>
<text stroke="none" fill="white" font-size="16" x="33" y="712">
-70.0
</text>
<path stroke="white" stroke-dasharray="1,2" d="M85 624l872 0"/>
<text stroke="none" fill="white" font-size="16" x="33" y="632">
-60.0
</text>
<path stroke="white" stroke-dasharray="1,2" d="M85 544l872 0"/>
<text stroke="none" fill="white" font-size="16" x="33" y="552">
-50.0
</text>
<path stroke="white" stroke-dasharray="1,2" d="M85 464l872 0"/>
<text stroke="none" fill="white" font-size="16" x="33" y="472">
-40.0
</text>
<path stroke="white" stroke-dasharray="1,2" d="M85 384l872 0"/>
<text stroke="none" fill="white" font-size="16" x="33" y="392">
-30.0
</text>
<path stroke="white" stroke-dasharray="1,2" d="M85 304l872 0"/>
<text stroke="none" fill="white" font-size="16" x="33" y="312">
-20.0
</text>
<path stroke="white" stroke-dasharray="1,2" d="M85 224l872 0"/>
<text stroke="none" fill="white" font-size="16" x="33" y="232">
-10.0
</text>
<path stroke="white" d="M85 144l872 0"/>
<text stroke="none" fill="white" font-size="16" x="53" y="152">
0.0
</text>
<path stroke="white" stroke-dasharray="1,2" d="M85 64l872 0"/>
<text stroke="none" fill="white" font-size="16" x="43" y="72">
10.0
</text>
<text stroke="none" fill="white" font-size="16" x="10" y="32">
     
</text>
<path stroke="red" d="M436 23l43 0"/>
<text stroke="none" fill="white" font-size="16" x="489" y="32">
vdb(s_1_1)
</text>
<path stroke="red" d="M90 518l1 -1 0 -11 1 -1 0 -10 1 -1 0 -9 1 0 0 -8 1 -1 0 -8 1 0 0 -7 1 -1 0 -6 1 0 0 -7 1 0 0 -6 1 0 0 -6 1 0 0 -6 1 0 0 -5 1 -1 0 -5 1 0 0 -5 1 0 0 -5 1 0 0 -5 1 0 0 -4 1 -1 0 -4 1 -1 0 -4 1 0 0 -4 1 0 0 -4 1 -1 0 -3 1 -1"/>
<path stroke="red" d="M113 376l0 -3 1 0 0 -4 1 -1 0 -3 1 0 0 -3 1 -1 0 -3 1 -1 0 -3 1 0 0 -3 1 0 0 -3 1 -1 0 -3 1 0 0 -3 1 0 0 -3 1 0 0 -3 1 0 0 -2 1 -1 0 -2 1 0 0 -3 1 0 0 -2 1 0 0 -3 1 0 0 -2 1 0 0 -2 1 -1 0 -1 1 -1 0 -2 1 0 0 -2 1 0 0 -1 1 0"/>
<path stroke="red" d="M136 310l0 -2 1 0 0 -2 1 0 0 -1 1 0 0 -2 1 0 0 -1 1 0 0 -1 1 0 0 -1 1 0 0 -1 1 0 0 -1 2 0 0 -1 5 0M151 298l0 -1M151 298l1 0M152 299l0 -1M152 299l1 0M153 300l0 -1M153 300l1 0M154 301l0 -1M154 301l1 0M155 303l0 -2M155 303l1 0"/>
<path stroke="red" d="M156 305l0 -2M156 305l1 0M157 308l0 -3M157 308l1 0M158 311l0 -3M158 311l1 0M159 315l0 -4M159 315l1 0M160 319l0 -4M160 319l1 1M161 325l0 -5M161 325l1 0M162 332l0 -7M162 332l1 1M163 341l0 -8M163 341l1 0M164 351l0 -10M164 351l1 1"/>
<path stroke="red" d="M165 366l0 -14M165 366l1 2M166 386l0 -18M166 386l1 2M167 417l0 -29M167 417l1 4M168 488l0 -67M168 488l1 9M169 536l0 -55 1 -9 0 -61 1 -4 0 -34 1 -2 0 -25 1 -2 0 -18 1 -1 0 -15 1 -1 0 -14 1 -1 0 -11 1 -1 0 -10 1 0 0 -10 1 -1"/>
<path stroke="red" d="M179 261l0 -8 1 -1 0 -7 1 -1 0 -8 1 0 0 -7 1 0 0 -7 1 0 0 -6 1 -1 0 -5 1 0 0 -5 1 -1 0 -5 1 0 0 -4 1 -1 0 -4 1 0 0 -4 1 0 0 -4 1 0 0 -3 1 -1 0 -2 1 -1 0 -3 1 0 0 -2 1 0 0 -3 1 0 0 -2 1 0 0 -2 1 0 0 -2 1 0 0 -2 1 0 0 -1 1 0"/>
<path stroke="red" d="M202 158l0 -2 1 0 0 -1 1 0 0 -1 1 0 0 -1 1 0 0 -1 1 0 0 -1 2 0 0 -1 1 0 0 -1 2 0 0 -1 3 0 0 -1 3 0 0 -1 5 0 0 -1 12 0 0 -1 668 0"/>
<path stroke="blue" d="M85 23l43 0"/>
<text stroke="none" fill="white" font-size="16" x="138" y="32">
vdb(s_2_1)
</text>
<path stroke="blue" d="M90 144l86 0M176 145l0 -1M176 145l3 0M179 146l0 -1M179 146l2 0M181 147l0 -1M181 147l2 0M183 148l0 -1M183 148l1 0M184 149l0 -1M184 149l1 0M185 150l0 -1M185 150l1 0M186 151l0 -1M186 151l1 0M187 152l0 -1M187 152l1 0M188 153l0 -1"/>
<path stroke="blue" d="M188 153l1 0M189 155l0 -2M189 155l1 0M190 156l0 -1M190 156l1 0M191 158l0 -2M191 158l1 0M192 160l0 -2M192 160l1 0M193 162l0 -2M193 162l1 0M194 164l0 -2M194 164l1 0M195 167l0 -3M195 167l1 0M196 169l0 -2M196 169l1 0M197 172l0 -3"/>
<path stroke="blue" d="M197 172l1 0M198 174l0 -2M198 174l1 0M199 177l0 -3M199 177l1 0M200 180l0 -3M200 180l1 0M201 183l0 -3M201 183l1 0M202 186l0 -3M202 186l1 0M203 189l0 -3M203 189l1 0M204 192l0 -3M204 192l1 0M205 195l0 -3M205 195l1 0M206 198l0 -3"/>
<path stroke="blue" d="M206 198l1 0M207 202l0 -4M207 202l1 0M208 205l0 -3M208 205l1 0M209 208l0 -3M209 208l1 0M210 212l0 -4M210 212l1 0M211 215l0 -3M211 215l1 0M212 218l0 -3M212 218l1 0M213 222l0 -4M213 222l1 0M214 225l0 -3M214 225l1 0M215 228l0 -3"/>
<path stroke="blue" d="M215 228l1 0M216 231l0 -3M216 231l1 1M217 235l0 -3M217 235l1 0M218 238l0 -3M218 238l1 0M219 241l0 -3M219 241l1 1M220 245l0 -3M220 245l1 0M221 248l0 -3M221 248l1 0M222 251l0 -3M222 251l1 0M223 254l0 -3M223 254l1 1M224 257l0 -2"/>
<path stroke="blue" d="M224 257l1 1M225 261l0 -3M225 261l1 0M226 264l0 -3M226 264l1 0M227 267l0 -3M227 267l1 0M228 270l0 -3M228 270l1 0M229 273l0 -3M229 273l1 1M230 276l0 -2M230 276l1 1M231 279l0 -2M231 279l1 1M232 283l0 -3M232 283l1 0M233 286l0 -3"/>
<path stroke="blue" d="M233 286l1 0M234 289l0 -3M234 289l1 0M235 292l0 -3M235 292l1 0M236 295l0 -3M236 295l1 0M237 298l0 -3M237 298l1 0M238 300l0 -2M238 300l1 1M239 304l0 -3M239 304l1 0M240 306l0 -2M240 306l1 1M241 309l0 -2M241 309l1 1M242 312l0 -2"/>
<path stroke="blue" d="M242 312l1 1M243 315l0 -2M243 315l1 0M244 318l0 -3M244 318l1 0M245 321l0 -3M245 321l1 0M246 324l0 -3M246 324l1 0M247 327l0 -3M247 327l1 0M248 330l0 -3M248 330l1 0M249 332l0 -2M249 332l1 1M250 335l0 -2M250 335l1 0M251 338l0 -3"/>
<path stroke="blue" d="M251 338l1 0M252 341l0 -3M252 341l1 0M253 343l0 -2M253 343l1 1M254 346l0 -2M254 346l1 0M255 349l0 -3M255 349l1 0M256 352l0 -3M256 352l1 0M257 354l0 -2M257 354l1 0M258 357l0 -3M258 357l1 0M259 360l0 -3M259 360l1 0M260 362l0 -2"/>
<path stroke="blue" d="M260 362l1 1M261 365l0 -2M261 365l1 0M262 368l0 -3M262 368l1 0M263 370l0 -2M263 370l1 1M264 373l0 -2M264 373l1 0M265 376l0 -3M265 376l1 0M266 378l0 -2M266 378l1 1M267 381l0 -2M267 381l1 0M268 384l0 -3M268 384l1 0M269 386l0 -2"/>
<path stroke="blue" d="M269 386l1 1M270 389l0 -2M270 389l1 0M271 392l0 -3M271 392l1 0M272 394l0 -2M272 394l1 0M273 397l0 -3M273 397l1 0M274 400l0 -3M274 400l1 0M275 402l0 -2M275 402l1 0M276 405l0 -3M276 405l1 0M277 407l0 -2M277 407l1 1M278 410l0 -2"/>
<path stroke="blue" d="M278 410l1 0M279 412l0 -2M279 412l1 1M280 415l0 -2M280 415l1 0M281 418l0 -3M281 418l1 0M282 420l0 -2M282 420l1 0M283 423l0 -3M283 423l1 0M284 425l0 -2M284 425l1 1M285 428l0 -2M285 428l1 0M286 431l0 -3M286 431l1 0M287 433l0 -2"/>
<path stroke="blue" d="M287 433l1 0M288 436l0 -3M288 436l1 0M289 438l0 -2M289 438l1 1M290 441l0 -2M290 441l1 0M291 444l0 -3M291 444l1 0M292 446l0 -2M292 446l1 0M293 449l0 -3M293 449l1 0M294 451l0 -2M294 451l1 1M295 454l0 -2M295 454l1 0M296 457l0 -3"/>
<path stroke="blue" d="M296 457l1 0M297 459l0 -2M297 459l1 1M298 462l0 -2M298 462l1 0M299 465l0 -3M299 465l1 0M300 467l0 -2M300 467l1 0M301 470l0 -3M301 470l1 0M302 473l0 -3M302 473l1 0M303 475l0 -2M303 475l1 0M304 478l0 -3M304 478l1 0M305 480l0 -2"/>
<path stroke="blue" d="M305 480l1 1M306 483l0 -2M306 483l1 1M307 486l0 -2M307 486l1 0M308 489l0 -3M308 489l1 0M309 491l0 -2M309 491l1 1M310 494l0 -2M310 494l1 0M311 497l0 -3M311 497l1 0M312 500l0 -3M312 500l1 0M313 503l0 -3M313 503l1 0M314 505l0 -2"/>
<path stroke="blue" d="M314 505l1 1M315 508l0 -2M315 508l1 1M316 511l0 -2M316 511l1 0M317 514l0 -3M317 514l1 0M318 517l0 -3M318 517l1 0M319 520l0 -3M319 520l1 0M320 523l0 -3M320 523l1 0M321 526l0 -3M321 526l1 0M322 529l0 -3M322 529l1 0M323 532l0 -3"/>
<path stroke="blue" d="M323 532l1 0M324 535l0 -3M324 535l1 0M325 538l0 -3M325 538l1 0M326 541l0 -3M326 541l1 0M327 544l0 -3M327 544l1 1M328 548l0 -3M328 548l1 0M329 551l0 -3M329 551l1 0M330 554l0 -3M330 554l1 0M331 558l0 -4M331 558l1 0M332 561l0 -3"/>
<path stroke="blue" d="M332 561l1 0M333 565l0 -4M333 565l1 0M334 568l0 -3M334 568l1 1M335 572l0 -3M335 572l1 0M336 575l0 -3M336 575l1 1M337 579l0 -3M337 579l1 0M338 583l0 -4M338 583l1 1M339 587l0 -3M339 587l1 0M340 591l0 -4M340 591l1 0M341 595l0 -4"/>
<path stroke="blue" d="M341 595l1 1M342 600l0 -4M342 600l1 0M343 604l0 -4M343 604l1 0M344 609l0 -5M344 609l1 0M345 613l0 -4M345 613l1 1M346 618l0 -4M346 618l1 1M347 624l0 -5M347 624l1 0M348 629l0 -5M348 629l1 0M349 634l0 -5M349 634l1 1M350 640l0 -5"/>
<path stroke="blue" d="M350 640l1 1M351 647l0 -6M351 647l1 0M352 653l0 -6M352 653l1 0M353 660l0 -7M353 660l1 1M354 668l0 -7M354 668l1 0M355 676l0 -8M355 676l1 0M356 684l0 -8M356 684l1 1M357 695l0 -10M357 695l1 1M358 704l0 -8M373 704l1 0 0 -6"/>
<path stroke="blue" d="M374 698l1 -1 0 -5 1 0 0 -6 1 0 0 -4 1 0 0 -4 1 -1 0 -3 1 -1 0 -3 1 0 0 -3 1 0 0 -3 1 0 0 -3 1 0 0 -2 1 0 0 -3 1 0 0 -2 1 0 0 -2 1 0 0 -2 1 0 0 -2 1 0 0 -2 1 0 0 -1 1 0 0 -2 1 0 0 -1 1 0 0 -2 1 0 0 -1 1 0 0 -1 1 0 0 -1"/>
<path stroke="blue" d="M397 637l1 0 0 -1 1 0 0 -1 1 0 0 -1 1 0 0 -1 1 0 0 -1 1 0 0 -1 1 0 0 -1 2 0 0 -1 1 0 0 -1 2 0 0 -1 1 0 0 -1 2 0 0 -1 2 0 0 -1 3 0 0 -1 3 0 0 -1 3 0 0 -1 5 0 0 -1 7 0 0 -1 19 0M454 620l0 -1M454 620l10 0M464 621l0 -1M464 621l7 0"/>
<path stroke="blue" d="M471 622l0 -1M471 622l6 0M477 623l0 -1M477 623l5 0M482 624l0 -1M482 624l5 0 1 1 4 0M492 626l0 -1M492 626l5 0M497 627l0 -1M497 627l4 0M501 628l0 -1M501 628l4 0M505 629l0 -1M505 629l4 0M509 630l0 -1M509 630l4 0M513 631l0 -1"/>
<path stroke="blue" d="M513 631l4 0M517 632l0 -1M517 632l4 0M521 633l0 -1M521 633l4 0M525 634l0 -1M525 634l3 0M528 635l0 -1M528 635l4 0M532 636l0 -1M532 636l3 0 1 1 3 0M539 638l0 -1M539 638l4 0M543 639l0 -1M543 639l3 0M546 640l0 -1M546 640l4 0"/>
<path stroke="blue" d="M550 641l0 -1M550 641l3 0M553 642l0 -1M553 642l4 0M557 643l0 -1M557 643l3 0M560 644l0 -1M560 644l3 0 1 1 3 0M567 646l0 -1M567 646l3 0M570 647l0 -1M570 647l4 0M574 648l0 -1M574 648l3 0M577 649l0 -1M577 649l3 0M580 650l0 -1"/>
<path stroke="blue" d="M580 650l4 0M584 651l0 -1M584 651l3 0M587 652l0 -1M587 652l4 0M591 653l0 -1M591 653l3 0M594 654l0 -1M594 654l3 0M597 655l0 -1M597 655l4 0M601 656l0 -1M601 656l3 0M604 657l0 -1M604 657l3 0M607 658l0 -1M607 658l4 0M611 659l0 -1"/>
<path stroke="blue" d="M611 659l3 0M614 660l0 -1M614 660l3 0 1 1 3 0M621 662l0 -1M621 662l3 0M624 663l0 -1M624 663l4 0M628 664l0 -1M628 664l3 0M631 665l0 -1M631 665l3 0M634 666l0 -1M634 666l4 0M638 667l0 -1M638 667l3 0M641 668l0 -1M641 668l3 0"/>
<path stroke="blue" d="M644 669l0 -1M644 669l4 0M648 670l0 -1M648 670l3 0M651 671l0 -1M651 671l4 0M655 672l0 -1M655 672l3 0M658 673l0 -1M658 673l4 0M662 674l0 -1M662 674l3 0M665 675l0 -1M665 675l3 0M668 676l0 -1M668 676l4 0M672 677l0 -1M672 677l3 0"/>
<path stroke="blue" d="M675 678l0 -1M675 678l4 0M679 679l0 -1M679 679l3 0M682 680l0 -1M682 680l4 0M686 681l0 -1M686 681l3 0M689 682l0 -1M689 682l4 0M693 683l0 -1M693 683l3 0M696 684l0 -1M696 684l4 0M700 685l0 -1M700 685l3 0M703 686l0 -1M703 686l4 0"/>
<path stroke="blue" d="M707 687l0 -1M707 687l3 0M710 688l0 -1M710 688l4 0M714 689l0 -1M714 689l3 0 1 1 3 0M721 691l0 -1M721 691l4 0M725 692l0 -1M725 692l3 0M728 693l0 -1M728 693l4 0M732 694l0 -1M732 694l4 0M736 695l0 -1M736 695l3 0M739 696l0 -1"/>
<path stroke="blue" d="M739 696l4 0M743 697l0 -1M743 697l3 0 1 1 3 0M750 699l0 -1M750 699l4 0M754 700l0 -1M754 700l4 0M758 701l0 -1M758 701l3 0M761 702l0 -1M761 702l4 0M765 703l0 -1M765 703l4 0M769 704l0 -1M769 704l4 0"/>
<path stroke="#FFA500" d="M436 39l43 0"/>
<text stroke="none" fill="white" font-size="16" x="489" y="48">
vswr
</text>
<path stroke="#FFA500" d="M90 136l20 0 0 -1 23 0 0 -1 26 0M159 135l0 -1M159 135l7 0 1 1 4 0 0 -1 3 0 0 -1 2 0 1 -1 1 0 0 -1 2 0 0 -1 1 0 0 -1 1 0 0 -1 1 0 0 -1 1 0 0 -1 1 0 0 -1 1 0 0 -1 1 -1 0 -1 1 0 0 -2 1 0 0 -2 1 0 0 -2 1 0 0 -3 1 0 0 -3"/>
<path stroke="#FFA500" d="M192 111l1 0 0 -3 1 0 0 -4 1 0 0 -4 1 0 0 -4 1 -1 0 -5 1 0 0 -5 1 -1 0 -5 1 -1 0 -7 1 -1 0 -6"/>
</svg>
