<?xml version="1.0" standalone="yes"?>
<!DOCTYPE svg PUBLIC "-//W3C//DTD SVG 1.1//EN"
 "http://www.w3.org/Graphics/SVG/1.1/DTD/svg11.dtd">
<svg xmlns="http://www.w3.org/2000/svg" version="1.1"
  width="100%" height="100%" viewBox="0 0 1024 768"
  style="fill: none; font-family: Helvetica;
 font: Helvetica;
">

<!-- Creator: NGspice -->

<rect x="0" y="0" width="1024" height="768" fill="black" stroke="none"/>
<text stroke="none" fill="white" font-size="16" x="358" y="752">
Frequency
</text>
<text transform="rotate(-90, 20, 494)"  stroke="none" fill="white" font-size="16" x="20" y="494">
Magnitude in dB / VSWR
</text>
<text stroke="none" fill="white" font-size="16" x="10" y="16">
sp5: lpf6m
</text>
<path stroke="white" d="M95 704l0 -637"/>
<text stroke="none" fill="white" font-size="16" x="80" y="728">
0.0
</text>
<path stroke="white" stroke-dasharray="1,2" d="M202 704l0 -637"/>
<text stroke="none" fill="white" font-size="16" x="182" y="728">
20.0
</text>
<path stroke="white" stroke-dasharray="1,2" d="M309 704l0 -637"/>
<text stroke="none" fill="white" font-size="16" x="289" y="728">
40.0
</text>
<path stroke="white" stroke-dasharray="1,2" d="M416 704l0 -637"/>
<text stroke="none" fill="white" font-size="16" x="396" y="728">
60.0
</text>
<path stroke="white" stroke-dasharray="1,2" d="M523 704l0 -637"/>
<text stroke="none" fill="white" font-size="16" x="503" y="728">
80.0
</text>
<path stroke="white" stroke-dasharray="1,2" d="M630 704l0 -637"/>
<text stroke="none" fill="white" font-size="16" x="605" y="728">
100.0
</text>
<path stroke="white" stroke-dasharray="1,2" d="M737 704l0 -637"/>
<text stroke="none" fill="white" font-size="16" x="712" y="728">
120.0
</text>
<path stroke="white" stroke-dasharray="1,2" d="M844 704l0 -637"/>
<text stroke="none" fill="white" font-size="16" x="819" y="728">
140.0
</text>
<path stroke="white" stroke-dasharray="1,2" d="M951 704l0 -637"/>
<text stroke="none" fill="white" font-size="16" x="926" y="728">
160.0
</text>
<text stroke="none" fill="white" font-size="16" x="614" y="752">
MHz
</text>
<path stroke="white" stroke-dasharray="1,2" d="M95 704l856 0"/>
<text stroke="none" fill="white" font-size="16" x="33" y="712">
-120.0
</text>
<path stroke="white" stroke-dasharray="1,2" d="M95 613l856 0"/>
<text stroke="none" fill="white" font-size="16" x="33" y="621">
-100.0
</text>
<path stroke="white" stroke-dasharray="1,2" d="M95 522l856 0"/>
<text stroke="none" fill="white" font-size="16" x="43" y="530">
-80.0
</text>
<path stroke="white" stroke-dasharray="1,2" d="M95 431l856 0"/>
<text stroke="none" fill="white" font-size="16" x="43" y="439">
-60.0
</text>
<path stroke="white" stroke-dasharray="1,2" d="M95 340l856 0"/>
<text stroke="none" fill="white" font-size="16" x="43" y="348">
-40.0
</text>
<path stroke="white" stroke-dasharray="1,2" d="M95 249l856 0"/>
<text stroke="none" fill="white" font-size="16" x="43" y="257">
-20.0
</text>
<path stroke="white" d="M95 158l856 0"/>
<text stroke="none" fill="white" font-size="16" x="53" y="166">
-0.0
</text>
<path stroke="white" stroke-dasharray="1,2" d="M95 67l856 0"/>
<text stroke="none" fill="white" font-size="16" x="53" y="75">
20.0
</text>
<text stroke="none" fill="white" font-size="16" x="10" y="32">
     
</text>
<path stroke="red" d="M428 23l42 0"/>
<text stroke="none" fill="white" font-size="16" x="480" y="32">
vdb(s_1_1)
</text>
<path stroke="red" d="M100 316l0 -1 1 0 0 -6 1 -1 0 -5 1 0 0 -5 1 0 0 -5 1 0 0 -3 1 -1 0 -3 1 0 0 -3 1 0 0 -3 1 0 0 -3 1 0 0 -3 1 0 0 -2 1 0 0 -2 1 0 0 -2 1 0 0 -2 1 -1 0 -1 1 -1 0 -1 1 0 0 -2 1 0 0 -1 1 -1 0 -1 1 0 0 -2 1 0 0 -1 1 0 0 -1 1 0"/>
<path stroke="red" d="M123 253l0 -2 1 0 0 -1 1 0 0 -1 1 0 0 -1 1 0 0 -1 1 -1 0 -1 1 0 0 -1 1 0 0 -1 1 0 0 -1 1 0 0 -1 1 0 1 -1 1 0 0 -1 1 0 0 -1 1 0 0 -1 1 0 0 -1 2 0 0 -1 1 0 0 -1 1 0 1 -1 1 0 0 -1 2 0 0 -1 1 0 0 -1 2 0 0 -1 2 0 0 -1 2 0 0 -1"/>
<path stroke="red" d="M153 227l2 0 0 -1 2 0 0 -1 3 0 0 -1 2 0 1 -1 2 0 0 -1 4 0 0 -1 4 0 0 -1 4 0 0 -1 6 0 0 -1 28 0M211 219l0 -1M211 219l6 0M217 220l0 -1M217 220l5 0M222 221l0 -1M222 221l3 0M225 222l0 -1M225 222l3 0M228 223l0 -1M228 223l3 0"/>
<path stroke="red" d="M231 224l0 -1M231 224l3 0M234 225l0 -1M234 225l2 0M236 226l0 -1M236 226l2 0M238 227l0 -1M238 227l2 0M240 228l0 -1M240 228l2 0M242 229l0 -1M242 229l2 0M244 230l0 -1M244 230l2 0M246 231l0 -1M246 231l1 0M247 232l0 -1M247 232l2 0"/>
<path stroke="red" d="M249 233l0 -1M249 233l1 0M250 234l0 -1M250 234l1 0 1 1 1 0M253 236l0 -1M253 236l1 0M254 237l0 -1M254 237l1 0M255 238l0 -1M255 238l1 0M256 239l0 -1M256 239l1 0M257 240l0 -1M257 240l2 0M259 241l0 -1M259 241l1 0M260 242l0 -1"/>
<path stroke="red" d="M260 242l1 0M261 243l0 -1M261 243l1 0M262 244l0 -1M262 244l1 1M263 246l0 -1M263 246l1 0M264 247l0 -1M264 247l1 0M265 248l0 -1M265 248l1 0M266 249l0 -1M266 249l1 0M267 250l0 -1M267 250l1 0M268 252l0 -2M268 252l1 0M269 253l0 -1"/>
<path stroke="red" d="M269 253l1 0M270 254l0 -1M270 254l1 1M271 256l0 -1M271 256l1 0M272 257l0 -1M272 257l1 0M273 259l0 -2M273 259l1 0M274 260l0 -1M274 260l1 1M275 262l0 -1M275 262l1 0M276 264l0 -2M276 264l1 0M277 265l0 -1M277 265l1 1M278 267l0 -1"/>
<path stroke="red" d="M278 267l1 0M279 269l0 -2M279 269l1 0M280 271l0 -2M280 271l1 0M281 272l0 -1M281 272l1 1M282 274l0 -1M282 274l1 0M283 276l0 -2M283 276l1 0M284 277l0 -1M284 277l1 0M285 279l0 -2M285 279l1 0M286 280l0 -1M286 280l1 0M287 281l0 -1"/>
<path stroke="red" d="M287 281l1 0M288 282l0 -1M288 282l1 0M289 283l0 -1M289 283l5 0 0 -1 1 0 0 -1 1 0 0 -2 1 0 0 -1 1 0 0 -1 1 -1 0 -1 1 0 0 -2 1 0 0 -1 1 0 0 -2 1 0 0 -2 1 0 0 -1 1 0 0 -2 1 0 0 -1 1 0 0 -2 1 0 0 -1 1 0 0 -1 1 -1 0 -1 1 0 0 -1"/>
<path stroke="red" d="M311 257l1 0 0 -1 1 0 0 -1 1 -1 0 -1 1 0 0 -1 1 0 0 -1 1 0 0 -1 1 0 0 -1 2 0 0 -1 1 0 0 -1 1 0 0 -1 1 0 0 -1 2 0 0 -1 2 0 0 -1 2 0 0 -1 2 0 0 -1 3 0 0 -1 11 0M345 241l0 -1M345 241l2 0 1 1 1 0 1 1 1 0M351 244l0 -1M351 244l1 0"/>
<path stroke="red" d="M352 244l1 1 1 0M354 246l0 -1M354 246l1 0M355 247l0 -1M355 247l1 0M356 249l0 -2M356 249l1 0M357 250l0 -1M357 250l1 0M358 251l0 -1M358 251l1 0M359 253l0 -2M359 253l1 0M360 255l0 -2M360 255l1 0M361 257l0 -2M361 257l1 0M362 259l0 -2"/>
<path stroke="red" d="M362 259l1 0M363 261l0 -2M363 261l1 0M364 264l0 -3M364 264l1 0M365 267l0 -3M365 267l1 0M366 270l0 -3M366 270l1 0M367 273l0 -3M367 273l1 1M368 277l0 -3M368 277l1 1M369 282l0 -4M369 282l1 0M370 286l0 -4M370 286l1 0M371 290l0 -4"/>
<path stroke="red" d="M371 290l1 0M372 292l0 -2M372 292l1 0M373 293l0 -1M373 293l1 0 0 -2 1 0 0 -4 1 0 0 -5 1 -1 0 -5 1 -1 0 -5 1 0 0 -6 1 0 0 -5 1 0 0 -5 1 0 0 -4 1 -1 0 -4 1 0 0 -4 1 0 0 -3 1 -1 0 -3 1 0 0 -3 1 -1 0 -3 1 0 0 -3 1 0 0 -3 1 0"/>
<path stroke="red" d="M391 221l0 -3 1 0 0 -2 1 0 0 -3 1 0 0 -2 1 0 0 -2 1 -1 0 -2 1 0 0 -2 1 0 0 -2 1 0 0 -2 1 0 0 -2 1 0 0 -2 1 0 0 -1 1 0 0 -2 1 0 0 -2 1 0 0 -1 1 0 0 -2 1 0 0 -1 1 0 0 -1 1 -1 0 -1 1 0 0 -1 1 0 0 -1 1 0 0 -1 1 0 0 -1 1 -1 0 -1"/>
<path stroke="red" d="M414 178l1 0 0 -1 1 0 0 -1 1 0 0 -1 2 0 0 -1 1 0 0 -1 1 0 0 -1 1 0 1 -1 1 0 0 -1 1 0 1 -1 1 0 0 -1 2 0 0 -1 2 0 0 -1 2 0 1 -1 2 0 0 -1 3 0 0 -1 4 0 0 -1 5 0 0 -1 7 0 0 -1 10 0 0 -1 24 0 0 -1 409 0"/>
<path stroke="blue" d="M95 23l42 0"/>
<text stroke="none" fill="white" font-size="16" x="147" y="32">
vdb(s_2_1)
</text>
<path stroke="blue" d="M100 158l47 0M147 159l0 -1M147 159l99 0 0 -1 141 0M387 159l0 -1M387 159l8 0M395 160l0 -1M395 160l4 0 1 1 3 0M403 162l0 -1M403 162l3 0M406 163l0 -1M406 163l2 0M408 164l0 -1M408 164l2 0M410 165l0 -1M410 165l2 0M412 166l0 -1"/>
<path stroke="blue" d="M412 166l2 0M414 167l0 -1M414 167l2 0M416 168l0 -1M416 168l1 0M417 169l0 -1M417 169l2 0M419 170l0 -1M419 170l1 0 1 1 1 0M422 172l0 -1M422 172l1 0M423 173l0 -1M423 173l2 0M425 174l0 -1M425 174l1 0M426 175l0 -1M426 175l1 0"/>
<path stroke="blue" d="M427 176l0 -1M427 176l1 0M428 177l0 -1M428 177l2 0M430 178l0 -1M430 178l1 0M431 179l0 -1M431 179l1 0M432 180l0 -1M432 180l1 0M433 181l0 -1M433 181l1 0M434 182l0 -1M434 182l1 0 1 1 1 0M437 184l0 -1M437 184l1 0M438 185l0 -1"/>
<path stroke="blue" d="M438 185l1 0M439 186l0 -1M439 186l1 0M440 187l0 -1M440 187l1 0M441 188l0 -1M441 188l1 0M442 189l0 -1M442 189l1 0M443 190l0 -1M443 190l1 0M444 191l0 -1M444 191l1 0M445 192l0 -1M445 192l1 0 2 2 1 0M449 195l0 -1M449 195l1 0"/>
<path stroke="blue" d="M450 196l0 -1M450 196l1 0M451 197l0 -1M451 197l1 0M452 198l0 -1M452 198l1 0M453 199l0 -1M453 199l1 0M454 200l0 -1M454 200l1 0M455 201l0 -1M455 201l1 0M456 202l0 -1M456 202l1 0M457 203l0 -1M457 203l1 0M458 204l0 -1M458 204l1 0"/>
<path stroke="blue" d="M459 205l0 -1M459 205l1 0M460 206l0 -1M460 206l1 0M461 207l0 -1M461 207l2 0M463 208l0 -1M463 208l1 0M464 209l0 -1M464 209l1 0M465 210l0 -1M465 210l1 0M466 211l0 -1M466 211l1 0M467 212l0 -1M467 212l1 0M468 213l0 -1M468 213l1 0"/>
<path stroke="blue" d="M469 214l0 -1M469 214l1 0M470 215l0 -1M470 215l1 0M471 216l0 -1M471 216l1 0M472 217l0 -1M472 217l2 0M474 218l0 -1M474 218l1 0M475 219l0 -1M475 219l1 0M476 220l0 -1M476 220l1 0M477 221l0 -1M477 221l1 0M478 222l0 -1M478 222l1 0"/>
<path stroke="blue" d="M479 223l0 -1M479 223l1 0M480 224l0 -1M480 224l2 0M482 225l0 -1M482 225l1 0M483 226l0 -1M483 226l1 0M484 227l0 -1M484 227l1 0M485 228l0 -1M485 228l1 0M486 229l0 -1M486 229l1 0M487 230l0 -1M487 230l1 0 1 1 1 0M490 232l0 -1"/>
<path stroke="blue" d="M490 232l1 0M491 233l0 -1M491 233l1 0M492 234l0 -1M492 234l1 0M493 235l0 -1M493 235l1 0 1 1 1 0M496 237l0 -1M496 237l1 0M497 238l0 -1M497 238l1 0M498 239l0 -1M498 239l1 0M499 240l0 -1M499 240l1 0M500 241l0 -1M500 241l2 0"/>
<path stroke="blue" d="M502 242l0 -1M502 242l1 0M503 243l0 -1M503 243l1 0M504 244l0 -1M504 244l1 0M505 245l0 -1M505 245l2 0M507 246l0 -1M507 246l1 0M508 247l0 -1M508 247l1 0M509 248l0 -1M509 248l1 0M510 249l0 -1M510 249l2 0M512 250l0 -1M512 250l1 0"/>
<path stroke="blue" d="M513 251l0 -1M513 251l1 0M514 252l0 -1M514 252l1 0 1 1 1 0M517 254l0 -1M517 254l1 0M518 255l0 -1M518 255l1 0M519 256l0 -1M519 256l2 0M521 257l0 -1M521 257l1 0M522 258l0 -1M522 258l1 0M523 259l0 -1M523 259l1 0 1 1 1 0M526 261l0 -1"/>
<path stroke="blue" d="M526 261l1 0M527 262l0 -1M527 262l1 0 1 1 1 0M530 264l0 -1M530 264l1 0M531 265l0 -1M531 265l1 0 1 1 1 0M534 267l0 -1M534 267l1 0M535 268l0 -1M535 268l1 0 1 1 1 0M538 270l0 -1M538 270l1 0M539 271l0 -1M539 271l2 0M541 272l0 -1"/>
<path stroke="blue" d="M541 272l1 0M542 273l0 -1M542 273l1 0M543 274l0 -1M543 274l2 0M545 275l0 -1M545 275l1 0M546 276l0 -1M546 276l1 0M547 277l0 -1M547 277l2 0M549 278l0 -1M549 278l1 0M550 279l0 -1M550 279l2 0M552 280l0 -1M552 280l1 0M553 281l0 -1"/>
<path stroke="blue" d="M553 281l1 0M554 282l0 -1M554 282l2 0M556 283l0 -1M556 283l1 0M557 284l0 -1M557 284l2 0M559 285l0 -1M559 285l1 0M560 286l0 -1M560 286l1 0M561 287l0 -1M561 287l2 0M563 288l0 -1M563 288l1 0M564 289l0 -1M564 289l2 0M566 290l0 -1"/>
<path stroke="blue" d="M566 290l1 0M567 291l0 -1M567 291l1 0M568 292l0 -1M568 292l2 0M570 293l0 -1M570 293l1 0M571 294l0 -1M571 294l2 0M573 295l0 -1M573 295l1 0M574 296l0 -1M574 296l2 0M576 297l0 -1M576 297l1 0M577 298l0 -1M577 298l1 0 1 1 1 0"/>
<path stroke="blue" d="M580 300l0 -1M580 300l1 0M581 301l0 -1M581 301l2 0M583 302l0 -1M583 302l1 0M584 303l0 -1M584 303l2 0M586 304l0 -1M586 304l1 0M587 305l0 -1M587 305l2 0M589 306l0 -1M589 306l1 0M590 307l0 -1M590 307l1 0 1 1 1 0M593 309l0 -1"/>
<path stroke="blue" d="M593 309l1 0M594 310l0 -1M594 310l2 0M596 311l0 -1M596 311l1 0M597 312l0 -1M597 312l2 0M599 313l0 -1M599 313l1 0M600 314l0 -1M600 314l2 0M602 315l0 -1M602 315l1 0M603 316l0 -1M603 316l2 0M605 317l0 -1M605 317l1 0M606 318l0 -1"/>
<path stroke="blue" d="M606 318l1 0M607 319l0 -1M607 319l2 0M609 320l0 -1M609 320l1 0M610 321l0 -1M610 321l2 0M612 322l0 -1M612 322l1 0M613 323l0 -1M613 323l2 0M615 324l0 -1M615 324l1 0M616 325l0 -1M616 325l2 0M618 326l0 -1M618 326l1 0M619 327l0 -1"/>
<path stroke="blue" d="M619 327l1 0 1 1 1 0M622 329l0 -1M622 329l1 0M623 330l0 -1M623 330l2 0M625 331l0 -1M625 331l1 0M626 332l0 -1M626 332l2 0M628 333l0 -1M628 333l1 0M629 334l0 -1M629 334l2 0M631 335l0 -1M631 335l1 0M632 336l0 -1M632 336l1 0"/>
<path stroke="blue" d="M633 337l0 -1M633 337l2 0M635 338l0 -1M635 338l1 0M636 339l0 -1M636 339l2 0M638 340l0 -1M638 340l1 0M639 341l0 -1M639 341l1 0M640 342l0 -1M640 342l2 0M642 343l0 -1M642 343l1 0M643 344l0 -1M643 344l2 0M645 345l0 -1M645 345l1 0"/>
<path stroke="blue" d="M646 346l0 -1M646 346l1 0M647 347l0 -1M647 347l2 0M649 348l0 -1M649 348l1 0M650 349l0 -1M650 349l1 0 1 1 1 0M653 351l0 -1M653 351l1 0M654 352l0 -1M654 352l2 0M656 353l0 -1M656 353l1 0M657 354l0 -1M657 354l1 0M658 355l0 -1"/>
<path stroke="blue" d="M658 355l2 0M660 356l0 -1M660 356l1 0M661 357l0 -1M661 357l1 0M662 358l0 -1M662 358l2 0M664 359l0 -1M664 359l1 0M665 360l0 -1M665 360l1 0M666 361l0 -1M666 361l2 0M668 362l0 -1M668 362l1 0M669 363l0 -1M669 363l1 0M670 364l0 -1"/>
<path stroke="blue" d="M670 364l1 0 1 1 1 0M673 366l0 -1M673 366l1 0M674 367l0 -1M674 367l1 0M675 368l0 -1M675 368l2 0M677 369l0 -1M677 369l1 0M678 370l0 -1M678 370l1 0M679 371l0 -1M679 371l1 0M680 372l0 -1M680 372l1 0 1 1 1 0M683 374l0 -1M683 374l1 0"/>
<path stroke="blue" d="M684 375l0 -1M684 375l1 0M685 376l0 -1M685 376l1 0M686 377l0 -1M686 377l2 0M688 378l0 -1M688 378l1 0M689 379l0 -1M689 379l1 0M690 380l0 -1M690 380l1 0M691 381l0 -1M691 381l1 0M692 382l0 -1M692 382l1 0M693 383l0 -1M693 383l1 0"/>
<path stroke="blue" d="M694 383l1 1 1 0M696 385l0 -1M696 385l1 0M697 386l0 -1M697 386l1 0M698 387l0 -1M698 387l1 0M699 388l0 -1M699 388l1 0M700 389l0 -1M700 389l1 0M701 390l0 -1M701 390l1 0M702 391l0 -1M702 391l1 0M703 392l0 -1M703 392l1 0M704 393l0 -1"/>
<path stroke="blue" d="M704 393l1 0M705 394l0 -1M705 394l1 0M706 395l0 -1M706 395l1 0M707 396l0 -1M707 396l1 0M708 397l0 -1M708 397l1 0M709 398l0 -1M709 398l1 0M710 399l0 -1M710 399l1 0M711 400l0 -1M711 400l1 0M712 401l0 -1M712 401l1 0M713 402l0 -1"/>
<path stroke="blue" d="M713 402l1 0M714 403l0 -1M714 403l1 0M715 404l0 -1M715 404l1 0M716 405l0 -1M716 405l1 0M717 406l0 -1M717 406l1 0M718 407l0 -1M718 407l1 0M719 408l0 -1M719 408l1 1M720 410l0 -1M720 410l1 0M721 411l0 -1M721 411l1 0M722 412l0 -1"/>
<path stroke="blue" d="M722 412l1 0M723 413l0 -1M723 413l1 0M724 414l0 -1M724 414l1 0M725 416l0 -2M725 416l1 0M726 417l0 -1M726 417l1 0M727 418l0 -1M727 418l1 0M728 419l0 -1M728 419l1 1M729 421l0 -1M729 421l1 0M730 422l0 -1M730 422l1 0M731 423l0 -1"/>
<path stroke="blue" d="M731 423l1 1M732 425l0 -1M732 425l1 0M733 426l0 -1M733 426l1 0M734 428l0 -2M734 428l1 0M735 429l0 -1M735 429l1 0M736 431l0 -2M736 431l1 0M737 433l0 -2M737 433l1 0M738 434l0 -1M738 434l1 0M739 436l0 -2M739 436l1 0M740 437l0 -1"/>
<path stroke="blue" d="M740 437l1 1M741 439l0 -1M741 439l1 0M742 441l0 -2M742 441l1 0M743 443l0 -2M743 443l1 0M744 445l0 -2M744 445l1 0M745 447l0 -2M745 447l1 0M746 449l0 -2M746 449l1 0M747 451l0 -2M747 451l1 0M748 454l0 -3M748 454l1 0M749 456l0 -2"/>
<path stroke="blue" d="M749 456l1 0M750 458l0 -2M750 458l1 1M751 461l0 -2M751 461l1 0M752 464l0 -3M752 464l1 0M753 467l0 -3M753 467l1 0M754 470l0 -3M754 470l1 0M755 473l0 -3M755 473l1 0M756 477l0 -4M756 477l1 0M757 480l0 -3M757 480l1 1M758 485l0 -4"/>
<path stroke="blue" d="M758 485l1 0M759 489l0 -4M759 489l1 1M760 494l0 -4M760 494l1 1M761 500l0 -5M761 500l1 1M762 507l0 -6M762 507l1 0M763 515l0 -8M763 515l1 1M764 524l0 -8M764 524l1 1M765 538l0 -13M765 538l1 1M766 555l0 -16M766 555l1 2M767 592l0 -35"/>
<path stroke="blue" d="M767 592l1 5M768 704l0 -107M768 628l1 -10 0 -51 1 -2 0 -19 1 -2 0 -13 1 -1 0 -9 1 -1 0 -7 1 -1 0 -6 1 0 0 -5 1 0 0 -5 1 0 0 -4 1 0 0 -4 1 0 0 -3 1 0 0 -3 1 -1 0 -2 1 0 0 -3 1 0 0 -2 1 0 0 -2 1 0 0 -2 1 -1 0 -1 1 0 0 -2"/>
<path stroke="blue" d="M787 466l1 0 0 -2 1 0 0 -1 1 -1 0 -1 1 0 0 -1 1 0 0 -2 1 0 0 -1 1 0 0 -1 1 0 0 -1 1 -1 0 -1 1 0 0 -1 1 0 0 -1 1 0 0 -1 1 0 0 -1 1 0 0 -1 1 0 0 -1 2 0 0 -1 1 0 0 -1 1 0 0 -1 1 0 0 -1 2 0 0 -1 1 0 0 -1 2 0 0 -1 1 0 1 -1 1 0"/>
<path stroke="blue" d="M815 439l0 -1 2 0 0 -1 2 0 0 -1 2 0 0 -1 2 0 0 -1 3 0 0 -1 2 0 0 -1 3 0 0 -1 2 0 0 -1 4 0 0 -1 3 0 0 -1 3 0 1 -1 3 0 1 -1 4 0 0 -1 5 0 0 -1 5 0 0 -1 7 0 0 -1 8 0 0 -1 9 0 0 -1 12 0"/>
<path stroke="#FFA500" d="M428 39l42 0"/>
<text stroke="none" fill="white" font-size="16" x="480" y="48">
vswr
</text>
<path stroke="#FFA500" d="M100 153l23 0 1 -1 31 0 0 -1 83 0M238 152l0 -1M238 152l30 0M268 153l0 -1M268 153l49 0 0 -1 41 0M358 153l0 -1M358 153l24 0 0 -1 7 0 0 -1 4 0 0 -1 4 0 0 -1 3 0 0 -1 2 0 1 -1 2 0 0 -1 2 0 0 -1 1 0 0 -1 2 0 0 -1 1 0 0 -1"/>
<path stroke="#FFA500" d="M411 142l2 0 0 -1 1 0 0 -1 1 0 0 -1 1 0 0 -1 1 0 0 -1 1 0 0 -1 1 0 0 -1 1 0 0 -1 1 0 0 -2 1 0 0 -1 1 0 0 -1 1 0 0 -2 1 0 0 -1 1 -1 0 -1 1 0 0 -2 1 0 0 -2 1 0 0 -2 1 0 0 -2 1 0 0 -2 1 0 0 -3 1 0 0 -2 1 0 0 -3 1 0 0 -2"/>
<path stroke="#FFA500" d="M435 105l1 -1 0 -2 1 -1 0 -2 1 -1 0 -3 1 0 0 -3 1 0 0 -3 1 -1 0 -3 1 -1 0 -3 1 0 0 -4 1 -1 0 -4 1 0 0 -4 1 -1M765 704l0 -637M824 704l0 -637"/>
</svg>
