<?xml version="1.0" standalone="yes"?>
<!DOCTYPE svg PUBLIC "-//W3C//DTD SVG 1.1//EN"
 "http://www.w3.org/Graphics/SVG/1.1/DTD/svg11.dtd">
<svg xmlns="http://www.w3.org/2000/svg" version="1.1"
  width="100%" height="100%" viewBox="0 0 1024 768"
  style="fill: none; font-family: Helvetica;
 font: Helvetica;
">

<!-- Creator: NGspice -->

<rect x="0" y="0" width="1024" height="768" fill="black" stroke="none"/>
<text stroke="none" fill="white" font-size="16" x="358" y="752">
Frequency
</text>
<text transform="rotate(-90, 20, 494)"  stroke="none" fill="white" font-size="16" x="20" y="494">
Magnitude in dB / VSWR
</text>
<text stroke="none" fill="white" font-size="16" x="10" y="16">
sp5: lpf6m
</text>
<path stroke="white" d="M85 704l0 -640"/>
<text stroke="none" fill="white" font-size="16" x="70" y="728">
0.0
</text>
<path stroke="white" stroke-dasharray="1,2" d="M194 704l0 -640"/>
<text stroke="none" fill="white" font-size="16" x="174" y="728">
20.0
</text>
<path stroke="white" stroke-dasharray="1,2" d="M303 704l0 -640"/>
<text stroke="none" fill="white" font-size="16" x="283" y="728">
40.0
</text>
<path stroke="white" stroke-dasharray="1,2" d="M412 704l0 -640"/>
<text stroke="none" fill="white" font-size="16" x="392" y="728">
60.0
</text>
<path stroke="white" stroke-dasharray="1,2" d="M521 704l0 -640"/>
<text stroke="none" fill="white" font-size="16" x="501" y="728">
80.0
</text>
<path stroke="white" stroke-dasharray="1,2" d="M630 704l0 -640"/>
<text stroke="none" fill="white" font-size="16" x="605" y="728">
100.0
</text>
<path stroke="white" stroke-dasharray="1,2" d="M739 704l0 -640"/>
<text stroke="none" fill="white" font-size="16" x="714" y="728">
120.0
</text>
<path stroke="white" stroke-dasharray="1,2" d="M848 704l0 -640"/>
<text stroke="none" fill="white" font-size="16" x="823" y="728">
140.0
</text>
<path stroke="white" stroke-dasharray="1,2" d="M957 704l0 -640"/>
<text stroke="none" fill="white" font-size="16" x="932" y="728">
160.0
</text>
<text stroke="none" fill="white" font-size="16" x="614" y="752">
MHz
</text>
<path stroke="white" stroke-dasharray="1,2" d="M85 704l872 0"/>
<text stroke="none" fill="white" font-size="16" x="33" y="712">
-70.0
</text>
<path stroke="white" stroke-dasharray="1,2" d="M85 624l872 0"/>
<text stroke="none" fill="white" font-size="16" x="33" y="632">
-60.0
</text>
<path stroke="white" stroke-dasharray="1,2" d="M85 544l872 0"/>
<text stroke="none" fill="white" font-size="16" x="33" y="552">
-50.0
</text>
<path stroke="white" stroke-dasharray="1,2" d="M85 464l872 0"/>
<text stroke="none" fill="white" font-size="16" x="33" y="472">
-40.0
</text>
<path stroke="white" stroke-dasharray="1,2" d="M85 384l872 0"/>
<text stroke="none" fill="white" font-size="16" x="33" y="392">
-30.0
</text>
<path stroke="white" stroke-dasharray="1,2" d="M85 304l872 0"/>
<text stroke="none" fill="white" font-size="16" x="33" y="312">
-20.0
</text>
<path stroke="white" stroke-dasharray="1,2" d="M85 224l872 0"/>
<text stroke="none" fill="white" font-size="16" x="33" y="232">
-10.0
</text>
<path stroke="white" d="M85 144l872 0"/>
<text stroke="none" fill="white" font-size="16" x="53" y="152">
0.0
</text>
<path stroke="white" stroke-dasharray="1,2" d="M85 64l872 0"/>
<text stroke="none" fill="white" font-size="16" x="43" y="72">
10.0
</text>
<text stroke="none" fill="white" font-size="16" x="10" y="32">
     
</text>
<path stroke="red" d="M436 23l43 0"/>
<text stroke="none" fill="white" font-size="16" x="489" y="32">
vdb(s_1_1)
</text>
<path stroke="red" d="M90 422l1 -1 0 -10 1 -1 0 -10 1 -1 0 -7 1 -1 0 -7 1 -1 0 -6 1 -1 0 -5 1 -1 0 -5 1 0 0 -6 1 0 0 -4 1 -1 0 -4 1 0 0 -4 1 -1 0 -3 1 -1 0 -3 1 0 0 -4 1 0 0 -3 1 0 0 -3 1 0 0 -3 1 0 0 -3 1 0 0 -3 1 0 0 -2 1 -1 0 -2 1 0 0 -2 1 -1"/>
<path stroke="red" d="M113 311l0 -2 1 0 0 -2 1 0 0 -2 1 0 0 -2 1 0 0 -2 1 0 0 -2 1 0 0 -2 1 0 0 -2 1 0 0 -1 1 -1 0 -1 1 0 0 -2 1 0 0 -1 1 0 0 -2 1 0 0 -1 1 0 0 -2 1 0 0 -1 1 0 0 -1 1 0 0 -2 1 0 0 -1 1 0 0 -1 1 0 0 -1 1 0 0 -2 1 0 0 -1 1 0 0 -1"/>
<path stroke="red" d="M136 273l1 0 0 -1 1 0 0 -1 1 0 0 -1 1 0 0 -1 1 0 0 -1 1 0 1 -1 1 0 0 -1 1 0 0 -1 1 0 0 -1 1 0 0 -1 2 0 0 -1 1 0 0 -1 2 0 0 -1 1 0 0 -1 2 0 0 -1 2 0 0 -1 1 0 1 -1 1 0 0 -1 3 0 0 -1 2 0 0 -1 3 0 0 -1 3 0 0 -1 4 0 0 -1 5 0"/>
<path stroke="red" d="M180 250l0 -1 19 0M199 250l0 -1M199 250l5 0M204 251l0 -1M204 251l3 0M207 252l0 -1M207 252l3 0M210 253l0 -1M210 253l3 0M213 254l0 -1M213 254l2 0M215 255l0 -1M215 255l2 0M217 256l0 -1M217 256l2 0M219 257l0 -1M219 257l2 0M221 258l0 -1"/>
<path stroke="red" d="M221 258l2 0M223 259l0 -1M223 259l1 0M224 260l0 -1M224 260l2 0M226 261l0 -1M226 261l1 0M227 262l0 -1M227 262l2 0M229 263l0 -1M229 263l1 0M230 264l0 -1M230 264l1 0M231 265l0 -1M231 265l1 0M232 266l0 -1M232 266l1 0M233 267l0 -1"/>
<path stroke="red" d="M233 267l1 0M234 268l0 -1M234 268l1 0M235 269l0 -1M235 269l1 0 3 3M239 273l0 -1M239 273l1 0M240 274l0 -1M240 274l1 0M241 275l0 -1M241 275l1 0M242 276l0 -1M242 276l1 0M243 277l0 -1M243 277l1 0M244 279l0 -2M244 279l1 0M245 280l0 -1"/>
<path stroke="red" d="M245 280l1 0M246 281l0 -1M246 281l1 0M247 283l0 -2M247 283l1 0M248 284l0 -1M248 284l1 0M249 286l0 -2M249 286l1 0M250 287l0 -1M250 287l1 0M251 289l0 -2M251 289l1 0M252 290l0 -1M252 290l1 1M253 292l0 -1M253 292l1 0M254 294l0 -2"/>
<path stroke="red" d="M254 294l1 0M255 296l0 -2M255 296l1 0M256 298l0 -2M256 298l1 0M257 300l0 -2M257 300l1 0M258 302l0 -2M258 302l1 0M259 304l0 -2M259 304l1 0M260 306l0 -2M260 306l1 0M261 308l0 -2M261 308l1 0M262 310l0 -2M262 310l1 1M263 313l0 -2"/>
<path stroke="red" d="M263 313l1 0M264 315l0 -2M264 315l1 1M265 318l0 -2M265 318l1 0M266 320l0 -2M266 320l1 1M267 323l0 -2M267 323l1 0M268 326l0 -3M268 326l1 0M269 329l0 -3M269 329l1 0M270 332l0 -3M270 332l1 0M271 335l0 -3M271 335l1 0M272 337l0 -2"/>
<path stroke="red" d="M272 337l1 1M273 340l0 -2M273 340l1 1M274 344l0 -3M274 344l1 0M275 347l0 -3M275 347l1 0M276 349l0 -2M276 349l1 1M277 352l0 -2M277 352l1 1M278 355l0 -2M278 355l1 0M279 358l0 -3M279 358l1 0M280 360l0 -2M280 360l1 0M281 362l0 -2"/>
<path stroke="red" d="M281 362l1 0M282 363l0 -1M282 363l1 0M283 364l0 -1M283 364l2 0M285 365l0 -1 2 0 0 -1 1 0 0 -2 1 0 0 -2 1 0 0 -2 1 0 0 -2 1 -1 0 -2 1 0 0 -3 1 0 0 -3 1 0 0 -2 1 -1 0 -2 1 0 0 -3 1 0 0 -3 1 0 0 -2 1 -1 0 -2 1 0 0 -3 1 0 0 -2"/>
<path stroke="red" d="M302 325l1 0 0 -2 1 -1 0 -2 1 0 0 -2 1 0 0 -2 1 0 0 -2 1 0 0 -2 1 0 0 -2 1 0 0 -2 1 0 0 -1 1 0 0 -2 1 0 0 -1 1 -1 0 -1 1 0 0 -1 1 0 0 -2 1 0 0 -1 1 0 0 -1 1 0 0 -1 1 0 0 -1 1 0 0 -1 1 0 0 -1 1 0 0 -1 1 0 0 -1 2 0 0 -1 2 0"/>
<path stroke="red" d="M328 290l0 -1 2 0 0 -1 8 0M338 289l0 -1M338 289l2 0M340 290l0 -1M340 290l2 0M342 291l0 -1M342 291l1 0M343 292l0 -1M343 292l1 0M344 293l0 -1M344 293l1 0M345 294l0 -1M345 294l1 0M346 295l0 -1M346 295l1 0M347 296l0 -1M347 296l1 1"/>
<path stroke="red" d="M348 298l0 -1M348 298l1 0M349 300l0 -2M349 300l1 0M350 301l0 -1M350 301l1 1M351 303l0 -1M351 303l1 1M352 306l0 -2M352 306l1 0M353 308l0 -2M353 308l1 1M354 311l0 -2M354 311l1 0M355 314l0 -3M355 314l1 0M356 317l0 -3M356 317l1 1"/>
<path stroke="red" d="M357 321l0 -3M357 321l1 1M358 325l0 -3M358 325l1 1M359 330l0 -4M359 330l1 0M360 335l0 -5M360 335l1 0M361 340l0 -5M361 340l1 1M362 346l0 -5M362 346l1 1M363 353l0 -6M363 353l1 1M364 360l0 -6M364 360l1 1M365 367l0 -6M365 367l1 1"/>
<path stroke="red" d="M366 375l0 -7M366 375l1 0M367 380l0 -5M367 380l1 0M368 381l0 -1M368 381l1 0 0 -2 1 0 0 -6 1 -1 0 -8 1 -1 0 -8 1 -1 0 -10 1 -1 0 -9 1 0 0 -9 1 0 0 -9 1 -1 0 -7 1 -1 0 -6 1 -1 0 -7 1 0 0 -6 1 -1 0 -6 1 0 0 -6 1 0 0 -6 1 0"/>
<path stroke="red" d="M384 268l0 -5 1 0 0 -5 1 -1 0 -4 1 0 0 -5 1 0 0 -4 1 0 0 -5 1 0 0 -4 1 0 0 -3 1 -1 0 -3 1 -1 0 -3 1 0 0 -3 1 -1 0 -3 1 0 0 -3 1 0 0 -3 1 0 0 -3 1 -1 0 -2 1 0 0 -3 1 0 0 -3 1 0 0 -2 1 0 0 -2 1 -1 0 -2 1 0 0 -2 1 0 0 -2 1 0"/>
<path stroke="red" d="M407 188l0 -2 1 0 0 -2 1 -1 0 -1 1 0 0 -2 1 0 0 -2 1 0 0 -2 1 0 0 -1 1 0 0 -2 1 0 0 -1 1 0 0 -2 1 0 0 -1 1 0 0 -1 1 0 0 -1 1 0 0 -1 1 -1 0 -1 1 0 0 -1 1 0 0 -1 1 0 0 -1 2 0 0 -1 1 0 0 -1 1 0 0 -1 1 0 0 -1 2 0 0 -1 1 0 0 -1"/>
<path stroke="red" d="M432 155l2 0 0 -1 2 0 0 -1 2 0 0 -1 3 0 0 -1 2 0 1 -1 3 0 0 -1 4 0 0 -1 5 0 0 -1 7 0 0 -1 11 0 0 -1 26 0 0 -1 403 0"/>
<path stroke="blue" d="M85 23l43 0"/>
<text stroke="none" fill="white" font-size="16" x="138" y="32">
vdb(s_2_1)
</text>
<path stroke="blue" d="M90 144l33 0M123 145l0 -1M123 145l41 0M164 146l0 -1M164 146l50 0 0 -1 39 0 0 -1 71 0M324 145l0 -1M324 145l19 0 0 -1 37 0M380 145l0 -1M380 145l6 0M386 146l0 -1M386 146l4 0M390 147l0 -1M390 147l3 0M393 148l0 -1M393 148l2 0"/>
<path stroke="blue" d="M395 149l0 -1M395 149l2 0 1 1 1 0M399 151l0 -1M399 151l2 0M401 152l0 -1M401 152l1 0M402 153l0 -1M402 153l2 0M404 154l0 -1M404 154l1 0M405 155l0 -1M405 155l1 0M406 156l0 -1M406 156l1 0 1 1 1 0M409 158l0 -1M409 158l1 0M410 159l0 -1"/>
<path stroke="blue" d="M410 159l1 0M411 160l0 -1M411 160l1 0M412 161l0 -1M412 161l1 0M413 162l0 -1M413 162l1 0M414 164l0 -2M414 164l1 0M415 165l0 -1M415 165l1 0M416 166l0 -1M416 166l1 0M417 167l0 -1M417 167l1 0M418 168l0 -1M418 168l1 0M419 170l0 -2"/>
<path stroke="blue" d="M419 170l1 0M420 171l0 -1M420 171l1 0M421 172l0 -1M421 172l1 0M422 174l0 -2M422 174l1 0M423 175l0 -1M423 175l1 0M424 176l0 -1M424 176l1 0M425 178l0 -2M425 178l1 0M426 179l0 -1M426 179l1 0M427 181l0 -2M427 181l1 0M428 182l0 -1"/>
<path stroke="blue" d="M428 182l1 0M429 183l0 -1M429 183l1 1M430 185l0 -1M430 185l1 0M431 187l0 -2M431 187l1 0M432 188l0 -1M432 188l1 0M433 190l0 -2M433 190l1 0M434 191l0 -1M434 191l1 0M435 193l0 -2M435 193l1 0M436 194l0 -1M436 194l1 0M437 196l0 -2"/>
<path stroke="blue" d="M437 196l1 0M438 197l0 -1M438 197l1 1M439 199l0 -1M439 199l1 0M440 201l0 -2M440 201l1 0M441 202l0 -1M441 202l1 0M442 204l0 -2M442 204l1 0M443 205l0 -1M443 205l1 1M444 207l0 -1M444 207l1 0M445 209l0 -2M445 209l1 0M446 210l0 -1"/>
<path stroke="blue" d="M446 210l1 0M447 212l0 -2M447 212l1 0M448 213l0 -1M448 213l1 1M449 215l0 -1M449 215l1 0M450 217l0 -2M450 217l1 0M451 218l0 -1M451 218l1 0M452 220l0 -2M452 220l1 0M453 221l0 -1M453 221l1 1M454 223l0 -1M454 223l1 0M455 225l0 -2"/>
<path stroke="blue" d="M455 225l1 0M456 226l0 -1M456 226l1 0M457 228l0 -2M457 228l1 0M458 229l0 -1M458 229l1 1M459 231l0 -1M459 231l1 0M460 233l0 -2M460 233l1 0M461 234l0 -1M461 234l1 0M462 236l0 -2M462 236l1 0M463 237l0 -1M463 237l1 1M464 239l0 -1"/>
<path stroke="blue" d="M464 239l1 0M465 241l0 -2M465 241l1 0M466 242l0 -1M466 242l1 0M467 244l0 -2M467 244l1 0M468 245l0 -1M468 245l1 0M469 247l0 -2M469 247l1 0M470 248l0 -1M470 248l1 0M471 250l0 -2M471 250l1 0M472 251l0 -1M472 251l1 1M473 253l0 -1"/>
<path stroke="blue" d="M473 253l1 0M474 254l0 -1M474 254l1 0M475 256l0 -2M475 256l1 0M476 257l0 -1M476 257l1 1M477 259l0 -1M477 259l1 0M478 261l0 -2M478 261l1 0M479 262l0 -1M479 262l1 0M480 263l0 -1M480 263l1 1M481 265l0 -1M481 265l1 0M482 266l0 -1"/>
<path stroke="blue" d="M482 266l1 1M483 268l0 -1M483 268l1 0M484 269l0 -1M484 269l1 1M485 271l0 -1M485 271l1 0M486 272l0 -1M486 272l1 0M487 274l0 -2M487 274l1 0M488 275l0 -1M488 275l1 0M489 277l0 -2M489 277l1 0M490 278l0 -1M490 278l1 0M491 280l0 -2"/>
<path stroke="blue" d="M491 280l1 0M492 281l0 -1M492 281l1 0M493 282l0 -1M493 282l1 1M494 284l0 -1M494 284l1 0M495 285l0 -1M495 285l1 0M496 287l0 -2M496 287l1 0M497 288l0 -1M497 288l1 0M498 290l0 -2M498 290l1 0M499 291l0 -1M499 291l1 0M500 292l0 -1"/>
<path stroke="blue" d="M500 292l1 1M501 294l0 -1M501 294l1 0M502 295l0 -1M502 295l1 0M503 297l0 -2M503 297l1 0M504 298l0 -1M504 298l1 0M505 299l0 -1M505 299l1 0M506 301l0 -2M506 301l1 0M507 302l0 -1M507 302l1 0M508 304l0 -2M508 304l1 0M509 305l0 -1"/>
<path stroke="blue" d="M509 305l1 0M510 306l0 -1M510 306l1 0M511 308l0 -2M511 308l1 0M512 309l0 -1M512 309l1 0M513 310l0 -1M513 310l1 0M514 312l0 -2M514 312l1 0M515 313l0 -1M515 313l1 0M516 314l0 -1M516 314l1 0M517 316l0 -2M517 316l1 0M518 317l0 -1"/>
<path stroke="blue" d="M518 317l1 0M519 318l0 -1M519 318l1 1M520 320l0 -1M520 320l1 0M521 321l0 -1M521 321l1 0M522 322l0 -1M522 322l1 0M523 324l0 -2M523 324l1 0M524 325l0 -1M524 325l1 0M525 326l0 -1M525 326l1 0M526 328l0 -2M526 328l1 0M527 329l0 -1"/>
<path stroke="blue" d="M527 329l1 0M528 330l0 -1M528 330l1 0M529 331l0 -1M529 331l1 1M530 333l0 -1M530 333l1 0M531 334l0 -1M531 334l1 0M532 335l0 -1M532 335l1 0M533 337l0 -2M533 337l1 0M534 338l0 -1M534 338l1 0M535 339l0 -1M535 339l1 0M536 340l0 -1"/>
<path stroke="blue" d="M536 340l1 1M537 342l0 -1M537 342l1 0M538 343l0 -1M538 343l1 0M539 344l0 -1M539 344l1 0M540 346l0 -2M540 346l1 0M541 347l0 -1M541 347l1 0M542 348l0 -1M542 348l1 0M543 349l0 -1M543 349l1 0M544 351l0 -2M544 351l1 0M545 352l0 -1"/>
<path stroke="blue" d="M545 352l1 0M546 353l0 -1M546 353l1 0M547 354l0 -1M547 354l1 0M548 356l0 -2M548 356l1 0M549 357l0 -1M549 357l1 0M550 358l0 -1M550 358l1 0M551 359l0 -1M551 359l1 0M552 361l0 -2M552 361l1 0M553 362l0 -1M553 362l1 0M554 363l0 -1"/>
<path stroke="blue" d="M554 363l1 0M555 364l0 -1M555 364l1 0M556 365l0 -1M556 365l1 1M557 367l0 -1M557 367l1 0M558 368l0 -1M558 368l1 0M559 369l0 -1M559 369l1 0M560 370l0 -1M560 370l1 0M561 372l0 -2M561 372l1 0M562 373l0 -1M562 373l1 0M563 374l0 -1"/>
<path stroke="blue" d="M563 374l1 0M564 375l0 -1M564 375l1 0M565 376l0 -1M565 376l1 1M566 378l0 -1M566 378l1 0M567 379l0 -1M567 379l1 0M568 380l0 -1M568 380l1 0M569 381l0 -1M569 381l1 0M570 382l0 -1M570 382l1 1M571 384l0 -1M571 384l1 0M572 385l0 -1"/>
<path stroke="blue" d="M572 385l1 0M573 386l0 -1M573 386l1 0M574 387l0 -1M574 387l1 0M575 389l0 -2M575 389l1 0M576 390l0 -1M576 390l1 0M577 391l0 -1M577 391l1 0M578 392l0 -1M578 392l1 0M579 393l0 -1M579 393l1 0M580 395l0 -2M580 395l1 0M581 396l0 -1"/>
<path stroke="blue" d="M581 396l1 0M582 397l0 -1M582 397l1 0M583 398l0 -1M583 398l1 0M584 399l0 -1M584 399l1 0M585 401l0 -2M585 401l1 0M586 402l0 -1M586 402l1 0M587 403l0 -1M587 403l1 0M588 404l0 -1M588 404l1 0M589 405l0 -1M589 405l1 0M590 407l0 -2"/>
<path stroke="blue" d="M590 407l1 0M591 408l0 -1M591 408l1 0M592 409l0 -1M592 409l1 0M593 410l0 -1M593 410l1 0M594 411l0 -1M594 411l1 0M595 412l0 -1M595 412l1 1M596 414l0 -1M596 414l1 0M597 415l0 -1M597 415l1 0M598 416l0 -1M598 416l1 0M599 417l0 -1"/>
<path stroke="blue" d="M599 417l1 0M600 418l0 -1M600 418l1 1M601 420l0 -1M601 420l1 0M602 421l0 -1M602 421l1 0M603 422l0 -1M603 422l1 0M604 423l0 -1M604 423l1 0M605 424l0 -1M605 424l1 0M606 426l0 -2M606 426l1 0M607 427l0 -1M607 427l1 0M608 428l0 -1"/>
<path stroke="blue" d="M608 428l1 0M609 429l0 -1M609 429l1 0M610 430l0 -1M610 430l1 0M611 431l0 -1M611 431l1 1M612 433l0 -1M612 433l1 0M613 434l0 -1M613 434l1 0M614 435l0 -1M614 435l1 0M615 436l0 -1M615 436l1 0M616 437l0 -1M616 437l1 1M617 439l0 -1"/>
<path stroke="blue" d="M617 439l1 0M618 440l0 -1M618 440l1 0M619 441l0 -1M619 441l1 0M620 442l0 -1M620 442l1 0M621 443l0 -1M621 443l1 0M622 445l0 -2M622 445l1 0M623 446l0 -1M623 446l1 0M624 447l0 -1M624 447l1 0M625 448l0 -1M625 448l1 0M626 449l0 -1"/>
<path stroke="blue" d="M626 449l1 1M627 451l0 -1M627 451l1 0M628 452l0 -1M628 452l1 0M629 453l0 -1M629 453l1 0M630 454l0 -1M630 454l1 0M631 455l0 -1M631 455l1 1M632 457l0 -1M632 457l1 0M633 458l0 -1M633 458l1 0M634 459l0 -1M634 459l1 0M635 460l0 -1"/>
<path stroke="blue" d="M635 460l1 0M636 462l0 -2M636 462l1 0M637 463l0 -1M637 463l1 0M638 464l0 -1M638 464l1 0M639 465l0 -1M639 465l1 0M640 466l0 -1M640 466l1 0M641 468l0 -2M641 468l1 0M642 469l0 -1M642 469l1 0M643 470l0 -1M643 470l1 0M644 471l0 -1"/>
<path stroke="blue" d="M644 471l1 0M645 473l0 -2M645 473l1 0M646 474l0 -1M646 474l1 0M647 475l0 -1M647 475l1 0M648 476l0 -1M648 476l1 0M649 478l0 -2M649 478l1 0M650 479l0 -1M650 479l1 0M651 480l0 -1M651 480l1 0M652 481l0 -1M652 481l1 0M653 483l0 -2"/>
<path stroke="blue" d="M653 483l1 0M654 484l0 -1M654 484l1 0M655 485l0 -1M655 485l1 0M656 486l0 -1M656 486l1 0M657 488l0 -2M657 488l1 0M658 489l0 -1M658 489l1 0M659 490l0 -1M659 490l1 0M660 492l0 -2M660 492l1 0M661 493l0 -1M661 493l1 0M662 494l0 -1"/>
<path stroke="blue" d="M662 494l1 0M663 495l0 -1M663 495l1 1M664 497l0 -1M664 497l1 0M665 498l0 -1M665 498l1 0M666 499l0 -1M666 499l1 1M667 501l0 -1M667 501l1 0M668 502l0 -1M668 502l1 0M669 503l0 -1M669 503l1 0M670 505l0 -2M670 505l1 0M671 506l0 -1"/>
<path stroke="blue" d="M671 506l1 0M672 507l0 -1M672 507l1 0M673 509l0 -2M673 509l1 0M674 510l0 -1M674 510l1 0M675 511l0 -1M675 511l1 0M676 513l0 -2M676 513l1 0M677 514l0 -1M677 514l1 0M678 515l0 -1M678 515l1 1M679 517l0 -1M679 517l1 0M680 518l0 -1"/>
<path stroke="blue" d="M680 518l1 0M681 520l0 -2M681 520l1 0M682 521l0 -1M682 521l1 0M683 523l0 -2M683 523l1 0M684 524l0 -1M684 524l1 0M685 525l0 -1M685 525l1 1M686 527l0 -1M686 527l1 0M687 528l0 -1M687 528l1 0M688 530l0 -2M688 530l1 0M689 531l0 -1"/>
<path stroke="blue" d="M689 531l1 0M690 533l0 -2M690 533l1 0M691 534l0 -1M691 534l1 0M692 536l0 -2M692 536l1 0M693 537l0 -1M693 537l1 0M694 539l0 -2M694 539l1 0M695 540l0 -1M695 540l1 0M696 542l0 -2M696 542l1 0M697 543l0 -1M697 543l1 0M698 545l0 -2"/>
<path stroke="blue" d="M698 545l1 0M699 546l0 -1M699 546l1 1M700 548l0 -1M700 548l1 0M701 550l0 -2M701 550l1 0M702 551l0 -1M702 551l1 0M703 553l0 -2M703 553l1 0M704 554l0 -1M704 554l1 0M705 556l0 -2M705 556l1 0M706 558l0 -2M706 558l1 0M707 559l0 -1"/>
<path stroke="blue" d="M707 559l1 0M708 561l0 -2M708 561l1 0M709 563l0 -2M709 563l1 0M710 564l0 -1M710 564l1 1M711 566l0 -1M711 566l1 0M712 568l0 -2M712 568l1 0M713 570l0 -2M713 570l1 0M714 572l0 -2M714 572l1 0M715 573l0 -1M715 573l1 1M716 575l0 -1"/>
<path stroke="blue" d="M716 575l1 0M717 577l0 -2M717 577l1 0M718 579l0 -2M718 579l1 0M719 581l0 -2M719 581l1 0M720 583l0 -2M720 583l1 0M721 585l0 -2M721 585l1 0M722 587l0 -2M722 587l1 0M723 589l0 -2M723 589l1 0M724 591l0 -2M724 591l1 0M725 593l0 -2"/>
<path stroke="blue" d="M725 593l1 0M726 595l0 -2M726 595l1 0M727 597l0 -2M727 597l1 1M728 600l0 -2M728 600l1 0M729 602l0 -2M729 602l1 0M730 604l0 -2M730 604l1 0M731 606l0 -2M731 606l1 1M732 609l0 -2M732 609l1 0M733 611l0 -2M733 611l1 0M734 614l0 -3"/>
<path stroke="blue" d="M734 614l1 0M735 616l0 -2M735 616l1 0M736 618l0 -2M736 618l1 1M737 621l0 -2M737 621l1 0M738 624l0 -3M738 624l1 0M739 626l0 -2M739 626l1 1M740 629l0 -2M740 629l1 1M741 632l0 -2M741 632l1 0M742 635l0 -3M742 635l1 0M743 638l0 -3"/>
<path stroke="blue" d="M743 638l1 1M744 641l0 -2M744 641l1 1M745 645l0 -3M745 645l1 0M746 648l0 -3M746 648l1 0M747 651l0 -3M747 651l1 1M748 655l0 -3M748 655l1 0M749 659l0 -4M749 659l1 0M750 663l0 -4M750 663l1 0M751 667l0 -4M751 667l1 0M752 671l0 -4"/>
<path stroke="blue" d="M752 671l1 0M753 675l0 -4M753 675l1 1M754 680l0 -4M754 680l1 0M755 685l0 -5M755 685l1 0M756 690l0 -5M756 690l1 1M757 696l0 -5M757 696l1 0M758 702l0 -6M758 702l1 0M759 704l0 -2M785 704l0 -1 1 0 0 -4 1 0 0 -4 1 0 0 -3 1 -1"/>
<path stroke="blue" d="M789 691l0 -3 1 0 0 -3 1 0 0 -3 1 0 0 -2 1 -1 0 -2 1 0 0 -3 1 0 0 -2 1 0 0 -2 1 0 0 -2 1 -1 0 -1 1 -1 0 -1 1 -1 0 -1 1 -1 0 -1 1 0 0 -2 1 0 0 -1 1 -1 0 -1 1 0 0 -2 1 0 0 -1 1 0 0 -2 1 0 0 -1 1 0 0 -1 1 0 0 -2 1 0 0 -1 1 0"/>
<path stroke="blue" d="M812 645l0 -1 1 0 0 -1 1 0 0 -1 1 0 0 -1 1 -1 0 -1 1 0 0 -1 1 0 0 -1 1 0 2 -2 1 0 0 -1 1 0 0 -1 1 0 0 -1 1 0 0 -1 1 0 0 -1 2 0 0 -1 1 0 0 -1 1 0 0 -1 2 0 0 -1 1 0 0 -1 2 0 0 -1 2 0 0 -1 1 0 0 -1 2 0 0 -1 2 0 0 -1 2 0 0 -1"/>
<path stroke="blue" d="M844 619l2 0 0 -1 2 0 0 -1 3 0 0 -1 2 0 0 -1 3 0 0 -1 2 0 0 -1 3 0 0 -1 3 0 0 -1 4 0 0 -1 4 0 0 -1 4 0 0 -1 4 0 0 -1 5 0 0 -1 6 0 0 -1 7 0 0 -1 5 0"/>
<path stroke="#FFA500" d="M436 39l43 0"/>
<text stroke="none" fill="white" font-size="16" x="489" y="48">
vswr
</text>
<path stroke="#FFA500" d="M90 136l4 0 0 -1 17 0 0 -1 17 0 0 -1 20 0 0 -1 33 0 0 -1 17 0M198 132l0 -1M198 132l32 0M230 133l0 -1M230 133l18 0M248 134l0 -1M248 134l16 0M264 135l0 -1M264 135l43 0 0 -1 49 0M356 135l0 -1M356 135l21 0 0 -1 4 0 0 -1"/>
<path stroke="#FFA500" d="M381 133l3 0 0 -1 3 0 0 -1 3 0 0 -1 2 0 0 -1 2 0 0 -1 1 0 0 -1 2 0 0 -1 1 0 0 -1 2 0 0 -1 1 0 0 -1 1 0 0 -1 1 0 0 -1 1 0 0 -1 1 0 0 -1 1 0 0 -1 1 0 0 -1 1 -1 0 -1 1 0 0 -1 1 0 0 -2 1 0 0 -1 1 0 0 -2 1 0 0 -2 1 0 0 -2"/>
<path stroke="#FFA500" d="M414 105l1 0 0 -1 1 -1 0 -1 1 -1 0 -2 1 0 0 -2 1 0 0 -2 1 -1 0 -2 1 0 0 -3 1 0 0 -3 1 0 0 -3 1 0 0 -3 1 0 0 -3 1 -1 0 -3 1 0 0 -4 1 0 0 -4 1 0 0 -1"/>
</svg>
