<?xml version="1.0" standalone="yes"?>
<!DOCTYPE svg PUBLIC "-//W3C//DTD SVG 1.1//EN"
 "http://www.w3.org/Graphics/SVG/1.1/DTD/svg11.dtd">
<svg xmlns="http://www.w3.org/2000/svg" version="1.1"
  width="100%" height="100%" viewBox="0 0 1024 768"
  style="fill: none; font-family: Helvetica;
 font: Helvetica;
">

<!-- Creator: NGspice -->

<rect x="0" y="0" width="1024" height="768" fill="black" stroke="none"/>
<text stroke="none" fill="white" font-size="16" x="358" y="752">
Frequency
</text>
<text transform="rotate(-90, 20, 494)"  stroke="none" fill="white" font-size="16" x="20" y="494">
Magnitude in dB / VSWR
</text>
<text stroke="none" fill="white" font-size="16" x="10" y="16">
sp9: lpfbpf6m
</text>
<path stroke="white" d="M95 704l0 -637"/>
<text stroke="none" fill="white" font-size="16" x="80" y="728">
0.0
</text>
<path stroke="white" stroke-dasharray="1,2" d="M202 704l0 -637"/>
<text stroke="none" fill="white" font-size="16" x="182" y="728">
20.0
</text>
<path stroke="white" stroke-dasharray="1,2" d="M309 704l0 -637"/>
<text stroke="none" fill="white" font-size="16" x="289" y="728">
40.0
</text>
<path stroke="white" stroke-dasharray="1,2" d="M416 704l0 -637"/>
<text stroke="none" fill="white" font-size="16" x="396" y="728">
60.0
</text>
<path stroke="white" stroke-dasharray="1,2" d="M523 704l0 -637"/>
<text stroke="none" fill="white" font-size="16" x="503" y="728">
80.0
</text>
<path stroke="white" stroke-dasharray="1,2" d="M630 704l0 -637"/>
<text stroke="none" fill="white" font-size="16" x="605" y="728">
100.0
</text>
<path stroke="white" stroke-dasharray="1,2" d="M737 704l0 -637"/>
<text stroke="none" fill="white" font-size="16" x="712" y="728">
120.0
</text>
<path stroke="white" stroke-dasharray="1,2" d="M844 704l0 -637"/>
<text stroke="none" fill="white" font-size="16" x="819" y="728">
140.0
</text>
<path stroke="white" stroke-dasharray="1,2" d="M951 704l0 -637"/>
<text stroke="none" fill="white" font-size="16" x="926" y="728">
160.0
</text>
<text stroke="none" fill="white" font-size="16" x="614" y="752">
MHz
</text>
<path stroke="white" stroke-dasharray="1,2" d="M95 704l856 0"/>
<text stroke="none" fill="white" font-size="16" x="33" y="712">
-120.0
</text>
<path stroke="white" stroke-dasharray="1,2" d="M95 613l856 0"/>
<text stroke="none" fill="white" font-size="16" x="33" y="621">
-100.0
</text>
<path stroke="white" stroke-dasharray="1,2" d="M95 522l856 0"/>
<text stroke="none" fill="white" font-size="16" x="43" y="530">
-80.0
</text>
<path stroke="white" stroke-dasharray="1,2" d="M95 431l856 0"/>
<text stroke="none" fill="white" font-size="16" x="43" y="439">
-60.0
</text>
<path stroke="white" stroke-dasharray="1,2" d="M95 340l856 0"/>
<text stroke="none" fill="white" font-size="16" x="43" y="348">
-40.0
</text>
<path stroke="white" stroke-dasharray="1,2" d="M95 249l856 0"/>
<text stroke="none" fill="white" font-size="16" x="43" y="257">
-20.0
</text>
<path stroke="white" d="M95 158l856 0"/>
<text stroke="none" fill="white" font-size="16" x="53" y="166">
-0.0
</text>
<path stroke="white" stroke-dasharray="1,2" d="M95 67l856 0"/>
<text stroke="none" fill="white" font-size="16" x="53" y="75">
20.0
</text>
<text stroke="none" fill="white" font-size="16" x="10" y="32">
     
</text>
<path stroke="red" d="M428 23l42 0"/>
<text stroke="none" fill="white" font-size="16" x="480" y="32">
vdb(s_1_1)
</text>
<path stroke="red" d="M100 158l99 0M199 159l0 -1M199 159l45 0M244 160l0 -1M244 160l19 0M263 161l0 -1M263 161l13 0M276 162l0 -1M276 162l10 0M286 163l0 -1M286 163l10 0M296 164l0 -1M296 164l10 0M306 165l0 -1M306 165l11 0M317 166l0 -1M317 166l11 0"/>
<path stroke="red" d="M328 167l0 -1M328 167l10 0M338 168l0 -1M338 168l7 0M345 169l0 -1M345 169l5 0M350 170l0 -1M350 170l5 0M355 171l0 -1M355 171l3 0M358 172l0 -1M358 172l3 0M361 173l0 -1M361 173l2 0M363 174l0 -1M363 174l2 0M365 175l0 -1M365 175l2 0"/>
<path stroke="red" d="M367 176l0 -1M367 176l2 0M369 177l0 -1M369 177l1 0M370 178l0 -1M370 178l2 0M372 179l0 -1M372 179l1 0M373 180l0 -1M373 180l1 0M374 181l0 -1M374 181l1 0M375 182l0 -1M375 182l1 0M376 183l0 -1M376 183l1 0M377 184l0 -1M377 184l1 0"/>
<path stroke="red" d="M378 185l0 -1M378 185l1 0M379 187l0 -2M379 187l1 0M380 188l0 -1M380 188l1 0M381 190l0 -2M381 190l1 0M382 191l0 -1M382 191l1 0M383 193l0 -2M383 193l1 0M384 195l0 -2M384 195l1 0M385 197l0 -2M385 197l1 0M386 199l0 -2M386 199l1 1"/>
<path stroke="red" d="M387 202l0 -2M387 202l1 0M388 204l0 -2M388 204l1 1M389 207l0 -2M389 207l1 0M390 210l0 -3M390 210l1 0M391 213l0 -3M391 213l1 0M392 215l0 -2M392 215l1 0M393 218l0 -3M393 218l1 0M394 219l0 -1M394 219l1 0M395 220l0 -1M395 220l2 0"/>
<path stroke="red" d="M397 220l0 -1 1 0 0 -1 1 -1 0 -2 1 0 0 -3 1 0 0 -3 1 0 0 -3 1 0 0 -3 1 -1 0 -3 1 0 0 -2 1 0 0 -3 1 0 0 -2 1 0 0 -3 1 0 0 -2 1 0 0 -2 1 0 0 -1 1 -1 0 -1 1 0 0 -2 1 0 0 -1 1 0 0 -1 1 -1 0 -1 1 0 0 -1 1 0 0 -1 1 0 0 -1 1 0"/>
<path stroke="red" d="M420 173l0 -1 1 0 1 -1 1 0 0 -1 1 0 0 -1 2 0 0 -1 2 0 0 -1 2 0 0 -1 3 0 0 -1 3 0 0 -1 4 0 0 -1 5 0 0 -1 7 0 0 -1 12 0 0 -1 18 0 0 -1 25 0 0 -1 391 0"/>
<path stroke="blue" d="M95 23l42 0"/>
<text stroke="none" fill="white" font-size="16" x="147" y="32">
vdb(s_2_1)
</text>
<path stroke="blue" d="M100 342l1 -1 0 -6 1 -1 0 -4 1 -1 0 -5 1 0 0 -4 1 0 0 -4 1 0 0 -4 1 0 0 -3 1 0 0 -3 1 0 0 -2 1 -1 0 -2 1 0 0 -2 1 -1 0 -2 1 0 0 -2 1 0 0 -2 1 0 0 -2 1 0 0 -2 1 0 0 -1 1 -1 0 -1 1 0 0 -2 1 0 0 -1 1 0 0 -2 1 0 0 -1 1 0 0 -1"/>
<path stroke="blue" d="M123 278l1 0 0 -1 1 -1 0 -1 1 0 0 -1 1 0 0 -1 1 0 0 -1 1 0 0 -1 1 0 0 -1 1 0 0 -1 1 0 0 -1 1 0 0 -1 1 0 0 -1 1 0 0 -1 1 0 0 -1 1 0 0 -1 2 0 0 -1 1 0 0 -1 1 0 0 -1 2 0 0 -1 1 0 0 -1 1 0 0 -1 2 0 0 -1 1 0 0 -1 2 0 0 -1 2 0"/>
<path stroke="blue" d="M152 254l0 -1 1 0 0 -1 2 0 0 -1 2 0 0 -1 2 0 0 -1 1 0 1 -1 1 0 0 -1 2 0 0 -1 2 0 0 -1 2 0 0 -1 2 0 1 -1 2 0 0 -1 2 0 0 -1 2 0 0 -1 2 0 0 -1 2 0 0 -1 3 0 0 -1 2 0 0 -1 2 0 0 -1 2 0 1 -1 2 0 0 -1 2 0 0 -1 2 0 0 -1 3 0 0 -1"/>
<path stroke="blue" d="M200 230l2 0 0 -1 2 0 0 -1 2 0 0 -1 3 0 0 -1 2 0 0 -1 2 0 0 -1 2 0 0 -1 2 0 1 -1 2 0 0 -1 2 0 0 -1 2 0 0 -1 2 0 0 -1 2 0 0 -1 2 0 0 -1 2 0 0 -1 2 0 0 -1 2 0 0 -1 2 0 1 -1 1 0 1 -1 1 0 0 -1 2 0 0 -1 2 0 0 -1 2 0 0 -1 2 0"/>
<path stroke="blue" d="M250 207l0 -1 2 0 0 -1 2 0 0 -1 2 0 0 -1 2 0 0 -1 2 0 0 -1 2 0 0 -1 2 0 0 -1 2 0 0 -1 2 0 0 -1 2 0 0 -1 2 0 0 -1 2 0 1 -1 2 0 0 -1 2 0 0 -1 2 0 0 -1 2 0 1 -1 2 0 0 -1 2 0 1 -1 2 0 0 -1 3 0 0 -1 3 0 0 -1 3 0 1 -1 3 0 0 -1"/>
<path stroke="blue" d="M304 183l4 0 0 -1 5 0 0 -1 5 0 0 -1 6 0 0 -1 6 0 0 -1 5 0 1 -1 5 0 0 -1 4 0 0 -1 4 0 0 -1 4 0 0 -1 3 0 0 -1 3 0 0 -1 3 0 0 -1 3 0 0 -1 2 0 0 -1 3 0 0 -1 2 0 0 -1 2 0 0 -1 3 0 0 -1 2 0 0 -1 2 0 0 -1 3 0 0 -1 3 0 0 -1 3 0"/>
<path stroke="blue" d="M390 160l0 -1 11 0M401 160l0 -1M401 160l3 0M404 161l0 -1M404 161l2 0 1 1 1 0M408 163l0 -1M408 163l2 0M410 164l0 -1M410 164l2 0M412 165l0 -1M412 165l1 0M413 166l0 -1M413 166l1 0 1 1 1 0M416 168l0 -1M416 168l1 0M417 169l0 -1"/>
<path stroke="blue" d="M417 169l1 0 1 1 1 0M420 171l0 -1M420 171l1 0M421 172l0 -1M421 172l1 0M422 173l0 -1M422 173l1 0 1 1 1 0M425 175l0 -1M425 175l1 0M426 176l0 -1M426 176l1 0M427 177l0 -1M427 177l1 0 1 1 1 0M430 179l0 -1M430 179l1 0M431 180l0 -1"/>
<path stroke="blue" d="M431 180l1 0M432 181l0 -1M432 181l2 0M434 182l0 -1M434 182l1 0M435 183l0 -1M435 183l1 0M436 184l0 -1M436 184l2 0M438 185l0 -1M438 185l1 0M439 186l0 -1M439 186l2 0M441 187l0 -1M441 187l1 0M442 188l0 -1M442 188l2 0M444 189l0 -1"/>
<path stroke="blue" d="M444 189l1 0M445 190l0 -1M445 190l2 0M447 191l0 -1M447 191l1 0M448 192l0 -1M448 192l2 0M450 193l0 -1M450 193l2 0M452 194l0 -1M452 194l1 0M453 195l0 -1M453 195l2 0M455 196l0 -1M455 196l2 0M457 197l0 -1M457 197l2 0M459 198l0 -1"/>
<path stroke="blue" d="M459 198l2 0M461 199l0 -1M461 199l2 0M463 200l0 -1M463 200l2 0M465 201l0 -1M465 201l2 0M467 202l0 -1M467 202l2 0M469 203l0 -1M469 203l2 0M471 204l0 -1M471 204l1 0M472 205l0 -1M472 205l2 0M474 206l0 -1M474 206l2 0M476 207l0 -1"/>
<path stroke="blue" d="M476 207l2 0M478 208l0 -1M478 208l2 0M480 209l0 -1M480 209l1 0M481 210l0 -1M481 210l2 0M483 211l0 -1M483 211l2 0M485 212l0 -1M485 212l1 0M486 213l0 -1M486 213l1 0 1 1 1 0M489 215l0 -1M489 215l1 0M490 216l0 -1M490 216l1 0"/>
<path stroke="blue" d="M491 216l1 1 1 0M493 218l0 -1M493 218l1 0M494 219l0 -1M494 219l1 0M495 220l0 -1M495 220l1 0M496 221l0 -1M496 221l1 0M497 222l0 -1M497 222l1 0M498 223l0 -1M498 223l1 0 5 5M504 229l0 -1M504 229l1 0M505 230l0 -1M505 230l1 0"/>
<path stroke="blue" d="M506 231l0 -1M506 231l1 0M507 232l0 -1M507 232l1 0M508 233l0 -1M508 233l1 0M509 234l0 -1M509 234l1 0M510 235l0 -1M510 235l1 0M511 236l0 -1M511 236l1 1M512 238l0 -1M512 238l1 0M513 239l0 -1M513 239l1 0M514 240l0 -1M514 240l1 0"/>
<path stroke="blue" d="M515 241l0 -1M515 241l1 0M516 242l0 -1M516 242l1 0M517 244l0 -2M517 244l1 0M518 245l0 -1M518 245l1 0M519 246l0 -1M519 246l1 0M520 247l0 -1M520 247l1 0M521 248l0 -1M521 248l1 1M522 250l0 -1M522 250l1 0M523 251l0 -1M523 251l1 0"/>
<path stroke="blue" d="M524 252l0 -1M524 252l1 0M525 253l0 -1M525 253l1 1M526 255l0 -1M526 255l1 0M527 256l0 -1M527 256l1 0M528 257l0 -1M528 257l1 0M529 258l0 -1M529 258l1 1M530 260l0 -1M530 260l1 0M531 261l0 -1M531 261l1 0M532 262l0 -1M532 262l1 0"/>
<path stroke="blue" d="M533 263l0 -1M533 263l1 1M534 265l0 -1M534 265l1 0M535 266l0 -1M535 266l1 0M536 267l0 -1M536 267l1 0M537 268l0 -1M537 268l1 0M538 270l0 -2M538 270l1 0M539 271l0 -1M539 271l1 0M540 272l0 -1M540 272l1 0M541 273l0 -1M541 273l1 0"/>
<path stroke="blue" d="M542 274l0 -1M542 274l1 1M543 276l0 -1M543 276l1 0M544 277l0 -1M544 277l1 0M545 278l0 -1M545 278l1 0M546 279l0 -1M546 279l1 0M547 280l0 -1M547 280l1 1M548 282l0 -1M548 282l1 0M549 283l0 -1M549 283l1 0M550 284l0 -1M550 284l1 0"/>
<path stroke="blue" d="M551 285l0 -1M551 285l1 0M552 286l0 -1M552 286l1 0M553 288l0 -2M553 288l1 0M554 289l0 -1M554 289l1 0M555 290l0 -1M555 290l1 0M556 291l0 -1M556 291l1 0M557 292l0 -1M557 292l1 0M558 293l0 -1M558 293l1 0M559 294l0 -1M559 294l1 1"/>
<path stroke="blue" d="M560 296l0 -1M560 296l1 0M561 297l0 -1M561 297l1 0M562 298l0 -1M562 298l1 0M563 299l0 -1M563 299l1 0M564 300l0 -1M564 300l1 0M565 301l0 -1M565 301l1 0M566 302l0 -1M566 302l1 0M567 303l0 -1M567 303l1 0M568 305l0 -2M568 305l1 0"/>
<path stroke="blue" d="M569 306l0 -1M569 306l1 0M570 307l0 -1M570 307l1 0M571 308l0 -1M571 308l1 0M572 309l0 -1M572 309l1 0M573 310l0 -1M573 310l1 0M574 311l0 -1M574 311l1 0M575 312l0 -1M575 312l1 0M576 313l0 -1M576 313l1 0M577 314l0 -1M577 314l1 0"/>
<path stroke="blue" d="M578 315l0 -1M578 315l1 0M579 316l0 -1M579 316l1 0M580 317l0 -1M580 317l1 1M581 319l0 -1M581 319l1 0M582 320l0 -1M582 320l1 0M583 321l0 -1M583 321l1 0M584 322l0 -1M584 322l1 0M585 323l0 -1M585 323l1 0M586 324l0 -1M586 324l1 0"/>
<path stroke="blue" d="M587 325l0 -1M587 325l1 0M588 326l0 -1M588 326l1 0M589 327l0 -1M589 327l1 0M590 328l0 -1M590 328l1 0M591 329l0 -1M591 329l1 0M592 330l0 -1M592 330l1 0M593 331l0 -1M593 331l1 0M594 332l0 -1M594 332l1 0M595 333l0 -1M595 333l1 0"/>
<path stroke="blue" d="M596 334l0 -1M596 334l1 0M597 335l0 -1M597 335l1 0M598 336l0 -1M598 336l1 0M599 337l0 -1M599 337l1 0M600 338l0 -1M600 338l1 0M601 339l0 -1M601 339l1 0M602 340l0 -1M602 340l1 0M603 341l0 -1M603 341l1 0M604 342l0 -1M604 342l1 0"/>
<path stroke="blue" d="M605 343l0 -1M605 343l1 0M606 344l0 -1M606 344l1 0M607 345l0 -1M607 345l1 0M608 346l0 -1M608 346l1 0M609 347l0 -1M609 347l1 0M610 348l0 -1M610 348l1 0M611 349l0 -1M611 349l1 0M612 350l0 -1M612 350l1 0M613 351l0 -1M613 351l1 0"/>
<path stroke="blue" d="M614 352l0 -1M614 352l1 0M615 353l0 -1M615 353l1 0M616 354l0 -1M616 354l1 0 2 2 1 0M620 357l0 -1M620 357l1 0M621 358l0 -1M621 358l1 0M622 359l0 -1M622 359l1 0M623 360l0 -1M623 360l1 0M624 361l0 -1M624 361l1 0M625 362l0 -1"/>
<path stroke="blue" d="M625 362l1 0M626 363l0 -1M626 363l1 0M627 364l0 -1M627 364l1 0M628 365l0 -1M628 365l1 0M629 366l0 -1M629 366l1 0M630 367l0 -1M630 367l1 0M631 368l0 -1M631 368l1 0M632 369l0 -1M632 369l1 0M633 370l0 -1M633 370l1 0M634 371l0 -1"/>
<path stroke="blue" d="M634 371l1 0M635 372l0 -1M635 372l1 0M636 373l0 -1M636 373l1 0M637 374l0 -1M637 374l1 0 1 1 1 0M640 376l0 -1M640 376l1 0M641 377l0 -1M641 377l1 0M642 378l0 -1M642 378l1 0M643 379l0 -1M643 379l1 0M644 380l0 -1M644 380l1 0"/>
<path stroke="blue" d="M645 381l0 -1M645 381l1 0M646 382l0 -1M646 382l1 0M647 383l0 -1M647 383l1 0M648 384l0 -1M648 384l1 0M649 385l0 -1M649 385l1 0M650 386l0 -1M650 386l1 0M651 387l0 -1M651 387l1 0M652 388l0 -1M652 388l1 0M653 389l0 -1M653 389l1 0"/>
<path stroke="blue" d="M654 390l0 -1M654 390l1 0M655 391l0 -1M655 391l1 0M656 392l0 -1M656 392l2 0M658 393l0 -1M658 393l1 0M659 394l0 -1M659 394l1 0M660 395l0 -1M660 395l1 0M661 396l0 -1M661 396l1 0M662 397l0 -1M662 397l1 0M663 398l0 -1M663 398l1 0"/>
<path stroke="blue" d="M664 399l0 -1M664 399l1 0M665 400l0 -1M665 400l1 0M666 401l0 -1M666 401l1 0M667 402l0 -1M667 402l1 0M668 403l0 -1M668 403l1 0M669 404l0 -1M669 404l1 0M670 405l0 -1M670 405l1 0M671 406l0 -1M671 406l1 0M672 407l0 -1M672 407l1 0"/>
<path stroke="blue" d="M673 408l0 -1M673 408l1 0M674 409l0 -1M674 409l1 0M675 410l0 -1M675 410l1 0M676 411l0 -1M676 411l1 0M677 412l0 -1M677 412l1 0M678 413l0 -1M678 413l1 0M679 414l0 -1M679 414l1 0M680 415l0 -1M680 415l1 0M681 416l0 -1M681 416l1 0"/>
<path stroke="blue" d="M682 417l0 -1M682 417l1 0M683 418l0 -1M683 418l1 0M684 419l0 -1M684 419l1 0M685 420l0 -1M685 420l1 0M686 421l0 -1M686 421l1 0M687 422l0 -1M687 422l1 0M688 423l0 -1M688 423l1 0M689 424l0 -1M689 424l1 0M690 425l0 -1M690 425l1 0"/>
<path stroke="blue" d="M691 426l0 -1M691 426l1 0M692 427l0 -1M692 427l1 0M693 428l0 -1M693 428l1 0M694 429l0 -1M694 429l1 0M695 430l0 -1M695 430l1 0M696 431l0 -1M696 431l1 0M697 432l0 -1M697 432l1 0M698 433l0 -1M698 433l1 0M699 434l0 -1M699 434l1 0"/>
<path stroke="blue" d="M700 435l0 -1M700 435l1 1M701 437l0 -1M701 437l1 0M702 438l0 -1M702 438l1 0M703 439l0 -1M703 439l1 0M704 440l0 -1M704 440l1 0M705 441l0 -1M705 441l1 0M706 442l0 -1M706 442l1 0M707 443l0 -1M707 443l1 0M708 445l0 -2M708 445l1 0"/>
<path stroke="blue" d="M709 446l0 -1M709 446l1 0M710 447l0 -1M710 447l1 0M711 448l0 -1M711 448l1 0M712 449l0 -1M712 449l1 0M713 450l0 -1M713 450l1 1M714 452l0 -1M714 452l1 0M715 453l0 -1M715 453l1 0M716 454l0 -1M716 454l1 0M717 455l0 -1M717 455l1 0"/>
<path stroke="blue" d="M718 457l0 -2M718 457l1 0M719 458l0 -1M719 458l1 0M720 459l0 -1M720 459l1 0M721 461l0 -2M721 461l1 0M722 462l0 -1M722 462l1 0M723 463l0 -1M723 463l1 0M724 465l0 -2M724 465l1 0M725 466l0 -1M725 466l1 0M726 467l0 -1M726 467l1 1"/>
<path stroke="blue" d="M727 469l0 -1M727 469l1 0M728 470l0 -1M728 470l1 0M729 472l0 -2M729 472l1 0M730 473l0 -1M730 473l1 0M731 475l0 -2M731 475l1 0M732 476l0 -1M732 476l1 0M733 478l0 -2M733 478l1 0M734 480l0 -2M734 480l1 0M735 481l0 -1M735 481l1 0"/>
<path stroke="blue" d="M736 483l0 -2M736 483l1 0M737 485l0 -2M737 485l1 0M738 486l0 -1M738 486l1 1M739 488l0 -1M739 488l1 0M740 490l0 -2M740 490l1 0M741 492l0 -2M741 492l1 0M742 494l0 -2M742 494l1 0M743 496l0 -2M743 496l1 0M744 498l0 -2M744 498l1 0"/>
<path stroke="blue" d="M745 500l0 -2M745 500l1 0M746 502l0 -2M746 502l1 1M747 505l0 -2M747 505l1 0M748 507l0 -2M748 507l1 0M749 510l0 -3M749 510l1 0M750 512l0 -2M750 512l1 1M751 515l0 -2M751 515l1 0M752 518l0 -3M752 518l1 0M753 521l0 -3M753 521l1 0"/>
<path stroke="blue" d="M754 524l0 -3M754 524l1 0M755 527l0 -3M755 527l1 1M756 531l0 -3M756 531l1 1M757 535l0 -3M757 535l1 0M758 540l0 -5M758 540l1 0M759 544l0 -4M759 544l1 1M760 550l0 -5M760 550l1 0M761 556l0 -6M761 556l1 0M762 562l0 -6M762 562l1 1"/>
<path stroke="blue" d="M763 571l0 -8M763 571l1 0M764 580l0 -9M764 580l1 1M765 593l0 -12M765 593l1 2M766 611l0 -16M766 611l1 2M767 648l0 -35M767 648l1 5M768 704l0 -51M768 685l1 -10 0 -52 1 -2 0 -19 1 -1 0 -13 1 -1 0 -10 1 0 0 -7 1 -1 0 -6 1 0"/>
<path stroke="blue" d="M775 563l0 -5 1 0 0 -5 1 0 0 -4 1 0 0 -3 1 -1 0 -3 1 0 0 -3 1 0 0 -2 1 0 0 -3 1 0 0 -2 1 0 0 -2 1 0 0 -2 1 0 0 -2 1 0 0 -2 1 0 0 -1 1 0 0 -2 1 0 0 -1 1 0 0 -1 1 -1 0 -1 1 0 0 -1 1 0 0 -1 1 0 0 -1 1 0 0 -1 1 0 0 -1 1 0 0 -1"/>
<path stroke="blue" d="M798 511l1 0 0 -1 1 0 0 -1 1 0 0 -1 2 0 0 -1 1 0 0 -1 1 0 0 -1 2 0 0 -1 2 0 0 -1 1 0 0 -1 2 0 0 -1 2 0 0 -1 2 0 1 -1 2 0 0 -1 2 0 0 -1 3 0 0 -1 3 0 1 -1 3 0 0 -1 4 0 0 -1 5 0 0 -1 6 0 0 -1 7 0 0 -1 11 0 0 -1 34 0"/>
<path stroke="#FFA500" d="M428 39l42 0"/>
<text stroke="none" fill="white" font-size="16" x="480" y="48">
vswr
</text>
<path stroke="#FFA500" d="M280 67l1 0M281 69l0 -2M281 69l1 0M282 71l0 -2M282 71l1 0M283 73l0 -2M283 73l1 0M284 75l0 -2M284 75l1 0M285 77l0 -2M285 77l1 0M286 79l0 -2M286 79l1 0M287 80l0 -1M287 80l1 1M288 82l0 -1M288 82l1 0M289 84l0 -2M289 84l1 0"/>
<path stroke="#FFA500" d="M290 85l0 -1M290 85l1 0M291 87l0 -2M291 87l1 0M292 88l0 -1M292 88l1 0M293 90l0 -2M293 90l1 0M294 91l0 -1M294 91l1 0M295 92l0 -1M295 92l1 0M296 93l0 -1M296 93l1 0M297 95l0 -2M297 95l1 0M298 96l0 -1M298 96l1 0M299 97l0 -1"/>
<path stroke="#FFA500" d="M299 97l1 0M300 98l0 -1M300 98l1 0M301 99l0 -1M301 99l1 0M302 100l0 -1M302 100l1 0M303 101l0 -1M303 101l1 0M304 102l0 -1M304 102l2 0M306 103l0 -1M306 103l1 0M307 104l0 -1M307 104l1 0M308 105l0 -1M308 105l2 0M310 106l0 -1"/>
<path stroke="#FFA500" d="M310 106l1 0M311 107l0 -1M311 107l2 0M313 108l0 -1M313 108l1 0M314 109l0 -1M314 109l2 0M316 110l0 -1M316 110l2 0M318 111l0 -1M318 111l2 0M320 112l0 -1M320 112l2 0M322 113l0 -1M322 113l2 0M324 114l0 -1M324 114l2 0M326 115l0 -1"/>
<path stroke="#FFA500" d="M326 115l2 0M328 116l0 -1M328 116l2 0 1 1 2 0M333 118l0 -1M333 118l2 0M335 119l0 -1M335 119l2 0M337 120l0 -1M337 120l2 0M339 121l0 -1M339 121l2 0M341 122l0 -1M341 122l2 0M343 123l0 -1M343 123l2 0M345 124l0 -1M345 124l2 0"/>
<path stroke="#FFA500" d="M347 125l0 -1M347 125l2 0M349 126l0 -1M349 126l1 0M350 127l0 -1M350 127l2 0M352 128l0 -1M352 128l2 0M354 129l0 -1M354 129l1 0M355 130l0 -1M355 130l2 0M357 131l0 -1M357 131l2 0M359 132l0 -1M359 132l1 0M360 133l0 -1M360 133l2 0"/>
<path stroke="#FFA500" d="M362 134l0 -1M362 134l1 0M363 135l0 -1M363 135l2 0M365 136l0 -1M365 136l1 0M366 137l0 -1M366 137l2 0M368 138l0 -1M368 138l1 0M369 139l0 -1M369 139l2 0M371 140l0 -1M371 140l1 0M372 141l0 -1M372 141l2 0M374 142l0 -1M374 142l1 0"/>
<path stroke="#FFA500" d="M375 142l1 1 1 0M377 144l0 -1M377 144l2 0M379 145l0 -1M379 145l1 0 1 1 1 0M382 147l0 -1M382 147l2 0M384 148l0 -1M384 148l2 0M386 149l0 -1M386 149l3 0M389 150l0 -1M389 150l3 0M392 151l0 -1M392 151l8 0 0 -1 3 0 0 -1 2 0"/>
<path stroke="#FFA500" d="M405 149l0 -1 1 0 0 -1 2 0 0 -1 1 0 0 -1 1 0 0 -1 1 0 0 -1 1 0 0 -1 1 0 0 -1 1 0 0 -1 1 0 0 -1 1 0 0 -1 1 0 0 -1 1 0 0 -1 1 -1 0 -1 1 0 0 -1 1 0 0 -2 1 0 0 -1 1 0 0 -2 1 0 0 -2 1 0 0 -1 1 -1 0 -1 1 -1 0 -1 1 0 0 -2 1 0"/>
<path stroke="#FFA500" d="M429 119l0 -2 1 0 0 -2 1 0 0 -2 1 0 0 -3 1 0 0 -2 1 0 0 -2 1 0 0 -2 1 -1 0 -2 1 0 0 -2 1 -1 0 -2 1 0 0 -3 1 0 0 -2 1 0 0 -3 1 0 0 -3 1 0 0 -3 1 0 0 -2 1 0 0 -3 1 -1 0 -2 1 0 0 -3 1 0 0 -3 1 0 0 -1M756 704l0 -637M784 704l0 -637"/>
</svg>
