<?xml version="1.0" standalone="yes"?>
<!DOCTYPE svg PUBLIC "-//W3C//DTD SVG 1.1//EN"
 "http://www.w3.org/Graphics/SVG/1.1/DTD/svg11.dtd">
<svg xmlns="http://www.w3.org/2000/svg" version="1.1"
  width="100%" height="100%" viewBox="0 0 1024 768"
  style="fill: none; font-family: Helvetica;
 font: Helvetica;
">

<!-- Creator: NGspice -->

<rect x="0" y="0" width="1024" height="768" fill="black" stroke="none"/>
<text stroke="none" fill="white" font-size="16" x="358" y="752">
Frequency
</text>
<text transform="rotate(-90, 20, 494)"  stroke="none" fill="white" font-size="16" x="20" y="494">
Magnitude in dB / VSWR
</text>
<text stroke="none" fill="white" font-size="16" x="10" y="16">
sp9: lpfbpf6m
</text>
<path stroke="white" d="M85 704l0 -640"/>
<text stroke="none" fill="white" font-size="16" x="70" y="728">
0.0
</text>
<path stroke="white" stroke-dasharray="1,2" d="M194 704l0 -640"/>
<text stroke="none" fill="white" font-size="16" x="174" y="728">
20.0
</text>
<path stroke="white" stroke-dasharray="1,2" d="M303 704l0 -640"/>
<text stroke="none" fill="white" font-size="16" x="283" y="728">
40.0
</text>
<path stroke="white" stroke-dasharray="1,2" d="M412 704l0 -640"/>
<text stroke="none" fill="white" font-size="16" x="392" y="728">
60.0
</text>
<path stroke="white" stroke-dasharray="1,2" d="M521 704l0 -640"/>
<text stroke="none" fill="white" font-size="16" x="501" y="728">
80.0
</text>
<path stroke="white" stroke-dasharray="1,2" d="M630 704l0 -640"/>
<text stroke="none" fill="white" font-size="16" x="605" y="728">
100.0
</text>
<path stroke="white" stroke-dasharray="1,2" d="M739 704l0 -640"/>
<text stroke="none" fill="white" font-size="16" x="714" y="728">
120.0
</text>
<path stroke="white" stroke-dasharray="1,2" d="M848 704l0 -640"/>
<text stroke="none" fill="white" font-size="16" x="823" y="728">
140.0
</text>
<path stroke="white" stroke-dasharray="1,2" d="M957 704l0 -640"/>
<text stroke="none" fill="white" font-size="16" x="932" y="728">
160.0
</text>
<text stroke="none" fill="white" font-size="16" x="614" y="752">
MHz
</text>
<path stroke="white" stroke-dasharray="1,2" d="M85 704l872 0"/>
<text stroke="none" fill="white" font-size="16" x="33" y="712">
-70.0
</text>
<path stroke="white" stroke-dasharray="1,2" d="M85 624l872 0"/>
<text stroke="none" fill="white" font-size="16" x="33" y="632">
-60.0
</text>
<path stroke="white" stroke-dasharray="1,2" d="M85 544l872 0"/>
<text stroke="none" fill="white" font-size="16" x="33" y="552">
-50.0
</text>
<path stroke="white" stroke-dasharray="1,2" d="M85 464l872 0"/>
<text stroke="none" fill="white" font-size="16" x="33" y="472">
-40.0
</text>
<path stroke="white" stroke-dasharray="1,2" d="M85 384l872 0"/>
<text stroke="none" fill="white" font-size="16" x="33" y="392">
-30.0
</text>
<path stroke="white" stroke-dasharray="1,2" d="M85 304l872 0"/>
<text stroke="none" fill="white" font-size="16" x="33" y="312">
-20.0
</text>
<path stroke="white" stroke-dasharray="1,2" d="M85 224l872 0"/>
<text stroke="none" fill="white" font-size="16" x="33" y="232">
-10.0
</text>
<path stroke="white" d="M85 144l872 0"/>
<text stroke="none" fill="white" font-size="16" x="53" y="152">
0.0
</text>
<path stroke="white" stroke-dasharray="1,2" d="M85 64l872 0"/>
<text stroke="none" fill="white" font-size="16" x="43" y="72">
10.0
</text>
<text stroke="none" fill="white" font-size="16" x="10" y="32">
     
</text>
<path stroke="red" d="M436 23l43 0"/>
<text stroke="none" fill="white" font-size="16" x="489" y="32">
vdb(s_1_1)
</text>
<path stroke="red" d="M90 144l75 0M165 145l0 -1M165 145l49 0M214 146l0 -1M214 146l21 0M235 147l0 -1M235 147l13 0M248 148l0 -1M248 148l9 0M257 149l0 -1M257 149l8 0M265 150l0 -1M265 150l6 0M271 151l0 -1M271 151l6 0M277 152l0 -1M277 152l6 0M283 153l0 -1"/>
<path stroke="red" d="M283 153l5 0 1 1 5 0M294 155l0 -1M294 155l6 0M300 156l0 -1M300 156l6 0M306 157l0 -1M306 157l7 0M313 158l0 -1M313 158l7 0M320 159l0 -1M320 159l6 0M326 160l0 -1M326 160l5 0 1 1 4 0M336 162l0 -1M336 162l4 0M340 163l0 -1M340 163l3 0"/>
<path stroke="red" d="M343 164l0 -1M343 164l3 0M346 165l0 -1M346 165l2 0M348 166l0 -1M348 166l2 0 1 1 1 0 1 1 1 0M354 169l0 -1M354 169l2 0M356 170l0 -1M356 170l1 0M357 171l0 -1M357 171l2 0M359 172l0 -1M359 172l1 0M360 173l0 -1M360 173l1 0M361 174l0 -1"/>
<path stroke="red" d="M361 174l1 0M362 175l0 -1M362 175l1 0M363 176l0 -1M363 176l1 0M364 177l0 -1M364 177l1 0M365 178l0 -1M365 178l1 0M366 180l0 -2M366 180l1 0M367 181l0 -1M367 181l1 0M368 182l0 -1M368 182l1 0M369 184l0 -2M369 184l1 0M370 186l0 -2"/>
<path stroke="red" d="M370 186l1 0M371 187l0 -1M371 187l1 0M372 189l0 -2M372 189l1 0M373 191l0 -2M373 191l1 1M374 194l0 -2M374 194l1 0M375 196l0 -2M375 196l1 0M376 199l0 -3M376 199l1 0M377 201l0 -2M377 201l1 1M378 204l0 -2M378 204l1 1M379 208l0 -3"/>
<path stroke="red" d="M379 208l1 0M380 211l0 -3M380 211l1 0M381 215l0 -4M381 215l1 0M382 219l0 -4M382 219l1 0M383 223l0 -4M383 223l1 1M384 228l0 -4M384 228l1 0M385 233l0 -5M385 233l1 0M386 237l0 -4M386 237l1 1M387 242l0 -4M387 242l1 0M388 246l0 -4"/>
<path stroke="red" d="M388 246l1 1M389 250l0 -3M389 250l1 0M390 253l0 -3M390 253l1 0M391 254l0 -1M391 254l1 0 0 -1 1 0 0 -2 1 0 0 -4 1 0 0 -5 1 0 0 -5 1 0 0 -5 1 0 0 -6 1 0 0 -5 1 0 0 -5 1 0 0 -5 1 0 0 -4 1 -1 0 -3 1 -1 0 -3 1 -1 0 -3 1 0 0 -3"/>
<path stroke="red" d="M406 192l1 -1 0 -2 1 -1 0 -2 1 -1 0 -2 1 0 0 -2 1 0 0 -3 1 0 0 -2 1 0 0 -2 1 0 0 -1 1 -1 0 -1 1 0 0 -2 1 0 0 -1 1 0 0 -1 1 -1 0 -1 1 0 0 -1 1 0 0 -1 1 0 0 -1 1 0 0 -1 1 0 0 -1 2 0 0 -1 1 0 0 -1 1 0 1 -1 1 0 0 -1 2 0 0 -1"/>
<path stroke="red" d="M432 155l2 0 0 -1 3 0 0 -1 3 0 0 -1 3 0 0 -1 4 0 0 -1 6 0 0 -1 7 0 0 -1 9 0 0 -1 12 0 0 -1 13 0 0 -1 20 0 0 -1 389 0"/>
<path stroke="blue" d="M85 23l43 0"/>
<text stroke="none" fill="white" font-size="16" x="138" y="32">
vdb(s_2_1)
</text>
<path stroke="blue" d="M90 468l1 -1 0 -10 1 -1 0 -10 1 0 0 -8 1 -1 0 -7 1 0 0 -7 1 0 0 -6 1 -1 0 -5 1 0 0 -5 1 -1 0 -4 1 0 0 -4 1 -1 0 -4 1 0 0 -4 1 0 0 -3 1 -1 0 -3 1 0 0 -3 1 -1 0 -3 1 0 0 -3 1 0 0 -3 1 0 0 -2 1 0 0 -3 1 0 0 -2 1 -1 0 -2 1 0"/>
<path stroke="blue" d="M113 358l0 -2 1 0 0 -2 1 -1 0 -2 1 0 0 -2 1 0 0 -2 1 0 0 -2 1 0 0 -1 1 -1 0 -1 1 0 0 -2 1 0 0 -2 1 0 0 -1 1 0 0 -2 1 0 0 -1 1 -1 0 -1 1 0 0 -2 1 0 0 -1 1 0 0 -1 1 0 0 -2 1 0 0 -1 1 0 0 -1 1 0 0 -2 1 0 0 -1 1 0 0 -1 1 0"/>
<path stroke="blue" d="M136 320l0 -1 1 0 0 -1 1 0 0 -2 1 0 0 -1 1 0 0 -1 1 0 0 -1 1 0 0 -1 1 0 0 -1 1 0 0 -1 1 0 0 -1 1 0 0 -1 1 0 0 -1 1 0 0 -1 1 0 0 -1 1 0 0 -1 1 0 0 -1 1 0 0 -1 1 0 1 -1 1 0 0 -1 1 0 0 -1 1 0 0 -1 1 0 0 -1 1 0 0 -1 1 0 1 -1"/>
<path stroke="blue" d="M161 295l1 0 0 -1 1 0 0 -1 1 0 0 -1 1 0 0 -1 2 0 0 -1 1 0 0 -1 1 0 0 -1 1 0 1 -1 1 0 0 -1 1 0 0 -1 1 0 0 -1 2 0 0 -1 1 0 0 -1 1 0 0 -1 2 0 0 -1 1 0 0 -1 1 0 0 -1 2 0 0 -1 1 0 0 -1 1 0 0 -1 1 0 1 -1 1 0 0 -1 1 0 0 -1 1 0"/>
<path stroke="blue" d="M191 272l1 -1 1 0 0 -1 1 0 0 -1 1 0 1 -1 1 0 0 -1 1 0 0 -1 1 0 0 -1 2 0 0 -1 1 0 0 -1 1 0 0 -1 2 0 0 -1 1 0 0 -1 1 0 0 -1 1 0 0 -1 2 0 0 -1 1 0 0 -1 1 0 0 -1 1 0 0 -1 2 0 0 -1 1 0 0 -1 1 0 0 -1 1 0 0 -1 2 0 0 -1 1 0 0 -1"/>
<path stroke="blue" d="M221 248l1 0 0 -1 1 0 0 -1 1 0 0 -1 2 0 0 -1 1 0 0 -1 1 0 0 -1 1 0 0 -1 1 0 0 -1 1 0 1 -1 1 0 0 -1 1 0 0 -1 1 0 0 -1 1 0 0 -1 1 0 0 -1 1 0 1 -1 1 0 0 -1 1 0 0 -1 1 0 0 -1 1 0 0 -1 1 0 0 -1 1 0 0 -1 1 0 0 -1 2 0 0 -1 1 0"/>
<path stroke="blue" d="M249 225l0 -1 1 0 0 -1 1 0 0 -1 1 0 0 -1 1 0 0 -1 1 0 0 -1 2 0 0 -1 1 0 0 -1 1 0 0 -1 1 0 0 -1 1 0 0 -1 1 0 0 -1 2 0 0 -1 1 0 0 -1 1 0 0 -1 1 0 0 -1 1 0 0 -1 2 0 0 -1 1 0 0 -1 1 0 0 -1 1 0 1 -1 1 0 0 -1 1 0 0 -1 2 0 0 -1"/>
<path stroke="blue" d="M277 201l1 0 0 -1 1 0 0 -1 2 0 0 -1 1 0 0 -1 2 0 0 -1 1 0 1 -1 1 0 0 -1 2 0 0 -1 2 0 0 -1 2 0 0 -1 2 0 0 -1 2 0 0 -1 2 0 0 -1 2 0 0 -1 3 0 0 -1 3 0 0 -1 2 0 1 -1 3 0 0 -1 3 0 0 -1 3 0 0 -1 4 0 0 -1 3 0 0 -1 3 0 0 -1 3 0"/>
<path stroke="blue" d="M332 178l0 -1 3 0 0 -1 3 0 0 -1 2 0 1 -1 2 0 0 -1 2 0 0 -1 2 0 0 -1 2 0 0 -1 2 0 0 -1 2 0 0 -1 1 0 1 -1 1 0 0 -1 2 0 0 -1 1 0 0 -1 2 0 0 -1 1 0 0 -1 2 0 0 -1 1 0 0 -1 1 0 0 -1 2 0 0 -1 1 0 0 -1 1 0 1 -1 1 0 0 -1 1 0 0 -1"/>
<path stroke="blue" d="M373 154l1 0 1 -1 1 0 0 -1 1 0 0 -1 2 0 0 -1 1 0 0 -1 2 0 0 -1 2 0 0 -1 2 0 0 -1 11 0M397 147l0 -1M397 147l2 0M399 148l0 -1M399 148l1 0M400 149l0 -1M400 149l1 0 1 1 1 0M403 151l0 -1M403 151l1 0M404 152l0 -1M404 152l1 0"/>
<path stroke="blue" d="M405 153l0 -1M405 153l1 0M406 154l0 -1M406 154l1 0M407 155l0 -1M407 155l1 0M408 156l0 -1M408 156l1 1M409 158l0 -1M409 158l1 0M410 159l0 -1M410 159l1 0M411 160l0 -1M411 160l1 0M412 161l0 -1M412 161l1 1M413 163l0 -1M413 163l1 0"/>
<path stroke="blue" d="M414 164l0 -1M414 164l1 0M415 165l0 -1M415 165l1 1M416 167l0 -1M416 167l1 0M417 168l0 -1M417 168l1 0M418 170l0 -2M418 170l1 0M419 171l0 -1M419 171l1 0M420 172l0 -1M420 172l1 0M421 174l0 -2M421 174l1 0M422 175l0 -1M422 175l1 0"/>
<path stroke="blue" d="M423 176l0 -1M423 176l1 1M424 178l0 -1M424 178l1 0M425 179l0 -1M425 179l1 0M426 181l0 -2M426 181l1 0M427 182l0 -1M427 182l1 0M428 183l0 -1M428 183l1 0M429 185l0 -2M429 185l1 0M430 186l0 -1M430 186l1 0M431 187l0 -1M431 187l1 0"/>
<path stroke="blue" d="M432 188l0 -1M432 188l1 1M433 190l0 -1M433 190l1 0M434 191l0 -1M434 191l1 0M435 192l0 -1M435 192l1 0M436 193l0 -1M436 193l1 1M437 195l0 -1M437 195l1 0M438 196l0 -1M438 196l1 0M439 197l0 -1M439 197l1 0M440 198l0 -1M440 198l1 0"/>
<path stroke="blue" d="M441 199l0 -1M441 199l1 0M442 200l0 -1M442 200l1 0M443 201l0 -1M443 201l1 0M444 202l0 -1M444 202l2 2M446 205l0 -1M446 205l1 0M447 206l0 -1M447 206l1 0M448 207l0 -1M448 207l1 0M449 208l0 -1M449 208l1 0M450 209l0 -1M450 209l1 0"/>
<path stroke="blue" d="M451 209l2 2 1 0M454 212l0 -1M454 212l1 0M455 213l0 -1M455 213l1 0M456 214l0 -1M456 214l1 0M457 215l0 -1M457 215l1 0M458 216l0 -1M458 216l1 0M459 217l0 -1M459 217l1 0M460 218l0 -1M460 218l1 0M461 219l0 -1M461 219l1 0M462 220l0 -1"/>
<path stroke="blue" d="M462 220l2 0M464 221l0 -1M464 221l1 0M465 222l0 -1M465 222l1 0M466 223l0 -1M466 223l1 0M467 224l0 -1M467 224l1 0M468 225l0 -1M468 225l1 0M469 226l0 -1M469 226l1 0M470 227l0 -1M470 227l1 0 2 2 1 0M474 230l0 -1M474 230l1 0"/>
<path stroke="blue" d="M475 231l0 -1M475 231l1 0M476 232l0 -1M476 232l1 0M477 233l0 -1M477 233l1 0M478 234l0 -1M478 234l1 0M479 235l0 -1M479 235l1 0M480 236l0 -1M480 236l1 1M481 238l0 -1M481 238l1 0M482 239l0 -1M482 239l1 0M483 240l0 -1M483 240l1 0"/>
<path stroke="blue" d="M484 241l0 -1M484 241l1 0M485 242l0 -1M485 242l1 0M486 244l0 -2M486 244l1 0M487 245l0 -1M487 245l1 0M488 246l0 -1M488 246l1 0M489 248l0 -2M489 248l1 0M490 249l0 -1M490 249l1 0M491 250l0 -1M491 250l1 1M492 252l0 -1M492 252l1 0"/>
<path stroke="blue" d="M493 253l0 -1M493 253l1 1M494 255l0 -1M494 255l1 0M495 257l0 -2M495 257l1 0M496 258l0 -1M496 258l1 0M497 260l0 -2M497 260l1 0M498 262l0 -2M498 262l1 0M499 263l0 -1M499 263l1 0M500 265l0 -2M500 265l1 0M501 267l0 -2M501 267l1 0"/>
<path stroke="blue" d="M502 269l0 -2M502 269l1 0M503 271l0 -2M503 271l1 0M504 272l0 -1M504 272l1 1M505 274l0 -1M505 274l1 1M506 276l0 -1M506 276l1 0M507 278l0 -2M507 278l1 0M508 280l0 -2M508 280l1 0M509 282l0 -2M509 282l1 0M510 284l0 -2M510 284l1 1"/>
<path stroke="blue" d="M511 286l0 -1M511 286l1 1M512 288l0 -1M512 288l1 1M513 291l0 -2M513 291l1 0M514 293l0 -2M514 293l1 0M515 295l0 -2M515 295l1 0M516 297l0 -2M516 297l1 0M517 299l0 -2M517 299l1 0M518 301l0 -2M518 301l1 0M519 303l0 -2M519 303l1 0"/>
<path stroke="blue" d="M520 305l0 -2M520 305l1 0M521 307l0 -2M521 307l1 1M522 309l0 -1M522 309l1 1M523 312l0 -2M523 312l1 0M524 314l0 -2M524 314l1 0M525 316l0 -2M525 316l1 0M526 318l0 -2M526 318l1 0M527 320l0 -2M527 320l1 0M528 322l0 -2M528 322l1 1"/>
<path stroke="blue" d="M529 325l0 -2M529 325l1 0M530 327l0 -2M530 327l1 0M531 329l0 -2M531 329l1 0M532 331l0 -2M532 331l1 0M533 333l0 -2M533 333l1 0M534 335l0 -2M534 335l1 0M535 338l0 -3M535 338l1 0M536 340l0 -2M536 340l1 0M537 342l0 -2M537 342l1 0"/>
<path stroke="blue" d="M538 344l0 -2M538 344l1 0M539 346l0 -2M539 346l1 0M540 348l0 -2M540 348l1 0M541 350l0 -2M541 350l1 0M542 352l0 -2M542 352l1 0M543 354l0 -2M543 354l1 0M544 356l0 -2M544 356l1 0M545 358l0 -2M545 358l1 1M546 360l0 -1M546 360l1 1"/>
<path stroke="blue" d="M547 362l0 -1M547 362l1 1M548 365l0 -2M548 365l1 0M549 367l0 -2M549 367l1 0M550 369l0 -2M550 369l1 0M551 371l0 -2M551 371l1 0M552 373l0 -2M552 373l1 0M553 375l0 -2M553 375l1 0M554 377l0 -2M554 377l1 0M555 379l0 -2M555 379l1 0"/>
<path stroke="blue" d="M556 381l0 -2M556 381l1 0M557 382l0 -1M557 382l1 1M558 385l0 -2M558 385l1 0M559 386l0 -1M559 386l1 1M560 388l0 -1M560 388l1 1M561 390l0 -1M561 390l1 1M562 392l0 -1M562 392l1 0M563 394l0 -2M563 394l1 0M564 396l0 -2M564 396l1 0"/>
<path stroke="blue" d="M565 398l0 -2M565 398l1 0M566 400l0 -2M566 400l1 0M567 402l0 -2M567 402l1 0M568 404l0 -2M568 404l1 0M569 406l0 -2M569 406l1 0M570 407l0 -1M570 407l1 1M571 409l0 -1M571 409l1 1M572 411l0 -1M572 411l1 0M573 413l0 -2M573 413l1 0"/>
<path stroke="blue" d="M574 415l0 -2M574 415l1 0M575 417l0 -2M575 417l1 0M576 419l0 -2M576 419l1 0M577 421l0 -2M577 421l1 0M578 422l0 -1M578 422l1 1M579 424l0 -1M579 424l1 0M580 426l0 -2M580 426l1 0M581 428l0 -2M581 428l1 0M582 430l0 -2M582 430l1 0"/>
<path stroke="blue" d="M583 431l0 -1M583 431l1 1M584 433l0 -1M584 433l1 0M585 435l0 -2M585 435l1 0M586 437l0 -2M586 437l1 0M587 439l0 -2M587 439l1 0M588 440l0 -1M588 440l1 0M589 442l0 -2M589 442l1 0M590 444l0 -2M590 444l1 0M591 446l0 -2M591 446l1 0"/>
<path stroke="blue" d="M592 447l0 -1M592 447l1 0M593 449l0 -2M593 449l1 0M594 451l0 -2M594 451l1 0M595 453l0 -2M595 453l1 0M596 454l0 -1M596 454l1 1M597 456l0 -1M597 456l1 0M598 458l0 -2M598 458l1 0M599 460l0 -2M599 460l1 0M600 461l0 -1M600 461l1 0"/>
<path stroke="blue" d="M601 463l0 -2M601 463l1 0M602 465l0 -2M602 465l1 0M603 466l0 -1M603 466l1 1M604 468l0 -1M604 468l1 0M605 470l0 -2M605 470l1 0M606 471l0 -1M606 471l1 1M607 473l0 -1M607 473l1 0M608 475l0 -2M608 475l1 0M609 477l0 -2M609 477l1 0"/>
<path stroke="blue" d="M610 478l0 -1M610 478l1 0M611 480l0 -2M611 480l1 0M612 482l0 -2M612 482l1 0M613 483l0 -1M613 483l1 0M614 485l0 -2M614 485l1 0M615 487l0 -2M615 487l1 0M616 488l0 -1M616 488l1 0M617 490l0 -2M617 490l1 0M618 492l0 -2M618 492l1 0"/>
<path stroke="blue" d="M619 493l0 -1M619 493l1 0M620 495l0 -2M620 495l1 0M621 496l0 -1M621 496l1 1M622 498l0 -1M622 498l1 0M623 500l0 -2M623 500l1 0M624 501l0 -1M624 501l1 1M625 503l0 -1M625 503l1 0M626 505l0 -2M626 505l1 0M627 506l0 -1M627 506l1 0"/>
<path stroke="blue" d="M628 508l0 -2M628 508l1 0M629 510l0 -2M629 510l1 0M630 511l0 -1M630 511l1 0M631 513l0 -2M631 513l1 0M632 515l0 -2M632 515l1 0M633 516l0 -1M633 516l1 0M634 518l0 -2M634 518l1 0M635 519l0 -1M635 519l1 1M636 521l0 -1M636 521l1 0"/>
<path stroke="blue" d="M637 523l0 -2M637 523l1 0M638 524l0 -1M638 524l1 1M639 526l0 -1M639 526l1 0M640 528l0 -2M640 528l1 0M641 529l0 -1M641 529l1 0M642 531l0 -2M642 531l1 0M643 532l0 -1M643 532l1 1M644 534l0 -1M644 534l1 0M645 536l0 -2M645 536l1 0"/>
<path stroke="blue" d="M646 537l0 -1M646 537l1 0M647 539l0 -2M647 539l1 0M648 541l0 -2M648 541l1 0M649 542l0 -1M649 542l1 0M650 544l0 -2M650 544l1 0M651 546l0 -2M651 546l1 0M652 547l0 -1M652 547l1 0M653 549l0 -2M653 549l1 0M654 550l0 -1M654 550l1 1"/>
<path stroke="blue" d="M655 552l0 -1M655 552l1 0M656 554l0 -2M656 554l1 0M657 555l0 -1M657 555l1 0M658 557l0 -2M658 557l1 0M659 559l0 -2M659 559l1 0M660 560l0 -1M660 560l1 0M661 562l0 -2M661 562l1 0M662 563l0 -1M662 563l1 1M663 565l0 -1M663 565l1 0"/>
<path stroke="blue" d="M664 567l0 -2M664 567l1 0M665 568l0 -1M665 568l1 1M666 570l0 -1M666 570l1 0M667 572l0 -2M667 572l1 0M668 573l0 -1M668 573l1 1M669 575l0 -1M669 575l1 0M670 577l0 -2M670 577l1 0M671 578l0 -1M671 578l1 1M672 580l0 -1M672 580l1 0"/>
<path stroke="blue" d="M673 582l0 -2M673 582l1 0M674 583l0 -1M674 583l1 1M675 585l0 -1M675 585l1 0M676 587l0 -2M676 587l1 0M677 589l0 -2M677 589l1 0M678 590l0 -1M678 590l1 0M679 592l0 -2M679 592l1 0M680 594l0 -2M680 594l1 0M681 595l0 -1M681 595l1 1"/>
<path stroke="blue" d="M682 597l0 -1M682 597l1 0M683 599l0 -2M683 599l1 0M684 601l0 -2M684 601l1 0M685 602l0 -1M685 602l1 1M686 604l0 -1M686 604l1 0M687 606l0 -2M687 606l1 0M688 608l0 -2M688 608l1 0M689 609l0 -1M689 609l1 1M690 611l0 -1M690 611l1 0"/>
<path stroke="blue" d="M691 613l0 -2M691 613l1 0M692 615l0 -2M692 615l1 0M693 617l0 -2M693 617l1 0M694 618l0 -1M694 618l1 0M695 620l0 -2M695 620l1 0M696 622l0 -2M696 622l1 0M697 624l0 -2M697 624l1 0M698 626l0 -2M698 626l1 0M699 628l0 -2M699 628l1 0"/>
<path stroke="blue" d="M700 629l0 -1M700 629l1 1M701 631l0 -1M701 631l1 0M702 633l0 -2M702 633l1 0M703 635l0 -2M703 635l1 0M704 637l0 -2M704 637l1 0M705 639l0 -2M705 639l1 0M706 641l0 -2M706 641l1 0M707 643l0 -2M707 643l1 0M708 645l0 -2M708 645l1 0"/>
<path stroke="blue" d="M709 647l0 -2M709 647l1 0M710 649l0 -2M710 649l1 0M711 651l0 -2M711 651l1 0M712 653l0 -2M712 653l1 0M713 655l0 -2M713 655l1 0M714 657l0 -2M714 657l1 0M715 659l0 -2M715 659l1 0M716 661l0 -2M716 661l1 0M717 663l0 -2M717 663l1 1"/>
<path stroke="blue" d="M718 665l0 -1M718 665l1 1M719 668l0 -2M719 668l1 0M720 670l0 -2M720 670l1 0M721 672l0 -2M721 672l1 0M722 674l0 -2M722 674l1 0M723 677l0 -3M723 677l1 0M724 679l0 -2M724 679l1 0M725 681l0 -2M725 681l1 0M726 684l0 -3M726 684l1 0"/>
<path stroke="blue" d="M727 686l0 -2M727 686l1 0M728 688l0 -2M728 688l1 1M729 691l0 -2M729 691l1 0M730 694l0 -3M730 694l1 0M731 696l0 -2M731 696l1 0M732 699l0 -3M732 699l1 0M733 701l0 -2M733 701l1 1M734 704l0 -2M734 704l1 0"/>
<path stroke="#FFA500" d="M436 39l43 0"/>
<text stroke="none" fill="white" font-size="16" x="489" y="48">
vswr
</text>
<path stroke="#FFA500" d="M315 64l2 0M317 65l0 -1M317 65l1 0M318 66l0 -1M318 66l1 0M319 67l0 -1M319 67l1 0M320 68l0 -1M320 68l2 0M322 69l0 -1M322 69l1 0M323 70l0 -1M323 70l1 0M324 71l0 -1M324 71l1 0M325 72l0 -1M325 72l2 0M327 73l0 -1M327 73l1 0"/>
<path stroke="#FFA500" d="M328 74l0 -1M328 74l1 0M329 75l0 -1M329 75l1 0 1 1 1 0M332 77l0 -1M332 77l1 0M333 78l0 -1M333 78l1 0M334 79l0 -1M334 79l1 0M335 80l0 -1M335 80l1 0 1 1 1 0M338 82l0 -1M338 82l1 0M339 83l0 -1M339 83l1 0M340 84l0 -1M340 84l1 0"/>
<path stroke="#FFA500" d="M341 85l0 -1M341 85l1 0M342 86l0 -1M342 86l1 0M343 87l0 -1M343 87l1 0M344 88l0 -1M344 88l1 0M345 89l0 -1M345 89l1 0M346 90l0 -1M346 90l1 0M347 91l0 -1M347 91l1 0M348 92l0 -1M348 92l1 0M349 93l0 -1M349 93l1 0M350 94l0 -1"/>
<path stroke="#FFA500" d="M350 94l1 0M351 95l0 -1M351 95l1 0M352 96l0 -1M352 96l1 0M353 97l0 -1M353 97l1 0M354 98l0 -1M354 98l1 1M355 100l0 -1M355 100l1 0M356 101l0 -1M356 101l1 0M357 102l0 -1M357 102l1 0M358 103l0 -1M358 103l1 0M359 104l0 -1"/>
<path stroke="#FFA500" d="M359 104l1 0M360 105l0 -1M360 105l1 0M361 106l0 -1M361 106l1 0M362 107l0 -1M362 107l1 1M363 109l0 -1M363 109l1 0M364 110l0 -1M364 110l1 0M365 111l0 -1M365 111l1 0M366 112l0 -1M366 112l1 0M367 113l0 -1M367 113l1 0M368 114l0 -1"/>
<path stroke="#FFA500" d="M368 114l1 0M369 115l0 -1M369 115l1 0M370 116l0 -1M370 116l2 2M372 119l0 -1M372 119l1 0M373 120l0 -1M373 120l1 0M374 121l0 -1M374 121l1 0M375 122l0 -1M375 122l1 0M376 123l0 -1M376 123l1 0M377 124l0 -1M377 124l2 0M379 125l0 -1"/>
<path stroke="#FFA500" d="M379 125l1 0M380 126l0 -1M380 126l1 0M381 127l0 -1M381 127l1 0M382 128l0 -1M382 128l1 0 1 1 1 0M385 130l0 -1M385 130l2 0M387 131l0 -1M387 131l2 0M389 132l0 -1M389 132l5 0 0 -1 2 0 0 -1 2 0 0 -1 1 0 0 -1 1 0 0 -1 1 0"/>
<path stroke="#FFA500" d="M401 127l0 -1 1 0 0 -1 1 0 0 -1 1 0 0 -1 1 0 0 -2 1 0 0 -1 1 0 0 -2 1 0 0 -1 1 -1 0 -1 1 0 0 -2 1 0 0 -2 1 0 0 -2 1 0 0 -2 1 0 0 -3 1 0 0 -2 1 0 0 -2 1 0 0 -3 1 0 0 -3 1 0 0 -2 1 -1 0 -2 1 0 0 -3 1 -1 0 -2 1 -1 0 -3"/>
<path stroke="#FFA500" d="M423 79l1 0 0 -3 1 0 0 -3 1 -1 0 -3 1 0 0 -4 1 0 0 -1"/>
</svg>
