<?xml version="1.0" standalone="yes"?>
<!DOCTYPE svg PUBLIC "-//W3C//DTD SVG 1.1//EN"
 "http://www.w3.org/Graphics/SVG/1.1/DTD/svg11.dtd">
<svg xmlns="http://www.w3.org/2000/svg" version="1.1"
  width="100%" height="100%" viewBox="0 0 1024 768"
  style="fill: none; font-family: Helvetica;
 font: Helvetica;
">

<!-- Creator: NGspice -->

<rect x="0" y="0" width="1024" height="768" fill="black" stroke="none"/>
<text stroke="none" fill="white" font-size="16" x="358" y="752">
Frequency
</text>
<text transform="rotate(-90, 20, 494)"  stroke="none" fill="white" font-size="16" x="20" y="494">
Magnitude in dB / VSWR
</text>
<text stroke="none" fill="white" font-size="16" x="10" y="16">
sp11: lpfbpf15m
</text>
<path stroke="white" d="M85 704l0 -640"/>
<text stroke="none" fill="white" font-size="16" x="70" y="728">
0.0
</text>
<path stroke="white" stroke-dasharray="1,2" d="M194 704l0 -640"/>
<text stroke="none" fill="white" font-size="16" x="174" y="728">
20.0
</text>
<path stroke="white" stroke-dasharray="1,2" d="M303 704l0 -640"/>
<text stroke="none" fill="white" font-size="16" x="283" y="728">
40.0
</text>
<path stroke="white" stroke-dasharray="1,2" d="M412 704l0 -640"/>
<text stroke="none" fill="white" font-size="16" x="392" y="728">
60.0
</text>
<path stroke="white" stroke-dasharray="1,2" d="M521 704l0 -640"/>
<text stroke="none" fill="white" font-size="16" x="501" y="728">
80.0
</text>
<path stroke="white" stroke-dasharray="1,2" d="M630 704l0 -640"/>
<text stroke="none" fill="white" font-size="16" x="605" y="728">
100.0
</text>
<path stroke="white" stroke-dasharray="1,2" d="M739 704l0 -640"/>
<text stroke="none" fill="white" font-size="16" x="714" y="728">
120.0
</text>
<path stroke="white" stroke-dasharray="1,2" d="M848 704l0 -640"/>
<text stroke="none" fill="white" font-size="16" x="823" y="728">
140.0
</text>
<path stroke="white" stroke-dasharray="1,2" d="M957 704l0 -640"/>
<text stroke="none" fill="white" font-size="16" x="932" y="728">
160.0
</text>
<text stroke="none" fill="white" font-size="16" x="614" y="752">
MHz
</text>
<path stroke="white" stroke-dasharray="1,2" d="M85 704l872 0"/>
<text stroke="none" fill="white" font-size="16" x="33" y="712">
-70.0
</text>
<path stroke="white" stroke-dasharray="1,2" d="M85 624l872 0"/>
<text stroke="none" fill="white" font-size="16" x="33" y="632">
-60.0
</text>
<path stroke="white" stroke-dasharray="1,2" d="M85 544l872 0"/>
<text stroke="none" fill="white" font-size="16" x="33" y="552">
-50.0
</text>
<path stroke="white" stroke-dasharray="1,2" d="M85 464l872 0"/>
<text stroke="none" fill="white" font-size="16" x="33" y="472">
-40.0
</text>
<path stroke="white" stroke-dasharray="1,2" d="M85 384l872 0"/>
<text stroke="none" fill="white" font-size="16" x="33" y="392">
-30.0
</text>
<path stroke="white" stroke-dasharray="1,2" d="M85 304l872 0"/>
<text stroke="none" fill="white" font-size="16" x="33" y="312">
-20.0
</text>
<path stroke="white" stroke-dasharray="1,2" d="M85 224l872 0"/>
<text stroke="none" fill="white" font-size="16" x="33" y="232">
-10.0
</text>
<path stroke="white" d="M85 144l872 0"/>
<text stroke="none" fill="white" font-size="16" x="53" y="152">
0.0
</text>
<path stroke="white" stroke-dasharray="1,2" d="M85 64l872 0"/>
<text stroke="none" fill="white" font-size="16" x="43" y="72">
10.0
</text>
<text stroke="none" fill="white" font-size="16" x="10" y="32">
     
</text>
<path stroke="red" d="M436 23l43 0"/>
<text stroke="none" fill="white" font-size="16" x="489" y="32">
vdb(s_1_1)
</text>
<path stroke="red" d="M90 144l53 0M143 145l0 -1M143 145l16 0M159 146l0 -1M159 146l6 0M165 147l0 -1M165 147l3 0M168 148l0 -1M168 148l3 0M171 149l0 -1M171 149l2 0M173 150l0 -1M173 150l1 0M174 151l0 -1M174 151l2 0M176 152l0 -1M176 152l1 0M177 153l0 -1"/>
<path stroke="red" d="M177 153l1 0M178 154l0 -1M178 154l1 0M179 155l0 -1M179 155l1 0M180 156l0 -1M180 156l1 0M181 157l0 -1M181 157l1 0M182 158l0 -1M182 158l1 0M183 159l0 -1M183 159l1 0M184 160l0 -1M184 160l1 1 1 0M186 162l0 -1M186 162l1 0M187 163l0 -1"/>
<path stroke="red" d="M187 163l1 0M188 164l0 -1M188 164l2 0M190 165l0 -1M190 165l3 0M193 166l0 -1M193 166l2 0M195 167l0 -1M195 167l3 0M198 168l0 -1M198 168l1 0M199 169l0 -1M199 169l1 0M200 170l0 -1M200 170l1 0M201 171l0 -1M201 171l1 0M202 172l0 -1"/>
<path stroke="red" d="M202 172l1 0M203 173l0 -1M203 173l1 1M204 175l0 -1M204 175l1 0M205 177l0 -2M205 177l1 0M206 180l0 -3M206 180l1 0M207 183l0 -3M207 183l1 1M208 187l0 -3M208 187l1 0M209 192l0 -5M209 192l1 0M210 198l0 -6M210 198l1 0M211 205l0 -7"/>
<path stroke="red" d="M211 205l1 0M212 213l0 -8M212 213l1 1M213 223l0 -9M213 223l1 1M214 233l0 -9M214 233l1 1M215 239l0 -5M215 239l1 1 0 -1 1 -1 0 -8 1 -1 0 -11 1 -1 0 -11 1 -1 0 -10 1 -1 0 -7 1 -1 0 -7 1 0 0 -6 1 0 0 -5 1 0 0 -3 1 -1 0 -3 1 0"/>
<path stroke="red" d="M227 161l0 -2 1 0 0 -2 1 0 0 -2 1 0 0 -1 1 0 0 -1 2 -2 1 0 0 -1 1 0 0 -1 2 0 0 -1 3 0 0 -1 4 0 0 -1 7 0 0 -1 10 0 1 -1 641 0"/>
<path stroke="blue" d="M85 23l43 0"/>
<text stroke="none" fill="white" font-size="16" x="138" y="32">
vdb(s_2_1)
</text>
<path stroke="blue" d="M90 416l1 -1 0 -9 1 -1 0 -8 1 -1 0 -6 1 -1 0 -5 1 -1 0 -5 1 -1 0 -4 1 0 0 -4 1 0 0 -4 1 0 0 -3 1 0 0 -3 1 0 0 -3 1 0 0 -2 1 0 0 -2 1 -1 0 -2 1 0 0 -2 1 0 0 -1 1 0 0 -2 1 0 0 -2 1 0 0 -1 1 0 0 -2 1 0 0 -1 1 0 0 -2 1 0 0 -1"/>
<path stroke="blue" d="M113 335l1 0 0 -1 1 -1 0 -1 1 0 0 -1 1 0 0 -1 1 0 0 -2 1 0 0 -1 1 0 0 -1 1 0 0 -2 1 0 0 -1 1 0 0 -1 1 0 0 -2 1 0 0 -1 1 0 0 -1 1 0 0 -2 1 0 0 -1 1 0 0 -1 1 -1 0 -1 1 0 0 -1 1 0 0 -2 1 0 0 -1 1 -1 0 -1 1 0 0 -2 1 0 0 -1"/>
<path stroke="blue" d="M136 303l1 0 0 -2 1 0 0 -2 1 0 0 -1 1 0 0 -2 1 0 0 -2 1 0 0 -2 1 0 0 -2 1 0 0 -2 1 0 0 -2 1 0 0 -2 1 0 0 -2 1 0 0 -2 1 0 0 -2 1 0 0 -2 1 -1 0 -2 1 0 0 -2 1 0 0 -2 1 -1 0 -2 1 0 0 -2 1 -1 0 -2 1 0 0 -3 1 0 0 -2 1 -1 0 -2"/>
<path stroke="blue" d="M159 253l1 0 0 -3 1 0 0 -3 1 0 0 -3 1 0 0 -3 1 0 0 -3 1 0 0 -3 1 -1 0 -3 1 0 0 -3 1 0 0 -3 1 0 0 -3 1 -1 0 -3 1 0 0 -3 1 0 0 -4 1 0 0 -3 1 0 0 -3 1 -1 0 -3 1 0 0 -3 1 0 0 -3 1 0 0 -3 1 0 0 -3 1 0 0 -3 1 0 0 -2 1 0 0 -2"/>
<path stroke="blue" d="M182 182l1 0 0 -2 1 0 0 -2 1 0 0 -2 1 0 0 -1 1 0 0 -1 1 0 0 -1 1 0 0 -1 2 0 0 -1 2 0 1 -1 2 0 0 -1 2 0 0 -1 1 0 0 -1 2 0 0 -1 1 0 0 -1 1 0 0 -2 1 0 0 -1 1 0 0 -1 1 0 0 -2 1 0 0 -1 1 -1 0 -1 1 0 0 -2 1 0 0 -2 1 0 0 -1 1 -1"/>
<path stroke="blue" d="M212 150l0 -1 1 0 0 -1 1 0 0 -1 1 0 0 -1 2 0M217 147l0 -1M217 147l1 0M218 148l0 -1M218 148l1 0M219 150l0 -2M219 150l1 1M220 153l0 -2M220 153l1 0M221 156l0 -3M221 156l1 0M222 160l0 -4M222 160l1 0M223 164l0 -4M223 164l1 0"/>
<path stroke="blue" d="M224 168l0 -4M224 168l1 0M225 172l0 -4M225 172l1 0M226 176l0 -4M226 176l1 1M227 181l0 -4M227 181l1 0M228 185l0 -4M228 185l1 0M229 189l0 -4M229 189l1 0M230 193l0 -4M230 193l1 0M231 197l0 -4M231 197l1 0M232 201l0 -4M232 201l1 0"/>
<path stroke="blue" d="M233 205l0 -4M233 205l1 0M234 208l0 -3M234 208l1 0M235 212l0 -4M235 212l1 0M236 215l0 -3M236 215l1 0M237 218l0 -3M237 218l1 0M238 221l0 -3M238 221l1 0M239 224l0 -3M239 224l1 0M240 227l0 -3M240 227l1 0M241 230l0 -3M241 230l1 0"/>
<path stroke="blue" d="M242 232l0 -2M242 232l1 1M243 235l0 -2M243 235l1 0M244 238l0 -3M244 238l1 0M245 240l0 -2M245 240l1 0M246 243l0 -3M246 243l1 0M247 245l0 -2M247 245l1 0M248 248l0 -3M248 248l1 0M249 250l0 -2M249 250l1 1M250 253l0 -2M250 253l1 0"/>
<path stroke="blue" d="M251 256l0 -3M251 256l1 0M252 259l0 -3M252 259l1 0M253 262l0 -3M253 262l1 0M254 265l0 -3M254 265l1 0M255 268l0 -3M255 268l1 0M256 272l0 -4M256 272l1 0M257 275l0 -3M257 275l1 0M258 279l0 -4M258 279l1 0M259 283l0 -4M259 283l1 0"/>
<path stroke="blue" d="M260 287l0 -4M260 287l1 0M261 291l0 -4M261 291l1 1M262 296l0 -4M262 296l1 0M263 300l0 -4M263 300l1 0M264 305l0 -5M264 305l1 0M265 309l0 -4M265 309l1 1M266 314l0 -4M266 314l1 0M267 319l0 -5M267 319l1 1M268 324l0 -4M268 324l1 0"/>
<path stroke="blue" d="M269 329l0 -5M269 329l1 0M270 334l0 -5M270 334l1 0M271 339l0 -5M271 339l1 0M272 344l0 -5M272 344l1 0M273 348l0 -4M273 348l1 1M274 354l0 -5M274 354l1 0M275 358l0 -4M275 358l1 1M276 363l0 -4M276 363l1 1M277 368l0 -4M277 368l1 1"/>
<path stroke="blue" d="M278 373l0 -4M278 373l1 0M279 378l0 -5M279 378l1 0M280 383l0 -5M280 383l1 0M281 387l0 -4M281 387l1 1M282 392l0 -4M282 392l1 0M283 397l0 -5M283 397l1 0M284 401l0 -4M284 401l1 1M285 406l0 -4M285 406l1 0M286 410l0 -4M286 410l1 1"/>
<path stroke="blue" d="M287 415l0 -4M287 415l1 0M288 419l0 -4M288 419l1 0M289 423l0 -4M289 423l1 1M290 428l0 -4M290 428l1 0M291 432l0 -4M291 432l1 0M292 436l0 -4M292 436l1 1M293 441l0 -4M293 441l1 0M294 445l0 -4M294 445l1 0M295 449l0 -4M295 449l1 0"/>
<path stroke="blue" d="M296 453l0 -4M296 453l1 0M297 457l0 -4M297 457l1 0M298 461l0 -4M298 461l1 0M299 465l0 -4M299 465l1 0M300 469l0 -4M300 469l1 0M301 473l0 -4M301 473l1 0M302 477l0 -4M302 477l1 0M303 481l0 -4M303 481l1 0M304 484l0 -3M304 484l1 1"/>
<path stroke="blue" d="M305 488l0 -3M305 488l1 1M306 492l0 -3M306 492l1 1M307 496l0 -3M307 496l1 0M308 500l0 -4M308 500l1 0M309 503l0 -3M309 503l1 1M310 507l0 -3M310 507l1 0M311 511l0 -4M311 511l1 0M312 514l0 -3M312 514l1 1M313 518l0 -3M313 518l1 0"/>
<path stroke="blue" d="M314 522l0 -4M314 522l1 0M315 525l0 -3M315 525l1 1M316 529l0 -3M316 529l1 0M317 532l0 -3M317 532l1 1M318 536l0 -3M318 536l1 0M319 539l0 -3M319 539l1 1M320 543l0 -3M320 543l1 0M321 546l0 -3M321 546l1 1M322 550l0 -3M322 550l1 0"/>
<path stroke="blue" d="M323 553l0 -3M323 553l1 1M324 557l0 -3M324 557l1 0M325 560l0 -3M325 560l1 1M326 564l0 -3M326 564l1 0M327 567l0 -3M327 567l1 0M328 571l0 -4M328 571l1 0M329 574l0 -3M329 574l1 0M330 577l0 -3M330 577l1 1M331 581l0 -3M331 581l1 0"/>
<path stroke="blue" d="M332 584l0 -3M332 584l1 0M333 587l0 -3M333 587l1 1M334 591l0 -3M334 591l1 0M335 594l0 -3M335 594l1 1M336 598l0 -3M336 598l1 0M337 601l0 -3M337 601l1 0M338 604l0 -3M338 604l1 1M339 608l0 -3M339 608l1 0M340 611l0 -3M340 611l1 0"/>
<path stroke="blue" d="M341 615l0 -4M341 615l1 0M342 618l0 -3M342 618l1 0M343 621l0 -3M343 621l1 1M344 625l0 -3M344 625l1 0M345 628l0 -3M345 628l1 0M346 631l0 -3M346 631l1 1M347 635l0 -3M347 635l1 0M348 638l0 -3M348 638l1 1M349 642l0 -3M349 642l1 0"/>
<path stroke="blue" d="M350 645l0 -3M350 645l1 1M351 649l0 -3M351 649l1 0M352 652l0 -3M352 652l1 1M353 656l0 -3M353 656l1 0M354 659l0 -3M354 659l1 1M355 663l0 -3M355 663l1 0M356 666l0 -3M356 666l1 1M357 670l0 -3M357 670l1 0M358 674l0 -4M358 674l1 0"/>
<path stroke="blue" d="M359 677l0 -3M359 677l1 0M360 681l0 -4M360 681l1 0M361 685l0 -4M361 685l1 0M362 688l0 -3M362 688l1 1M363 692l0 -3M363 692l1 1M364 696l0 -3M364 696l1 0M365 700l0 -4M365 700l1 0M366 704l0 -4M366 704l1 0"/>
<path stroke="#FFA500" d="M436 39l43 0"/>
<text stroke="none" fill="white" font-size="16" x="489" y="48">
vswr
</text>
<path stroke="#FFA500" d="M182 66l0 -2M182 66l1 1M183 71l0 -4M183 71l1 1M184 76l0 -4M184 76l1 0M185 80l0 -4M185 80l1 0M186 83l0 -3M186 83l1 0M187 85l0 -2M187 85l1 0M188 87l0 -2M188 87l1 0M189 89l0 -2M189 89l1 0M190 90l0 -1M190 90l1 0M191 91l0 -1"/>
<path stroke="#FFA500" d="M191 91l1 0M192 92l0 -1M192 92l1 0M193 93l0 -1M193 93l2 0M195 94l0 -1M195 94l1 0M196 95l0 -1M196 95l1 0M197 96l0 -1M197 96l1 0M198 97l0 -1M198 97l1 0M199 98l0 -1M199 98l1 1M200 100l0 -1M200 100l1 0M201 102l0 -2M201 102l1 0"/>
<path stroke="#FFA500" d="M202 103l0 -1M202 103l1 1M203 106l0 -2M203 106l1 0M204 108l0 -2M204 108l1 0M205 110l0 -2M205 110l1 0M206 112l0 -2M206 112l1 1M207 115l0 -2M207 115l1 0M208 117l0 -2M208 117l1 1M209 120l0 -2M209 120l1 0M210 122l0 -2M210 122l1 1"/>
<path stroke="#FFA500" d="M211 125l0 -2M211 125l1 0M212 127l0 -2M212 127l1 0M213 128l0 -1M213 128l1 1M214 130l0 -1M214 130l1 0M215 131l0 -1M215 131l1 0 0 -1 1 0 0 -1 1 0 0 -1 1 -1 0 -2 1 0 0 -4 1 0 0 -4 1 0 0 -5 1 -1 0 -6 1 0 0 -7 1 -1 0 -7 1 -1"/>
<path stroke="#FFA500" d="M226 89l0 -9 1 -1 0 -10 1 -1 0 -4"/>
</svg>
