<?xml version="1.0" standalone="yes"?>
<!DOCTYPE svg PUBLIC "-//W3C//DTD SVG 1.1//EN"
 "http://www.w3.org/Graphics/SVG/1.1/DTD/svg11.dtd">
<svg xmlns="http://www.w3.org/2000/svg" version="1.1"
  width="100%" height="100%" viewBox="0 0 1024 768"
  style="fill: none; font-family: Helvetica;
 font: Helvetica;
">

<!-- Creator: NGspice -->

<rect x="0" y="0" width="1024" height="768" fill="black" stroke="none"/>
<text stroke="none" fill="white" font-size="16" x="358" y="752">
Frequency
</text>
<text transform="rotate(-90, 20, 494)"  stroke="none" fill="white" font-size="16" x="20" y="494">
Magnitude in dB / VSWR
</text>
<text stroke="none" fill="white" font-size="16" x="10" y="16">
sp10: lpfbpf10m
</text>
<path stroke="white" d="M95 704l0 -637"/>
<text stroke="none" fill="white" font-size="16" x="80" y="728">
0.0
</text>
<path stroke="white" stroke-dasharray="1,2" d="M202 704l0 -637"/>
<text stroke="none" fill="white" font-size="16" x="182" y="728">
20.0
</text>
<path stroke="white" stroke-dasharray="1,2" d="M309 704l0 -637"/>
<text stroke="none" fill="white" font-size="16" x="289" y="728">
40.0
</text>
<path stroke="white" stroke-dasharray="1,2" d="M416 704l0 -637"/>
<text stroke="none" fill="white" font-size="16" x="396" y="728">
60.0
</text>
<path stroke="white" stroke-dasharray="1,2" d="M523 704l0 -637"/>
<text stroke="none" fill="white" font-size="16" x="503" y="728">
80.0
</text>
<path stroke="white" stroke-dasharray="1,2" d="M630 704l0 -637"/>
<text stroke="none" fill="white" font-size="16" x="605" y="728">
100.0
</text>
<path stroke="white" stroke-dasharray="1,2" d="M737 704l0 -637"/>
<text stroke="none" fill="white" font-size="16" x="712" y="728">
120.0
</text>
<path stroke="white" stroke-dasharray="1,2" d="M844 704l0 -637"/>
<text stroke="none" fill="white" font-size="16" x="819" y="728">
140.0
</text>
<path stroke="white" stroke-dasharray="1,2" d="M951 704l0 -637"/>
<text stroke="none" fill="white" font-size="16" x="926" y="728">
160.0
</text>
<text stroke="none" fill="white" font-size="16" x="614" y="752">
MHz
</text>
<path stroke="white" stroke-dasharray="1,2" d="M95 704l856 0"/>
<text stroke="none" fill="white" font-size="16" x="33" y="712">
-120.0
</text>
<path stroke="white" stroke-dasharray="1,2" d="M95 613l856 0"/>
<text stroke="none" fill="white" font-size="16" x="33" y="621">
-100.0
</text>
<path stroke="white" stroke-dasharray="1,2" d="M95 522l856 0"/>
<text stroke="none" fill="white" font-size="16" x="43" y="530">
-80.0
</text>
<path stroke="white" stroke-dasharray="1,2" d="M95 431l856 0"/>
<text stroke="none" fill="white" font-size="16" x="43" y="439">
-60.0
</text>
<path stroke="white" stroke-dasharray="1,2" d="M95 340l856 0"/>
<text stroke="none" fill="white" font-size="16" x="43" y="348">
-40.0
</text>
<path stroke="white" stroke-dasharray="1,2" d="M95 249l856 0"/>
<text stroke="none" fill="white" font-size="16" x="43" y="257">
-20.0
</text>
<path stroke="white" d="M95 158l856 0"/>
<text stroke="none" fill="white" font-size="16" x="53" y="166">
-0.0
</text>
<path stroke="white" stroke-dasharray="1,2" d="M95 67l856 0"/>
<text stroke="none" fill="white" font-size="16" x="53" y="75">
20.0
</text>
<text stroke="none" fill="white" font-size="16" x="10" y="32">
     
</text>
<path stroke="red" d="M428 23l42 0"/>
<text stroke="none" fill="white" font-size="16" x="480" y="32">
vdb(s_1_1)
</text>
<path stroke="red" d="M100 158l45 0M145 159l0 -1M145 159l33 0 1 1 16 0M195 161l0 -1M195 161l11 0M206 162l0 -1M206 162l9 0M215 163l0 -1M215 163l8 0M223 164l0 -1M223 164l8 0M231 165l0 -1M231 165l8 0M239 166l0 -1M239 166l7 0M246 167l0 -1M246 167l5 0"/>
<path stroke="red" d="M251 168l0 -1M251 168l4 0M255 169l0 -1M255 169l3 0 1 1 2 0M261 171l0 -1M261 171l2 0M263 172l0 -1M263 172l2 0M265 173l0 -1M265 173l2 0M267 174l0 -1M267 174l1 0M268 175l0 -1M268 175l2 0M270 176l0 -1M270 176l1 0M271 177l0 -1"/>
<path stroke="red" d="M271 177l1 0M272 178l0 -1M272 178l1 0M273 179l0 -1M273 179l1 0M274 181l0 -2M274 181l1 0M275 182l0 -1M275 182l1 0M276 183l0 -1M276 183l1 0M277 185l0 -2M277 185l1 0M278 186l0 -1M278 186l1 0M279 188l0 -2M279 188l1 0M280 190l0 -2"/>
<path stroke="red" d="M280 190l1 0M281 191l0 -1M281 191l1 0M282 193l0 -2M282 193l1 0M283 194l0 -1M283 194l2 0M285 195l0 -1M285 195l1 0 0 -1 1 0 0 -1 1 0 0 -1 1 0 0 -2 1 0 0 -2 1 0 0 -2 1 -1 0 -2 1 0 0 -2 1 0 0 -2 1 0 0 -2 1 0 0 -2 1 0 0 -2 1 0"/>
<path stroke="red" d="M298 173l0 -1 1 0 0 -2 1 0 0 -1 1 0 0 -1 1 0 0 -1 1 0 0 -1 1 0 0 -1 2 0 0 -1 2 0 0 -1 2 0 0 -1 3 0 0 -1 4 0 0 -1 6 0 0 -1 18 0 0 -1 557 0"/>
<path stroke="blue" d="M95 23l42 0"/>
<text stroke="none" fill="white" font-size="16" x="147" y="32">
vdb(s_2_1)
</text>
<path stroke="blue" d="M100 315l0 -1 1 0 0 -6 1 -1 0 -5 1 0 0 -5 1 0 0 -4 1 -1 0 -3 1 0 0 -4 1 0 0 -3 1 0 0 -3 1 0 0 -3 1 0 0 -2 1 0 0 -3 1 0 0 -2 1 0 0 -2 1 0 0 -2 1 0 0 -2 1 0 0 -2 1 0 0 -1 1 0 0 -2 1 0 0 -1 1 -1 0 -1 1 0 0 -1 1 0 0 -2 1 0"/>
<path stroke="blue" d="M123 252l0 -1 1 0 0 -1 1 0 0 -1 1 0 0 -2 1 0 0 -1 1 0 0 -1 1 0 0 -1 1 0 0 -1 1 0 0 -1 1 0 0 -1 1 0 0 -1 1 0 0 -1 2 0 0 -1 1 0 0 -1 1 0 0 -1 1 0 0 -1 1 0 0 -1 2 0 0 -1 1 0 0 -1 1 0 0 -1 2 0 0 -1 1 0 0 -1 2 0 0 -1 1 0 0 -1"/>
<path stroke="blue" d="M150 227l1 0 1 -1 1 0 0 -1 1 0 1 -1 1 0 0 -1 2 0 0 -1 1 0 0 -1 2 0 0 -1 1 0 0 -1 2 0 0 -1 2 0 0 -1 1 0 0 -1 2 0 0 -1 2 0 0 -1 1 0 0 -1 2 0 0 -1 2 0 0 -1 1 0 0 -1 2 0 0 -1 1 0 1 -1 1 0 0 -1 2 0 0 -1 1 0 1 -1 1 0 0 -1 2 0"/>
<path stroke="blue" d="M189 204l0 -1 2 0 0 -1 1 0 0 -1 2 0 0 -1 2 0 0 -1 1 0 1 -1 1 0 0 -1 2 0 0 -1 2 0 0 -1 2 0 0 -1 2 0 0 -1 2 0 0 -1 2 0 0 -1 2 0 0 -1 2 0 0 -1 2 0 0 -1 2 0 0 -1 3 0 0 -1 2 0 0 -1 3 0 0 -1 3 0 0 -1 3 0 0 -1 4 0 0 -1 3 0 0 -1"/>
<path stroke="blue" d="M240 180l3 0 0 -1 4 0 0 -1 3 0 0 -1 3 0 0 -1 2 0 0 -1 3 0 0 -1 2 0 0 -1 2 0 0 -1 2 0 0 -1 2 0 0 -1 2 0 0 -1 2 0 0 -1 1 0 0 -1 2 0 0 -1 2 0 0 -1 1 0 0 -1 2 0 0 -1 2 0 0 -1 4 0 0 -1 3 0M287 162l0 -1M287 162l3 0M290 163l0 -1"/>
<path stroke="blue" d="M290 163l1 0M291 164l0 -1M291 164l1 0 1 1 1 0M294 166l0 -1M294 166l1 1M295 168l0 -1M295 168l1 0M296 169l0 -1M296 169l1 0M297 170l0 -1M297 170l1 0M298 172l0 -2M298 172l1 0M299 173l0 -1M299 173l1 0M300 175l0 -2M300 175l1 0"/>
<path stroke="blue" d="M301 176l0 -1M301 176l1 0M302 178l0 -2M302 178l1 0M303 179l0 -1M303 179l1 0M304 181l0 -2M304 181l1 0M305 183l0 -2M305 183l1 0M306 184l0 -1M306 184l1 0M307 186l0 -2M307 186l1 0M308 187l0 -1M308 187l1 0M309 189l0 -2M309 189l1 0"/>
<path stroke="blue" d="M310 191l0 -2M310 191l1 0M311 192l0 -1M311 192l1 0M312 194l0 -2M312 194l1 0M313 195l0 -1M313 195l1 0M314 197l0 -2M314 197l1 0M315 198l0 -1M315 198l1 0M316 200l0 -2M316 200l1 0M317 201l0 -1M317 201l1 0M318 203l0 -2M318 203l1 0"/>
<path stroke="blue" d="M319 204l0 -1M319 204l1 0M320 206l0 -2M320 206l1 0M321 207l0 -1M321 207l1 0M322 208l0 -1M322 208l1 0M323 210l0 -2M323 210l1 0M324 211l0 -1M324 211l1 0M325 212l0 -1M325 212l1 0M326 214l0 -2M326 214l1 0M327 215l0 -1M327 215l1 0"/>
<path stroke="blue" d="M328 216l0 -1M328 216l1 0M329 217l0 -1M329 217l1 1M330 219l0 -1M330 219l1 0M331 220l0 -1M331 220l1 0M332 221l0 -1M332 221l1 0M333 222l0 -1M333 222l1 0M334 224l0 -2M334 224l1 0M335 225l0 -1M335 225l1 0M336 226l0 -1M336 226l1 0"/>
<path stroke="blue" d="M337 227l0 -1M337 227l1 0M338 228l0 -1M338 228l1 0M339 229l0 -1M339 229l1 0M340 230l0 -1M340 230l1 0M341 231l0 -1M341 231l1 0M342 232l0 -1M342 232l1 0M343 233l0 -1M343 233l1 1M344 235l0 -1M344 235l1 0M345 236l0 -1M345 236l1 0"/>
<path stroke="blue" d="M346 237l0 -1M346 237l1 0M347 238l0 -1M347 238l1 0M348 239l0 -1M348 239l1 0M349 240l0 -1M349 240l1 0M350 241l0 -1M350 241l1 0M351 242l0 -1M351 242l1 0 2 2 1 0M355 245l0 -1M355 245l1 0M356 246l0 -1M356 246l1 0M357 247l0 -1"/>
<path stroke="blue" d="M357 247l1 0M358 248l0 -1M358 248l1 0M359 249l0 -1M359 249l1 0M360 250l0 -1M360 250l1 0M361 251l0 -1M361 251l1 0M362 252l0 -1M362 252l1 0M363 253l0 -1M363 253l1 0 1 1 1 0M366 255l0 -1M366 255l1 0M367 256l0 -1M367 256l1 0"/>
<path stroke="blue" d="M368 257l0 -1M368 257l1 0M369 258l0 -1M369 258l1 0M370 259l0 -1M370 259l1 0M371 260l0 -1M371 260l2 0M373 261l0 -1M373 261l1 0M374 262l0 -1M374 262l1 0M375 263l0 -1M375 263l1 0M376 264l0 -1M376 264l1 0M377 265l0 -1M377 265l1 0"/>
<path stroke="blue" d="M378 265l1 1 1 0M380 267l0 -1M380 267l1 0M381 268l0 -1M381 268l1 0M382 269l0 -1M382 269l1 0M383 270l0 -1M383 270l1 0M384 271l0 -1M384 271l2 0M386 272l0 -1M386 272l1 0M387 273l0 -1M387 273l1 0M388 274l0 -1M388 274l1 0M389 275l0 -1"/>
<path stroke="blue" d="M389 275l1 0M390 276l0 -1M390 276l1 0M391 277l0 -1M391 277l1 0M392 278l0 -1M392 278l2 0M394 279l0 -1M394 279l1 0M395 280l0 -1M395 280l1 0M396 281l0 -1M396 281l1 0M397 282l0 -1M397 282l1 0M398 283l0 -1M398 283l1 0M399 284l0 -1"/>
<path stroke="blue" d="M399 284l1 0M400 285l0 -1M400 285l1 0M401 286l0 -1M401 286l1 0M402 287l0 -1M402 287l1 0M403 288l0 -1M403 288l1 0M404 289l0 -1M404 289l1 0 7 7M412 297l0 -1M412 297l1 0M413 298l0 -1M413 298l1 0M414 299l0 -1M414 299l1 0M415 300l0 -1"/>
<path stroke="blue" d="M415 300l1 0M416 301l0 -1M416 301l1 0M417 302l0 -1M417 302l1 0M418 303l0 -1M418 303l1 0M419 304l0 -1M419 304l1 0M420 305l0 -1M420 305l1 0M421 306l0 -1M421 306l1 0M422 307l0 -1M422 307l1 0M423 309l0 -2M423 309l1 0M424 310l0 -1"/>
<path stroke="blue" d="M424 310l1 0M425 311l0 -1M425 311l1 0M426 312l0 -1M426 312l1 0M427 313l0 -1M427 313l1 0M428 315l0 -2M428 315l1 0M429 316l0 -1M429 316l1 0M430 317l0 -1M430 317l1 0M431 318l0 -1M431 318l1 0M432 319l0 -1M432 319l1 1M433 321l0 -1"/>
<path stroke="blue" d="M433 321l1 0M434 322l0 -1M434 322l1 0M435 323l0 -1M435 323l1 0M436 325l0 -2M436 325l1 0M437 326l0 -1M437 326l1 0M438 327l0 -1M438 327l1 0M439 328l0 -1M439 328l1 1M440 330l0 -1M440 330l1 0M441 331l0 -1M441 331l1 0M442 332l0 -1"/>
<path stroke="blue" d="M442 332l1 1M443 334l0 -1M443 334l1 0M444 335l0 -1M444 335l1 0M445 337l0 -2M445 337l1 0M446 338l0 -1M446 338l1 0M447 339l0 -1M447 339l1 0M448 341l0 -2M448 341l1 0M449 342l0 -1M449 342l1 0M450 344l0 -2M450 344l1 0M451 345l0 -1"/>
<path stroke="blue" d="M451 345l1 0M452 347l0 -2M452 347l1 0M453 348l0 -1M453 348l1 0M454 349l0 -1M454 349l1 1M455 351l0 -1M455 351l1 0M456 352l0 -1M456 352l1 1M457 354l0 -1M457 354l1 0M458 355l0 -1M458 355l1 1M459 357l0 -1M459 357l1 0M460 358l0 -1"/>
<path stroke="blue" d="M460 358l1 1M461 360l0 -1M461 360l1 0M462 362l0 -2M462 362l1 0M463 363l0 -1M463 363l1 0M464 365l0 -2M464 365l1 0M465 366l0 -1M465 366l1 0M466 368l0 -2M466 368l1 0M467 370l0 -2M467 370l1 0M468 371l0 -1M468 371l1 0M469 373l0 -2"/>
<path stroke="blue" d="M469 373l1 0M470 374l0 -1M470 374l1 1M471 376l0 -1M471 376l1 0M472 378l0 -2M472 378l1 0M473 380l0 -2M473 380l1 0M474 381l0 -1M474 381l1 0M475 383l0 -2M475 383l1 0M476 385l0 -2M476 385l1 0M477 387l0 -2M477 387l1 0M478 388l0 -1"/>
<path stroke="blue" d="M478 388l1 1M479 390l0 -1M479 390l1 0M480 392l0 -2M480 392l1 0M481 394l0 -2M481 394l1 0M482 396l0 -2M482 396l1 0M483 398l0 -2M483 398l1 0M484 400l0 -2M484 400l1 0M485 402l0 -2M485 402l1 0M486 404l0 -2M486 404l1 0M487 406l0 -2"/>
<path stroke="blue" d="M487 406l1 0M488 408l0 -2M488 408l1 0M489 410l0 -2M489 410l1 0M490 412l0 -2M490 412l1 1M491 415l0 -2M491 415l1 0M492 417l0 -2M492 417l1 0M493 419l0 -2M493 419l1 1M494 422l0 -2M494 422l1 0M495 424l0 -2M495 424l1 0M496 427l0 -3"/>
<path stroke="blue" d="M496 427l1 0M497 429l0 -2M497 429l1 1M498 432l0 -2M498 432l1 0M499 435l0 -3M499 435l1 0M500 438l0 -3M500 438l1 0M501 441l0 -3M501 441l1 0M502 444l0 -3M502 444l1 1M503 448l0 -3M503 448l1 0M504 451l0 -3M504 451l1 1M505 455l0 -3"/>
<path stroke="blue" d="M505 455l1 0M506 459l0 -4M506 459l1 0M507 463l0 -4M507 463l1 1M508 468l0 -4M508 468l1 0M509 473l0 -5M509 473l1 1M510 479l0 -5M510 479l1 0M511 485l0 -6M511 485l1 1M512 492l0 -6M512 492l1 1M513 501l0 -8M513 501l1 0M514 511l0 -10"/>
<path stroke="blue" d="M514 511l1 0M515 524l0 -13M515 524l1 2M516 543l0 -17M516 543l1 2M517 582l0 -37M517 582l1 5M518 704l0 -117M518 602l1 -8 0 -40 1 -3 0 -19 1 -1 0 -12 1 -1 0 -9 1 0 0 -7 1 0 0 -6 1 0 0 -5 1 0 0 -4 1 -1 0 -3 1 0 0 -3 1 -1 0 -2"/>
<path stroke="blue" d="M529 477l1 -1 0 -2 1 0 0 -2 1 -1 0 -2 1 0 0 -2 1 0 0 -1 1 0 0 -2 1 0 0 -2 1 0 0 -1 1 0 0 -1 1 0 0 -2 1 0 0 -1 1 0 0 -1 1 0 0 -1 1 0 0 -1 1 0 0 -1 2 0 0 -1 1 0 0 -1 1 0 0 -1 2 0 0 -1 2 0 0 -1 2 0 0 -1 2 0 0 -1 3 0 0 -1 3 0"/>
<path stroke="blue" d="M562 445l0 -1 4 0 0 -1 5 0 0 -1 11 0 1 -1 11 0M594 442l0 -1M594 442l15 0M609 443l0 -1M609 443l9 0M618 444l0 -1M618 444l8 0M626 445l0 -1M626 445l7 0M633 446l0 -1M633 446l6 0M639 447l0 -1M639 447l6 0 1 1 5 0M651 449l0 -1"/>
<path stroke="blue" d="M651 449l6 0M657 450l0 -1M657 450l6 0M663 451l0 -1M663 451l5 0M668 452l0 -1M668 452l5 0M673 453l0 -1M673 453l6 0M679 454l0 -1M679 454l5 0M684 455l0 -1M684 455l5 0M689 456l0 -1M689 456l5 0M694 457l0 -1M694 457l5 0M699 458l0 -1"/>
<path stroke="blue" d="M699 458l5 0M704 459l0 -1M704 459l5 0M709 460l0 -1M709 460l5 0M714 461l0 -1M714 461l5 0M719 462l0 -1M719 462l5 0M724 463l0 -1M724 463l5 0M729 464l0 -1M729 464l5 0M734 465l0 -1M734 465l5 0M739 466l0 -1M739 466l4 0M743 467l0 -1"/>
<path stroke="blue" d="M743 467l5 0M748 468l0 -1M748 468l5 0M753 469l0 -1M753 469l5 0M758 470l0 -1M758 470l5 0M763 471l0 -1M763 471l5 0M768 472l0 -1M768 472l5 0M773 473l0 -1M773 473l5 0M778 474l0 -1M778 474l5 0M783 475l0 -1M783 475l5 0M788 476l0 -1"/>
<path stroke="blue" d="M788 476l5 0M793 477l0 -1M793 477l5 0M798 478l0 -1M798 478l5 0M803 479l0 -1M803 479l5 0M808 480l0 -1M808 480l5 0M813 481l0 -1M813 481l5 0M818 482l0 -1M818 482l5 0M823 483l0 -1M823 483l5 0M828 484l0 -1M828 484l5 0M833 485l0 -1"/>
<path stroke="blue" d="M833 485l6 0M839 486l0 -1M839 486l5 0M844 487l0 -1M844 487l5 0M849 488l0 -1M849 488l5 0M854 489l0 -1M854 489l5 0M859 490l0 -1M859 490l6 0M865 491l0 -1M865 491l5 0M870 492l0 -1M870 492l5 0M875 493l0 -1M875 493l6 0M881 494l0 -1"/>
<path stroke="blue" d="M881 494l5 0M886 495l0 -1M886 495l5 0M891 496l0 -1M891 496l6 0M897 497l0 -1M897 497l1 0"/>
<path stroke="#FFA500" d="M428 39l42 0"/>
<text stroke="none" fill="white" font-size="16" x="480" y="48">
vswr
</text>
<path stroke="#FFA500" d="M210 68l0 -1M210 68l1 0M211 70l0 -2M211 70l1 1M212 73l0 -2M212 73l1 0M213 75l0 -2M213 75l1 0M214 77l0 -2M214 77l1 0M215 79l0 -2M215 79l1 0M216 81l0 -2M216 81l1 0M217 83l0 -2M217 83l1 0M218 85l0 -2M218 85l1 0M219 87l0 -2"/>
<path stroke="#FFA500" d="M219 87l1 0M220 88l0 -1M220 88l1 0M221 90l0 -2M221 90l1 0M222 91l0 -1M222 91l1 1M223 93l0 -1M223 93l1 0M224 94l0 -1M224 94l1 0M225 96l0 -2M225 96l1 0M226 97l0 -1M226 97l1 0M227 98l0 -1M227 98l1 0M228 99l0 -1M228 99l1 0"/>
<path stroke="#FFA500" d="M229 100l0 -1M229 100l1 1M230 102l0 -1M230 102l1 0M231 103l0 -1M231 103l1 0M232 104l0 -1M232 104l1 0M233 105l0 -1M233 105l1 0M234 106l0 -1M234 106l1 0M235 107l0 -1M235 107l1 0M236 108l0 -1M236 108l1 0 1 1 1 0M239 110l0 -1"/>
<path stroke="#FFA500" d="M239 110l1 0M240 111l0 -1M240 111l1 0M241 112l0 -1M241 112l1 0M242 113l0 -1M242 113l1 0M243 114l0 -1M243 114l1 0 1 1 1 0M246 116l0 -1M246 116l1 0M247 117l0 -1M247 117l1 0M248 118l0 -1M248 118l1 0M249 119l0 -1M249 119l1 0"/>
<path stroke="#FFA500" d="M250 119l1 1 1 0M252 121l0 -1M252 121l1 0M253 122l0 -1M253 122l1 0M254 123l0 -1M254 123l1 0M255 124l0 -1M255 124l1 0M256 125l0 -1M256 125l1 0M257 126l0 -1M257 126l1 0 2 2 1 0M261 129l0 -1M261 129l1 0M262 130l0 -1M262 130l1 0"/>
<path stroke="#FFA500" d="M263 131l0 -1M263 131l1 0M264 132l0 -1M264 132l1 0M265 133l0 -1M265 133l1 0M266 134l0 -1M266 134l1 0M267 135l0 -1M267 135l1 0M268 136l0 -1M268 136l1 0M269 137l0 -1M269 137l1 0M270 138l0 -1M270 138l1 0M271 139l0 -1M271 139l1 0"/>
<path stroke="#FFA500" d="M272 140l0 -1M272 140l1 0M273 141l0 -1M273 141l1 0M274 142l0 -1M274 142l1 0 1 1 1 0M277 144l0 -1M277 144l1 0M278 145l0 -1M278 145l1 0 1 1 1 0M281 147l0 -1M281 147l4 0M285 148l0 -1M285 148l1 0 0 -1 3 0 0 -1 1 0 0 -1 1 0"/>
<path stroke="#FFA500" d="M291 145l0 -1 1 0 0 -1 1 0 0 -1 1 0 0 -2 1 0 0 -1 1 -1 0 -2 1 0 0 -2 1 0 0 -2 1 -1 0 -2 1 -1 0 -2 1 -1 0 -3 1 0 0 -4 1 0 0 -4 1 0 0 -4 1 -1 0 -4 1 -1 0 -5 1 0 0 -6 1 0 0 -6 1 0 0 -7 1 0 0 -7 1 -1 0 -5M516 704l0 -637"/>
<path stroke="#FFA500" d="M521 704l0 -637"/>
</svg>
