<?xml version="1.0" standalone="yes"?>
<!DOCTYPE svg PUBLIC "-//W3C//DTD SVG 1.1//EN"
 "http://www.w3.org/Graphics/SVG/1.1/DTD/svg11.dtd">
<svg xmlns="http://www.w3.org/2000/svg" version="1.1"
  width="100%" height="100%" viewBox="0 0 1024 768"
  style="fill: none; font-family: Helvetica;
 font: Helvetica;
">

<!-- Creator: NGspice -->

<rect x="0" y="0" width="1024" height="768" fill="black" stroke="none"/>
<text stroke="none" fill="white" font-size="16" x="358" y="752">
Frequency
</text>
<text transform="rotate(-90, 20, 494)"  stroke="none" fill="white" font-size="16" x="20" y="494">
Magnitude in dB / VSWR
</text>
<text stroke="none" fill="white" font-size="16" x="10" y="16">
sp12: lpfbpf20m
</text>
<path stroke="white" d="M95 704l0 -637"/>
<text stroke="none" fill="white" font-size="16" x="80" y="728">
0.0
</text>
<path stroke="white" stroke-dasharray="1,2" d="M202 704l0 -637"/>
<text stroke="none" fill="white" font-size="16" x="182" y="728">
20.0
</text>
<path stroke="white" stroke-dasharray="1,2" d="M309 704l0 -637"/>
<text stroke="none" fill="white" font-size="16" x="289" y="728">
40.0
</text>
<path stroke="white" stroke-dasharray="1,2" d="M416 704l0 -637"/>
<text stroke="none" fill="white" font-size="16" x="396" y="728">
60.0
</text>
<path stroke="white" stroke-dasharray="1,2" d="M523 704l0 -637"/>
<text stroke="none" fill="white" font-size="16" x="503" y="728">
80.0
</text>
<path stroke="white" stroke-dasharray="1,2" d="M630 704l0 -637"/>
<text stroke="none" fill="white" font-size="16" x="605" y="728">
100.0
</text>
<path stroke="white" stroke-dasharray="1,2" d="M737 704l0 -637"/>
<text stroke="none" fill="white" font-size="16" x="712" y="728">
120.0
</text>
<path stroke="white" stroke-dasharray="1,2" d="M844 704l0 -637"/>
<text stroke="none" fill="white" font-size="16" x="819" y="728">
140.0
</text>
<path stroke="white" stroke-dasharray="1,2" d="M951 704l0 -637"/>
<text stroke="none" fill="white" font-size="16" x="926" y="728">
160.0
</text>
<text stroke="none" fill="white" font-size="16" x="614" y="752">
MHz
</text>
<path stroke="white" stroke-dasharray="1,2" d="M95 704l856 0"/>
<text stroke="none" fill="white" font-size="16" x="33" y="712">
-120.0
</text>
<path stroke="white" stroke-dasharray="1,2" d="M95 613l856 0"/>
<text stroke="none" fill="white" font-size="16" x="33" y="621">
-100.0
</text>
<path stroke="white" stroke-dasharray="1,2" d="M95 522l856 0"/>
<text stroke="none" fill="white" font-size="16" x="43" y="530">
-80.0
</text>
<path stroke="white" stroke-dasharray="1,2" d="M95 431l856 0"/>
<text stroke="none" fill="white" font-size="16" x="43" y="439">
-60.0
</text>
<path stroke="white" stroke-dasharray="1,2" d="M95 340l856 0"/>
<text stroke="none" fill="white" font-size="16" x="43" y="348">
-40.0
</text>
<path stroke="white" stroke-dasharray="1,2" d="M95 249l856 0"/>
<text stroke="none" fill="white" font-size="16" x="43" y="257">
-20.0
</text>
<path stroke="white" d="M95 158l856 0"/>
<text stroke="none" fill="white" font-size="16" x="53" y="166">
-0.0
</text>
<path stroke="white" stroke-dasharray="1,2" d="M95 67l856 0"/>
<text stroke="none" fill="white" font-size="16" x="53" y="75">
20.0
</text>
<text stroke="none" fill="white" font-size="16" x="10" y="32">
     
</text>
<path stroke="red" d="M428 23l42 0"/>
<text stroke="none" fill="white" font-size="16" x="480" y="32">
vdb(s_1_1)
</text>
<path stroke="red" d="M100 158l18 0M118 159l0 -1M118 159l12 0M130 160l0 -1M130 160l7 0M137 161l0 -1M137 161l5 0M142 162l0 -1M142 162l3 0M145 163l0 -1M145 163l3 0M148 164l0 -1M148 164l3 0M151 165l0 -1M151 165l3 0M154 166l0 -1M154 166l2 0M156 167l0 -1"/>
<path stroke="red" d="M156 167l2 0M158 168l0 -1M158 168l2 0M160 169l0 -1M160 169l1 0M161 170l0 -1M161 170l2 0M163 171l0 -1M163 171l1 0M164 172l0 -1M164 172l2 0M166 173l0 -1M166 173l1 0M167 174l0 -1M167 174l1 0M168 175l0 -1M168 175l1 0M169 176l0 -1"/>
<path stroke="red" d="M169 176l1 0M170 177l0 -1M170 177l1 0M171 179l0 -2M171 179l1 0M172 180l0 -1M172 180l1 0M173 182l0 -2M173 182l1 0M174 184l0 -2M174 184l1 0M175 186l0 -2M175 186l1 0M176 189l0 -3M176 189l1 0M177 192l0 -3M177 192l1 0M178 196l0 -4"/>
<path stroke="red" d="M178 196l1 0M179 200l0 -4M179 200l1 0M180 205l0 -5M180 205l1 1M181 212l0 -6M181 212l1 0M182 221l0 -9M182 221l1 1M183 232l0 -10M183 232l1 2M184 252l0 -18M184 252l1 2M185 288l0 -34M185 288l1 4M186 304l0 -18 1 -4 0 -33 1 -2"/>
<path stroke="red" d="M188 247l0 -16 1 -1 0 -13 1 -1 0 -8 1 -1 0 -7 1 0 0 -5 1 -1 0 -4 1 -1 0 -3 1 -1 0 -3 1 0 0 -3 1 0 0 -2 1 0 0 -2 1 0 0 -2 1 0 0 -2 1 0 0 -1 1 0 0 -1 1 0 0 -1 1 0 0 -1 2 0 0 -1 1 0 0 -1 3 0 0 -1 3 0 0 -1 12 0M225 164l0 -1"/>
<path stroke="red" d="M225 164l7 0 0 -1 2 0 0 -1 1 0 0 -1 2 0 0 -1 2 0 0 -1 5 0 0 -1 654 0"/>
<path stroke="blue" d="M95 23l42 0"/>
<text stroke="none" fill="white" font-size="16" x="147" y="32">
vdb(s_2_1)
</text>
<path stroke="blue" d="M100 290l1 -1 0 -6 1 -1 0 -5 1 0 0 -5 1 -1 0 -4 1 0 0 -4 1 0 0 -3 1 -1 0 -3 1 0 0 -3 1 0 0 -3 1 0 0 -3 1 0 0 -2 1 0 0 -3 1 0 0 -2 1 0 0 -2 1 -1 0 -2 1 0 0 -2 1 0 0 -2 1 0 0 -2 1 0 0 -2 1 0 0 -1 1 -1 0 -1 1 0 0 -2 1 0 0 -2"/>
<path stroke="blue" d="M123 220l1 0 0 -1 1 0 0 -2 1 0 0 -2 1 0 0 -1 1 0 0 -2 1 0 0 -1 1 0 0 -2 1 0 0 -1 1 0 0 -2 1 0 0 -1 1 0 0 -2 1 0 0 -1 1 0 0 -1 1 0 0 -2 1 0 0 -1 1 0 0 -1 1 -1 0 -1 1 0 0 -1 1 0 0 -1 1 0 0 -1 1 -1 0 -1 1 0 0 -1 1 0 0 -1 1 0"/>
<path stroke="blue" d="M147 188l0 -1 1 0 0 -1 1 0 0 -1 1 0 0 -1 1 0 0 -1 1 0 0 -1 1 0 0 -1 1 0 0 -1 1 0 0 -1 1 0 0 -1 1 0 0 -1 1 0 1 -1 1 0 0 -1 1 0 0 -1 1 0 0 -1 2 0 0 -1 1 0 0 -1 1 0 0 -1 2 0 0 -1 1 0 0 -1 1 0 0 -1 1 0 1 -1 1 0 0 -1 1 0 0 -1"/>
<path stroke="blue" d="M174 164l1 0 0 -1 2 0 0 -1 1 0 0 -1 1 0 1 -1 1 0 0 -1 2 0 0 -1 5 0M188 159l0 -1M188 159l2 0M190 160l0 -1M190 160l1 0 1 1 1 0M193 162l0 -1M193 162l1 1M194 164l0 -1M194 164l1 0M195 165l0 -1M195 165l1 0M196 166l0 -1M196 166l1 0"/>
<path stroke="blue" d="M197 168l0 -2M197 168l1 0M198 169l0 -1M198 169l1 0M199 170l0 -1M199 170l1 1M200 172l0 -1M200 172l1 0M201 173l0 -1M201 173l1 0M202 175l0 -2M202 175l1 0M203 176l0 -1M203 176l1 0M204 177l0 -1M204 177l1 0M205 179l0 -2M205 179l1 0"/>
<path stroke="blue" d="M206 180l0 -1M206 180l1 0M207 181l0 -1M207 181l1 0M208 182l0 -1M208 182l1 0M209 183l0 -1M209 183l1 0M210 184l0 -1M210 184l1 0M211 185l0 -1M211 185l2 0M213 186l0 -1M213 186l1 0M214 187l0 -1M214 187l3 0M217 188l0 -1M217 188l4 0"/>
<path stroke="blue" d="M221 188l0 -1 3 0 0 -1 2 0 0 -1 2 0 0 -1 3 0M231 185l0 -1M231 185l1 0M232 186l0 -1M232 186l1 1M233 188l0 -1M233 188l1 1M234 191l0 -2M234 191l1 0M235 194l0 -3M235 194l1 1M236 198l0 -3M236 198l1 0M237 202l0 -4M237 202l1 0"/>
<path stroke="blue" d="M238 206l0 -4M238 206l1 0M239 211l0 -5M239 211l1 0M240 215l0 -4M240 215l1 0M241 219l0 -4M241 219l1 1M242 224l0 -4M242 224l1 0M243 228l0 -4M243 228l1 0M244 232l0 -4M244 232l1 1M245 236l0 -3M245 236l1 0M246 240l0 -4M246 240l1 1"/>
<path stroke="blue" d="M247 244l0 -3M247 244l1 0M248 248l0 -4M248 248l1 0M249 251l0 -3M249 251l1 1M250 255l0 -3M250 255l1 0M251 259l0 -4M251 259l1 0M252 262l0 -3M252 262l1 0M253 266l0 -4M253 266l1 0M254 269l0 -3M254 269l1 0M255 272l0 -3M255 272l1 0"/>
<path stroke="blue" d="M256 275l0 -3M256 275l1 0M257 278l0 -3M257 278l1 1M258 281l0 -2M258 281l1 0M259 284l0 -3M259 284l1 1M260 287l0 -2M260 287l1 0M261 290l0 -3M261 290l1 0M262 293l0 -3M262 293l1 0M263 296l0 -3M263 296l1 0M264 299l0 -3M264 299l1 0"/>
<path stroke="blue" d="M265 301l0 -2M265 301l1 0M266 304l0 -3M266 304l1 0M267 306l0 -2M267 306l1 1M268 309l0 -2M268 309l1 0M269 312l0 -3M269 312l1 0M270 314l0 -2M270 314l1 0M271 317l0 -3M271 317l1 0M272 319l0 -2M272 319l1 0M273 322l0 -3M273 322l1 0"/>
<path stroke="blue" d="M274 324l0 -2M274 324l1 0M275 326l0 -2M275 326l1 1M276 329l0 -2M276 329l1 0M277 331l0 -2M277 331l1 1M278 334l0 -2M278 334l1 0M279 336l0 -2M279 336l1 0M280 338l0 -2M280 338l1 0M281 341l0 -3M281 341l1 0M282 343l0 -2M282 343l1 0"/>
<path stroke="blue" d="M283 345l0 -2M283 345l1 0M284 347l0 -2M284 347l1 0M285 349l0 -2M285 349l1 1M286 352l0 -2M286 352l1 0M287 354l0 -2M287 354l1 0M288 356l0 -2M288 356l1 0M289 358l0 -2M289 358l1 0M290 360l0 -2M290 360l1 0M291 362l0 -2M291 362l1 1"/>
<path stroke="blue" d="M292 365l0 -2M292 365l1 0M293 367l0 -2M293 367l1 0M294 369l0 -2M294 369l1 0M295 371l0 -2M295 371l1 0M296 373l0 -2M296 373l1 0M297 375l0 -2M297 375l1 0M298 377l0 -2M298 377l1 0M299 379l0 -2M299 379l1 0M300 381l0 -2M300 381l1 0"/>
<path stroke="blue" d="M301 383l0 -2M301 383l1 0M302 385l0 -2M302 385l1 0M303 387l0 -2M303 387l1 1M304 389l0 -1M304 389l1 0M305 391l0 -2M305 391l1 1M306 393l0 -1M306 393l1 1M307 395l0 -1M307 395l1 1M308 397l0 -1M308 397l1 1M309 399l0 -1M309 399l1 1"/>
<path stroke="blue" d="M310 402l0 -2M310 402l1 0M311 404l0 -2M311 404l1 0M312 406l0 -2M312 406l1 0M313 408l0 -2M313 408l1 0M314 410l0 -2M314 410l1 0M315 412l0 -2M315 412l1 0M316 414l0 -2M316 414l1 0M317 416l0 -2M317 416l1 0M318 418l0 -2M318 418l1 0"/>
<path stroke="blue" d="M319 420l0 -2M319 420l1 0M320 422l0 -2M320 422l1 0M321 424l0 -2M321 424l1 0M322 426l0 -2M322 426l1 0M323 428l0 -2M323 428l1 0M324 430l0 -2M324 430l1 0M325 432l0 -2M325 432l1 0M326 434l0 -2M326 434l1 0M327 437l0 -3M327 437l1 0"/>
<path stroke="blue" d="M328 439l0 -2M328 439l1 0M329 441l0 -2M329 441l1 0M330 443l0 -2M330 443l1 0M331 445l0 -2M331 445l1 0M332 447l0 -2M332 447l1 0M333 450l0 -3M333 450l1 0M334 452l0 -2M334 452l1 0M335 454l0 -2M335 454l1 0M336 456l0 -2M336 456l1 1"/>
<path stroke="blue" d="M337 459l0 -2M337 459l1 0M338 461l0 -2M338 461l1 0M339 463l0 -2M339 463l1 1M340 466l0 -2M340 466l1 0M341 468l0 -2M341 468l1 0M342 471l0 -3M342 471l1 0M343 473l0 -2M343 473l1 0M344 476l0 -3M344 476l1 0M345 479l0 -3M345 479l1 0"/>
<path stroke="blue" d="M346 481l0 -2M346 481l1 0M347 484l0 -3M347 484l1 0M348 487l0 -3M348 487l1 0M349 490l0 -3M349 490l1 0M350 493l0 -3M350 493l1 0M351 496l0 -3M351 496l1 0M352 499l0 -3M352 499l1 0M353 503l0 -4M353 503l1 0M354 506l0 -3M354 506l1 0"/>
<path stroke="blue" d="M355 510l0 -4M355 510l1 0M356 514l0 -4M356 514l1 0M357 518l0 -4M357 518l1 0M358 522l0 -4M358 522l1 1M359 527l0 -4M359 527l1 0M360 532l0 -5M360 532l1 0M361 537l0 -5M361 537l1 0M362 543l0 -6M362 543l1 1M363 550l0 -6M363 550l1 0"/>
<path stroke="blue" d="M364 558l0 -8M364 558l1 0M365 566l0 -8M365 566l1 1M366 578l0 -11M366 578l1 1M367 592l0 -13M367 592l1 2M368 616l0 -22M368 616l1 2M369 674l0 -56M369 674l1 11M370 704l0 -57 1 -4 0 -33 1 -2 0 -15 1 -1 0 -11 1 -1 0 -7 1 -1 0 -6"/>
<path stroke="blue" d="M375 566l1 -1 0 -5 1 0 0 -5 1 0 0 -3 1 -1 0 -3 1 0 0 -3 1 0 0 -3 1 0 0 -2 1 0 0 -2 1 0 0 -2 1 0 0 -2 1 0 0 -1 1 -1 0 -1 1 0 0 -1 1 0 0 -1 1 0 0 -2 1 0 0 -1 1 0 0 -1 1 0 1 -1 1 0 0 -1 1 0 0 -1 2 0 0 -1 1 0 1 -1 2 0 0 -1"/>
<path stroke="blue" d="M402 519l2 0 0 -1 3 0 0 -1 5 0 0 -1 27 0M439 517l0 -1M439 517l7 0M446 518l0 -1M446 518l6 0M452 519l0 -1M452 519l6 0M458 520l0 -1M458 520l5 0M463 521l0 -1M463 521l4 0M467 522l0 -1M467 522l5 0M472 523l0 -1M472 523l4 0M476 524l0 -1"/>
<path stroke="blue" d="M476 524l4 0M480 525l0 -1M480 525l4 0M484 526l0 -1M484 526l4 0M488 527l0 -1M488 527l4 0M492 528l0 -1M492 528l4 0M496 529l0 -1M496 529l4 0M500 530l0 -1M500 530l4 0M504 531l0 -1M504 531l4 0M508 532l0 -1M508 532l3 0M511 533l0 -1"/>
<path stroke="blue" d="M511 533l4 0M515 534l0 -1M515 534l4 0M519 535l0 -1M519 535l3 0 1 1 3 0M526 537l0 -1M526 537l4 0M530 538l0 -1M530 538l4 0M534 539l0 -1M534 539l3 0M537 540l0 -1M537 540l4 0M541 541l0 -1M541 541l3 0 1 1 3 0M548 543l0 -1M548 543l4 0"/>
<path stroke="blue" d="M552 544l0 -1M552 544l3 0 1 1 3 0M559 546l0 -1M559 546l4 0M563 547l0 -1M563 547l3 0 1 1 3 0M570 549l0 -1M570 549l4 0M574 550l0 -1M574 550l3 0 1 1 3 0M581 552l0 -1M581 552l4 0M585 553l0 -1M585 553l4 0M589 554l0 -1M589 554l3 0"/>
<path stroke="blue" d="M592 555l0 -1M592 555l4 0M596 556l0 -1M596 556l4 0M600 557l0 -1M600 557l4 0M604 558l0 -1M604 558l3 0 1 1 3 0M611 560l0 -1M611 560l4 0M615 561l0 -1M615 561l4 0M619 562l0 -1M619 562l4 0M623 563l0 -1M623 563l4 0M627 564l0 -1"/>
<path stroke="blue" d="M627 564l3 0 1 1 3 0M634 566l0 -1M634 566l4 0M638 567l0 -1M638 567l4 0M642 568l0 -1M642 568l4 0M646 569l0 -1M646 569l4 0M650 570l0 -1M650 570l4 0M654 571l0 -1M654 571l4 0M658 572l0 -1M658 572l4 0M662 573l0 -1M662 573l4 0"/>
<path stroke="blue" d="M666 574l0 -1M666 574l4 0M670 575l0 -1M670 575l4 0M674 576l0 -1M674 576l4 0M678 577l0 -1M678 577l4 0M682 578l0 -1M682 578l4 0M686 579l0 -1M686 579l5 0M691 580l0 -1M691 580l4 0M695 581l0 -1M695 581l4 0M699 582l0 -1M699 582l4 0"/>
<path stroke="blue" d="M703 583l0 -1M703 583l4 0M707 584l0 -1M707 584l5 0M712 585l0 -1M712 585l4 0M716 586l0 -1M716 586l4 0M720 587l0 -1M720 587l5 0M725 588l0 -1M725 588l4 0M729 589l0 -1M729 589l4 0M733 590l0 -1M733 590l5 0M738 591l0 -1M738 591l4 0"/>
<path stroke="blue" d="M742 592l0 -1M742 592l4 0 1 1 4 0M751 594l0 -1M751 594l4 0M755 595l0 -1M755 595l5 0M760 596l0 -1M760 596l4 0 1 1 4 0M769 598l0 -1M769 598l5 0M774 599l0 -1M774 599l4 0M778 600l0 -1M778 600l5 0M783 601l0 -1M783 601l4 0 1 1"/>
<path stroke="blue" d="M788 602l4 0M792 603l0 -1M792 603l5 0M797 604l0 -1M797 604l5 0M802 605l0 -1M802 605l4 0M806 606l0 -1M806 606l5 0M811 607l0 -1M811 607l5 0M816 608l0 -1M816 608l5 0M821 609l0 -1M821 609l5 0M826 610l0 -1M826 610l5 0M831 611l0 -1"/>
<path stroke="blue" d="M831 611l5 0M836 612l0 -1M836 612l4 0 1 1 5 0M846 614l0 -1M846 614l4 0 1 1 5 0M856 616l0 -1M856 616l5 0M861 617l0 -1M861 617l5 0M866 618l0 -1M866 618l5 0M871 619l0 -1M871 619l5 0M876 620l0 -1M876 620l5 0M881 621l0 -1M881 621l5 0"/>
<path stroke="blue" d="M886 621l1 1 5 0M892 623l0 -1M892 623l5 0M897 624l0 -1M897 624l1 0"/>
<path stroke="#FFA500" d="M428 39l42 0"/>
<text stroke="none" fill="white" font-size="16" x="480" y="48">
vswr
</text>
<path stroke="#FFA500" d="M143 68l0 -1M143 68l1 0M144 73l0 -5M144 73l1 1M145 79l0 -5M145 79l1 0M146 84l0 -5M146 84l1 0M147 89l0 -5M147 89l1 0M148 93l0 -4M148 93l1 0M149 97l0 -4M149 97l1 0M150 100l0 -3M150 100l1 1M151 104l0 -3M151 104l1 0M152 107l0 -3"/>
<path stroke="#FFA500" d="M152 107l1 0M153 109l0 -2M153 109l1 1M154 112l0 -2M154 112l1 0M155 115l0 -3M155 115l1 0M156 117l0 -2M156 117l1 0M157 119l0 -2M157 119l1 0M158 121l0 -2M158 121l1 0M159 123l0 -2M159 123l1 0M160 125l0 -2M160 125l1 0M161 127l0 -2"/>
<path stroke="#FFA500" d="M161 127l1 0M162 128l0 -1M162 128l1 0M163 130l0 -2M163 130l1 0M164 131l0 -1M164 131l1 0M165 133l0 -2M165 133l1 0M166 134l0 -1M166 134l1 0M167 135l0 -1M167 135l1 0M168 137l0 -2M168 137l1 0M169 138l0 -1M169 138l1 0M170 139l0 -1"/>
<path stroke="#FFA500" d="M170 139l1 0M171 140l0 -1M171 140l1 0M172 141l0 -1M172 141l2 2M174 144l0 -1M174 144l1 0M175 145l0 -1M175 145l1 0M176 146l0 -1M176 146l1 0M177 147l0 -1M177 147l1 0M178 148l0 -1M178 148l1 0M179 149l0 -1M179 149l1 0M180 150l0 -1"/>
<path stroke="#FFA500" d="M180 150l2 0M182 151l0 -1M182 151l1 0M183 152l0 -1M183 152l1 0M184 153l0 -1M184 153l3 0 0 -1 2 0 0 -1 1 0 0 -1 1 0 0 -1 1 0 0 -2 1 0 0 -1 1 0 0 -2 1 0 0 -1 1 -1 0 -1 1 -1 0 -1 1 -1 0 -2 1 0 0 -2 1 0 0 -3 1 0 0 -3 1 0"/>
<path stroke="#FFA500" d="M202 128l0 -3 1 0 0 -3 1 0 0 -3 1 0 0 -3 1 0 0 -3 1 0 0 -4 1 0 0 -3 1 0 0 -3 1 0 0 -3 1 0 0 -3 1 0 0 -2 1 -1 0 -2 1 0 0 -2 1 0 0 -2 1 0 0 -1 1 0 0 -1 1 0 0 -1 2 0M220 86l0 -1M220 86l1 0 1 1M222 88l0 -1M222 88l1 0M223 89l0 -1"/>
<path stroke="#FFA500" d="M223 89l1 0M224 91l0 -2M224 91l1 0M225 93l0 -2M225 93l1 0M226 95l0 -2M226 95l1 1M227 97l0 -1M227 97l1 0M228 99l0 -2M228 99l2 0 0 -1 1 0 0 -2 1 -1 0 -4 1 -1 0 -8 1 0 0 -11 1 -1 0 -3M360 704l0 -637M388 704l0 -637M504 704l0 -637"/>
</svg>
