<?xml version="1.0" standalone="yes"?>
<!DOCTYPE svg PUBLIC "-//W3C//DTD SVG 1.1//EN"
 "http://www.w3.org/Graphics/SVG/1.1/DTD/svg11.dtd">
<svg xmlns="http://www.w3.org/2000/svg" version="1.1"
  width="100%" height="100%" viewBox="0 0 1024 768"
  style="fill: none; font-family: Helvetica;
 font: Helvetica;
">

<!-- Creator: NGspice -->

<rect x="0" y="0" width="1024" height="768" fill="black" stroke="none"/>
<text stroke="none" fill="white" font-size="16" x="358" y="752">
Frequency
</text>
<text transform="rotate(-90, 20, 494)"  stroke="none" fill="white" font-size="16" x="20" y="494">
Magnitude in dB / VSWR
</text>
<text stroke="none" fill="white" font-size="16" x="10" y="16">
sp10: lpfbpf10m
</text>
<path stroke="white" d="M85 704l0 -640"/>
<text stroke="none" fill="white" font-size="16" x="70" y="728">
0.0
</text>
<path stroke="white" stroke-dasharray="1,2" d="M194 704l0 -640"/>
<text stroke="none" fill="white" font-size="16" x="174" y="728">
20.0
</text>
<path stroke="white" stroke-dasharray="1,2" d="M303 704l0 -640"/>
<text stroke="none" fill="white" font-size="16" x="283" y="728">
40.0
</text>
<path stroke="white" stroke-dasharray="1,2" d="M412 704l0 -640"/>
<text stroke="none" fill="white" font-size="16" x="392" y="728">
60.0
</text>
<path stroke="white" stroke-dasharray="1,2" d="M521 704l0 -640"/>
<text stroke="none" fill="white" font-size="16" x="501" y="728">
80.0
</text>
<path stroke="white" stroke-dasharray="1,2" d="M630 704l0 -640"/>
<text stroke="none" fill="white" font-size="16" x="605" y="728">
100.0
</text>
<path stroke="white" stroke-dasharray="1,2" d="M739 704l0 -640"/>
<text stroke="none" fill="white" font-size="16" x="714" y="728">
120.0
</text>
<path stroke="white" stroke-dasharray="1,2" d="M848 704l0 -640"/>
<text stroke="none" fill="white" font-size="16" x="823" y="728">
140.0
</text>
<path stroke="white" stroke-dasharray="1,2" d="M957 704l0 -640"/>
<text stroke="none" fill="white" font-size="16" x="932" y="728">
160.0
</text>
<text stroke="none" fill="white" font-size="16" x="614" y="752">
MHz
</text>
<path stroke="white" stroke-dasharray="1,2" d="M85 704l872 0"/>
<text stroke="none" fill="white" font-size="16" x="33" y="712">
-70.0
</text>
<path stroke="white" stroke-dasharray="1,2" d="M85 624l872 0"/>
<text stroke="none" fill="white" font-size="16" x="33" y="632">
-60.0
</text>
<path stroke="white" stroke-dasharray="1,2" d="M85 544l872 0"/>
<text stroke="none" fill="white" font-size="16" x="33" y="552">
-50.0
</text>
<path stroke="white" stroke-dasharray="1,2" d="M85 464l872 0"/>
<text stroke="none" fill="white" font-size="16" x="33" y="472">
-40.0
</text>
<path stroke="white" stroke-dasharray="1,2" d="M85 384l872 0"/>
<text stroke="none" fill="white" font-size="16" x="33" y="392">
-30.0
</text>
<path stroke="white" stroke-dasharray="1,2" d="M85 304l872 0"/>
<text stroke="none" fill="white" font-size="16" x="33" y="312">
-20.0
</text>
<path stroke="white" stroke-dasharray="1,2" d="M85 224l872 0"/>
<text stroke="none" fill="white" font-size="16" x="33" y="232">
-10.0
</text>
<path stroke="white" d="M85 144l872 0"/>
<text stroke="none" fill="white" font-size="16" x="53" y="152">
0.0
</text>
<path stroke="white" stroke-dasharray="1,2" d="M85 64l872 0"/>
<text stroke="none" fill="white" font-size="16" x="43" y="72">
10.0
</text>
<text stroke="none" fill="white" font-size="16" x="10" y="32">
     
</text>
<path stroke="red" d="M436 23l43 0"/>
<text stroke="none" fill="white" font-size="16" x="489" y="32">
vdb(s_1_1)
</text>
<path stroke="red" d="M90 144l32 0M122 145l0 -1M122 145l30 0M152 146l0 -1M152 146l16 0M168 147l0 -1M168 147l11 0M179 148l0 -1M179 148l8 0M187 149l0 -1M187 149l7 0M194 150l0 -1M194 150l6 0M200 151l0 -1M200 151l5 0M205 152l0 -1M205 152l5 0M210 153l0 -1"/>
<path stroke="red" d="M210 153l5 0M215 154l0 -1M215 154l4 0 1 1 4 0M224 156l0 -1M224 156l5 0M229 157l0 -1M229 157l4 0M233 158l0 -1M233 158l4 0M237 159l0 -1M237 159l3 0M240 160l0 -1M240 160l3 0M243 161l0 -1M243 161l3 0M246 162l0 -1M246 162l2 0"/>
<path stroke="red" d="M248 163l0 -1M248 163l2 0M250 164l0 -1M250 164l2 0M252 165l0 -1M252 165l2 0M254 166l0 -1M254 166l1 0M255 167l0 -1M255 167l1 0M256 168l0 -1M256 168l1 0M257 169l0 -1M257 169l1 0M258 170l0 -1M258 170l1 0M259 171l0 -1M259 171l1 0"/>
<path stroke="red" d="M260 172l0 -1M260 172l1 0M261 173l0 -1M261 173l1 0M262 174l0 -1M262 174l1 0M263 176l0 -2M263 176l1 0M264 177l0 -1M264 177l1 1M265 179l0 -1M265 179l1 0M266 181l0 -2M266 181l1 0M267 183l0 -2M267 183l1 0M268 185l0 -2M268 185l1 0"/>
<path stroke="red" d="M269 187l0 -2M269 187l1 1M270 190l0 -2M270 190l1 0M271 193l0 -3M271 193l1 0M272 195l0 -2M272 195l1 1M273 198l0 -2M273 198l1 0M274 201l0 -3M274 201l1 0M275 204l0 -3M275 204l1 0M276 206l0 -2M276 206l1 0M277 208l0 -2M277 208l2 0"/>
<path stroke="red" d="M279 209l0 -1 1 0 0 -1 1 0 0 -2 1 0 0 -3 1 0 0 -3 1 -1 0 -3 1 0 0 -4 1 0 0 -4 1 0 0 -4 1 0 0 -3 1 -1 0 -3 1 0 0 -3 1 0 0 -3 1 0 0 -2 1 0 0 -3 1 0 0 -2 1 0 0 -1 1 -1 0 -1 1 0 0 -2 1 0 0 -1 1 0 0 -1 1 0 0 -1 1 0 0 -1 1 0 0 -1"/>
<path stroke="red" d="M302 153l1 0 0 -1 1 0 0 -1 2 0 0 -1 2 0 0 -1 2 0 1 -1 3 0 0 -1 4 0 1 -1 7 0 0 -1 21 0 0 -1 556 0"/>
<path stroke="blue" d="M85 23l43 0"/>
<text stroke="none" fill="white" font-size="16" x="138" y="32">
vdb(s_2_1)
</text>
<path stroke="blue" d="M90 420l1 -1 0 -10 1 -1 0 -10 1 0 0 -8 1 -1 0 -7 1 0 0 -7 1 0 0 -6 1 0 0 -6 1 0 0 -5 1 0 0 -5 1 0 0 -4 1 0 0 -5 1 0 0 -3 1 -1 0 -3 1 0 0 -4 1 0 0 -3 1 0 0 -3 1 0 0 -3 1 0 0 -3 1 0 0 -2 1 -1 0 -2 1 0 0 -3 1 0 0 -2 1 0 0 -2"/>
<path stroke="blue" d="M113 309l1 0 0 -2 1 -1 0 -1 1 -1 0 -1 1 -1 0 -2 1 0 0 -1 1 -1 0 -1 1 0 0 -2 1 0 0 -2 1 0 0 -1 1 -1 0 -1 1 0 0 -2 1 0 0 -1 1 0 0 -2 1 0 0 -1 1 0 0 -2 1 0 0 -1 1 0 0 -2 1 0 0 -1 1 0 0 -1 1 0 0 -2 1 0 0 -1 1 0 0 -1 1 0 0 -1"/>
<path stroke="blue" d="M136 272l1 0 0 -2 1 0 0 -1 1 0 0 -1 1 0 0 -1 1 0 0 -1 1 0 0 -1 1 -1 0 -1 1 0 0 -1 1 0 0 -1 1 0 0 -1 1 0 0 -1 1 0 0 -1 1 0 0 -1 1 0 0 -1 1 0 0 -1 1 -1 0 -1 1 0 0 -1 1 0 0 -1 1 0 0 -1 1 0 0 -1 1 0 0 -1 1 0 0 -1 1 0 0 -1 1 0"/>
<path stroke="blue" d="M160 246l0 -1 1 0 0 -1 1 0 0 -1 1 0 0 -1 1 0 0 -1 1 0 0 -1 1 0 0 -1 1 0 0 -1 1 0 0 -1 4 -4 0 -1 1 0 0 -1 1 0 0 -1 1 0 0 -1 1 0 0 -1 1 0 0 -1 1 0 0 -1 1 0 0 -1 1 0 0 -1 1 0 0 -1 1 0 0 -1 1 0 0 -1 1 0 0 -1 1 0 0 -1 1 0 0 -1"/>
<path stroke="blue" d="M186 218l1 0 0 -1 1 0 0 -1 1 0 0 -1 1 0 0 -1 1 0 0 -1 1 0 0 -1 1 0 0 -1 1 0 0 -1 1 0 0 -1 1 0 0 -1 1 0 1 -1 1 0 0 -1 1 0 0 -1 1 0 0 -1 1 0 0 -1 1 0 0 -1 1 0 0 -1 2 0 0 -1 1 0 0 -1 1 0 0 -1 1 0 1 -1 1 0 0 -1 1 0 0 -1 2 0"/>
<path stroke="blue" d="M214 195l0 -1 1 0 0 -1 2 0 0 -1 1 0 0 -1 2 0 0 -1 2 0 0 -1 1 0 0 -1 2 0 0 -1 2 0 0 -1 2 0 0 -1 2 0 0 -1 2 0 0 -1 2 0 0 -1 2 0 0 -1 2 0 0 -1 1 0 0 -1 2 0 0 -1 2 0 0 -1 1 0 1 -1 1 0 0 -1 2 0 0 -1 1 0 0 -1 1 0 0 -1 2 0 0 -1"/>
<path stroke="blue" d="M253 171l1 0 0 -1 1 0 0 -1 1 0 0 -1 2 0 0 -1 1 0 0 -1 1 0 0 -1 1 0 0 -1 1 0 0 -1 1 0 0 -1 1 0 0 -1 1 0 0 -1 1 0 0 -1 1 0 0 -1 1 0 0 -1 1 0 0 -1 1 0 0 -1 1 0 0 -1 1 0 0 -1 1 0 0 -1 1 0 0 -1 2 0 0 -1 5 0M281 151l0 -1M281 151l2 0"/>
<path stroke="blue" d="M283 152l0 -1M283 152l1 0M284 153l0 -1M284 153l1 0M285 154l0 -1M285 154l1 0M286 156l0 -2M286 156l1 0M287 158l0 -2M287 158l1 0M288 159l0 -1M288 159l1 1M289 161l0 -1M289 161l1 1M290 164l0 -2M290 164l1 0M291 166l0 -2M291 166l1 0"/>
<path stroke="blue" d="M292 168l0 -2M292 168l1 1M293 171l0 -2M293 171l1 0M294 174l0 -3M294 174l1 0M295 176l0 -2M295 176l1 0M296 179l0 -3M296 179l1 0M297 182l0 -3M297 182l1 0M298 184l0 -2M298 184l1 1M299 187l0 -2M299 187l1 1M300 190l0 -2M300 190l1 0"/>
<path stroke="blue" d="M301 193l0 -3M301 193l1 0M302 196l0 -3M302 196l1 0M303 198l0 -2M303 198l1 1M304 201l0 -2M304 201l1 0M305 204l0 -3M305 204l1 0M306 207l0 -3M306 207l1 0M307 209l0 -2M307 209l1 0M308 212l0 -3M308 212l1 0M309 215l0 -3M309 215l1 0"/>
<path stroke="blue" d="M310 217l0 -2M310 217l1 0M311 220l0 -3M311 220l1 0M312 222l0 -2M312 222l1 0M313 225l0 -3M313 225l1 0M314 227l0 -2M314 227l1 0M315 230l0 -3M315 230l1 0M316 232l0 -2M316 232l1 0M317 234l0 -2M317 234l1 0M318 237l0 -3M318 237l1 0"/>
<path stroke="blue" d="M319 239l0 -2M319 239l1 0M320 241l0 -2M320 241l1 0M321 243l0 -2M321 243l1 0M322 246l0 -3M322 246l1 0M323 248l0 -2M323 248l1 0M324 250l0 -2M324 250l1 0M325 252l0 -2M325 252l1 0M326 254l0 -2M326 254l1 0M327 256l0 -2M327 256l1 0"/>
<path stroke="blue" d="M328 258l0 -2M328 258l1 0M329 260l0 -2M329 260l1 0M330 262l0 -2M330 262l1 0M331 264l0 -2M331 264l1 0M332 266l0 -2M332 266l1 0M333 268l0 -2M333 268l1 0M334 270l0 -2M334 270l1 0M335 272l0 -2M335 272l1 0M336 274l0 -2M336 274l1 0"/>
<path stroke="blue" d="M337 275l0 -1M337 275l1 1M338 277l0 -1M338 277l1 0M339 279l0 -2M339 279l1 0M340 281l0 -2M340 281l1 0M341 283l0 -2M341 283l1 0M342 284l0 -1M342 284l1 1M343 286l0 -1M343 286l1 0M344 288l0 -2M344 288l1 0M345 290l0 -2M345 290l1 0"/>
<path stroke="blue" d="M346 291l0 -1M346 291l1 0M347 293l0 -2M347 293l1 0M348 295l0 -2M348 295l1 0M349 296l0 -1M349 296l1 0M350 298l0 -2M350 298l1 0M351 299l0 -1M351 299l1 1M352 301l0 -1M352 301l1 0M353 303l0 -2M353 303l1 0M354 304l0 -1M354 304l1 0"/>
<path stroke="blue" d="M355 306l0 -2M355 306l1 0M356 307l0 -1M356 307l1 0M357 309l0 -2M357 309l1 0M358 310l0 -1M358 310l1 0M359 312l0 -2M359 312l1 0M360 313l0 -1M360 313l1 1M361 315l0 -1M361 315l1 0M362 316l0 -1M362 316l1 0M363 318l0 -2M363 318l1 0"/>
<path stroke="blue" d="M364 319l0 -1M364 319l1 0M365 321l0 -2M365 321l1 0M366 322l0 -1M366 322l1 0M367 324l0 -2M367 324l1 0M368 325l0 -1M368 325l1 0M369 327l0 -2M369 327l1 0M370 328l0 -1M370 328l1 0M371 330l0 -2M371 330l1 0M372 331l0 -1M372 331l1 0"/>
<path stroke="blue" d="M373 333l0 -2M373 333l1 0M374 334l0 -1M374 334l1 0M375 335l0 -1M375 335l1 1M376 337l0 -1M376 337l1 0M377 338l0 -1M377 338l1 1M378 340l0 -1M378 340l1 0M379 341l0 -1M379 341l1 1M380 343l0 -1M380 343l1 0M381 344l0 -1M381 344l1 0"/>
<path stroke="blue" d="M382 346l0 -2M382 346l1 0M383 347l0 -1M383 347l1 0M384 349l0 -2M384 349l1 0M385 350l0 -1M385 350l1 0M386 352l0 -2M386 352l1 0M387 353l0 -1M387 353l1 0M388 355l0 -2M388 355l1 0M389 356l0 -1M389 356l1 0M390 358l0 -2M390 358l1 0"/>
<path stroke="blue" d="M391 359l0 -1M391 359l1 0M392 361l0 -2M392 361l1 0M393 363l0 -2M393 363l1 0M394 364l0 -1M394 364l1 0M395 366l0 -2M395 366l1 0M396 367l0 -1M396 367l1 0M397 369l0 -2M397 369l1 0M398 371l0 -2M398 371l1 0M399 372l0 -1M399 372l1 0"/>
<path stroke="blue" d="M400 374l0 -2M400 374l1 0M401 376l0 -2M401 376l1 0M402 377l0 -1M402 377l1 0M403 379l0 -2M403 379l1 0M404 381l0 -2M404 381l1 0M405 382l0 -1M405 382l1 1M406 384l0 -1M406 384l1 0M407 386l0 -2M407 386l1 0M408 388l0 -2M408 388l1 0"/>
<path stroke="blue" d="M409 389l0 -1M409 389l1 1M410 391l0 -1M410 391l1 0M411 393l0 -2M411 393l1 0M412 395l0 -2M412 395l1 0M413 397l0 -2M413 397l1 0M414 399l0 -2M414 399l1 0M415 401l0 -2M415 401l1 0M416 403l0 -2M416 403l1 0M417 405l0 -2M417 405l1 0"/>
<path stroke="blue" d="M418 407l0 -2M418 407l1 0M419 408l0 -1M419 408l1 1M420 410l0 -1M420 410l1 1M421 413l0 -2M421 413l1 0M422 415l0 -2M422 415l1 0M423 417l0 -2M423 417l1 0M424 419l0 -2M424 419l1 0M425 421l0 -2M425 421l1 0M426 423l0 -2M426 423l1 0"/>
<path stroke="blue" d="M427 425l0 -2M427 425l1 0M428 427l0 -2M428 427l1 0M429 429l0 -2M429 429l1 0M430 432l0 -3M430 432l1 0M431 434l0 -2M431 434l1 0M432 436l0 -2M432 436l1 0M433 438l0 -2M433 438l1 0M434 440l0 -2M434 440l1 1M435 443l0 -2M435 443l1 0"/>
<path stroke="blue" d="M436 445l0 -2M436 445l1 0M437 447l0 -2M437 447l1 1M438 450l0 -2M438 450l1 0M439 452l0 -2M439 452l1 0M440 454l0 -2M440 454l1 1M441 457l0 -2M441 457l1 0M442 459l0 -2M442 459l1 0M443 462l0 -3M443 462l1 0M444 464l0 -2M444 464l1 0"/>
<path stroke="blue" d="M445 466l0 -2M445 466l1 0M446 469l0 -3M446 469l1 0M447 471l0 -2M447 471l1 0M448 474l0 -3M448 474l1 0M449 476l0 -2M449 476l1 1M450 479l0 -2M450 479l1 0M451 481l0 -2M451 481l1 0M452 484l0 -3M452 484l1 0M453 486l0 -2M453 486l1 1"/>
<path stroke="blue" d="M454 489l0 -2M454 489l1 0M455 492l0 -3M455 492l1 0M456 494l0 -2M456 494l1 0M457 497l0 -3M457 497l1 0M458 499l0 -2M458 499l1 1M459 502l0 -2M459 502l1 1M460 505l0 -2M460 505l1 0M461 508l0 -3M461 508l1 0M462 510l0 -2M462 510l1 1"/>
<path stroke="blue" d="M463 513l0 -2M463 513l1 0M464 516l0 -3M464 516l1 0M465 519l0 -3M465 519l1 0M466 522l0 -3M466 522l1 0M467 524l0 -2M467 524l1 1M468 528l0 -3M468 528l1 0M469 530l0 -2M469 530l1 1M470 533l0 -2M470 533l1 0M471 536l0 -3M471 536l1 0"/>
<path stroke="blue" d="M472 539l0 -3M472 539l1 1M473 542l0 -2M473 542l1 1M474 545l0 -2M474 545l1 1M475 549l0 -3M475 549l1 0M476 552l0 -3M476 552l1 0M477 555l0 -3M477 555l1 0M478 558l0 -3M478 558l1 1M479 561l0 -2M479 561l1 1M480 565l0 -3M480 565l1 0"/>
<path stroke="blue" d="M481 568l0 -3M481 568l1 1M482 572l0 -3M482 572l1 0M483 575l0 -3M483 575l1 0M484 579l0 -4M484 579l1 0M485 582l0 -3M485 582l1 1M486 586l0 -3M486 586l1 0M487 590l0 -4M487 590l1 0M488 594l0 -4M488 594l1 0M489 598l0 -4M489 598l1 0"/>
<path stroke="blue" d="M490 601l0 -3M490 601l1 1M491 606l0 -4M491 606l1 0M492 610l0 -4M492 610l1 0M493 614l0 -4M493 614l1 1M494 619l0 -4M494 619l1 0M495 624l0 -5M495 624l1 0M496 628l0 -4M496 628l1 1M497 633l0 -4M497 633l1 1M498 639l0 -5M498 639l1 0"/>
<path stroke="blue" d="M499 644l0 -5M499 644l1 0M500 650l0 -6M500 650l1 0M501 656l0 -6M501 656l1 0M502 662l0 -6M502 662l1 0M503 669l0 -7M503 669l1 0M504 676l0 -7M504 676l1 0M505 683l0 -7M505 683l1 1M506 691l0 -7M506 691l1 1M507 700l0 -8M507 700l1 1"/>
<path stroke="blue" d="M508 704l0 -3M528 704l0 -4 1 0 0 -4 1 0 0 -4 1 0 0 -3 1 0 0 -4 1 0 0 -2 1 -1 0 -2 1 0 0 -3 1 0 0 -2 1 0 0 -2 1 0 0 -2 1 0 0 -2 1 0 0 -2 1 0 0 -1 1 0 0 -2 1 0 0 -1 1 0 0 -2 1 0 0 -1 1 0 0 -1 1 0 0 -1 1 0 0 -1 1 -1 1 0 0 -1"/>
<path stroke="blue" d="M550 655l1 0 0 -1 1 0 0 -1 1 0 0 -1 1 0 0 -1 2 0 0 -1 1 0 0 -1 2 0 0 -1 2 0 0 -1 2 0 0 -1 3 0 0 -1 3 0 0 -1 4 0 0 -1 8 0 0 -1 13 0M594 643l0 -1M594 643l10 0M604 644l0 -1M604 644l6 0M610 645l0 -1M610 645l6 0M616 646l0 -1"/>
<path stroke="blue" d="M616 646l4 0 1 1 4 0M625 648l0 -1M625 648l4 0M629 649l0 -1M629 649l4 0M633 650l0 -1M633 650l4 0M637 651l0 -1M637 651l3 0 1 1 3 0M644 653l0 -1M644 653l3 0 1 1 3 0M651 655l0 -1M651 655l3 0M654 656l0 -1M654 656l3 0 1 1 3 0"/>
<path stroke="blue" d="M661 658l0 -1M661 658l3 0M664 659l0 -1M664 659l3 0M667 660l0 -1M667 660l3 0M670 661l0 -1M670 661l3 0M673 662l0 -1M673 662l3 0M676 663l0 -1M676 663l3 0M679 664l0 -1M679 664l3 0M682 665l0 -1M682 665l3 0M685 666l0 -1M685 666l3 0"/>
<path stroke="blue" d="M688 667l0 -1M688 667l3 0M691 668l0 -1M691 668l3 0M694 669l0 -1M694 669l3 0M697 670l0 -1M697 670l3 0M700 671l0 -1M700 671l3 0M703 672l0 -1M703 672l3 0M706 673l0 -1M706 673l3 0M709 674l0 -1M709 674l2 0 1 1 2 0M714 676l0 -1"/>
<path stroke="blue" d="M714 676l3 0M717 677l0 -1M717 677l3 0M720 678l0 -1M720 678l3 0M723 679l0 -1M723 679l3 0M726 680l0 -1M726 680l3 0M729 681l0 -1M729 681l3 0M732 682l0 -1M732 682l2 0M734 683l0 -1M734 683l3 0M737 684l0 -1M737 684l3 0M740 685l0 -1"/>
<path stroke="blue" d="M740 685l3 0M743 686l0 -1M743 686l3 0M746 687l0 -1M746 687l3 0M749 688l0 -1M749 688l2 0 1 1 2 0M754 690l0 -1M754 690l3 0M757 691l0 -1M757 691l3 0M760 692l0 -1M760 692l3 0M763 693l0 -1M763 693l3 0M766 694l0 -1M766 694l3 0"/>
<path stroke="blue" d="M769 695l0 -1M769 695l2 0 1 1 2 0M774 697l0 -1M774 697l3 0M777 698l0 -1M777 698l3 0M780 699l0 -1M780 699l3 0M783 700l0 -1M783 700l3 0M786 701l0 -1M786 701l3 0M789 702l0 -1M789 702l3 0M792 703l0 -1M792 703l2 0M794 704l0 -1"/>
<path stroke="blue" d="M794 704l3 0"/>
<path stroke="#FFA500" d="M436 39l43 0"/>
<text stroke="none" fill="white" font-size="16" x="489" y="48">
vswr
</text>
<path stroke="#FFA500" d="M235 65l0 -1M235 65l1 0M236 66l0 -1M236 66l1 0M237 68l0 -2M237 68l1 0M238 69l0 -1M238 69l1 0M239 71l0 -2M239 71l1 0M240 72l0 -1M240 72l1 0M241 73l0 -1M241 73l1 1M242 75l0 -1M242 75l1 0M243 76l0 -1M243 76l1 0M244 78l0 -2"/>
<path stroke="#FFA500" d="M244 78l1 0M245 79l0 -1M245 79l1 0M246 81l0 -2M246 81l1 0M247 82l0 -1M247 82l1 0M248 84l0 -2M248 84l1 0M249 85l0 -1M249 85l1 1M250 87l0 -1M250 87l1 0M251 89l0 -2M251 89l1 0M252 90l0 -1M252 90l1 0M253 92l0 -2M253 92l1 0"/>
<path stroke="#FFA500" d="M254 93l0 -1M254 93l1 0M255 95l0 -2M255 95l1 0M256 97l0 -2M256 97l1 0M257 98l0 -1M257 98l1 0M258 100l0 -2M258 100l1 0M259 102l0 -2M259 102l1 0M260 103l0 -1M260 103l1 0M261 105l0 -2M261 105l1 0M262 107l0 -2M262 107l1 0"/>
<path stroke="#FFA500" d="M263 108l0 -1M263 108l1 0M264 110l0 -2M264 110l1 0M265 112l0 -2M265 112l1 0M266 113l0 -1M266 113l1 0M267 115l0 -2M267 115l1 0M268 116l0 -1M268 116l1 0M269 118l0 -2M269 118l1 0M270 119l0 -1M270 119l1 0M271 120l0 -1M271 120l1 0"/>
<path stroke="#FFA500" d="M272 121l0 -1M272 121l1 0M273 122l0 -1M273 122l2 2 1 0M276 125l0 -1M276 125l2 0M278 126l0 -1M278 126l2 0 0 -1 2 0 0 -1 1 0 0 -1 1 0 0 -2 1 0 0 -1 1 -1 0 -2 1 0 0 -2 1 0 0 -3 1 0 0 -3 1 0 0 -4 1 0 0 -4 1 0 0 -4 1 0 0 -5"/>
<path stroke="#FFA500" d="M293 92l1 -1 0 -5 1 0 0 -6 1 0 0 -7 1 0 0 -7 1 0 0 -2"/>
</svg>
