<?xml version="1.0" standalone="yes"?>
<!DOCTYPE svg PUBLIC "-//W3C//DTD SVG 1.1//EN"
 "http://www.w3.org/Graphics/SVG/1.1/DTD/svg11.dtd">
<svg xmlns="http://www.w3.org/2000/svg" version="1.1"
  width="100%" height="100%" viewBox="0 0 1024 768"
  style="fill: none; font-family: Helvetica;
 font: Helvetica;
">

<!-- Creator: NGspice -->

<rect x="0" y="0" width="1024" height="768" fill="black" stroke="none"/>
<text stroke="none" fill="white" font-size="16" x="358" y="752">
Frequency
</text>
<text transform="rotate(-90, 20, 494)"  stroke="none" fill="white" font-size="16" x="20" y="494">
Magnitude in dB / VSWR
</text>
<text stroke="none" fill="white" font-size="16" x="10" y="16">
sp11: lpfbpf15m
</text>
<path stroke="white" d="M95 704l0 -637"/>
<text stroke="none" fill="white" font-size="16" x="80" y="728">
0.0
</text>
<path stroke="white" stroke-dasharray="1,2" d="M202 704l0 -637"/>
<text stroke="none" fill="white" font-size="16" x="182" y="728">
20.0
</text>
<path stroke="white" stroke-dasharray="1,2" d="M309 704l0 -637"/>
<text stroke="none" fill="white" font-size="16" x="289" y="728">
40.0
</text>
<path stroke="white" stroke-dasharray="1,2" d="M416 704l0 -637"/>
<text stroke="none" fill="white" font-size="16" x="396" y="728">
60.0
</text>
<path stroke="white" stroke-dasharray="1,2" d="M523 704l0 -637"/>
<text stroke="none" fill="white" font-size="16" x="503" y="728">
80.0
</text>
<path stroke="white" stroke-dasharray="1,2" d="M630 704l0 -637"/>
<text stroke="none" fill="white" font-size="16" x="605" y="728">
100.0
</text>
<path stroke="white" stroke-dasharray="1,2" d="M737 704l0 -637"/>
<text stroke="none" fill="white" font-size="16" x="712" y="728">
120.0
</text>
<path stroke="white" stroke-dasharray="1,2" d="M844 704l0 -637"/>
<text stroke="none" fill="white" font-size="16" x="819" y="728">
140.0
</text>
<path stroke="white" stroke-dasharray="1,2" d="M951 704l0 -637"/>
<text stroke="none" fill="white" font-size="16" x="926" y="728">
160.0
</text>
<text stroke="none" fill="white" font-size="16" x="614" y="752">
MHz
</text>
<path stroke="white" stroke-dasharray="1,2" d="M95 704l856 0"/>
<text stroke="none" fill="white" font-size="16" x="33" y="712">
-120.0
</text>
<path stroke="white" stroke-dasharray="1,2" d="M95 613l856 0"/>
<text stroke="none" fill="white" font-size="16" x="33" y="621">
-100.0
</text>
<path stroke="white" stroke-dasharray="1,2" d="M95 522l856 0"/>
<text stroke="none" fill="white" font-size="16" x="43" y="530">
-80.0
</text>
<path stroke="white" stroke-dasharray="1,2" d="M95 431l856 0"/>
<text stroke="none" fill="white" font-size="16" x="43" y="439">
-60.0
</text>
<path stroke="white" stroke-dasharray="1,2" d="M95 340l856 0"/>
<text stroke="none" fill="white" font-size="16" x="43" y="348">
-40.0
</text>
<path stroke="white" stroke-dasharray="1,2" d="M95 249l856 0"/>
<text stroke="none" fill="white" font-size="16" x="43" y="257">
-20.0
</text>
<path stroke="white" d="M95 158l856 0"/>
<text stroke="none" fill="white" font-size="16" x="53" y="166">
-0.0
</text>
<path stroke="white" stroke-dasharray="1,2" d="M95 67l856 0"/>
<text stroke="none" fill="white" font-size="16" x="53" y="75">
20.0
</text>
<text stroke="none" fill="white" font-size="16" x="10" y="32">
     
</text>
<path stroke="red" d="M428 23l42 0"/>
<text stroke="none" fill="white" font-size="16" x="480" y="32">
vdb(s_1_1)
</text>
<path stroke="red" d="M100 158l61 0M161 159l0 -1M161 159l13 0M174 160l0 -1M174 160l5 0M179 161l0 -1M179 161l3 0M182 162l0 -1M182 162l2 0M184 163l0 -1M184 163l2 0M186 164l0 -1M186 164l2 0M188 165l0 -1M188 165l2 0M190 166l0 -1M190 166l1 0M191 167l0 -1"/>
<path stroke="red" d="M191 167l2 0M193 168l0 -1M193 168l2 0M195 169l0 -1M195 169l3 0M198 170l0 -1M198 170l4 0M202 171l0 -1M202 171l4 0M206 172l0 -1M206 172l2 0M208 173l0 -1M208 173l2 0M210 174l0 -1M210 174l1 0M211 175l0 -1M211 175l1 0M212 176l0 -1"/>
<path stroke="red" d="M212 176l1 0M213 177l0 -1M213 177l1 0M214 179l0 -2M214 179l1 0M215 181l0 -2M215 181l1 0M216 183l0 -2M216 183l1 0M217 186l0 -3M217 186l1 0M218 190l0 -4M218 190l1 0M219 194l0 -4M219 194l1 0M220 199l0 -5M220 199l1 1M221 205l0 -5"/>
<path stroke="red" d="M221 205l1 0M222 210l0 -5M222 210l1 1M223 213l0 -2M223 213l1 0 0 -3 1 0 0 -6 1 0 0 -7 1 -1 0 -6 1 0 0 -5 1 -1 0 -4 1 0 0 -4 1 0 0 -3 1 0 0 -2 1 -1 0 -1 1 -1 0 -1 1 0 0 -1 1 0 0 -1 1 0 0 -1 1 0 0 -1 1 0 0 -1 2 0 1 -1 3 0"/>
<path stroke="red" d="M245 161l0 -1 5 0 1 -1 12 0 1 -1 634 0"/>
<path stroke="blue" d="M95 23l42 0"/>
<text stroke="none" fill="white" font-size="16" x="147" y="32">
vdb(s_2_1)
</text>
<path stroke="blue" d="M100 313l0 -1 1 0 0 -6 1 0 0 -5 1 0 0 -4 1 0 0 -4 1 0 0 -2 1 -1 0 -2 1 0 0 -3 1 0 0 -2 1 0 0 -1 1 -1 0 -1 1 0 0 -2 1 0 0 -1 1 0 0 -1 1 0 0 -2 1 0 0 -1 1 0 0 -1 1 0 0 -1 1 0 0 -1 1 0 0 -1 2 0 0 -1 1 0 0 -1 1 0 0 -1 1 0 0 -1"/>
<path stroke="blue" d="M124 265l2 0 0 -1 1 0 0 -1 1 0 0 -1 2 0 0 -1 1 0 0 -1 1 0 0 -1 2 0 0 -1 1 0 0 -1 1 0 0 -1 1 0 0 -1 2 0 0 -1 1 0 0 -1 1 0 0 -1 1 0 0 -1 1 0 0 -1 1 0 0 -1 1 0 0 -1 1 0 0 -1 1 0 0 -1 1 0 0 -1 1 0 0 -1 1 0 0 -1 1 0 0 -1 1 0"/>
<path stroke="blue" d="M152 242l0 -1 1 0 0 -1 1 0 0 -1 1 0 0 -1 1 0 0 -2 1 0 0 -1 1 0 0 -1 1 0 0 -1 1 0 0 -2 1 0 0 -1 1 0 0 -2 1 0 0 -1 1 0 0 -1 1 -1 0 -1 1 0 0 -1 1 -1 0 -1 1 0 0 -2 1 0 0 -1 1 -1 0 -1 1 0 0 -2 1 0 0 -2 1 0 0 -1 1 -1 0 -1 1 0"/>
<path stroke="blue" d="M175 209l0 -2 1 0 0 -2 1 0 0 -2 1 0 0 -2 1 0 0 -2 1 0 0 -2 1 0 0 -2 1 0 0 -2 1 0 0 -2 1 0 0 -2 1 0 0 -2 1 0 0 -1 1 0 0 -2 1 0 0 -1 1 -1 0 -1 1 0 0 -1 1 0 0 -1 2 -2 1 0 0 -1 1 0 0 -1 2 0 0 -1 3 0 0 -1 4 0 0 -1 3 0 0 -1 2 0"/>
<path stroke="blue" d="M209 171l0 -1 2 0 0 -1 1 0 0 -1 1 0 0 -1 1 0 0 -1 1 0 0 -1 1 0 1 -1 0 -1 1 0 0 -1 1 0 0 -1 2 0 0 -1 1 0 0 -1 3 0M225 160l0 -1M225 160l1 0M226 161l0 -1M226 161l1 0M227 162l0 -1M227 162l1 0M228 164l0 -2M228 164l1 0M229 166l0 -2"/>
<path stroke="blue" d="M229 166l1 0M230 168l0 -2M230 168l1 0M231 171l0 -3M231 171l1 0M232 173l0 -2M232 173l1 0M233 175l0 -2M233 175l1 1M234 178l0 -2M234 178l1 0M235 180l0 -2M235 180l1 1M236 183l0 -2M236 183l1 0M237 185l0 -2M237 185l1 0M238 187l0 -2"/>
<path stroke="blue" d="M238 187l1 1M239 190l0 -2M239 190l1 0M240 192l0 -2M240 192l1 0M241 194l0 -2M241 194l1 0M242 196l0 -2M242 196l1 0M243 198l0 -2M243 198l1 0M244 200l0 -2M244 200l1 0M245 201l0 -1M245 201l1 1M246 203l0 -1M246 203l1 0M247 205l0 -2"/>
<path stroke="blue" d="M247 205l1 0M248 207l0 -2M248 207l1 0M249 208l0 -1M249 208l1 0M250 210l0 -2M250 210l1 0M251 211l0 -1M251 211l1 0M252 213l0 -2M252 213l1 0M253 214l0 -1M253 214l1 0M254 216l0 -2M254 216l1 0M255 217l0 -1M255 217l1 0M256 219l0 -2"/>
<path stroke="blue" d="M256 219l1 0M257 220l0 -1M257 220l1 0M258 222l0 -2M258 222l1 0M259 223l0 -1M259 223l1 1M260 225l0 -1M260 225l1 0M261 227l0 -2M261 227l1 0M262 229l0 -2M262 229l1 0M263 231l0 -2M263 231l1 0M264 233l0 -2M264 233l1 0M265 235l0 -2"/>
<path stroke="blue" d="M265 235l1 0M266 238l0 -3M266 238l1 0M267 240l0 -2M267 240l1 0M268 242l0 -2M268 242l1 1M269 245l0 -2M269 245l1 0M270 248l0 -3M270 248l1 0M271 250l0 -2M271 250l1 0M272 253l0 -3M272 253l1 0M273 256l0 -3M273 256l1 0M274 259l0 -3"/>
<path stroke="blue" d="M274 259l1 0M275 261l0 -2M275 261l1 0M276 264l0 -3M276 264l1 0M277 267l0 -3M277 267l1 0M278 270l0 -3M278 270l1 0M279 273l0 -3M279 273l1 0M280 276l0 -3M280 276l1 0M281 279l0 -3M281 279l1 0M282 281l0 -2M282 281l1 1M283 284l0 -2"/>
<path stroke="blue" d="M283 284l1 0M284 287l0 -3M284 287l1 0M285 290l0 -3M285 290l1 0M286 292l0 -2M286 292l1 1M287 295l0 -2M287 295l1 1M288 298l0 -2M288 298l1 0M289 301l0 -3M289 301l1 0M290 303l0 -2M290 303l1 1M291 306l0 -2M291 306l1 0M292 309l0 -3"/>
<path stroke="blue" d="M292 309l1 0M293 311l0 -2M293 311l1 0M294 314l0 -3M294 314l1 0M295 316l0 -2M295 316l1 0M296 319l0 -3M296 319l1 0M297 321l0 -2M297 321l1 0M298 324l0 -3M298 324l1 0M299 326l0 -2M299 326l1 1M300 329l0 -2M300 329l1 0M301 331l0 -2"/>
<path stroke="blue" d="M301 331l1 0M302 333l0 -2M302 333l1 1M303 336l0 -2M303 336l1 0M304 338l0 -2M304 338l1 0M305 340l0 -2M305 340l1 1M306 343l0 -2M306 343l1 0M307 345l0 -2M307 345l1 0M308 347l0 -2M308 347l1 0M309 350l0 -3M309 350l1 0M310 352l0 -2"/>
<path stroke="blue" d="M310 352l1 0M311 354l0 -2M311 354l1 0M312 356l0 -2M312 356l1 0M313 358l0 -2M313 358l1 0M314 361l0 -3M314 361l1 0M315 363l0 -2M315 363l1 0M316 365l0 -2M316 365l1 0M317 367l0 -2M317 367l1 0M318 369l0 -2M318 369l1 0M319 371l0 -2"/>
<path stroke="blue" d="M319 371l1 0M320 373l0 -2M320 373l1 0M321 375l0 -2M321 375l1 0M322 377l0 -2M322 377l1 1M323 379l0 -1M323 379l1 1M324 381l0 -1M324 381l1 1M325 384l0 -2M325 384l1 0M326 385l0 -1M326 385l1 1M327 388l0 -2M327 388l1 0M328 390l0 -2"/>
<path stroke="blue" d="M328 390l1 0M329 392l0 -2M329 392l1 0M330 394l0 -2M330 394l1 0M331 396l0 -2M331 396l1 0M332 397l0 -1M332 397l1 1M333 400l0 -2M333 400l1 0M334 402l0 -2M334 402l1 0M335 403l0 -1M335 403l1 1M336 406l0 -2M336 406l1 0M337 407l0 -1"/>
<path stroke="blue" d="M337 407l1 1M338 409l0 -1M338 409l1 1M339 411l0 -1M339 411l1 0M340 413l0 -2M340 413l1 1M341 415l0 -1M341 415l1 0M342 417l0 -2M342 417l1 0M343 419l0 -2M343 419l1 0M344 421l0 -2M344 421l1 0M345 423l0 -2M345 423l1 0M346 425l0 -2"/>
<path stroke="blue" d="M346 425l1 0M347 427l0 -2M347 427l1 0M348 429l0 -2M348 429l1 0M349 431l0 -2M349 431l1 0M350 433l0 -2M350 433l1 0M351 435l0 -2M351 435l1 0M352 437l0 -2M352 437l1 0M353 439l0 -2M353 439l1 0M354 441l0 -2M354 441l1 0M355 443l0 -2"/>
<path stroke="blue" d="M355 443l1 0M356 445l0 -2M356 445l1 0M357 447l0 -2M357 447l1 0M358 449l0 -2M358 449l1 0M359 451l0 -2M359 451l1 0M360 453l0 -2M360 453l1 0M361 455l0 -2M361 455l1 0M362 457l0 -2M362 457l1 0M363 459l0 -2M363 459l1 0M364 461l0 -2"/>
<path stroke="blue" d="M364 461l1 1M365 463l0 -1M365 463l1 1M366 466l0 -2M366 466l1 0M367 468l0 -2M367 468l1 0M368 470l0 -2M368 470l1 0M369 472l0 -2M369 472l1 0M370 474l0 -2M370 474l1 1M371 477l0 -2M371 477l1 0M372 479l0 -2M372 479l1 0M373 481l0 -2"/>
<path stroke="blue" d="M373 481l1 1M374 484l0 -2M374 484l1 0M375 486l0 -2M375 486l1 0M376 488l0 -2M376 488l1 1M377 491l0 -2M377 491l1 0M378 493l0 -2M378 493l1 1M379 496l0 -2M379 496l1 0M380 499l0 -3M380 499l1 0M381 502l0 -3M381 502l1 0M382 504l0 -2"/>
<path stroke="blue" d="M382 504l1 1M383 507l0 -2M383 507l1 0M384 510l0 -3M384 510l1 0M385 513l0 -3M385 513l1 0M386 516l0 -3M386 516l1 1M387 520l0 -3M387 520l1 0M388 523l0 -3M388 523l1 0M389 527l0 -4M389 527l1 0M390 530l0 -3M390 530l1 1M391 535l0 -4"/>
<path stroke="blue" d="M391 535l1 0M392 539l0 -4M392 539l1 0M393 543l0 -4M393 543l1 1M394 548l0 -4M394 548l1 0M395 553l0 -5M395 553l1 1M396 559l0 -5M396 559l1 0M397 566l0 -7M397 566l1 0M398 573l0 -7M398 573l1 0M399 582l0 -9M399 582l1 0M400 592l0 -10"/>
<path stroke="blue" d="M400 592l1 1M401 606l0 -13M401 606l1 1M402 625l0 -18M402 625l1 2M403 665l0 -38M403 665l1 6M404 704l0 -33M404 680l1 -6 0 -39 1 -3 0 -19 1 -1 0 -11 1 -1 0 -9 1 0 0 -7 1 0 0 -6 1 0 0 -4 1 -1 0 -4 1 0 0 -3 1 0 0 -3 1 -1 0 -2"/>
<path stroke="blue" d="M415 560l1 0 0 -3 1 0 0 -2 1 0 0 -2 1 0 0 -2 1 0 0 -1 1 0 0 -2 1 0 0 -1 1 0 0 -2 1 0 0 -1 1 0 0 -1 1 0 0 -1 1 0 0 -1 1 0 0 -1 2 0 0 -1 1 0 0 -1 1 0 0 -1 2 0 0 -1 2 0 0 -1 2 0 1 -1 2 0 0 -1 4 0 0 -1 6 0 0 -1 22 0M473 532l0 -1"/>
<path stroke="blue" d="M473 532l9 0M482 533l0 -1M482 533l7 0M489 534l0 -1M489 534l6 0M495 535l0 -1M495 535l5 0M500 536l0 -1M500 536l5 0M505 537l0 -1M505 537l5 0M510 538l0 -1M510 538l4 0 1 1 4 0M519 540l0 -1M519 540l4 0M523 541l0 -1M523 541l5 0"/>
<path stroke="blue" d="M528 542l0 -1M528 542l4 0M532 543l0 -1M532 543l4 0M536 544l0 -1M536 544l4 0M540 545l0 -1M540 545l4 0M544 546l0 -1M544 546l4 0M548 547l0 -1M548 547l4 0M552 548l0 -1M552 548l4 0M556 549l0 -1M556 549l4 0M560 550l0 -1M560 550l4 0"/>
<path stroke="blue" d="M564 551l0 -1M564 551l4 0M568 552l0 -1M568 552l4 0M572 553l0 -1M572 553l4 0M576 554l0 -1M576 554l4 0M580 555l0 -1M580 555l4 0M584 556l0 -1M584 556l4 0M588 557l0 -1M588 557l4 0M592 558l0 -1M592 558l4 0M596 559l0 -1M596 559l3 0"/>
<path stroke="blue" d="M599 560l0 -1M599 560l4 0M603 561l0 -1M603 561l4 0M607 562l0 -1M607 562l4 0M611 563l0 -1M611 563l4 0M615 564l0 -1M615 564l4 0M619 565l0 -1M619 565l4 0M623 566l0 -1M623 566l4 0M627 567l0 -1M627 567l4 0M631 568l0 -1M631 568l4 0"/>
<path stroke="blue" d="M635 569l0 -1M635 569l4 0M639 570l0 -1M639 570l4 0M643 571l0 -1M643 571l4 0M647 572l0 -1M647 572l4 0M651 573l0 -1M651 573l4 0M655 574l0 -1M655 574l4 0M659 575l0 -1M659 575l4 0M663 576l0 -1M663 576l4 0M667 577l0 -1M667 577l4 0"/>
<path stroke="blue" d="M671 578l0 -1M671 578l4 0 1 1 4 0M680 580l0 -1M680 580l4 0M684 581l0 -1M684 581l4 0M688 582l0 -1M688 582l4 0M692 583l0 -1M692 583l4 0 1 1 4 0M701 585l0 -1M701 585l4 0M705 586l0 -1M705 586l4 0M709 587l0 -1M709 587l4 0 1 1"/>
<path stroke="blue" d="M714 588l4 0M718 589l0 -1M718 589l4 0M722 590l0 -1M722 590l4 0 1 1 4 0M731 592l0 -1M731 592l4 0M735 593l0 -1M735 593l5 0M740 594l0 -1M740 594l4 0M744 595l0 -1M744 595l5 0M749 596l0 -1M749 596l4 0M753 597l0 -1M753 597l5 0"/>
<path stroke="blue" d="M758 598l0 -1M758 598l4 0M762 599l0 -1M762 599l5 0M767 600l0 -1M767 600l4 0M771 601l0 -1M771 601l5 0M776 602l0 -1M776 602l5 0M781 603l0 -1M781 603l4 0M785 604l0 -1M785 604l5 0M790 605l0 -1M790 605l5 0M795 606l0 -1M795 606l4 0"/>
<path stroke="blue" d="M799 607l0 -1M799 607l5 0M804 608l0 -1M804 608l5 0M809 609l0 -1M809 609l5 0M814 610l0 -1M814 610l5 0M819 611l0 -1M819 611l4 0 1 1 4 0M828 613l0 -1M828 613l5 0M833 614l0 -1M833 614l5 0M838 615l0 -1M838 615l5 0M843 616l0 -1"/>
<path stroke="blue" d="M843 616l5 0M848 617l0 -1M848 617l5 0M853 618l0 -1M853 618l5 0M858 619l0 -1M858 619l5 0 1 1 5 0M869 621l0 -1M869 621l5 0M874 622l0 -1M874 622l5 0M879 623l0 -1M879 623l5 0M884 624l0 -1M884 624l5 0M889 625l0 -1M889 625l6 0"/>
<path stroke="blue" d="M895 626l0 -1M895 626l3 0"/>
<path stroke="#FFA500" d="M428 39l42 0"/>
<text stroke="none" fill="white" font-size="16" x="480" y="48">
vswr
</text>
<path stroke="#FFA500" d="M183 69l0 -2M183 69l1 1M184 78l0 -8M184 78l1 1M185 87l0 -8M185 87l1 0M186 93l0 -6M186 93l1 1M187 99l0 -5M187 99l1 1M188 105l0 -5M188 105l1 0M189 109l0 -4M189 109l1 1M190 113l0 -3M190 113l1 0M191 116l0 -3M191 116l1 0"/>
<path stroke="#FFA500" d="M192 119l0 -3M192 119l1 0M193 121l0 -2M193 121l1 0M194 123l0 -2M194 123l1 0M195 124l0 -1M195 124l1 0M196 126l0 -2M196 126l2 0M198 127l0 -1M198 127l1 0M199 128l0 -1M199 128l2 0M201 129l0 -1M201 129l2 0M203 130l0 -1M203 130l2 0"/>
<path stroke="#FFA500" d="M205 131l0 -1M205 131l1 0 1 1 1 0M208 133l0 -1M208 133l1 0M209 134l0 -1M209 134l1 0M210 135l0 -1M210 135l1 0M211 136l0 -1M211 136l1 0M212 138l0 -2M212 138l1 0M213 139l0 -1M213 139l1 0M214 140l0 -1M214 140l1 0M215 142l0 -2"/>
<path stroke="#FFA500" d="M215 142l1 0M216 143l0 -1M216 143l1 0M217 145l0 -2M217 145l1 0M218 146l0 -1M218 146l1 0M219 147l0 -1M219 147l1 0M220 149l0 -2M220 149l1 0 1 1 3 0 0 -1 1 0 0 -1 1 0 0 -2 1 0 0 -2 1 0 0 -3 1 0 0 -3 1 0 0 -4 1 -1 0 -4 1 0"/>
<path stroke="#FFA500" d="M233 129l0 -5 1 -1 0 -5 1 0 0 -7 1 0 0 -7 1 -1 0 -7 1 -1 0 -8 1 -1 0 -9 1 -1 0 -9M219 704l0 -637"/>
</svg>
