<?xml version="1.0" standalone="yes"?>
<!DOCTYPE svg PUBLIC "-//W3C//DTD SVG 1.1//EN"
 "http://www.w3.org/Graphics/SVG/1.1/DTD/svg11.dtd">
<svg xmlns="http://www.w3.org/2000/svg" version="1.1"
  width="100%" height="100%" viewBox="0 0 1024 768"
  style="fill: none; font-family: Helvetica;
 font: Helvetica;
">

<!-- Creator: NGspice -->

<rect x="0" y="0" width="1024" height="768" fill="black" stroke="none"/>
<text stroke="none" fill="white" font-size="16" x="358" y="752">
Frequency
</text>
<text transform="rotate(-90, 20, 494)"  stroke="none" fill="white" font-size="16" x="20" y="494">
Magnitude in dB / VSWR
</text>
<text stroke="none" fill="white" font-size="16" x="10" y="16">
sp12: lpfbpf20m
</text>
<path stroke="white" d="M85 704l0 -640"/>
<text stroke="none" fill="white" font-size="16" x="70" y="728">
0.0
</text>
<path stroke="white" stroke-dasharray="1,2" d="M194 704l0 -640"/>
<text stroke="none" fill="white" font-size="16" x="174" y="728">
20.0
</text>
<path stroke="white" stroke-dasharray="1,2" d="M303 704l0 -640"/>
<text stroke="none" fill="white" font-size="16" x="283" y="728">
40.0
</text>
<path stroke="white" stroke-dasharray="1,2" d="M412 704l0 -640"/>
<text stroke="none" fill="white" font-size="16" x="392" y="728">
60.0
</text>
<path stroke="white" stroke-dasharray="1,2" d="M521 704l0 -640"/>
<text stroke="none" fill="white" font-size="16" x="501" y="728">
80.0
</text>
<path stroke="white" stroke-dasharray="1,2" d="M630 704l0 -640"/>
<text stroke="none" fill="white" font-size="16" x="605" y="728">
100.0
</text>
<path stroke="white" stroke-dasharray="1,2" d="M739 704l0 -640"/>
<text stroke="none" fill="white" font-size="16" x="714" y="728">
120.0
</text>
<path stroke="white" stroke-dasharray="1,2" d="M848 704l0 -640"/>
<text stroke="none" fill="white" font-size="16" x="823" y="728">
140.0
</text>
<path stroke="white" stroke-dasharray="1,2" d="M957 704l0 -640"/>
<text stroke="none" fill="white" font-size="16" x="932" y="728">
160.0
</text>
<text stroke="none" fill="white" font-size="16" x="614" y="752">
MHz
</text>
<path stroke="white" stroke-dasharray="1,2" d="M85 704l872 0"/>
<text stroke="none" fill="white" font-size="16" x="33" y="712">
-70.0
</text>
<path stroke="white" stroke-dasharray="1,2" d="M85 624l872 0"/>
<text stroke="none" fill="white" font-size="16" x="33" y="632">
-60.0
</text>
<path stroke="white" stroke-dasharray="1,2" d="M85 544l872 0"/>
<text stroke="none" fill="white" font-size="16" x="33" y="552">
-50.0
</text>
<path stroke="white" stroke-dasharray="1,2" d="M85 464l872 0"/>
<text stroke="none" fill="white" font-size="16" x="33" y="472">
-40.0
</text>
<path stroke="white" stroke-dasharray="1,2" d="M85 384l872 0"/>
<text stroke="none" fill="white" font-size="16" x="33" y="392">
-30.0
</text>
<path stroke="white" stroke-dasharray="1,2" d="M85 304l872 0"/>
<text stroke="none" fill="white" font-size="16" x="33" y="312">
-20.0
</text>
<path stroke="white" stroke-dasharray="1,2" d="M85 224l872 0"/>
<text stroke="none" fill="white" font-size="16" x="33" y="232">
-10.0
</text>
<path stroke="white" d="M85 144l872 0"/>
<text stroke="none" fill="white" font-size="16" x="53" y="152">
0.0
</text>
<path stroke="white" stroke-dasharray="1,2" d="M85 64l872 0"/>
<text stroke="none" fill="white" font-size="16" x="43" y="72">
10.0
</text>
<text stroke="none" fill="white" font-size="16" x="10" y="32">
     
</text>
<path stroke="red" d="M436 23l43 0"/>
<text stroke="none" fill="white" font-size="16" x="489" y="32">
vdb(s_1_1)
</text>
<path stroke="red" d="M90 144l13 0M103 145l0 -1M103 145l11 0M114 146l0 -1M114 146l6 0M120 147l0 -1M120 147l4 0 1 1 3 0M128 149l0 -1M128 149l3 0M131 150l0 -1M131 150l2 0M133 151l0 -1M133 151l2 0M135 152l0 -1M135 152l2 0M137 153l0 -1M137 153l2 0"/>
<path stroke="red" d="M139 154l0 -1M139 154l2 0M141 155l0 -1M141 155l1 0M142 156l0 -1M142 156l2 0M144 157l0 -1M144 157l1 0M145 158l0 -1M145 158l1 0M146 159l0 -1M146 159l2 0M148 160l0 -1M148 160l1 0M149 161l0 -1M149 161l1 0M150 162l0 -1M150 162l1 0"/>
<path stroke="red" d="M151 163l0 -1M151 163l1 0M152 164l0 -1M152 164l1 0M153 165l0 -1M153 165l1 0M154 166l0 -1M154 166l1 0M155 167l0 -1M155 167l1 0M156 169l0 -2M156 169l1 0M157 170l0 -1M157 170l1 0M158 172l0 -2M158 172l1 0M159 173l0 -1M159 173l1 0"/>
<path stroke="red" d="M160 175l0 -2M160 175l1 0M161 177l0 -2M161 177l1 0M162 179l0 -2M162 179l1 1M163 182l0 -2M163 182l1 0M164 185l0 -3M164 185l1 0M165 188l0 -3M165 188l1 0M166 191l0 -3M166 191l1 1M167 196l0 -4M167 196l1 0M168 201l0 -5M168 201l1 0"/>
<path stroke="red" d="M169 206l0 -5M169 206l1 1M170 213l0 -6M170 213l1 1M171 221l0 -7M171 221l1 1M172 232l0 -10M172 232l1 1M173 244l0 -11M173 244l1 1M174 261l0 -16M174 261l1 1M175 286l0 -24M175 286l1 2M176 323l0 -35M176 323l1 5M177 392l0 -64"/>
<path stroke="red" d="M177 392l1 5M178 401l0 -58 1 -5 0 -43 1 -3 0 -26 1 -2 0 -20 1 -2 0 -13 1 -1 0 -11 1 -1 0 -10 1 0 0 -8 1 0 0 -6 1 -1 0 -5 1 -1 0 -4 1 0 0 -4 1 0 0 -4 1 0 0 -3 1 0 0 -2 1 0 0 -2 1 -1 0 -1 1 -1 0 -1 1 0 0 -2 1 0 0 -1 1 0 0 -1"/>
<path stroke="red" d="M198 158l1 0 0 -1 1 0 0 -1 2 0 0 -1 1 0 0 -1 3 0 0 -1 11 0M217 154l0 -1M217 154l3 0M220 155l0 -1M220 155l3 0 0 -1 2 0 0 -1 1 0 0 -1 1 0 0 -1 1 0 0 -1 1 0 0 -1 1 -1 1 0 0 -1 1 0 0 -1 2 0 1 -1 5 0 0 -1 663 0"/>
<path stroke="blue" d="M85 23l43 0"/>
<text stroke="none" fill="white" font-size="16" x="138" y="32">
vdb(s_2_1)
</text>
<path stroke="blue" d="M90 376l1 -1 0 -10 1 -1 0 -10 1 -1 0 -7 1 -1 0 -7 1 -1 0 -7 1 0 0 -6 1 -1 0 -5 1 0 0 -6 1 0 0 -5 1 0 0 -5 1 0 0 -4 1 -1 0 -4 1 0 0 -4 1 0 0 -4 1 0 0 -4 1 0 0 -3 1 -1 0 -3 1 0 0 -3 1 -1 0 -3 1 0 0 -3 1 0 0 -3 1 0 0 -3 1 0"/>
<path stroke="blue" d="M113 258l0 -3 1 0 0 -3 1 0 0 -3 1 0 0 -2 1 -1 0 -2 1 -1 0 -2 1 0 0 -3 1 0 0 -2 1 -1 0 -2 1 0 0 -2 1 -1 0 -2 1 0 0 -2 1 -1 0 -2 1 0 0 -2 1 0 0 -3 1 0 0 -2 1 0 0 -2 1 0 0 -3 1 0 0 -2 1 0 0 -2 1 0 0 -2 1 0 0 -2 1 0 0 -2 1 0"/>
<path stroke="blue" d="M136 201l0 -2 1 0 0 -2 1 0 0 -2 1 0 0 -2 1 0 0 -2 1 0 0 -2 1 0 0 -1 1 0 0 -2 1 0 0 -2 1 0 0 -1 1 0 0 -2 1 0 0 -1 1 0 0 -2 1 0 0 -1 1 0 0 -2 1 0 0 -1 1 0 0 -1 1 0 0 -2 1 0 0 -1 1 0 0 -1 1 0 0 -2 1 0 0 -1 1 0 0 -1 1 0 0 -1"/>
<path stroke="blue" d="M159 164l1 -1 0 -1 1 0 0 -1 1 0 0 -1 1 -1 0 -1 1 0 0 -1 1 0 0 -1 1 -1 0 -1 1 0 0 -1 1 0 0 -1 1 -1 0 -1 1 0 0 -1 1 0 0 -1 1 0 0 -1 1 0 0 -1 1 0 0 -1 2 0 0 -1 4 0M180 145l0 -1M180 145l1 0M181 146l0 -1M181 146l1 0M182 147l0 -1"/>
<path stroke="blue" d="M182 147l1 0M183 149l0 -2M183 149l1 0M184 150l0 -1M184 150l1 0M185 152l0 -2M185 152l1 0M186 154l0 -2M186 154l1 0M187 156l0 -2M187 156l1 1M188 159l0 -2M188 159l1 0M189 161l0 -2M189 161l1 0M190 163l0 -2M190 163l1 1M191 166l0 -2"/>
<path stroke="blue" d="M191 166l1 0M192 168l0 -2M192 168l1 1M193 171l0 -2M193 171l1 0M194 173l0 -2M194 173l1 1M195 176l0 -2M195 176l1 0M196 178l0 -2M196 178l1 0M197 180l0 -2M197 180l1 0M198 182l0 -2M198 182l1 0M199 184l0 -2M199 184l1 0M200 186l0 -2"/>
<path stroke="blue" d="M200 186l1 0M201 188l0 -2M201 188l1 0M202 189l0 -1M202 189l1 0M203 191l0 -2M203 191l1 0M204 192l0 -1M204 192l1 0M205 193l0 -1M205 193l1 0M206 194l0 -1M206 194l1 0M207 195l0 -1M207 195l1 0M208 196l0 -1M208 196l6 0 1 -1 1 0"/>
<path stroke="blue" d="M216 195l0 -1 1 0 0 -1 1 0 0 -1 1 0 0 -1 1 0 1 -1 2 0M223 191l0 -1M223 191l1 0M224 193l0 -2M224 193l1 0M225 195l0 -2M225 195l1 0M226 199l0 -4M226 199l1 1M227 204l0 -4M227 204l1 1M228 210l0 -5M228 210l1 0M229 217l0 -7M229 217l1 0"/>
<path stroke="blue" d="M230 224l0 -7M230 224l1 0M231 231l0 -7M231 231l1 1M232 239l0 -7M232 239l1 1M233 246l0 -6M233 246l1 1M234 254l0 -7M234 254l1 0M235 262l0 -8M235 262l1 0M236 269l0 -7M236 269l1 0M237 276l0 -7M237 276l1 0M238 283l0 -7M238 283l1 0"/>
<path stroke="blue" d="M239 290l0 -7M239 290l1 0M240 296l0 -6M240 296l1 1M241 303l0 -6M241 303l1 0M242 309l0 -6M242 309l1 1M243 315l0 -5M243 315l1 1M244 321l0 -5M244 321l1 1M245 328l0 -6M245 328l1 0M246 333l0 -5M246 333l1 1M247 339l0 -5M247 339l1 0"/>
<path stroke="blue" d="M248 345l0 -6M248 345l1 0M249 350l0 -5M249 350l1 0M250 355l0 -5M250 355l1 1M251 361l0 -5M251 361l1 0M252 366l0 -5M252 366l1 0M253 371l0 -5M253 371l1 0M254 375l0 -4M254 375l1 1M255 381l0 -5M255 381l1 0M256 385l0 -4M256 385l1 1"/>
<path stroke="blue" d="M257 390l0 -4M257 390l1 0M258 395l0 -5M258 395l1 0M259 399l0 -4M259 399l1 1M260 404l0 -4M260 404l1 0M261 409l0 -5M261 409l1 0M262 413l0 -4M262 413l1 0M263 417l0 -4M263 417l1 1M264 422l0 -4M264 422l1 0M265 426l0 -4M265 426l1 0"/>
<path stroke="blue" d="M266 430l0 -4M266 430l1 1M267 435l0 -4M267 435l1 0M268 439l0 -4M268 439l1 0M269 443l0 -4M269 443l1 0M270 447l0 -4M270 447l1 0M271 451l0 -4M271 451l1 0M272 455l0 -4M272 455l1 0M273 459l0 -4M273 459l1 0M274 463l0 -4M274 463l1 0"/>
<path stroke="blue" d="M275 467l0 -4M275 467l1 0M276 471l0 -4M276 471l1 0M277 475l0 -4M277 475l1 0M278 478l0 -3M278 478l1 1M279 482l0 -3M279 482l1 0M280 486l0 -4M280 486l1 0M281 490l0 -4M281 490l1 0M282 493l0 -3M282 493l1 1M283 497l0 -3M283 497l1 1"/>
<path stroke="blue" d="M284 501l0 -3M284 501l1 0M285 505l0 -4M285 505l1 0M286 508l0 -3M286 508l1 1M287 512l0 -3M287 512l1 0M288 515l0 -3M288 515l1 1M289 519l0 -3M289 519l1 0M290 523l0 -4M290 523l1 0M291 526l0 -3M291 526l1 1M292 530l0 -3M292 530l1 0"/>
<path stroke="blue" d="M293 533l0 -3M293 533l1 1M294 537l0 -3M294 537l1 0M295 540l0 -3M295 540l1 1M296 544l0 -3M296 544l1 0M297 548l0 -4M297 548l1 0M298 551l0 -3M298 551l1 0M299 555l0 -4M299 555l1 0M300 558l0 -3M300 558l1 0M301 562l0 -4M301 562l1 0"/>
<path stroke="blue" d="M302 565l0 -3M302 565l1 0M303 569l0 -4M303 569l1 0M304 572l0 -3M304 572l1 0M305 575l0 -3M305 575l1 1M306 579l0 -3M306 579l1 0M307 583l0 -4M307 583l1 0M308 586l0 -3M308 586l1 0M309 590l0 -4M309 590l1 0M310 593l0 -3M310 593l1 0"/>
<path stroke="blue" d="M311 596l0 -3M311 596l1 1M312 600l0 -3M312 600l1 0M313 604l0 -4M313 604l1 0M314 607l0 -3M314 607l1 0M315 611l0 -4M315 611l1 0M316 614l0 -3M316 614l1 1M317 618l0 -3M317 618l1 0M318 622l0 -4M318 622l1 0M319 625l0 -3M319 625l1 0"/>
<path stroke="blue" d="M320 629l0 -4M320 629l1 0M321 632l0 -3M321 632l1 1M322 636l0 -3M322 636l1 0M323 640l0 -4M323 640l1 0M324 643l0 -3M324 643l1 1M325 647l0 -3M325 647l1 1M326 651l0 -3M326 651l1 0M327 655l0 -4M327 655l1 0M328 659l0 -4M328 659l1 0"/>
<path stroke="blue" d="M329 663l0 -4M329 663l1 0M330 666l0 -3M330 666l1 1M331 671l0 -4M331 671l1 0M332 675l0 -4M332 675l1 0M333 679l0 -4M333 679l1 0M334 683l0 -4M334 683l1 0M335 687l0 -4M335 687l1 0M336 691l0 -4M336 691l1 1M337 695l0 -3M337 695l1 1"/>
<path stroke="blue" d="M338 700l0 -4M338 700l1 0M339 704l0 -4"/>
<path stroke="#FFA500" d="M436 39l43 0"/>
<text stroke="none" fill="white" font-size="16" x="489" y="48">
vswr
</text>
<path stroke="#FFA500" d="M146 67l0 -3M146 67l1 1M147 71l0 -3M147 71l1 1M148 75l0 -3M148 75l1 0M149 79l0 -4M149 79l1 0M150 82l0 -3M150 82l1 0M151 85l0 -3M151 85l1 0M152 88l0 -3M152 88l1 0M153 91l0 -3M153 91l1 0M154 93l0 -2M154 93l1 1M155 96l0 -2"/>
<path stroke="#FFA500" d="M155 96l1 0M156 99l0 -3M156 99l1 0M157 101l0 -2M157 101l1 0M158 103l0 -2M158 103l1 0M159 105l0 -2M159 105l1 1M160 108l0 -2M160 108l1 0M161 110l0 -2M161 110l1 0M162 112l0 -2M162 112l1 0M163 114l0 -2M163 114l1 0M164 116l0 -2"/>
<path stroke="#FFA500" d="M164 116l1 0M165 118l0 -2M165 118l1 0M166 120l0 -2M166 120l1 0M167 121l0 -1M167 121l1 1M168 123l0 -1M168 123l1 0M169 125l0 -2M169 125l1 0M170 127l0 -2M170 127l1 0M171 128l0 -1M171 128l1 0M172 130l0 -2M172 130l1 0M173 131l0 -1"/>
<path stroke="#FFA500" d="M173 131l1 0M174 132l0 -1M174 132l1 0M175 134l0 -2M175 134l1 0M176 135l0 -1M176 135l1 0M177 136l0 -1M177 136l1 0 0 -1 1 0 0 -1 1 0 0 -1 1 0 0 -2 1 0 0 -2 1 0 0 -2 1 0 0 -2 1 0 0 -3 1 0 0 -2 1 0 0 -4 1 0 0 -3 1 0 0 -3"/>
<path stroke="#FFA500" d="M189 110l1 -1 0 -3 1 -1 0 -4 1 0 0 -4 1 -1 0 -4 1 0 0 -5 1 -1 0 -4 1 -1 0 -5 1 0 0 -6 1 0 0 -5 1 0 0 -1"/>
</svg>
